<svg width="184" height="184" viewBox="0 0 184 184" fill="none" xmlns="http://www.w3.org/2000/svg">
<g clip-path="url(#clip0)">
<path fill-rule="evenodd" clip-rule="evenodd" d="M38.7251 39.6112C38.7379 39.6839 38.3991 39.8035 37.9628 39.8804C37.5265 39.9573 37.1877 40.0769 37.2005 40.1497C37.2132 40.2217 37.1058 40.3013 36.9618 40.3267C36.8178 40.352 36.7104 40.4317 36.7231 40.5037C36.7357 40.5757 36.6552 40.6506 36.5439 40.6702C36.282 40.7163 35.8017 41.402 35.8478 41.6638C35.8674 41.7751 35.8246 41.8764 35.7526 41.8891C35.6806 41.9018 35.6402 42.017 35.6627 42.145C35.6853 42.2731 35.6009 42.4835 35.4752 42.6127C35.2853 42.8078 35.2731 42.9976 35.403 43.7347C35.4919 44.2389 35.5028 44.6318 35.4285 44.6449C35.3565 44.6576 35.3183 44.7858 35.3437 44.9297C35.369 45.0737 35.3309 45.2018 35.2589 45.2145C35.1804 45.2284 35.2203 45.7611 35.3586 46.5463C35.497 47.3315 35.6416 47.8458 35.7201 47.8319C35.7921 47.8193 35.8718 47.9267 35.8972 48.0706C35.9225 48.2146 36.0022 48.322 36.0742 48.3093C36.1462 48.2966 36.2258 48.404 36.2512 48.548C36.2766 48.6919 36.3562 48.7993 36.4282 48.7867C36.5002 48.774 36.5776 48.8684 36.6001 48.9964C36.6227 49.1245 36.7739 49.2934 36.9362 49.3718C37.0985 49.4502 37.2497 49.6191 37.2722 49.7472C37.2948 49.8752 37.3722 49.9697 37.4442 49.957C37.5162 49.9443 37.6015 50.0838 37.6337 50.267C37.6985 50.6343 38.3325 51.1498 38.6506 51.0937C38.7618 51.0741 38.8632 51.117 38.8759 51.189C38.8886 51.261 39.0708 51.2896 39.2807 51.2526C39.4907 51.2156 39.7098 51.2529 39.7677 51.3354C39.8517 51.4555 39.8824 51.4501 39.9203 51.3085C39.9489 51.2021 40.2246 51.0862 40.6114 51.0181C40.9655 50.9557 41.2446 50.8458 41.2319 50.7738C41.2192 50.7018 41.3726 50.6141 41.5726 50.5788C41.7862 50.5412 41.9952 50.3929 42.079 50.2197C42.1574 50.0575 42.3263 49.9063 42.4545 49.8837C42.5825 49.8611 42.677 49.7838 42.6643 49.7118C42.6516 49.6398 42.759 49.5602 42.903 49.5348C43.0775 49.504 43.1494 49.4014 43.1187 49.2269C43.0933 49.083 43.1314 48.9548 43.2034 48.9421C43.2754 48.9294 43.3136 48.8013 43.2882 48.6573C43.2616 48.5065 43.3294 48.3802 43.4477 48.3593C43.7122 48.3127 43.9719 47.942 43.9253 47.6775C43.9054 47.5645 43.948 47.4616 44.02 47.4489C44.0919 47.4362 44.1301 47.308 44.1047 47.1641C44.0794 47.0201 44.1175 46.892 44.1895 46.8793C44.2615 46.8666 44.2901 46.6845 44.2531 46.4745C44.2161 46.2645 44.2535 46.0454 44.336 45.9876C44.4562 45.9035 44.4508 45.8729 44.3091 45.835C44.2118 45.8088 44.0923 45.5616 44.0436 45.2858C43.995 45.0099 43.8756 44.7627 43.7782 44.7365C43.6365 44.6986 43.6311 44.668 43.7513 44.5839C43.9331 44.4565 43.6939 42.9186 43.4977 42.9531C43.4257 42.9658 43.3356 42.7995 43.2976 42.5836C43.2595 42.3677 43.1695 42.2014 43.0975 42.214C43.0255 42.2267 42.9481 42.1323 42.9256 42.0043C42.903 41.8762 42.7518 41.7073 42.5895 41.6289C42.4272 41.5505 42.2802 41.4052 42.2627 41.306C42.2452 41.2069 42.0251 40.9917 41.7736 40.8281C41.5221 40.6645 41.2997 40.4364 41.2795 40.3213C41.2592 40.2062 41.1837 40.1225 41.1117 40.1351C41.0397 40.1478 40.9645 40.0657 40.9446 39.9526C40.898 39.6881 40.5272 39.4285 40.2627 39.4751C40.1496 39.4951 40.0467 39.4525 40.034 39.3805C40.0213 39.3085 39.7164 39.3015 39.3565 39.365C38.9965 39.4284 38.7124 39.5392 38.7251 39.6112ZM22.2369 47.711C22.0818 47.9653 22.3031 49.3866 22.4925 49.3532C22.5645 49.3405 22.6523 49.4939 22.6875 49.6939C22.7252 49.9074 22.8734 50.1164 23.0466 50.2001C23.2089 50.2785 23.3554 50.4207 23.3722 50.516C23.4143 50.7548 24.1135 51.2265 24.3609 51.183C24.4722 51.1633 24.5735 51.2062 24.5862 51.2782C24.5989 51.3502 24.727 51.3883 24.871 51.3629C25.0833 51.3255 25.1482 51.4041 25.2141 51.7782C25.2797 52.1503 25.202 52.3733 24.813 52.9284C24.5478 53.3072 24.2698 53.6278 24.1955 53.6409C23.998 53.6757 19.8509 59.6358 19.8859 59.8346C19.9022 59.9271 19.8127 60.1084 19.687 60.2376C19.5613 60.3667 19.4747 60.5642 19.4944 60.6763C19.5142 60.7885 19.4275 60.9859 19.3018 61.1151C19.1761 61.2442 19.0917 61.4546 19.1143 61.5827C19.1369 61.7107 19.0964 61.8259 19.0245 61.8386C18.9525 61.8513 18.912 61.9665 18.9346 62.0945C18.9572 62.2226 18.8728 62.433 18.7471 62.5622C18.6214 62.6913 18.537 62.9017 18.5596 63.0298C18.5821 63.1578 18.5417 63.273 18.4697 63.2857C18.3977 63.2984 18.3596 63.4266 18.3849 63.5705C18.4103 63.7145 18.3722 63.8426 18.3002 63.8553C18.2282 63.868 18.19 63.9962 18.2154 64.1401C18.2408 64.2841 18.2026 64.4123 18.1306 64.4249C18.0586 64.4376 18.0205 64.5658 18.0459 64.7097C18.0712 64.8537 18.0331 64.9819 17.9611 64.9946C17.8891 65.0072 17.8591 65.1813 17.8943 65.3813C17.9319 65.5949 17.864 65.8419 17.7299 65.9798C17.5957 66.1178 17.5278 66.3648 17.5654 66.5784C17.6006 66.7784 17.5706 66.9525 17.4986 66.9651C17.4266 66.9778 17.3988 67.1649 17.4369 67.3808C17.4749 67.5968 17.4472 67.7838 17.3752 67.7965C17.3032 67.8092 17.2754 67.9962 17.3135 68.2122C17.3515 68.4281 17.3238 68.6152 17.2518 68.6278C17.1798 68.6405 17.152 68.8276 17.1901 69.0435C17.2281 69.2595 17.2003 69.4465 17.1284 69.4592C17.0564 69.4719 17.0182 69.6001 17.0436 69.744C17.0689 69.888 17.0308 70.0161 16.9588 70.0288C16.886 70.0416 16.8894 70.4009 16.9663 70.8371C17.0432 71.2733 17.0465 71.6326 16.9738 71.6454C16.8906 71.66 17.0197 72.6719 17.3272 74.4168C17.6346 76.1617 17.8592 77.1566 17.9423 77.142C18.0217 77.128 18.1732 77.686 18.3269 78.5585C18.4807 79.431 18.6321 79.989 18.7115 79.975C18.7835 79.9623 18.8839 80.1875 18.9346 80.4754C18.9853 80.7634 19.0858 80.9885 19.1577 80.9759C19.2297 80.9632 19.3198 81.1295 19.3578 81.3454C19.3959 81.5613 19.4859 81.7276 19.5579 81.715C19.6299 81.7023 19.7151 81.8411 19.7472 82.0234C19.7831 82.2273 20.0113 82.4989 20.3394 82.7286C20.7749 83.0338 20.9718 83.085 21.4103 83.0077C22.133 82.8804 22.2824 82.6248 22.1323 81.773C22.0354 81.2229 21.9456 81.0421 21.7139 80.9302C21.5084 80.831 21.3924 80.6375 21.3317 80.2931C21.2838 80.0211 21.1856 79.8089 21.1137 79.8216C21.0415 79.8343 20.923 79.5053 20.8495 79.0884C20.7427 78.4822 20.7616 78.2853 20.9448 78.0972C21.0704 77.9681 21.1548 77.7577 21.1323 77.6295C21.1097 77.5015 21.1501 77.3863 21.2221 77.3737C21.464 77.331 21.2338 76.6274 20.9298 76.4806C20.7566 76.3969 20.6083 76.1879 20.5707 75.9743C20.5354 75.7744 20.4477 75.621 20.3757 75.6337C20.3037 75.6464 20.1929 75.3623 20.1295 75.0024C20.0661 74.6425 20.0731 74.3377 20.1451 74.325C20.2171 74.3123 20.2389 74.0916 20.1936 73.8346C20.1127 73.3751 20.2803 72.9518 20.563 72.902C20.8502 72.8514 21.6726 71.5053 21.6152 71.1797C21.5842 71.0038 21.6265 70.8126 21.709 70.7547C21.8291 70.6707 21.8237 70.64 21.6821 70.6021C21.4729 70.5459 21.2646 69.54 21.4553 69.5064C21.528 69.4935 21.5247 69.1343 21.4478 68.6981C21.3709 68.2619 21.3675 67.9026 21.4403 67.8898C21.5123 67.8771 21.5505 67.7489 21.5251 67.605C21.4997 67.461 21.5379 67.3328 21.6099 67.3202C21.6819 67.3075 21.72 67.1793 21.6946 67.0353C21.6693 66.8914 21.7074 66.7632 21.7794 66.7505C21.8514 66.7379 21.8895 66.6097 21.8642 66.4657C21.8388 66.3218 21.877 66.1936 21.9489 66.1809C22.0209 66.1682 22.0591 66.0401 22.0337 65.8961C22.0083 65.7522 22.0465 65.624 22.1185 65.6113C22.1905 65.5986 22.2205 65.4245 22.1853 65.2246C22.1476 65.011 22.2156 64.7639 22.3497 64.626C22.4754 64.4969 22.5621 64.2994 22.5423 64.1873C22.5226 64.0751 22.6092 63.8777 22.7349 63.7485C22.861 63.619 22.937 63.3636 22.9045 63.1789C22.8719 62.9943 22.948 62.7388 23.074 62.6093C23.1997 62.4802 23.2841 62.2698 23.2615 62.1416C23.239 62.0136 23.2794 61.8984 23.3514 61.8858C23.4234 61.8731 23.4615 61.7449 23.4361 61.6009C23.4108 61.457 23.4489 61.3288 23.5209 61.3161C23.5929 61.3035 23.6333 61.1882 23.6108 61.0603C23.5882 60.9321 23.6726 60.7217 23.7983 60.5926C23.924 60.4634 24.0107 60.266 23.9909 60.1538C23.9711 60.0417 24.0578 59.8443 24.1835 59.7151C24.3092 59.5859 24.3959 59.3885 24.3761 59.2764C24.3563 59.1642 24.443 58.9668 24.5687 58.8376C24.6944 58.7085 24.7788 58.4981 24.7562 58.37C24.7336 58.242 24.7741 58.1268 24.8461 58.1141C24.9181 58.1014 24.9612 58.0016 24.9419 57.8922C24.8963 57.6335 26.2447 55.7087 26.5034 55.6631C26.6129 55.6438 26.6919 55.5691 26.6792 55.4972C26.6665 55.4252 26.7739 55.3455 26.9179 55.3202C27.0619 55.2948 27.1693 55.2151 27.1566 55.1431C27.1216 54.9445 27.7767 54.8726 28.0266 55.0477C28.1785 55.154 28.3006 55.5083 28.4212 56.1926C28.5223 56.766 28.6509 57.1737 28.7267 57.1604C28.7987 57.1477 28.8887 57.314 28.9268 57.5299C28.9648 57.7459 29.0549 57.9122 29.1269 57.8995C29.1989 57.8868 29.2737 57.9667 29.2931 58.077C29.3585 58.4479 30.3602 59.0315 30.7989 58.9542C31.2281 58.8786 31.7578 58.2784 31.6975 57.9362C31.679 57.8309 31.7314 57.6974 31.8139 57.6396C31.9341 57.5555 31.9287 57.5249 31.787 57.487C31.6897 57.4608 31.5797 57.2677 31.5427 57.0578C31.5057 56.8478 31.4165 56.6864 31.3446 56.6991C31.2726 56.7118 31.1929 56.6044 31.1675 56.4604C31.1422 56.3164 31.0625 56.209 30.9905 56.2217C30.9185 56.2344 30.8389 56.127 30.8135 55.983C30.7881 55.8391 30.7085 55.7317 30.6365 55.7444C30.5645 55.757 30.4745 55.5908 30.4364 55.3748C30.3984 55.1589 30.4261 54.9718 30.4981 54.9591C30.5701 54.9465 30.5979 54.7594 30.5598 54.5435C30.5218 54.3275 30.5496 54.1405 30.6215 54.1278C30.6935 54.1151 30.7213 53.928 30.6833 53.7121C30.6452 53.4962 30.673 53.3091 30.745 53.2964C30.817 53.2837 30.8551 53.1556 30.8297 53.0116C30.799 52.8372 30.8709 52.7345 31.0454 52.7037C31.1942 52.6775 31.2918 52.5703 31.2715 52.4554C31.2308 52.2243 31.6932 51.5101 31.908 51.4723C32.1766 51.4249 32.5803 50.6918 32.5215 50.3582C32.4892 50.175 32.5217 50.0148 32.5937 50.0021C32.6657 49.9894 32.7038 49.8612 32.6784 49.7173C32.6531 49.5733 32.6912 49.4452 32.7632 49.4325C32.8414 49.4187 32.8054 48.9058 32.674 48.1602C32.471 47.0083 32.4244 46.8904 32.0759 46.6464C31.7517 46.4192 31.5765 46.4032 30.8413 46.5327C30.3574 46.618 29.9946 46.7406 30.0076 46.8145C30.0203 46.8865 29.854 46.9766 29.638 47.0146C29.422 47.0527 29.2557 47.1427 29.2684 47.2147C29.2811 47.2867 29.1737 47.3663 29.0297 47.3917C28.8857 47.4171 28.7783 47.4967 28.791 47.5687C28.8036 47.6407 28.5195 47.7514 28.1596 47.8149C27.7996 47.8783 27.4947 47.8713 27.482 47.7993C27.4694 47.7274 27.2234 47.71 26.9354 47.7607C26.6474 47.8115 26.4015 47.7941 26.3888 47.7221C26.3756 47.6474 25.973 47.6604 25.4495 47.7527C24.9259 47.845 24.5233 47.858 24.5102 47.7833C24.4975 47.7113 24.3693 47.6732 24.2253 47.6985C24.0813 47.7239 23.9531 47.6858 23.9405 47.6138C23.9278 47.5418 23.7407 47.5141 23.5247 47.5521C23.3088 47.5902 23.1217 47.5624 23.109 47.4904C23.0741 47.2923 22.3861 47.4663 22.2369 47.711ZM46.515 45.5249C46.3723 45.7683 46.1528 45.9874 46.0272 46.0116C45.8291 46.0501 45.8233 46.1945 45.9833 47.1029C46.091 47.7137 46.2224 48.1403 46.2987 48.1268C46.3707 48.1141 46.4455 48.194 46.465 48.3044C46.5081 48.5494 47.5009 49.2643 47.7396 49.2223C47.8341 49.2056 48.017 49.2948 48.1462 49.4205C48.2753 49.5462 48.4592 49.6352 48.5547 49.6184C48.6503 49.6015 49.2077 49.9283 49.7935 50.3446C50.3793 50.7609 50.9215 51.0904 50.9982 51.0769C51.2148 51.0387 53.1292 52.4249 53.1685 52.6484C53.1878 52.7578 53.2625 52.8368 53.3345 52.8241C53.4065 52.8115 53.4861 52.9189 53.5115 53.0628C53.5368 53.2068 53.6165 53.3142 53.6885 53.3015C53.7605 53.2888 53.8401 53.3962 53.8655 53.5402C53.8909 53.6841 53.9705 53.7915 54.0425 53.7789C54.1145 53.7662 54.1919 53.8606 54.2144 53.9886C54.237 54.1167 54.3882 54.2856 54.5505 54.364C54.7128 54.4424 54.8617 54.5983 54.8815 54.7105C54.9012 54.8227 55.0502 54.9786 55.2124 55.057C55.3747 55.1354 55.5236 55.2913 55.5434 55.4035C55.5632 55.5156 55.7121 55.6715 55.8744 55.7499C56.0366 55.8284 56.1879 55.9972 56.2104 56.1254C56.233 56.2533 56.3104 56.3478 56.3824 56.3351C56.4544 56.3224 56.534 56.4298 56.5594 56.5738C56.5847 56.7177 56.6644 56.8251 56.7364 56.8125C56.8084 56.7998 56.8984 56.9661 56.9365 57.182C56.9745 57.3979 57.0646 57.5642 57.1365 57.5516C57.2085 57.5389 57.2882 57.6463 57.3136 57.7902C57.3389 57.9342 57.4186 58.0416 57.4906 58.0289C57.5626 58.0162 57.6526 58.1825 57.6906 58.3985C57.7287 58.6144 57.8187 58.7807 57.8907 58.768C57.9627 58.7553 58.0528 58.9216 58.0908 59.1376C58.1289 59.3535 58.2189 59.5198 58.2909 59.5071C58.3629 59.4944 58.4425 59.6018 58.4679 59.7458C58.4933 59.8897 58.5729 59.9971 58.6449 59.9845C58.7169 59.9718 58.8173 60.197 58.868 60.4849C58.9188 60.7728 59.0192 60.998 59.0912 60.9853C59.1632 60.9726 59.2636 61.1978 59.3143 61.4857C59.3651 61.7736 59.4655 61.9988 59.5375 61.9861C59.6102 61.9733 59.7299 62.3121 59.8067 62.7483C59.8836 63.1845 60.0032 63.5233 60.076 63.5105C60.148 63.4978 60.2588 63.7819 60.3222 64.1417C60.3856 64.5016 60.4964 64.7857 60.5684 64.773C60.6469 64.7592 60.7915 65.2735 60.9299 66.0587C61.0682 66.8439 61.2129 67.3582 61.2914 67.3443C61.3634 67.3316 61.443 67.439 61.4684 67.583C61.4938 67.727 61.4556 67.8551 61.3836 67.8678C61.3116 67.8805 61.2839 68.0676 61.3219 68.2835C61.36 68.4994 61.3322 68.6865 61.2602 68.6992C61.1882 68.7119 61.1501 68.84 61.1754 68.984C61.2008 69.1279 61.1627 69.2561 61.0907 69.2688C61.0187 69.2815 60.9435 69.1993 60.9236 69.0862C60.8223 68.5116 59.6977 68.4634 59.4277 69.0221C59.3493 69.1843 59.1804 69.3355 59.0522 69.3581C58.9242 69.3807 58.8298 69.458 58.8424 69.53C58.8551 69.602 58.7477 69.6816 58.6037 69.707C58.4597 69.7324 58.3523 69.812 58.365 69.884C58.3777 69.956 58.2366 70.0416 58.0515 70.0742C57.6727 70.1409 57.3886 70.4701 57.4431 70.779C57.463 70.8921 57.4204 70.995 57.3484 71.0077C57.2764 71.0204 57.2541 71.2383 57.2988 71.4921C57.3726 71.9111 57.5778 72.0914 59.5343 73.4561C60.7191 74.2826 61.7043 75.0487 61.7236 75.1585C61.743 75.2683 61.8177 75.3477 61.8897 75.335C61.966 75.3215 62.0975 75.7481 62.2051 76.3589C62.3127 76.9697 62.4442 77.3962 62.5205 77.3828C62.5925 77.3701 62.6721 77.4775 62.6975 77.6215C62.7359 77.8396 62.8309 77.8678 63.2672 77.7909C63.5551 77.7402 63.8011 77.7576 63.8138 77.8296C63.8265 77.9015 64.1654 77.9025 64.567 77.8318C65.2478 77.7118 65.325 77.6616 65.708 77.091C65.934 76.7543 66.2117 76.4625 66.3255 76.4424C66.4391 76.4224 66.5135 76.3012 66.491 76.1732C66.4684 76.0451 66.5528 75.8347 66.6785 75.7055C66.8042 75.5764 66.8932 75.3922 66.8763 75.2961C66.8593 75.2001 67.1378 74.7123 67.495 74.2123C67.8523 73.7123 68.1307 73.2246 68.1138 73.1285C68.0968 73.0325 68.1858 72.8482 68.3115 72.7191C68.4372 72.5899 68.5239 72.3925 68.5041 72.2803C68.4844 72.1682 68.5711 71.9707 68.6967 71.8416C68.8916 71.6414 68.8988 71.4566 68.7459 70.5887C68.6417 69.9973 68.6213 69.561 68.6974 69.5476C68.8982 69.5122 68.6923 68.6099 68.4436 68.4358C68.3064 68.3397 67.9534 68.3293 67.5054 68.4083C67.0586 68.487 66.7472 68.4781 66.6818 68.3848C66.5977 68.2646 66.5671 68.27 66.5291 68.4117C66.503 68.5091 66.3954 68.6039 66.2902 68.6224C66.0657 68.662 65.5578 69.3457 65.5952 69.558C65.6321 69.7674 65.3471 70.138 65.1181 70.1783C65.0109 70.1972 64.9119 70.2899 64.8978 70.3846C64.8792 70.5097 64.8022 70.5075 64.6153 70.3766C64.3947 70.2221 64.3007 69.8705 63.9529 67.8969C63.6982 66.4512 63.4992 65.6059 63.4168 65.6204C63.2268 65.6539 63.1239 64.8994 63.3016 64.7749C63.4217 64.6908 63.4163 64.6602 63.2747 64.6223C63.1683 64.5937 63.0524 64.318 62.9842 63.9313C62.9219 63.5774 62.8119 63.2982 62.7399 63.3109C62.668 63.3236 62.5572 63.0395 62.4937 62.6796C62.4303 62.3197 62.3195 62.0356 62.2475 62.0483C62.1756 62.061 62.0751 61.8358 62.0244 61.5479C61.9737 61.26 61.8733 61.0348 61.8013 61.0475C61.7293 61.0602 61.6185 60.7761 61.5551 60.4162C61.4917 60.0563 61.3809 59.7722 61.3089 59.7849C61.2369 59.7976 61.1469 59.6313 61.1088 59.4154C61.0707 59.1994 60.9807 59.0331 60.9087 59.0458C60.8367 59.0585 60.7363 58.8333 60.6856 58.5454C60.6349 58.2575 60.5344 58.0323 60.4624 58.045C60.3905 58.0577 60.29 57.8325 60.2393 57.5445C60.1886 57.2566 60.0882 57.0314 60.0162 57.0441C59.9442 57.0568 59.8541 56.8905 59.8161 56.6746C59.778 56.4586 59.688 56.2923 59.616 56.305C59.544 56.3177 59.4644 56.2103 59.439 56.0664C59.4136 55.9224 59.334 55.815 59.262 55.8277C59.19 55.8404 59.1103 55.733 59.085 55.589C59.0596 55.445 58.98 55.3376 58.908 55.3503C58.836 55.363 58.7459 55.1967 58.7079 54.9808C58.6698 54.7648 58.5798 54.5985 58.5078 54.6112C58.4358 54.6239 58.3458 54.4576 58.3077 54.2417C58.2697 54.0257 58.1796 53.8594 58.1077 53.8721C58.0357 53.8848 57.956 53.7774 57.9306 53.6335C57.9053 53.4895 57.8256 53.3821 57.7536 53.3948C57.6816 53.4075 57.6043 53.313 57.5817 53.185C57.5591 53.0569 57.4079 52.888 57.2456 52.8096C57.0834 52.7312 56.9259 52.527 56.8958 52.3558C56.8646 52.1789 56.6438 51.9163 56.3836 51.7471C56.1321 51.5835 55.9097 51.3554 55.8895 51.2403C55.8692 51.1252 55.7937 51.0414 55.7217 51.0541C55.6497 51.0668 55.57 50.9594 55.5447 50.8155C55.5193 50.6715 55.4397 50.5641 55.3677 50.5768C55.2957 50.5895 55.2202 50.5057 55.1999 50.3906C55.1796 50.2755 54.9572 50.0474 54.7057 49.8838C54.4542 49.7202 54.236 49.5158 54.2208 49.4295C54.2056 49.3433 53.9874 49.1389 53.7359 48.9752C53.4844 48.8116 53.267 48.6119 53.2528 48.5314C53.2192 48.3409 51.2757 46.9799 51.0851 47.0135C51.0046 47.0277 50.7426 46.8917 50.5029 46.7113C50.2631 46.5309 49.9964 46.3958 49.9101 46.411C49.8238 46.4262 49.5571 46.291 49.3174 46.1106C49.0776 45.9302 48.7872 45.7992 48.6721 45.8195C48.5569 45.8398 48.4524 45.7975 48.4398 45.7255C48.4271 45.6535 48.3242 45.6109 48.2111 45.6309C47.9465 45.6775 47.5758 45.4179 47.5292 45.1534C47.465 44.7893 46.8045 45.0312 46.515 45.5249ZM61.5525 69.5922C61.5652 69.6642 61.5167 69.7335 61.4447 69.7461C61.3727 69.7588 61.3034 69.7103 61.2908 69.6383C61.2781 69.5664 61.3266 69.4971 61.3986 69.4844C61.4706 69.4717 61.5399 69.5202 61.5525 69.5922ZM25.0697 84.6568C25.0824 84.7288 24.929 84.8165 24.729 84.8518C24.5154 84.8894 24.3064 85.0377 24.2226 85.2109C24.1109 85.4421 23.9299 85.5323 23.3856 85.6282C22.7377 85.7424 22.6589 85.7968 22.2088 86.4393C21.9434 86.818 21.7399 87.2048 21.7565 87.2988C21.773 87.3928 21.6837 87.5753 21.558 87.7044C21.4323 87.8336 21.3479 88.044 21.3705 88.1721C21.3931 88.3001 21.3526 88.4153 21.2807 88.428C21.2021 88.4418 21.242 88.9745 21.3804 89.7598C21.5187 90.545 21.5586 91.0777 21.4801 91.0915C21.4073 91.1044 21.4107 91.4636 21.4876 91.8998C21.5644 92.336 21.6841 92.6748 21.7568 92.662C21.8288 92.6493 21.9189 92.8156 21.9569 93.0315C21.995 93.2475 22.085 93.4138 22.157 93.4011C22.229 93.3884 22.3045 93.4721 22.3248 93.5873C22.345 93.7023 22.5674 93.9304 22.8189 94.0941C23.0704 94.2577 23.2878 94.4574 23.302 94.5379C23.3162 94.6182 23.7768 94.9985 24.3256 95.3829C25.0251 95.8726 25.422 96.0642 25.653 96.0235C25.8345 95.9915 25.9931 96.0243 26.0058 96.0962C26.019 96.171 26.4216 96.1579 26.9451 96.0657C27.4687 95.9734 27.8515 95.8481 27.8383 95.7733C27.8256 95.7013 27.9056 95.6265 28.0159 95.6071C28.3277 95.5522 28.9709 94.5422 28.911 94.2018C28.8816 94.0353 28.9605 93.7935 29.0862 93.6644C29.2203 93.5264 29.2882 93.2794 29.2506 93.0658C29.2154 92.8658 29.2454 92.6917 29.3174 92.6791C29.3937 92.6656 29.3714 92.2198 29.2638 91.609C29.1562 90.9983 29.1339 90.5524 29.2102 90.539C29.283 90.5262 29.2796 90.1669 29.2027 89.7307C29.1259 89.2945 29.0063 88.9557 28.9335 88.9685C28.8615 88.9812 28.7818 88.8738 28.7565 88.7299C28.7311 88.5859 28.6514 88.4785 28.5795 88.4912C28.5075 88.5039 28.4278 88.3965 28.4024 88.2525C28.3771 88.1086 28.2974 88.0011 28.2254 88.0138C28.1534 88.0265 28.0634 87.8602 28.0253 87.6443C27.9873 87.4283 27.8973 87.2621 27.8253 87.2747C27.7533 87.2874 27.6655 87.1341 27.6303 86.9341C27.5927 86.7205 27.4444 86.5116 27.2712 86.4278C27.1089 86.3494 26.96 86.1935 26.9402 86.0814C26.9204 85.9692 26.7715 85.8133 26.6092 85.7349C26.447 85.6565 26.2901 85.4554 26.2606 85.2881C26.2311 85.1208 26.0369 84.8649 25.829 84.7193C25.4465 84.4514 25.0274 84.4169 25.0697 84.6568ZM66.1387 78.7692C66.1514 78.8412 65.8673 78.952 65.5073 79.0154C65.1473 79.0789 64.8632 79.1896 64.8759 79.2616C64.8886 79.3336 64.806 79.4089 64.6924 79.4289C64.5787 79.4489 64.3009 79.7408 64.075 80.0774C63.849 80.4141 63.5713 80.7059 63.4575 80.726C63.3152 80.751 63.2725 80.8846 63.3201 81.155C63.3582 81.3709 63.3304 81.558 63.2584 81.5707C63.1864 81.5833 63.1483 81.7115 63.1737 81.8555C63.199 81.9994 63.1609 82.1276 63.0889 82.1403C63.0126 82.1537 63.0349 82.5995 63.1425 83.2103C63.2501 83.8211 63.2724 84.2669 63.1961 84.2803C63.1233 84.2932 63.1267 84.6524 63.2036 85.0886C63.2804 85.5248 63.4001 85.8636 63.4728 85.8508C63.5448 85.8381 63.6411 86.0396 63.6867 86.2987C63.7492 86.6533 63.8828 86.8432 64.227 87.0672C64.4785 87.2309 64.696 87.4311 64.7103 87.5121C64.7464 87.7172 66.0758 88.6305 66.2846 88.5938C66.3786 88.5772 66.5611 88.6665 66.6903 88.7921C66.8194 88.9178 67.0299 89.0022 67.158 88.9796C67.286 88.957 67.4012 88.9975 67.4139 89.0694C67.4267 89.1422 67.7861 89.1388 68.2223 89.0619C68.6586 88.985 68.9974 88.8654 68.9846 88.7927C68.9719 88.7207 69.0794 88.641 69.2233 88.6156C69.3871 88.5868 69.4697 88.4822 69.4441 88.3367C69.4215 88.2086 69.5059 87.9982 69.6316 87.869C69.7573 87.7399 69.8458 87.553 69.8284 87.4538C69.8109 87.3548 69.9442 87.0773 70.1246 86.8376C70.3051 86.5979 70.4361 86.3075 70.4158 86.1925C70.3955 86.0773 70.4378 85.9728 70.5098 85.9601C70.5818 85.9474 70.6096 85.7604 70.5715 85.5444C70.5335 85.3285 70.5613 85.1415 70.6333 85.1288C70.7143 85.1145 70.6412 84.4078 70.4413 83.2735C70.2414 82.1392 70.0686 81.4501 69.9875 81.4644C69.9156 81.4771 69.8255 81.3108 69.7875 81.0948C69.7494 80.8789 69.6594 80.7126 69.5874 80.7253C69.5154 80.738 69.4254 80.5717 69.3873 80.3557C69.3493 80.1398 69.2592 79.9735 69.1872 79.9862C69.1152 79.9989 69.0299 79.8594 68.9977 79.6762C68.9329 79.3088 68.2989 78.7934 67.9808 78.8494C67.8696 78.869 67.7682 78.8262 67.7555 78.7542C67.7428 78.6822 67.5558 78.6545 67.3398 78.6925C67.1238 78.7306 66.9367 78.7028 66.9241 78.6308C66.9114 78.5589 66.7243 78.5311 66.5083 78.5692C66.2923 78.6072 66.126 78.6972 66.1387 78.7692ZM39.1262 92.4349C39.1389 92.5069 38.9137 92.6073 38.6257 92.658C38.3378 92.7088 38.1125 92.8092 38.1252 92.8812C38.1379 92.9531 38.0305 93.0328 37.8865 93.0582C37.7425 93.0835 37.6351 93.1632 37.6478 93.2352C37.6604 93.3071 37.4941 93.3972 37.2781 93.4352C37.0622 93.4733 36.8958 93.5633 36.9085 93.6353C36.923 93.7173 36.1122 93.9106 34.7354 94.1532C32.6892 94.5137 32.523 94.5245 32.3042 94.3117C32.1407 94.1526 31.9192 94.1097 31.5747 94.1704C31.3027 94.2183 31.0905 94.3164 31.1031 94.3884C31.1158 94.4604 31.0352 94.5353 30.924 94.5549C30.6059 94.611 30.1863 95.3121 30.251 95.6794C30.2833 95.8627 30.3686 96.0021 30.4406 95.9894C30.5126 95.9768 30.6026 96.1431 30.6407 96.359C30.6787 96.5749 30.7687 96.7412 30.8407 96.7285C30.9127 96.7159 31.0131 96.941 31.0639 97.229C31.1146 97.5169 31.215 97.7421 31.287 97.7294C31.359 97.7167 31.4594 97.9419 31.5101 98.2298C31.5609 98.5177 31.6613 98.7429 31.7333 98.7302C31.8053 98.7175 31.8849 98.8249 31.9103 98.9689C31.9357 99.1129 32.0153 99.2203 32.0873 99.2076C32.1593 99.1949 32.239 99.3023 32.2643 99.4463C32.2897 99.5902 32.3693 99.6976 32.4413 99.6849C32.5133 99.6722 32.6137 99.8974 32.6645 100.185C32.7152 100.473 32.8156 100.698 32.8876 100.686C32.9596 100.673 33.0393 100.78 33.0646 100.924C33.09 101.068 33.1697 101.176 33.2416 101.163C33.3136 101.15 33.414 101.376 33.4648 101.664C33.5155 101.951 33.6159 102.177 33.6879 102.164C33.7599 102.151 33.8499 102.318 33.888 102.534C33.926 102.749 34.0161 102.916 34.0881 102.903C34.1601 102.89 34.235 102.971 34.2546 103.082C34.2742 103.193 34.4603 103.404 34.6682 103.549C35.2882 103.983 36.2426 103.642 36.1338 103.024C36.1139 102.911 36.1565 102.808 36.2285 102.796C36.3032 102.783 36.2902 102.38 36.1979 101.857C36.1057 101.333 35.9804 100.95 35.9056 100.964C35.7069 100.999 35.6351 100.344 35.8102 100.094C35.9875 99.8405 37.4091 99.5397 37.4458 99.7476C37.4585 99.8196 37.6455 99.8474 37.8615 99.8093C38.0775 99.7712 38.2646 99.799 38.2773 99.871C38.2899 99.943 38.4181 99.9811 38.5621 99.9557C38.7061 99.9303 38.8343 99.9685 38.8469 100.04C38.8612 100.121 39.5681 100.048 40.7025 99.8484C41.8369 99.6485 42.5438 99.5754 42.5581 99.6564C42.5712 99.7311 42.9738 99.7181 43.4974 99.6258C44.0209 99.5335 44.4235 99.5205 44.4367 99.5952C44.4501 99.6715 44.896 99.6492 45.5069 99.5416C46.1177 99.4339 46.5636 99.4116 46.5771 99.4879C46.5916 99.5704 47.4728 99.465 48.9562 99.2036C50.4396 98.9422 51.3208 98.8369 51.3353 98.9193C51.3494 98.9993 51.9693 98.9425 52.9291 98.7734C53.8889 98.6043 54.4908 98.4457 54.4767 98.3657C54.464 98.2938 54.6304 98.2037 54.8463 98.1657C55.0623 98.1276 55.2286 98.0376 55.216 97.9656C55.2033 97.8936 55.3696 97.8036 55.5856 97.7656C55.8016 97.7275 55.9679 97.6375 55.9552 97.5655C55.9425 97.4935 56.1677 97.3931 56.4557 97.3424C56.7437 97.2916 56.9689 97.1912 56.9562 97.1192C56.9435 97.0472 57.1099 96.9572 57.3258 96.9192C57.6749 96.8576 57.7108 96.8064 57.6493 96.4573C57.5955 96.152 57.6383 96.0545 57.8419 96.0186C57.9859 95.9932 58.0933 95.9136 58.0806 95.8416C58.068 95.7696 58.2343 95.6796 58.4503 95.6415C58.6662 95.6035 58.8326 95.5134 58.8199 95.4415C58.8062 95.3639 59.2768 95.226 59.9748 95.103C60.6729 94.98 61.1435 94.8422 61.1298 94.7646C61.1171 94.6926 61.2246 94.6129 61.3685 94.5876C61.5125 94.5622 61.6199 94.4825 61.6073 94.4106C61.5946 94.3386 61.6752 94.2637 61.7864 94.244C62.0214 94.2026 62.5306 93.5233 62.4917 93.303C62.4772 93.2206 62.613 92.957 62.7934 92.7173C62.9738 92.4775 63.1071 92.2001 63.0897 92.101C63.0722 92.0018 63.1607 91.815 63.2864 91.6858C63.5558 91.4091 63.5375 91.1569 63.2327 90.9436C62.9796 90.7662 61.5407 90.9694 61.5774 91.1774C61.59 91.2494 61.4826 91.329 61.3386 91.3544C61.1947 91.3798 61.0872 91.4594 61.0999 91.5314C61.1126 91.6034 61.0052 91.683 60.8612 91.7084C60.7172 91.7338 60.6098 91.8134 60.6225 91.8854C60.6351 91.9574 60.5277 92.037 60.3837 92.0624C60.2398 92.0878 60.1323 92.1674 60.145 92.2394C60.1577 92.3114 59.9325 92.4118 59.6445 92.4625C59.3565 92.5133 59.1313 92.6137 59.144 92.6857C59.1568 92.7584 58.818 92.878 58.3817 92.9549C57.9454 93.0318 57.6066 93.1514 57.6194 93.2242C57.6321 93.2962 57.348 93.4069 56.988 93.4704C56.6281 93.5338 56.3439 93.6446 56.3566 93.7166C56.3701 93.7929 55.9434 93.9243 55.3325 94.032C54.7217 94.1396 54.295 94.2711 54.3085 94.3474C54.3211 94.4193 54.037 94.5301 53.6771 94.5936C53.3171 94.657 53.033 94.7678 53.0457 94.8397C53.0595 94.9183 52.5452 95.0629 51.7598 95.2013C50.9744 95.3397 50.4417 95.3796 50.4278 95.3011C50.4133 95.2186 49.5321 95.324 48.0487 95.5854C46.5653 95.8467 45.6841 95.9521 45.6696 95.8696C45.6557 95.7911 45.1229 95.831 44.3376 95.9694C43.5522 96.1078 43.0194 96.1477 43.0056 96.0692C42.9928 95.9964 42.6335 95.9999 42.1972 96.0767C41.7609 96.1536 41.4016 96.157 41.3888 96.0842C41.3761 96.0123 41.2479 95.9741 41.1039 95.9995C40.9294 96.0303 40.8268 95.9583 40.796 95.7839C40.7707 95.6399 40.691 95.5325 40.619 95.5452C40.547 95.5579 40.4385 95.2868 40.3779 94.9428C40.2941 94.4675 40.3225 94.2611 40.4962 94.0826C40.6219 93.9534 40.7063 93.743 40.6837 93.6149C40.6612 93.4869 40.7016 93.3717 40.7736 93.359C40.9744 93.3236 40.7685 92.4213 40.5198 92.2472C40.27 92.0722 39.0903 92.2311 39.1262 92.4349Z" fill="#05A034"/>
<path fill-rule="evenodd" clip-rule="evenodd" d="M60.2315 141.515C61.2438 138.403 60.0381 134.809 60.8262 131.454C61.0962 130.127 61.6096 125.197 62.125 122.315C62.4134 120.702 60.6884 120.201 60.4233 119.558C58.5577 113.776 72.1673 100.175 72.9981 99.6738C74.243 98.9541 75.3445 98.3346 76.5609 97.5993C80.1094 96.3524 84.3644 92.8835 87.5813 95.1116C93.1549 86.8114 90.95 76.5851 93.9744 75.3697C96.9988 74.1542 105.93 71.6977 111.036 74.8346C114.097 77.1 113.871 80.9997 115.268 84.2158C116.087 85.7298 116.49 87.9229 117.444 88.9103C120.686 92.2652 124.729 92.8436 129.249 93.4131C129.593 93.4564 129.956 92.5198 130.29 92.6354C137.914 95.2717 146.786 96.0409 155.421 110.802C156.64 112.913 159.93 116.3 158.83 118.74C166.077 135.599 173.209 173.548 153.322 183.011C152.686 183.418 148.374 181.237 147.671 181.257C146.5 181.291 148.744 184.136 147.671 183.629C139.794 184.227 96.4473 182.684 79.8321 184.227C68.4063 184.141 61.1695 186.145 58.5312 184.141C59.5859 181.591 59.537 178.86 59.2036 176.165C56.7754 174.357 59.7771 161.618 59.523 157.888C57.2501 155.162 59.0599 144.939 60.2315 141.515Z" fill="white"/>
<path fill-rule="evenodd" clip-rule="evenodd" d="M63.8541 122.856C64.9441 124.442 65.9455 126.074 66.8508 127.772C67.3175 128.648 67.753 129.542 68.145 130.453C68.2265 128.482 68.2443 126.488 68.4746 124.537C68.4911 124.396 68.726 124.327 68.7506 124.499C69.005 126.269 69.0469 128.084 69.1431 129.873C69.2538 129.839 69.3761 129.819 69.5109 129.819C70.819 129.819 72.1075 129.926 73.411 130.032C73.9951 130.079 74.6062 130.116 75.202 130.209C74.7225 129.679 74.2758 129.119 73.8636 128.535C73.4431 127.94 72.9625 127.01 73.6952 126.438C74.5045 125.806 76.0915 126.632 76.8745 126.953C77.2707 127.116 77.6594 127.293 78.042 127.481C78.5251 126.127 80.006 125.948 81.2756 126.135C82.1807 126.268 83.0594 126.578 83.9415 126.814C85.0614 127.113 86.1861 127.395 87.3148 127.659C89.3475 128.135 91.3941 128.551 93.4504 128.912C93.5047 128.848 93.5801 128.799 93.6808 128.774C94.3849 128.598 95.1618 128.732 95.884 128.746C96.6265 128.759 97.3691 128.758 98.1116 128.743C99.4381 128.716 100.763 128.705 102.089 128.682C102.466 128.453 102.944 128.125 103.061 127.695C103.208 127.158 102.751 126.563 102.539 126.106C101.726 124.351 101.441 122.387 101.761 120.475C101.818 120.134 101.935 119.762 102.104 119.413C100.651 119.568 99.2168 119.674 97.7558 119.721C94.8386 119.816 91.9216 119.916 89.0031 119.938C83.1676 119.981 77.332 119.981 71.4966 119.939C68.1971 119.914 64.9052 119.884 61.6097 119.716C61.8783 120.056 62.1395 120.404 62.3945 120.757C62.4472 120.741 62.5161 120.77 62.5081 120.835C62.5055 120.858 62.5028 120.881 62.5 120.904C62.9653 121.554 63.4132 122.214 63.8541 122.856M70.3427 183.211C71.6989 183.167 73.0547 183.124 74.4108 183.081C77.0725 182.996 79.7343 182.911 82.3959 182.827C87.669 182.659 92.9419 182.497 98.2158 182.351C103.477 182.206 108.741 182.053 114.003 182.217C119.278 182.381 124.539 182.807 129.804 183.149C132.731 183.339 135.66 183.503 138.592 183.582C141.385 183.657 144.202 183.544 146.991 183.743C147.084 183.053 147.015 182.366 147.025 181.679C146.111 181.15 145.213 180.589 144.326 180.037C141.091 178.024 138.034 175.747 135.15 173.258C134.706 172.875 134.272 172.484 133.841 172.09C134.141 172.744 133.901 173.588 133.043 173.865C131.996 174.203 130.924 174.083 129.837 174.058C128.733 174.032 127.629 174.007 126.525 173.984C124.368 173.938 122.21 173.897 120.052 173.861C115.836 173.79 111.621 173.738 107.405 173.704C98.923 173.635 90.447 173.751 81.9665 173.904C79.5818 173.947 77.1995 174 74.8149 173.946C73.6218 173.919 72.4238 173.911 71.2321 173.846C70.2773 173.795 69.3168 173.66 68.3621 173.538C68.2418 175.201 68.116 176.864 67.9757 178.526C67.8829 179.623 67.7875 180.72 67.6934 181.818C67.6548 182.27 67.6519 182.732 67.5881 183.162C68.5046 183.213 69.4155 183.24 70.3427 183.211M69.4101 136.244C69.4435 137.517 69.4612 138.791 69.4703 140.065C69.5803 140.002 69.7043 139.956 69.8441 139.935C71.3271 139.708 72.914 139.88 74.4145 139.905C75.8648 139.93 77.3202 139.921 78.7692 139.99C80.221 140.058 81.6723 140.14 83.1238 140.216C83.8049 140.251 84.4785 140.282 85.1542 140.374C85.6172 140.437 86.2094 140.432 86.704 140.564C84.629 138.554 82.5651 136.532 80.4957 134.516C80.4337 134.455 80.3889 134.391 80.3576 134.326C78.9776 133.485 77.6531 132.538 76.4537 131.454C75.5024 131.821 74.4195 131.867 73.411 131.949C72.1072 132.055 70.8195 132.162 69.5108 132.162C69.4224 132.162 69.3396 132.153 69.2616 132.138C69.3257 133.506 69.3743 134.874 69.4101 136.244M123.288 160.976C120.121 161.989 116.688 161.977 113.393 162.18C109.879 162.396 106.371 162.576 102.853 162.713C95.8282 162.986 88.8076 163.357 81.7834 163.652C77.7713 163.821 73.76 164.006 69.7495 164.209C69.465 164.223 69.1937 164.15 68.9543 164.016C68.8197 166.658 68.6619 169.299 68.4783 171.939C68.4554 172.269 68.43 172.598 68.4065 172.929C70.2941 172.692 72.1673 172.465 74.069 172.304C76.2045 172.124 78.3389 171.972 80.4774 171.83C84.6446 171.554 88.8185 171.183 92.9933 171.049C101.504 170.773 110.033 170.867 118.546 170.927C120.955 170.945 123.364 170.968 125.773 170.997C126.977 171.012 128.181 171.028 129.386 171.045C130.596 171.063 131.897 170.937 133.043 171.36C133.054 171.364 133.063 171.369 133.074 171.374C129.616 168.096 126.519 164.475 123.288 160.976M112.152 150.499C106.858 151.464 101.48 151.397 96.1139 151.493C90.6228 151.591 85.1242 151.526 79.6322 151.537C76.5124 151.544 73.3659 151.681 70.2573 151.403C69.89 151.37 69.6053 151.231 69.4023 151.033C69.3457 154.341 69.2419 157.647 69.0989 160.952C69.3005 160.866 69.5207 160.814 69.7495 160.8C76.7673 160.387 83.7855 160.013 90.8119 159.784C97.8327 159.555 104.862 159.283 111.887 159.368C115.315 159.41 118.94 159.191 122.321 159.938C121.036 158.572 119.724 157.232 118.351 155.948C116.349 154.077 114.213 152.324 112.152 150.499M108.107 146.606C108.1 146.598 108.097 146.589 108.091 146.581C108.072 146.595 108.049 146.604 108.018 146.604C103.062 146.492 97.5025 148.056 92.8673 145.656C90.798 144.584 89.0843 142.891 87.4208 141.263C87.4199 141.275 87.4188 141.287 87.4179 141.299C87.407 141.431 87.3512 141.59 87.2173 141.649C86.6706 141.888 86.0303 141.904 85.4433 141.99C84.7681 142.088 84.1051 142.146 83.4241 142.187C81.9226 142.277 80.4212 142.372 78.9192 142.457C77.4206 142.542 75.9151 142.549 74.4145 142.586C72.9098 142.624 71.3335 142.806 69.8441 142.591C69.7074 142.571 69.5858 142.528 69.4779 142.469C69.4756 144.396 69.458 146.324 69.44 148.25C69.437 148.564 69.4309 148.878 69.4273 149.191C69.6284 149.007 69.9047 148.878 70.2573 148.847C73.0191 148.604 75.8023 148.712 78.5739 148.721C81.2954 148.73 84.0173 148.74 86.739 148.749C92.2347 148.767 97.726 148.821 103.221 148.925C105.893 148.976 108.553 149.201 111.186 149.633C110.12 148.662 109.084 147.662 108.107 146.606M151.168 181.65C152.183 181.961 153.19 181.826 154.207 182.039C154.269 182.052 154.327 182.076 154.38 182.108C157.424 180.807 159.453 178.196 160.842 175.27C162.306 172.186 163.315 168.889 163.99 165.547C165.384 158.657 165.386 151.514 164.665 144.543C163.956 137.695 162.553 130.885 160.551 124.299C159.176 119.777 157.423 115.209 154.99 111.086C152.181 112.969 150.002 115.68 147.95 118.33C145.497 121.497 143.287 124.848 141.308 128.331C141.513 128.927 141.545 129.675 141.643 130.209C141.832 131.237 142.003 132.278 142.137 133.315C142.424 135.531 142.699 137.749 142.993 139.964C143.573 144.345 144.265 148.714 145.03 153.067C145.092 153.42 144.993 153.718 144.811 153.941C146.328 154.741 147.826 155.577 149.285 156.483C152.493 158.474 155.491 160.794 157.845 163.769C157.906 163.846 157.81 163.95 157.734 163.88C152.687 159.214 146.416 156.284 140.259 153.389C137.112 151.91 133.981 150.407 130.963 148.677C127.806 146.868 124.795 144.824 121.91 142.609C118.615 140.08 115.513 137.315 112.605 134.348C112.263 133.999 112.346 133.561 112.604 133.284C112.517 133.257 112.446 133.182 112.442 133.055C112.372 131.118 111.79 129.467 110.652 127.899C109.596 126.444 108.249 125.246 107.035 123.929C106.496 123.344 105.98 122.735 105.519 122.085C105.045 121.416 104.757 120.677 104.344 119.978C103.862 119.161 103.452 119.579 103.229 120.318C102.975 121.156 102.991 122.138 103.093 122.999C103.201 123.911 103.478 124.8 103.878 125.624C104.253 126.399 104.686 127.186 104.434 128.073C104.018 129.531 102.238 130.376 100.889 130.704C99.3868 131.07 97.8156 130.999 96.2947 130.809C94.39 130.572 92.4944 130.224 90.6116 129.854C88.4312 129.426 86.2636 128.932 84.113 128.373C83.102 128.111 82.0982 127.765 81.0774 127.548C80.7134 127.471 80.0398 127.354 79.6121 127.544C85.1105 130.823 91.1049 133.007 97.1932 134.911C97.9496 135.147 97.6394 136.29 96.8652 136.101C90.3245 134.501 84.171 131.532 78.3147 128.28C78.225 128.23 78.149 128.153 78.0931 128.061C77.504 127.854 76.905 127.674 76.2943 127.525C76.0213 127.459 74.6171 126.996 74.4416 127.174C74.1929 127.426 75.0536 128.245 75.2686 128.483C76.7991 130.179 78.6194 131.563 80.5899 132.708C82.5886 133.868 84.7153 134.793 86.852 135.667C89.2454 136.645 91.7753 137.414 94.1019 138.538C95.0261 138.985 94.3776 140.502 93.4039 140.194C92.149 139.798 90.9297 139.215 89.7103 138.719C88.6743 138.299 87.6382 137.879 86.6082 137.444C85.8901 137.14 85.1768 136.827 84.4705 136.5C85.5285 137.496 86.5867 138.492 87.6446 139.488C89.4766 141.214 91.2174 143.179 93.457 144.39C95.6697 145.585 98.194 145.724 100.657 145.699C101.893 145.686 103.125 145.646 104.361 145.696C105.663 145.749 106.818 145.949 108.051 146.358C108.074 146.366 108.091 146.38 108.105 146.395C108.148 146.342 108.221 146.316 108.296 146.361C111.648 148.343 114.702 150.914 117.64 153.455C120.668 156.075 123.517 158.86 126.231 161.802C128.83 164.618 131.407 167.445 134.235 170.036C136.995 172.566 139.946 174.863 143.026 176.989C144.705 178.148 146.425 179.263 148.204 180.26C149.155 180.793 150.121 181.33 151.168 181.65M150.887 105.402C149.686 104.053 148.395 102.803 147.028 101.647C146.425 101.826 145.792 101.876 145.154 101.882C144.181 101.892 143.205 101.932 142.232 101.922C140.357 101.903 138.484 101.844 136.609 101.834C132.776 101.813 128.942 101.812 125.108 101.845C124.606 101.85 124.244 101.635 124.02 101.323C123.244 102.203 122.444 103.062 121.638 103.909C120.328 105.283 118.931 106.595 117.444 107.79C117.734 107.792 118.023 107.795 118.311 107.793C119.637 107.784 120.963 107.775 122.289 107.768C124.949 107.754 127.61 107.743 130.271 107.736C135.56 107.722 140.866 107.766 146.149 108.037C147.616 108.112 149.093 108.142 150.554 108.285C151.347 108.363 152.138 108.453 152.93 108.538C153.092 108.555 153.247 108.577 153.4 108.601C152.625 107.486 151.789 106.416 150.887 105.402M129.701 93.3817C129.737 93.406 129.775 93.4276 129.81 93.4535C129.887 93.512 129.875 93.6177 129.783 93.6532C129.661 93.7009 129.533 93.7369 129.401 93.7654C129 94.3472 128.687 95.0664 128.468 95.4308C127.84 96.478 127.117 97.4756 126.382 98.4495C126.234 98.6451 126.083 98.8385 125.932 99.0315C129.492 99.023 133.051 99.0412 136.609 99.1758C138.483 99.2469 140.362 99.3064 142.232 99.447C143 99.5048 143.769 99.6019 144.535 99.6979C140.547 96.814 136.062 94.6118 131.416 92.9769C131.422 92.984 131.428 92.9893 131.435 92.9964C131.537 93.11 131.384 93.2572 131.269 93.1621C130.665 92.6621 130.14 92.8967 129.701 93.3817M111.711 127.28C111.812 127.433 111.912 127.591 112.009 127.754C112.242 127.521 112.569 127.365 112.989 127.352C117.653 127.207 122.315 127.079 126.981 127.076C129.283 127.075 131.605 126.997 133.904 127.111C135.058 127.168 136.212 127.236 137.365 127.302C138.172 127.348 139.029 127.405 139.816 127.638C141.631 124.462 143.646 121.408 145.847 118.488C140.854 119.101 135.776 119.036 130.755 119.206C125.066 119.399 119.374 119.44 113.683 119.575C112.122 119.612 110.561 119.652 109 119.696C108.195 119.719 107.389 119.742 106.583 119.766C106.332 119.774 106.071 119.781 105.81 119.774C105.83 119.815 105.85 119.856 105.869 119.896C106.309 120.803 106.861 121.639 107.505 122.414C108.873 124.062 110.526 125.482 111.711 127.28M117.83 137.064C118.003 136.583 118.424 136.214 119.094 136.244C122.916 136.418 126.745 136.538 130.562 136.79C132.421 136.913 134.288 136.995 136.145 137.158C137.102 137.242 138.058 137.398 139.011 137.522C139.665 137.608 140.349 137.706 140.976 137.939C140.855 136.596 140.748 135.252 140.655 133.906C140.58 132.825 140.557 131.734 140.563 130.65C140.566 130.102 140.584 129.55 140.611 129.001C140.555 129.013 140.498 129.018 140.443 129.012C140.345 129 140.254 128.988 140.169 128.965C139.29 129.309 138.296 129.385 137.365 129.452C136.261 129.53 135.158 129.614 134.054 129.693C131.706 129.86 129.335 129.85 126.981 129.926C122.348 130.077 117.714 130.165 113.08 130.289C113.295 131.212 113.302 132.16 112.958 133.053C113.198 132.974 113.474 133.011 113.71 133.244C115.044 134.563 116.419 135.835 117.83 137.064M131.311 146.877C131.405 146.616 131.583 146.376 131.794 146.213C132.604 145.589 134.083 145.948 135.056 145.996C136.208 146.052 137.359 146.109 138.511 146.165C138.86 146.182 140.644 146.273 141.954 146.552C141.683 144.507 141.437 142.459 141.218 140.407C141.172 139.976 141.129 139.545 141.087 139.114C140.47 139.313 139.799 139.386 139.162 139.416C138.209 139.462 137.25 139.538 136.295 139.553C134.388 139.583 132.47 139.489 130.562 139.457C127.126 139.4 123.69 139.236 120.256 139.101C123.704 141.901 127.347 144.455 131.147 146.779C131.201 146.812 131.256 146.844 131.311 146.877M142.162 148.09C141.872 148.129 141.584 148.141 141.364 148.164C140.259 148.275 139.171 148.376 138.06 148.393C136.958 148.409 135.857 148.425 134.756 148.441C134.521 148.444 134.287 148.448 134.053 148.451C136.953 150.036 139.943 151.456 142.89 152.95C142.63 151.333 142.388 149.713 142.162 148.09M110.558 112.001C103.949 114.811 95.4704 115.066 89.79 110.398C89.2256 110.553 88.6013 110.604 88.1029 110.654C86.9831 110.766 85.8736 110.87 84.7483 110.905C82.5551 110.974 80.36 111.076 78.166 111.103C73.7274 111.158 69.2886 111.184 64.8499 111.223C64.4721 111.227 64.1699 111.112 63.9407 110.927C63.4912 111.689 63.073 112.471 62.6913 113.272C62.1345 114.441 61.6627 115.649 61.2753 116.884C61.3583 116.87 61.4446 116.86 61.5369 116.858C67.3702 116.757 73.2079 116.925 79.0423 116.949C84.8781 116.974 90.713 116.949 96.5486 116.99C98.1635 117.002 99.7665 117.002 101.377 117.122C102.216 117.184 103.064 117.212 103.894 117.347C103.987 117.362 104.082 117.375 104.177 117.389C105.29 116.738 106.671 116.874 107.943 116.85C109.403 116.822 110.863 116.798 112.323 116.776C115.194 116.734 118.064 116.703 120.934 116.683C126.631 116.644 132.314 116.789 138.007 116.988C140.84 117.087 143.661 117.254 146.457 117.69C146.645 117.447 146.831 117.203 147.021 116.962C149.002 114.45 151.351 111.234 154.611 110.456C154.486 110.252 154.359 110.049 154.23 109.848C151.972 110.444 149.48 110.414 147.172 110.538C144.512 110.682 141.858 110.781 139.194 110.847C133.9 110.977 128.607 111.059 123.312 111.139C121.843 111.161 120.373 111.185 118.904 111.209C118.111 111.223 117.318 111.238 116.525 111.25C116.083 111.257 115.687 111.256 115.265 111.109C114.874 110.972 114.493 110.768 114.115 110.599C113.983 110.54 113.876 110.452 113.788 110.349C112.751 110.97 111.675 111.526 110.558 112.001M84.7298 102.657C83.8984 102.888 83.0404 102.926 82.1615 102.993C81.0077 103.08 79.8567 103.095 78.7 103.102C76.8557 103.114 75.0109 103.101 73.1672 103.05C72.3752 103.029 71.9125 102.498 71.7752 101.891C71.7561 101.906 71.7364 101.921 71.7173 101.937C69.4733 103.787 67.44 105.902 65.717 108.244C69.8665 108.257 74.0165 108.259 78.166 108.287C80.3597 108.302 82.5551 108.392 84.7483 108.449C85.8242 108.476 86.8844 108.566 87.9557 108.667C87.9769 108.67 87.9993 108.671 88.021 108.673C87.9074 108.542 87.7948 108.409 87.6847 108.273C86.4041 106.685 85.3507 104.729 84.7298 102.657M57.7508 185.993C57.3847 184.986 57.5269 183.905 57.5476 182.845C57.5688 181.758 57.5805 180.671 57.5841 179.584C57.5912 177.458 57.6056 175.333 57.6291 173.208C57.6766 168.908 57.7263 164.604 57.8954 160.307C58.2297 151.812 58.8736 143.338 59.9247 134.899C60.4356 130.797 61.0697 126.704 61.9301 122.66C61.918 122.644 61.9062 122.627 61.8941 122.611C61.0373 121.465 60.0628 120.406 59.221 119.253C59.1463 119.151 59.1151 119.02 59.1159 118.887C59.0851 118.872 59.0543 118.856 59.0229 118.839C58.3246 118.441 58.9552 117.356 59.6534 117.76C59.5728 117.713 60.7323 114.736 60.8551 114.437C61.2965 113.36 61.7928 112.307 62.3524 111.287C62.69 110.671 63.0515 110.069 63.43 109.477C63.4961 109.036 63.7346 108.626 64.1443 108.407C64.8632 107.377 65.6398 106.387 66.4675 105.443C69.8562 101.581 74.0888 98.4629 78.713 96.2419C79.3812 95.9211 80.0692 95.6536 80.7547 95.3735C81.4845 95.075 82.1613 94.6848 82.8805 94.3714C84.0507 93.8617 85.2061 93.891 86.3556 94.4306C86.4539 94.4768 86.3835 94.628 86.2836 94.602C85.5435 94.409 84.7854 94.3766 84.0435 94.5862C83.3166 94.7916 82.7639 95.2454 82.1289 95.6241C80.9979 96.2988 79.7335 96.7387 78.5741 97.3685C77.0411 98.2019 75.543 99.1169 74.1099 100.121C75.5947 100.2 77.0807 100.257 78.567 100.296C79.671 100.326 80.7744 100.331 81.8768 100.395C82.6614 100.44 83.4774 100.428 84.2615 100.554C84.0724 99.254 84.0721 97.942 84.3084 96.6752C84.3084 96.6748 84.3086 96.6743 84.3086 96.6739C84.3657 96.3687 84.4349 96.0657 84.52 95.7663C84.7012 95.1291 85.2818 95.0335 85.7034 95.2746C85.7452 95.2439 85.7872 95.2136 85.8277 95.1807C86.3326 94.7705 86.7871 94.2798 87.1825 93.764C88.0036 92.6924 88.6672 91.4519 89.1697 90.2015C89.6787 88.9352 90.0394 87.6104 90.3926 86.2939C90.5698 85.634 90.7615 84.9775 90.942 84.3181C91.0988 83.7447 91.213 83.1115 91.5011 82.589C91.5552 82.4912 91.7178 82.5097 91.7437 82.6209C91.8963 83.2752 91.8156 84.0215 91.7876 84.6887C91.7567 85.4292 91.7141 86.1629 91.6156 86.8979C91.4113 88.4228 91.0819 89.9219 90.5539 91.3699C90.0477 92.7586 89.3797 94.0544 88.4725 95.2243C87.8697 96.0015 87.0137 97.0303 86.0221 97.4494C85.8925 98.9083 85.9073 100.369 86.2518 101.813C86.7024 103.704 87.5652 105.501 88.7508 107.041C91.2366 110.269 95.0824 112.093 99.0945 112.469C103.246 112.858 107.493 111.929 111.223 110.103C115.372 108.071 118.814 104.937 121.905 101.554C123.687 99.6043 125.535 97.6857 127.187 95.6225C127.479 95.2569 127.948 94.5146 128.503 93.8458C127.938 93.8407 127.358 93.756 126.857 93.6918C125.821 93.5588 124.809 93.353 123.797 93.0955C121.905 92.6141 119.91 91.9443 118.256 90.8848C114.758 88.6426 113.392 85.7985 112.926 81.8802C112.778 80.6415 114.919 80.3407 115.119 81.5832C115.425 83.4932 115.888 84.4226 116.498 86.2573C117.084 88.0208 117.933 88.6777 119.555 89.6499C121.079 90.5626 122.81 91.0927 124.488 91.6406C125.418 91.9441 126.359 92.221 127.297 92.5C127.894 92.6777 128.603 92.8327 129.208 93.107C129.524 92.8296 129.854 92.6205 130.186 92.5412C130.161 92.5002 130.193 92.4364 130.254 92.4485C130.352 92.4681 130.449 92.4896 130.546 92.5097C130.644 92.5167 130.742 92.5361 130.839 92.5712C136.685 93.8375 142.298 96.5341 147.058 100.207C147.298 100.308 147.53 100.43 147.751 100.586C147.865 100.666 147.94 100.792 147.962 100.924C148.677 101.508 149.372 102.114 150.042 102.742C155.446 107.798 158.869 114.523 161.266 121.44C163.627 128.255 165.225 135.401 166.104 142.556C166.999 149.849 167.103 157.294 165.803 164.546C165.106 168.439 163.976 172.266 162.309 175.858C160.812 179.083 158.375 182.758 154.547 183.151C154.535 183.163 154.524 183.176 154.51 183.187C153.008 184.425 150.772 183.57 149.202 182.831C148.953 182.714 148.706 182.59 148.46 182.464C148.59 182.964 148.649 183.488 148.676 183.979C148.732 184.999 147.295 185.057 147.023 184.21C144.694 184.62 142.288 184.626 139.932 184.613C137.3 184.598 134.668 184.507 132.038 184.383C126.821 184.137 121.61 183.761 116.389 183.59C105.818 183.244 95.2185 183.984 84.6559 184.356C81.6929 184.461 78.7298 184.565 75.7667 184.67C72.7393 184.777 69.7149 184.797 66.7119 185.207C65.6077 185.357 65.1846 184.275 65.4961 183.6C65.4184 183.147 65.4958 182.65 65.5383 182.117C65.6177 181.12 65.6926 180.122 65.7629 179.124C65.9 177.179 66.0325 175.233 66.1582 173.286C66.4129 169.342 66.632 165.395 66.8451 161.449C67.2689 153.602 67.5934 145.749 67.832 137.895C67.8903 135.98 67.9663 134.065 68.0623 132.152C67.948 131.971 67.834 131.789 67.7238 131.605C67.3567 130.993 66.9968 130.377 66.6251 129.767C65.8795 128.545 65.1292 127.331 64.3452 126.133C63.6681 125.098 62.9697 124.08 62.2399 123.082C61.3339 130.736 60.5285 138.398 60.1588 146.101C59.7516 154.586 59.5356 163.083 59.4181 171.576C59.3852 173.949 59.3631 176.322 59.3378 178.694C59.3247 179.93 59.3115 181.165 59.3216 182.401C59.3315 183.582 59.51 184.875 59.0909 185.993C58.8465 186.646 57.992 186.657 57.7508 185.993Z" fill="black"/>
<path fill-rule="evenodd" clip-rule="evenodd" d="M78.2248 42.039C79.7845 36.4065 85.7462 33.9488 91.1154 33.5588C105.653 32.047 120.45 40.1541 126.895 53.3002C132.054 63.2823 132.215 73.7685 121.126 79.468C120.52 79.802 119.888 80.159 119.242 80.4832C118.681 81.0051 118.103 81.5066 117.472 81.9277C111.433 85.9001 104.022 87.6182 96.8393 87.2456C86.2345 87.0317 82.4486 79.8329 80.1319 70.6011C77.6885 61.4102 76.3221 51.4373 78.2248 42.039V42.039Z" fill="white"/>
<path fill-rule="evenodd" clip-rule="evenodd" d="M71.2632 95.1295C71.7583 93.6314 72.3791 92.1789 72.959 90.7111C73.0816 89.9795 73.1634 89.2419 73.1844 88.4982C73.2648 85.8415 72.7681 83.162 72.211 80.5749C71.0785 75.3175 69.8778 70.1146 69.2752 64.7602C68.1987 55.1829 68.8392 45.2239 73.1937 36.4812C76.9668 28.9078 83.3608 22.7143 91.6201 20.3938C94.0617 19.7075 96.5746 19.329 99.1048 19.1778C99.4181 19.128 99.7309 19.0792 100.042 19.0322C103.562 18.5015 107.124 18.237 110.681 18.4659C116.58 18.8456 122.424 20.5415 127.337 23.8956C132.283 27.2728 135.798 32.0083 137.433 37.7842C139.134 43.793 138.99 50.3005 141.928 55.9339C142.796 57.5982 143.809 59.1804 144.775 60.789C147.338 63.6504 150.122 66.8313 150.731 70.7657C151.484 75.628 148.687 79.7373 146.041 83.5316C143.649 86.9578 140.402 91.6896 142.864 95.908C144.026 97.8983 145.886 99.3872 147.284 101.202C148.733 103.086 149.864 105.249 150.448 107.56C151.546 111.901 150.536 116.426 147.6 119.819C146.071 121.585 144.107 122.753 141.982 123.663C139.806 124.593 137.68 125.476 135.881 127.059C135.059 127.781 134.307 128.574 133.595 129.404C132.932 130.441 132.16 131.411 131.289 132.298C130.331 133.275 128.453 131.938 129.333 130.788C129.398 130.703 129.462 130.62 129.527 130.535C130.17 129.696 130.817 128.857 131.493 128.045C133.512 124.846 134.288 120.929 133.285 117.192C133.024 116.221 132.658 115.3 132.202 114.431C132.105 114.684 131.999 114.934 131.887 115.181C131.451 116.138 130.839 117.272 130.061 118.242C130.031 118.907 129.931 119.566 129.737 120.211C128.538 124.211 124.529 126.185 120.913 127.721C120.559 127.872 120.209 128.018 119.865 128.162C118.921 128.557 117.921 127.21 118.51 126.398C118.665 126.185 118.815 125.967 118.957 125.746C120.653 123.119 121.46 119.978 121.002 116.848C120.521 113.539 118.571 110.8 116.634 108.172C114.733 105.588 112.69 102.951 111.839 99.7992C110.897 96.317 111.754 92.8453 113.208 89.6403C114.539 86.7074 116.312 84.0041 117.798 81.152C117.289 81.6599 116.764 82.1511 116.223 82.6249C115.614 83.1577 114.989 83.7676 114.268 84.1432C113.735 84.4208 113.201 83.7562 113.623 83.3068C114.178 82.7164 114.888 82.2601 115.505 81.7332C116.096 81.2274 116.671 80.7014 117.231 80.1611C117.921 79.496 118.578 78.7996 119.21 78.0821C119.717 76.7914 120.134 75.4661 120.474 74.1209C120.936 72.3002 121.363 70.363 121.329 68.4757C121.296 66.5399 120.291 65.1843 118.952 63.8847C118.385 63.3344 117.813 62.7906 117.242 62.2458C116.025 61.3523 114.877 60.3541 113.763 59.3587C111.776 57.5849 109.855 55.7098 108.02 53.78C107.528 53.2623 107.04 52.7388 106.557 52.2093C104.873 50.4801 103.267 48.6746 101.752 46.8067C100.247 46.2584 98.8014 45.5329 97.4448 44.6786C98.0353 45.2769 98.6318 45.8676 99.2253 46.4629C100.547 47.7897 101.92 49.1227 103.453 50.204C103.61 50.3162 103.515 50.554 103.321 50.5162C101.372 50.1269 99.5493 49.4786 97.8475 48.4456C96.1169 47.3944 94.5922 45.9661 93.169 44.5332C92.3635 44.1697 91.5866 43.7016 90.8767 43.2412C90.8388 43.2169 90.801 43.1912 90.7631 43.1668C91.4626 45.3844 92.489 47.8958 94.677 48.6864C94.7482 48.7122 94.7436 48.8303 94.6589 48.8258C92.8156 48.7176 91.3342 47.888 90.1647 46.6789C89.2242 46.0018 88.3267 45.2843 87.4701 44.5032C86.6404 43.7465 85.8545 42.9349 85.108 42.0946C86.1512 44.1619 87.3198 46.1834 88.4723 48.182C88.5329 48.2881 88.4057 48.432 88.2967 48.3577C85.8635 46.7098 84.0179 44.5832 82.5083 42.0687C82.2855 41.6985 82.0727 41.3222 81.8653 40.9431C82.0219 41.5364 82.1928 42.1259 82.3758 42.7124C82.7073 43.774 83.0336 44.8381 83.3656 45.8991C83.5446 46.4712 83.7627 47.0303 84.0021 47.5798C84.1735 47.973 84.3979 48.3655 84.4327 48.7967C84.435 48.8253 84.4038 48.8441 84.3788 48.8379C83.4086 48.5952 82.5051 47.4883 81.8138 46.8026C81.4288 46.4208 81.0681 46.0017 80.7364 45.5597C80.6748 48.1054 80.6324 50.6514 80.6884 53.2047C80.7927 57.8941 81.0955 62.5821 81.4833 67.2562C81.8255 71.3884 82.0783 75.7249 84.3828 79.3162C86.1664 82.0957 89.0583 84.0191 92.2 84.9508C92.4771 85.0341 92.7557 85.1083 93.0358 85.175C97.5841 86.255 102.114 85.0311 106.136 82.8681C107.344 82.2183 108.376 83.9813 107.211 84.7068C102.847 87.4243 97.3161 88.3498 92.3771 87.132C92.5329 92.9679 89.6578 98.5041 86.7977 103.454C85.1973 106.224 83.5954 108.977 82.4643 111.98C81.5045 114.531 80.8519 117.177 80.6324 119.899C80.372 123.107 80.6278 126.333 81.076 129.514C81.1002 129.687 81.1245 129.861 81.1502 130.034C81.2501 130.717 80.6369 131.289 79.9722 130.939C77.0334 129.394 75.7661 126.101 74.9954 123.057C74.2747 120.205 73.7857 117.297 73.5132 114.369C73.1134 115.473 72.7894 116.605 72.5381 117.759C72.5031 117.924 72.47 118.089 72.4366 118.254C72.2459 119.219 70.7863 119.151 70.5531 118.254C70.5107 118.092 70.4698 117.93 70.432 117.766C69.2283 112.897 68.9043 107.818 69.5402 102.839C69.8748 100.22 70.4335 97.6362 71.2632 95.1295" fill="black"/>
<path fill-rule="evenodd" clip-rule="evenodd" d="M93.4079 75.9297C94.4257 75.5143 95.3338 74.8215 95.9977 73.9363C96.2286 73.6286 96.2884 73.3037 96.24 73.0065C96.1856 72.6724 95.9879 72.3695 95.7184 72.1664C95.4481 71.9626 95.1099 71.8621 94.783 71.9133C94.4989 71.9578 94.2161 72.1134 93.9923 72.4362L93.9455 72.5007C93.5508 73.0349 93.0364 73.4732 92.4504 73.7558C91.8855 74.0281 91.2537 74.1552 90.5999 74.0812C89.3548 73.9405 88.4965 73.2669 87.5843 72.3521C87.4713 72.2366 87.3581 72.1174 87.2444 71.9964C87.1726 71.8867 87.073 71.8162 86.9624 71.7792C86.8396 71.7381 86.7006 71.7404 86.5733 71.7849C86.4506 71.8277 86.3409 71.9089 86.2673 72.017C86.1973 72.1197 86.1577 72.2466 86.1706 72.3926C86.2541 73.3406 86.7495 74.1867 87.4533 74.8511C88.2349 75.589 89.2711 76.0994 90.2465 76.2785C91.3212 76.4757 92.4163 76.3344 93.4079 75.9297V75.9297ZM89.7396 61.3041C88.5962 61.9993 86.8541 63.6205 88.0841 65.3441C89.5319 66.8638 91.6164 65.1213 92.6436 64.3333C93.5961 63.7225 94.6662 65.2933 93.7825 66.0065C86.3599 71.504 83.3477 61.4859 89.1613 60.4866C89.8014 60.3765 90.0391 61.089 89.7396 61.3041ZM103.041 54.909C102.915 53.3404 100.527 52.9841 100.289 54.5364C100.076 55.9269 100.327 57.2042 100.953 58.4561C101.551 59.6521 103.054 59.0941 103.168 58.005C103.321 56.5452 103.12 55.8848 103.041 54.909ZM84.8623 54.2145C84.5293 53.7783 84.0486 53.4805 83.4727 53.6488C81.6732 54.1748 82.2036 56.7306 82.8355 57.9746C83.1789 58.6501 84.2889 58.8214 84.7905 58.2266C85.6081 57.2566 85.9997 55.3195 84.9603 54.364C84.9321 54.3147 84.9007 54.2648 84.8623 54.2145ZM100.978 48.0451L100.694 47.9953C99.8145 47.8432 98.7211 47.697 98.099 48.4042C97.7691 48.7793 97.6556 49.4763 98.099 49.8353C98.8791 50.4669 99.7415 50.2221 100.676 50.2756C101.447 50.3198 102.187 50.4474 102.929 50.6596C104.557 51.125 105.884 51.9748 107.274 52.9078C107.456 53.0302 107.643 52.7968 107.556 52.6261C106.753 51.0534 105.198 49.7615 103.64 48.9741C102.808 48.5537 101.898 48.2051 100.978 48.0451ZM86.5027 47.3406L86.2851 47.3852C83.9175 47.8802 80.8414 48.8692 79.7202 51.1957C79.6775 51.5247 79.7227 51.5952 79.7594 51.6412L79.7716 51.6565C79.8018 51.6959 79.826 51.7501 79.9685 51.7949C80.0081 51.7855 80.048 51.7755 80.0884 51.7649C80.6023 51.6302 81.0089 51.4445 81.4026 51.2519L81.8294 51.0416C82.3246 50.7987 82.8241 50.5646 83.3536 50.3918C84.4834 50.0232 85.6455 49.7635 86.8256 49.6248C87.0814 49.5948 87.3277 49.5084 87.522 49.3604C87.7065 49.2199 87.8474 49.0254 87.9116 48.7668C87.9949 48.4322 87.971 48.1789 87.7915 47.8771C87.6566 47.6504 87.4635 47.4932 87.2418 47.403C87.0158 47.311 86.7584 47.2893 86.5027 47.3406Z" fill="black"/>
</g>
<defs>
<clipPath id="clip0">
<rect width="184" height="184" fill="white"/>
</clipPath>
</defs>
</svg>
