<svg width="186" height="233" viewBox="0 0 186 233" fill="none" xmlns="http://www.w3.org/2000/svg">
<path fill-rule="evenodd" clip-rule="evenodd" d="M57.0345 62.2171C56.8964 62.4089 56.7491 62.4376 55.9077 62.4376C55.3359 62.4376 54.9398 62.4827 54.9398 62.5479C54.9398 62.708 54.3085 62.6834 54.2323 62.5203C54.181 62.4101 54.1552 62.4101 54.1038 62.5203C54.0275 62.6838 53.6168 62.707 53.6168 62.5479C53.6168 62.3803 52.1044 62.4067 52.0358 62.5754C51.9937 62.6795 51.9488 62.6728 51.8529 62.5479C51.757 62.423 51.7121 62.4162 51.67 62.5203C51.6392 62.5962 51.4734 62.6581 51.3016 62.6581C51.1299 62.6581 50.9603 62.5962 50.9249 62.5203C50.8736 62.4101 50.8478 62.4101 50.7964 62.5203C50.761 62.5962 50.5378 62.6581 50.3003 62.6581C50.0627 62.6581 49.8684 62.7077 49.8684 62.7684C49.8684 62.8357 49.3539 62.8786 48.5455 62.8786C47.737 62.8786 47.2225 62.8357 47.2225 62.7684C47.2225 62.7077 47.1233 62.6581 47.002 62.6581C46.8807 62.6581 46.7815 62.7077 46.7815 62.7684C46.7815 62.9359 45.269 62.9096 45.2004 62.7408C45.1583 62.6367 45.1135 62.6435 45.0175 62.7684C44.9216 62.8933 44.8768 62.9 44.8346 62.7959C44.7683 62.6327 44.3561 62.6088 44.3561 62.7684C44.3561 62.8326 43.9886 62.8786 43.4741 62.8786C42.9596 62.8786 42.5921 62.9246 42.5921 62.9889C42.5921 63.0495 42.4433 63.0991 42.2614 63.0991C42.0795 63.0991 41.9306 63.0495 41.9306 62.9889C41.9306 62.9221 41.4529 62.8786 40.7179 62.8786C39.9829 62.8786 39.5052 62.9221 39.5052 62.9889C39.5052 63.0495 39.2571 63.0991 38.9539 63.0991C38.4762 63.0991 38.4027 63.0697 38.4027 62.8786C38.4027 62.7071 38.3292 62.6581 38.072 62.6581C37.89 62.6581 37.7412 62.7077 37.7412 62.7684C37.7412 62.829 37.642 62.8786 37.5207 62.8786C37.3994 62.8786 37.3002 62.9282 37.3002 62.9889C37.3002 63.0542 36.896 63.0991 36.308 63.0991C35.7201 63.0991 35.3158 63.144 35.3158 63.2094C35.3158 63.27 35.2166 63.3196 35.0953 63.3196C34.974 63.3196 34.8748 63.27 34.8748 63.2094C34.8748 63.1487 34.6267 63.0991 34.3235 63.0991C34.0204 63.0991 33.7723 63.1487 33.7723 63.2094C33.7723 63.2746 33.3711 63.3196 32.7892 63.3196C32.1107 63.3196 31.7863 63.3623 31.7419 63.4574C31.6905 63.5677 31.6647 63.5677 31.6133 63.4574C31.5315 63.2821 26.496 63.255 26.496 63.4299C26.496 63.4984 25.8712 63.5401 24.8423 63.5401C23.8133 63.5401 23.1886 63.4984 23.1886 63.4299C23.1886 63.3692 22.9901 63.3196 22.7476 63.3196C22.505 63.3196 22.3066 63.3692 22.3066 63.4299C22.3066 63.4912 22.0126 63.5401 21.6451 63.5401C21.2776 63.5401 20.9836 63.5891 20.9836 63.6504C20.9836 63.7156 20.5824 63.7606 20.0005 63.7606C19.322 63.7606 18.9976 63.8033 18.9532 63.8984C18.9018 64.0087 18.876 64.0087 18.8246 63.8984C18.778 63.7986 18.3695 63.7606 17.3454 63.7606C16.3214 63.7606 15.9129 63.7986 15.8663 63.8984C15.8149 64.0087 15.7891 64.0087 15.7377 63.8984C15.6584 63.7286 13.9278 63.7023 13.9278 63.8708C13.9278 63.937 13.4868 63.9811 12.8253 63.9811C12.1638 63.9811 11.7228 64.0252 11.7228 64.0913C11.7228 64.152 11.6236 64.2016 11.5023 64.2016C11.3811 64.2016 11.2818 64.152 11.2818 64.0913C11.2818 64.0307 11.1826 63.9811 11.0613 63.9811C10.9401 63.9811 10.8409 64.0307 10.8409 64.0913C10.8409 64.152 10.692 64.2016 10.5101 64.2016C10.3282 64.2016 10.1794 64.152 10.1794 64.0913C10.1794 64.024 9.66484 63.9811 8.8564 63.9811C8.04795 63.9811 7.53343 64.024 7.53343 64.0913C7.53343 64.152 7.28956 64.2016 6.99134 64.2016C6.66556 64.2016 6.42368 64.2566 6.38498 64.3394C6.33361 64.4496 6.30781 64.4496 6.25643 64.3394C6.21597 64.2529 5.95866 64.2016 5.56408 64.2016C5.06268 64.2016 4.90414 64.246 4.77725 64.4221C4.68982 64.5434 4.53007 64.6426 4.42214 64.6426C4.24067 64.6426 4.22601 64.8073 4.22601 66.8475C4.22601 68.244 4.18555 69.0525 4.11576 69.0525C3.94455 69.0525 3.97123 71.4435 4.14332 71.5239C4.25357 71.5753 4.25357 71.6011 4.14332 71.6524C3.97983 71.7287 3.95667 72.1394 4.11576 72.1394C4.18433 72.1394 4.22601 72.7642 4.22601 73.7931C4.22601 74.8221 4.26768 75.4468 4.33626 75.4468C4.39689 75.4468 4.4465 75.546 4.4465 75.6673C4.4465 75.7886 4.39689 75.8878 4.33626 75.8878C4.27562 75.8878 4.22601 75.987 4.22601 76.1083C4.22601 76.2296 4.27562 76.3288 4.33626 76.3288C4.39689 76.3288 4.4465 76.428 4.4465 76.5493C4.4465 76.6706 4.49611 76.7698 4.55675 76.7698C4.61739 76.7698 4.667 76.9186 4.667 77.1005C4.667 77.2824 4.61739 77.4313 4.55675 77.4313C4.49611 77.4313 4.4465 77.5305 4.4465 77.6518C4.4465 77.773 4.49611 77.8723 4.55675 77.8723C4.61739 77.8723 4.667 78.1203 4.667 78.4235C4.667 78.7267 4.61739 78.9747 4.55675 78.9747C4.49611 78.9747 4.4465 79.1236 4.4465 79.3055C4.4465 79.4874 4.49611 79.6362 4.55675 79.6362C4.61739 79.6362 4.667 79.7354 4.667 79.8567C4.667 79.978 4.71661 80.0772 4.77725 80.0772C4.93677 80.0772 4.91296 80.4894 4.74968 80.5558C4.64561 80.5979 4.65233 80.6428 4.77725 80.7387C4.90216 80.8346 4.90888 80.8795 4.80481 80.9216C4.60427 81.0031 4.60427 88.6289 4.80481 88.7225C4.91505 88.7739 4.91505 88.7997 4.80481 88.851C4.64131 88.9273 4.61816 89.338 4.77725 89.338C4.84505 89.338 4.88749 89.8892 4.88749 90.7712C4.88749 91.6532 4.92994 92.2044 4.99774 92.2044C5.06742 92.2044 5.10799 92.9762 5.10799 94.2991C5.10799 95.6221 5.14856 96.3938 5.21823 96.3938C5.28361 96.3938 5.32848 96.7981 5.32848 97.3861C5.32848 97.974 5.37335 98.3783 5.43873 98.3783C5.50697 98.3783 5.54898 98.9662 5.54898 99.9217C5.54898 100.877 5.50697 101.465 5.43873 101.465C5.37809 101.465 5.32848 101.564 5.32848 101.686C5.32848 101.807 5.37809 101.906 5.43873 101.906C5.50168 101.906 5.54898 102.237 5.54898 102.678C5.54898 103.119 5.59627 103.45 5.65922 103.45C5.72052 103.45 5.76947 103.744 5.76947 104.111C5.76947 104.479 5.81842 104.773 5.87972 104.773C5.94035 104.773 5.98997 104.971 5.98997 105.214C5.98997 105.456 5.94035 105.655 5.87972 105.655C5.81908 105.655 5.76947 105.853 5.76947 106.096C5.76947 106.338 5.81908 106.537 5.87972 106.537C5.94035 106.537 5.98997 106.731 5.98997 106.968C5.98997 107.206 6.05193 107.429 6.12778 107.465C6.23802 107.516 6.23802 107.542 6.12778 107.593C5.96428 107.669 5.94113 108.08 6.10021 108.08C6.16085 108.08 6.21046 108.278 6.21046 108.521C6.21046 108.764 6.26007 108.962 6.32071 108.962C6.38134 108.962 6.43096 109.21 6.43096 109.513C6.43096 109.816 6.48057 110.065 6.5412 110.065C6.60548 110.065 6.65145 110.432 6.65145 110.946C6.65145 111.461 6.69742 111.828 6.7617 111.828C6.82233 111.828 6.87195 111.977 6.87195 112.159C6.87195 112.341 6.82233 112.49 6.7617 112.49C6.70106 112.49 6.65145 112.589 6.65145 112.71C6.65145 112.832 6.70106 112.931 6.7617 112.931C6.82851 112.931 6.87195 113.409 6.87195 114.144C6.87195 114.879 6.82851 115.356 6.7617 115.356C6.70106 115.356 6.65145 115.456 6.65145 115.577C6.65145 115.698 6.70106 115.797 6.7617 115.797C6.82233 115.797 6.87195 115.946 6.87195 116.128C6.87195 116.31 6.92156 116.459 6.98219 116.459C7.04283 116.459 7.09244 116.535 7.09244 116.628C7.09244 116.847 7.8064 117.561 8.0259 117.561C8.11884 117.561 8.19491 117.611 8.19491 117.672C8.19491 117.738 8.63282 117.782 9.28824 117.782C10.0629 117.782 10.3959 117.822 10.431 117.92C10.4645 118.013 10.5515 117.978 10.7012 117.809C10.9012 117.585 11.0214 117.561 11.9838 117.561C12.6183 117.561 13.0458 117.517 13.0458 117.451C13.0458 117.39 13.2401 117.341 13.4776 117.341C13.7152 117.341 13.9384 117.279 13.9738 117.203C14.0251 117.093 14.0509 117.093 14.1023 117.203C14.1786 117.367 14.5893 117.39 14.5893 117.231C14.5893 117.159 15.8724 117.12 18.2183 117.12C21.0136 117.12 21.862 117.089 21.9116 116.983C21.9629 116.872 21.9887 116.872 22.0401 116.983C22.1224 117.159 29.5829 117.186 29.5829 117.01C29.5829 116.949 29.7317 116.9 29.9136 116.9C30.0956 116.9 30.2444 116.949 30.2444 117.01C30.2444 117.08 31.1264 117.12 32.6698 117.12C34.2133 117.12 35.0953 117.16 35.0953 117.231C35.0953 117.291 35.3433 117.341 35.6465 117.341C35.9497 117.341 36.1978 117.291 36.1978 117.231C36.1978 117.159 37.7045 117.12 40.4974 117.12C43.2903 117.12 44.797 117.082 44.797 117.01C44.797 116.945 45.2013 116.9 45.7893 116.9C46.3772 116.9 46.7815 116.855 46.7815 116.79C46.7815 116.72 47.5165 116.679 48.766 116.679C50.0154 116.679 50.7504 116.639 50.7504 116.569C50.7504 116.499 51.5221 116.459 52.8451 116.459C54.1681 116.459 54.9398 116.418 54.9398 116.349C54.9398 116.281 55.4543 116.238 56.2628 116.238C57.0712 116.238 57.5857 116.195 57.5857 116.128C57.5857 116.067 57.685 116.018 57.8062 116.018C57.9275 116.018 58.0267 116.067 58.0267 116.128C58.0267 116.189 58.1756 116.238 58.3575 116.238C58.5394 116.238 58.6882 116.189 58.6882 116.128C58.6882 116.064 59.0557 116.018 59.5702 116.018C60.0847 116.018 60.4522 115.972 60.4522 115.908C60.4522 115.847 60.6506 115.797 60.8932 115.797C61.1357 115.797 61.3342 115.847 61.3342 115.908C61.3342 115.968 61.483 116.018 61.6649 116.018C61.8468 116.018 61.9956 115.968 61.9956 115.908C61.9956 115.846 62.2897 115.797 62.6571 115.797C63.0246 115.797 63.3186 115.846 63.3186 115.908C63.3186 115.971 63.6493 116.018 64.0903 116.018C64.5313 116.018 64.8621 115.971 64.8621 115.908C64.8621 115.843 65.2295 115.797 65.744 115.797C66.2586 115.797 66.626 115.751 66.626 115.687C66.626 115.626 66.7253 115.577 66.8465 115.577C66.9678 115.577 67.067 115.626 67.067 115.687C67.067 115.752 67.4555 115.797 68.0119 115.797C68.9843 115.797 69.272 115.686 69.272 115.309C69.272 115.214 69.3216 115.136 69.3822 115.136C69.4428 115.136 69.4925 115.048 69.4925 114.94C69.4925 114.832 69.5917 114.672 69.713 114.585C70.1128 114.296 69.876 113.813 69.3349 113.813C69.179 113.813 69.0515 113.763 69.0515 113.703C69.0515 113.642 68.9522 113.592 68.831 113.592C68.7097 113.592 68.6105 113.543 68.6105 113.482C68.6105 113.422 68.5113 113.372 68.39 113.372C68.2687 113.372 68.1695 113.422 68.1695 113.482C68.1695 113.543 68.0703 113.592 67.949 113.592C67.8277 113.592 67.7285 113.642 67.7285 113.703C67.7285 113.763 67.6293 113.813 67.508 113.813C67.3867 113.813 67.2875 113.763 67.2875 113.703C67.2875 113.642 67.1883 113.592 67.067 113.592C66.9457 113.592 66.8465 113.543 66.8465 113.482C66.8465 113.422 66.7473 113.372 66.626 113.372C66.435 113.372 66.4055 113.298 66.4055 112.821C66.4055 112.518 66.3559 112.269 66.2953 112.269C66.2323 112.269 66.185 111.939 66.185 111.498C66.185 111.057 66.1377 110.726 66.0748 110.726C66.0142 110.726 65.9645 110.577 65.9645 110.395C65.9645 110.213 66.0142 110.065 66.0748 110.065C66.1354 110.065 66.185 109.965 66.185 109.844C66.185 109.723 66.1354 109.624 66.0748 109.624C66.012 109.624 65.9645 109.296 65.9645 108.861C65.9645 108.359 65.9175 108.077 65.8267 108.034C65.7165 107.983 65.7165 107.957 65.8267 107.906C65.9026 107.87 65.9645 107.75 65.9645 107.639C65.9645 107.528 65.9026 107.412 65.8267 107.381C65.7227 107.339 65.7294 107.294 65.8543 107.198C65.9792 107.102 65.9859 107.057 65.8819 107.015C65.7846 106.976 65.744 106.637 65.744 105.866C65.744 105.211 65.6998 104.773 65.6338 104.773C65.5725 104.773 65.5236 104.479 65.5236 104.111C65.5236 103.744 65.4746 103.45 65.4133 103.45C65.3433 103.45 65.3031 102.604 65.3031 101.134C65.3031 99.6645 65.2628 98.8193 65.1928 98.8193C65.1228 98.8193 65.0826 97.9771 65.0826 96.5132C65.0826 94.7763 65.0486 94.1914 64.9448 94.1429C64.8345 94.0915 64.8345 94.0657 64.9448 94.0144C65.1083 93.9381 65.1314 93.5274 64.9723 93.5274C64.9117 93.5274 64.8621 93.329 64.8621 93.0864C64.8621 92.8439 64.8125 92.6454 64.7518 92.6454C64.6912 92.6454 64.6416 92.5462 64.6416 92.4249C64.6416 92.3037 64.592 92.2044 64.5313 92.2044C64.4707 92.2044 64.4211 92.1052 64.4211 91.9839C64.4211 91.8627 64.4707 91.7634 64.5313 91.7634C64.592 91.7634 64.6416 91.6642 64.6416 91.5429C64.6416 91.4217 64.592 91.3224 64.5313 91.3224C64.4707 91.3224 64.4211 91.1736 64.4211 90.9917C64.4211 90.8098 64.3715 90.661 64.3108 90.661C64.2479 90.661 64.2006 90.3302 64.2006 89.8892C64.2006 89.4482 64.1533 89.1175 64.0903 89.1175C64.029 89.1175 63.9801 88.8235 63.9801 88.456C63.9801 88.0886 63.9311 87.7945 63.8698 87.7945C63.8045 87.7945 63.7596 87.3903 63.7596 86.8023C63.7596 86.2144 63.7147 85.8101 63.6493 85.8101C63.5887 85.8101 63.5391 85.6612 63.5391 85.4793C63.5391 85.2974 63.5887 85.1486 63.6493 85.1486C63.7106 85.1486 63.7596 84.8546 63.7596 84.4871C63.7596 84.1197 63.7106 83.8256 63.6493 83.8256C63.5883 83.8256 63.5391 83.5347 63.5391 83.1733C63.5391 82.7593 63.4887 82.4976 63.4013 82.4567C63.291 82.4053 63.291 82.3795 63.4013 82.3281C63.5643 82.252 63.5889 81.6207 63.4289 81.6207C63.3646 81.6207 63.3186 81.2532 63.3186 80.7387C63.3186 80.2242 63.2726 79.8567 63.2084 79.8567C63.1454 79.8567 63.0981 79.526 63.0981 79.085C63.0981 78.644 63.0508 78.3133 62.9879 78.3133C62.9217 78.3133 62.8776 77.8723 62.8776 77.2108C62.8776 76.5493 62.9217 76.1083 62.9879 76.1083C63.0552 76.1083 63.0981 75.5938 63.0981 74.7853C63.0981 73.9769 63.0552 73.4624 62.9879 73.4624C62.8193 73.4624 62.8456 71.7317 63.0154 71.6524C63.1257 71.6011 63.1257 71.5753 63.0154 71.5239C62.928 71.483 62.8776 71.2213 62.8776 70.8073C62.8776 70.4459 62.8284 70.1549 62.7674 70.1549C62.7067 70.1549 62.6571 69.9565 62.6571 69.714C62.6571 69.4714 62.7067 69.273 62.7674 69.273C62.828 69.273 62.8776 69.1737 62.8776 69.0525C62.8776 68.9312 62.828 68.832 62.7674 68.832C62.6083 68.832 62.6314 68.4213 62.7949 68.345C62.9052 68.2936 62.9052 68.2678 62.7949 68.2165C62.6911 68.168 62.6571 67.5831 62.6571 65.8462C62.6571 64.3823 62.6169 63.5401 62.5469 63.5401C62.4862 63.5401 62.4366 63.4409 62.4366 63.3196C62.4366 63.1208 62.3631 63.0991 61.6893 63.0991C61.0683 63.0991 60.915 63.0619 60.7829 62.8786C60.6955 62.7573 60.5357 62.6581 60.4278 62.6581C60.32 62.6581 60.2317 62.6085 60.2317 62.5479C60.2317 62.4866 59.9377 62.4376 59.5702 62.4376C59.2027 62.4376 58.9087 62.3887 58.9087 62.3274C58.9087 62.2644 58.578 62.2171 58.137 62.2171C57.696 62.2171 57.3652 62.1698 57.3652 62.1069C57.3652 61.9273 57.2049 61.9807 57.0345 62.2171ZM58.9087 64.8631C58.9087 64.9843 58.9583 65.0836 59.019 65.0836C59.0796 65.0836 59.1292 65.2324 59.1292 65.4143C59.1292 65.5962 59.1788 65.7451 59.2395 65.7451C59.3001 65.7451 59.3497 65.9435 59.3497 66.186C59.3497 66.4286 59.3993 66.627 59.4599 66.627C59.5206 66.627 59.5702 66.7759 59.5702 66.9578C59.5702 67.1397 59.6198 67.2885 59.6804 67.2885C59.7411 67.2885 59.7907 67.3877 59.7907 67.509C59.7907 67.6303 59.7411 67.7295 59.6804 67.7295C59.6198 67.7295 59.5702 67.8178 59.5702 67.9256C59.5702 68.0336 59.471 68.1933 59.3497 68.2807C59.1617 68.4162 59.1292 68.5662 59.1292 69.2973C59.1292 69.7955 59.1754 70.1549 59.2395 70.1549C59.3001 70.1549 59.3497 70.403 59.3497 70.7062C59.3497 71.0094 59.3993 71.2574 59.4599 71.2574C59.5273 71.2574 59.5702 71.7719 59.5702 72.5804C59.5702 73.3888 59.6131 73.9034 59.6804 73.9034C59.7466 73.9034 59.7907 74.3443 59.7907 75.0058C59.7907 75.6673 59.7466 76.1083 59.6804 76.1083C59.5198 76.1083 59.5452 76.9602 59.708 77.0363C59.8183 77.0876 59.8183 77.1134 59.708 77.1648C59.5445 77.2411 59.5214 77.6518 59.6804 77.6518C59.749 77.6518 59.7907 78.2765 59.7907 79.3055C59.7907 80.3344 59.749 80.9592 59.6804 80.9592C59.611 80.9592 59.5702 81.6942 59.5702 82.9436C59.5702 84.1931 59.611 84.9281 59.6804 84.9281C59.7466 84.9281 59.7907 85.3691 59.7907 86.0306C59.7907 86.6921 59.8348 87.133 59.9009 87.133C59.9622 87.133 60.0112 87.4271 60.0112 87.7945C60.0112 88.162 60.0601 88.456 60.1214 88.456C60.1844 88.456 60.2317 88.7868 60.2317 89.2277C60.2317 89.6687 60.279 89.9995 60.3419 89.9995C60.4125 89.9995 60.4522 90.9917 60.4522 92.7557C60.4522 94.5196 60.4919 95.5119 60.5624 95.5119C60.6254 95.5119 60.6727 95.8426 60.6727 96.2836C60.6727 96.7246 60.6254 97.0553 60.5624 97.0553C60.5018 97.0553 60.4522 97.2538 60.4522 97.4963C60.4522 97.7388 60.5018 97.9373 60.5624 97.9373C60.6231 97.9373 60.6727 98.1812 60.6727 98.4794C60.6727 98.8097 60.7265 99.0432 60.8105 99.0774C60.9146 99.1195 60.9078 99.1643 60.7829 99.2603C60.658 99.3562 60.6513 99.401 60.7554 99.4432C60.8312 99.4739 60.8932 99.6438 60.8932 99.8206C60.8932 99.9976 60.9428 100.142 61.0034 100.142C61.0688 100.142 61.1137 100.547 61.1137 101.134C61.1137 101.722 61.1585 102.127 61.2239 102.127C61.2852 102.127 61.3342 102.421 61.3342 102.788C61.3342 103.156 61.3831 103.45 61.4444 103.45C61.5057 103.45 61.5546 103.744 61.5546 104.111C61.5546 104.479 61.6036 104.773 61.6649 104.773C61.7323 104.773 61.7751 105.287 61.7751 106.096C61.7751 106.904 61.818 107.419 61.8854 107.419C61.9508 107.419 61.9956 107.823 61.9956 108.411C61.9956 108.999 62.0405 109.403 62.1059 109.403C62.1665 109.403 62.2161 109.651 62.2161 109.954C62.2161 110.257 62.2657 110.505 62.3264 110.505C62.387 110.505 62.4366 110.754 62.4366 111.057C62.4366 111.36 62.4862 111.608 62.5469 111.608C62.6075 111.608 62.6571 111.707 62.6571 111.828C62.6571 111.95 62.7067 112.049 62.7674 112.049C62.828 112.049 62.8776 112.175 62.8776 112.33C62.8776 112.639 62.4339 113.151 62.166 113.151C62.0723 113.151 61.9956 113.201 61.9956 113.262C61.9956 113.322 61.7972 113.372 61.5546 113.372C61.3121 113.372 61.1137 113.422 61.1137 113.482C61.1137 113.553 60.0847 113.592 58.2472 113.592C56.4097 113.592 55.3808 113.632 55.3808 113.703C55.3808 113.767 55.0133 113.813 54.4988 113.813C53.9843 113.813 53.6168 113.767 53.6168 113.703C53.6168 113.634 53.0289 113.592 52.0734 113.592C51.1179 113.592 50.5299 113.634 50.5299 113.703C50.5299 113.768 50.1256 113.813 49.5377 113.813C48.9497 113.813 48.5455 113.858 48.5455 113.923C48.5455 113.993 47.737 114.033 46.3405 114.033C44.944 114.033 44.1356 113.993 44.1356 113.923C44.1356 113.863 43.9867 113.813 43.8048 113.813C43.6229 113.813 43.4741 113.863 43.4741 113.923C43.4741 113.989 43.0331 114.033 42.3716 114.033C41.7101 114.033 41.2691 114.078 41.2691 114.144C41.2691 114.214 40.4239 114.254 38.9539 114.254C37.484 114.254 36.6387 114.214 36.6387 114.144C36.6387 113.98 35.5675 114.006 35.4903 114.171C35.4389 114.281 35.4131 114.281 35.3617 114.171C35.323 114.088 35.0812 114.033 34.7554 114.033C34.4573 114.033 34.2133 113.984 34.2133 113.923C34.2133 113.851 32.4493 113.813 29.1419 113.813C25.8345 113.813 24.0705 113.851 24.0705 113.923C24.0705 113.989 23.6295 114.033 22.9681 114.033C22.3066 114.033 21.8656 114.078 21.8656 114.144C21.8656 114.204 21.6175 114.254 21.3144 114.254C21.0112 114.254 20.7631 114.204 20.7631 114.144C20.7631 114.083 20.5151 114.033 20.2119 114.033C19.9087 114.033 19.6606 114.083 19.6606 114.144C19.6606 114.207 19.3299 114.254 18.8889 114.254C18.4479 114.254 18.1172 114.301 18.1172 114.364C18.1172 114.432 17.6027 114.474 16.7942 114.474C15.9858 114.474 15.4712 114.517 15.4712 114.585C15.4712 114.651 15.0303 114.695 14.3688 114.695C13.7073 114.695 13.2663 114.651 13.2663 114.585C13.2663 114.519 12.8253 114.474 12.1638 114.474C11.5023 114.474 11.0613 114.43 11.0613 114.364C11.0613 114.304 10.9621 114.254 10.8409 114.254C10.7196 114.254 10.6204 114.204 10.6204 114.144C10.6204 114.083 10.5424 114.033 10.4472 114.033C10.1369 114.033 9.95887 113.735 9.95887 113.214C9.95887 112.937 10.0085 112.71 10.0691 112.71C10.1389 112.71 10.1794 111.902 10.1794 110.505C10.1794 109.109 10.1389 108.301 10.0691 108.301C10.0078 108.301 9.95887 108.007 9.95887 107.639C9.95887 107.272 10.0078 106.978 10.0691 106.978C10.1298 106.978 10.1794 106.73 10.1794 106.426C10.1794 106.123 10.1298 105.875 10.0691 105.875C9.99911 105.875 9.95887 105.03 9.95887 103.56C9.95887 102.09 9.91863 101.245 9.84862 101.245C9.78733 101.245 9.73838 100.951 9.73838 100.583C9.73838 100.216 9.68943 99.9217 9.62813 99.9217C9.56749 99.9217 9.51788 99.7729 9.51788 99.591C9.51788 99.4091 9.46827 99.2603 9.40764 99.2603C9.34479 99.2603 9.29739 98.9326 9.29739 98.4977C9.29739 97.9955 9.25031 97.7133 9.15958 97.6708C9.04933 97.6195 9.04933 97.5937 9.15958 97.5423C9.32241 97.4662 9.34777 96.6143 9.18714 96.6143C9.11735 96.6143 9.07689 95.8059 9.07689 94.4094C9.07689 93.0129 9.03643 92.2044 8.96665 92.2044C8.9005 92.2044 8.8564 91.7634 8.8564 91.102C8.8564 90.4405 8.8123 89.9995 8.74615 89.9995C8.68551 89.9995 8.6359 89.8506 8.6359 89.6687C8.6359 89.4868 8.68551 89.338 8.74615 89.338C8.80679 89.338 8.8564 89.2388 8.8564 89.1175C8.8564 88.9962 8.80679 88.897 8.74615 88.897C8.67603 88.897 8.6359 88.015 8.6359 86.4716C8.6359 84.9281 8.59577 84.0461 8.52566 84.0461C8.46502 84.0461 8.41541 83.8477 8.41541 83.6051C8.41541 83.3626 8.3658 83.1641 8.30516 83.1641C8.24452 83.1641 8.19491 83.0649 8.19491 82.9436C8.19491 82.8224 8.24452 82.7232 8.30516 82.7232C8.3658 82.7232 8.41541 82.5247 8.41541 82.2822C8.41541 82.0396 8.3658 81.8412 8.30516 81.8412C8.24452 81.8412 8.19491 81.5931 8.19491 81.2899C8.19491 80.9868 8.1453 80.7387 8.08467 80.7387C8.02359 80.7387 7.97442 80.4478 7.97442 80.0864C7.97442 79.6724 7.92404 79.4107 7.83661 79.3698C7.72636 79.3184 7.72636 79.2926 7.83661 79.2412C8.00187 79.164 8.02756 78.0928 7.86417 78.0928C7.79802 78.0928 7.75392 77.6518 7.75392 76.9903C7.75392 76.3288 7.70983 75.8878 7.64368 75.8878C7.58304 75.8878 7.53343 75.6894 7.53343 75.4468C7.53343 75.2043 7.58304 75.0058 7.64368 75.0058C7.70431 75.0058 7.75392 74.762 7.75392 74.4637C7.75392 74.138 7.80894 73.8961 7.89173 73.8574C8.00198 73.806 8.00198 73.7802 7.89173 73.7288C7.7289 73.6528 7.70354 72.8009 7.86417 72.8009C7.93241 72.8009 7.97442 72.2129 7.97442 71.2574C7.97442 70.3019 8.01642 69.714 8.08467 69.714C8.14762 69.714 8.19491 69.3832 8.19491 68.9422V68.1705H11.1716C13.0825 68.1705 14.1483 68.131 14.1483 68.0602C14.1483 67.9012 14.5589 67.9243 14.6352 68.0878C14.6866 68.1981 14.7124 68.1981 14.7638 68.0878C14.8089 67.9911 15.1546 67.95 15.9214 67.95C16.5768 67.95 17.0147 67.9058 17.0147 67.8398C17.0147 67.7785 17.3087 67.7295 17.6762 67.7295C18.0436 67.7295 18.3377 67.7785 18.3377 67.8398C18.3377 67.9004 18.4865 67.95 18.6684 67.95C18.8503 67.95 18.9992 67.9004 18.9992 67.8398C18.9992 67.7724 19.5137 67.7295 20.3221 67.7295C21.1306 67.7295 21.6451 67.6866 21.6451 67.6193C21.6451 67.5539 22.0494 67.509 22.6373 67.509C23.2253 67.509 23.6295 67.4641 23.6295 67.3988C23.6295 67.3358 23.9603 67.2885 24.4013 67.2885C24.8423 67.2885 25.173 67.2412 25.173 67.1783C25.173 67.1172 25.464 67.068 25.8253 67.068C26.2393 67.068 26.5011 67.0176 26.542 66.9302C26.5933 66.82 26.6191 66.82 26.6705 66.9302C26.7468 67.0937 27.1575 67.1169 27.1575 66.9578C27.1575 66.8889 27.8189 66.8475 28.9214 66.8475C30.0239 66.8475 30.6854 66.8062 30.6854 66.7373C30.6854 66.6743 31.0161 66.627 31.4571 66.627C31.8981 66.627 32.2288 66.5797 32.2288 66.5168C32.2288 66.4457 33.4416 66.4065 35.6465 66.4065C37.8515 66.4065 39.0642 66.3674 39.0642 66.2963C39.0642 66.2295 39.5419 66.186 40.2769 66.186C41.0119 66.186 41.4896 66.1426 41.4896 66.0758C41.4896 66.0104 41.8939 65.9655 42.4818 65.9655C43.0698 65.9655 43.4741 65.9207 43.4741 65.8553C43.4741 65.7947 43.6683 65.7451 43.9059 65.7451C44.148 65.7451 44.3622 65.6845 44.3937 65.6072C44.4358 65.5032 44.4806 65.5099 44.5765 65.6348C44.6725 65.7597 44.7173 65.7664 44.7595 65.6624C44.7954 65.5739 45.0492 65.5246 45.4677 65.5246C45.8291 65.5246 46.12 65.4754 46.12 65.4143C46.12 65.3461 46.708 65.3041 47.6635 65.3041C48.619 65.3041 49.2069 65.2621 49.2069 65.1938C49.2069 65.1277 49.6479 65.0836 50.3094 65.0836C50.9709 65.0836 51.4119 65.0395 51.4119 64.9733C51.4119 64.906 51.9264 64.8631 52.7349 64.8631C53.5433 64.8631 54.0578 64.906 54.0578 64.9733C54.0578 65.034 54.3059 65.0836 54.6091 65.0836C54.9122 65.0836 55.1603 65.034 55.1603 64.9733C55.1603 64.912 55.4543 64.8631 55.8218 64.8631C56.1892 64.8631 56.4833 64.8141 56.4833 64.7528C56.4833 64.686 56.961 64.6426 57.696 64.6426C58.8352 64.6426 58.9087 64.6559 58.9087 64.8631ZM31.4571 73.4624C31.3525 73.6076 31.1717 73.6829 30.928 73.6829C30.6403 73.6829 30.4635 73.7811 30.1341 74.1239C29.9011 74.3664 29.6534 74.5648 29.5837 74.5648C29.4007 74.5648 29.1419 74.8508 29.1419 75.0531C29.1419 75.1528 29.0484 75.2263 28.9214 75.2263C28.8001 75.2263 28.7009 75.2759 28.7009 75.3366C28.7009 75.3972 28.6017 75.4468 28.4804 75.4468C28.3565 75.4468 28.2599 75.5204 28.2599 75.6146C28.2599 75.8071 27.1148 76.9903 26.9285 76.9903C26.8606 76.9903 26.6659 77.1391 26.496 77.321C26.3261 77.5029 26.1077 77.6518 26.0108 77.6518C25.9138 77.6518 25.8345 77.7014 25.8345 77.762C25.8345 77.8227 25.7353 77.8723 25.614 77.8723C25.467 77.8723 25.3935 77.9458 25.3935 78.0928C25.3935 78.2213 25.32 78.3133 25.2172 78.3133C25.1203 78.3133 24.9019 78.4621 24.732 78.644C24.5621 78.8259 24.3437 78.9747 24.2468 78.9747C24.1441 78.9747 24.0705 79.0667 24.0705 79.1952C24.0705 79.3238 23.997 79.4157 23.8943 79.4157C23.7973 79.4157 23.5789 79.5646 23.4091 79.7465C23.2191 79.9499 22.9898 80.0772 22.8136 80.0772C22.656 80.0772 22.5271 80.1268 22.5271 80.1875C22.5271 80.2481 22.4279 80.2977 22.3066 80.2977C22.1853 80.2977 22.0861 80.3473 22.0861 80.408C22.0861 80.4686 21.9869 80.5182 21.8656 80.5182C21.7186 80.5182 21.6451 80.5917 21.6451 80.7387C21.6451 80.9026 21.5716 80.9592 21.3586 80.9592C21.1824 80.9592 20.9531 81.0865 20.7631 81.2899C20.5932 81.4718 20.3748 81.6207 20.2779 81.6207C20.1809 81.6207 20.1016 81.6703 20.1016 81.7309C20.1016 81.7916 20.0133 81.8412 19.9055 81.8412C19.7976 81.8412 19.6378 81.9404 19.5504 82.0617C19.463 82.1829 19.3032 82.2822 19.1953 82.2822C19.0875 82.2822 18.9992 82.3318 18.9992 82.3924C18.9992 82.453 18.8999 82.5027 18.7787 82.5027C18.6574 82.5027 18.5582 82.5523 18.5582 82.6129C18.5582 82.6735 18.4589 82.7232 18.3377 82.7232C18.2164 82.7232 18.1172 82.7728 18.1172 82.8334C18.1172 82.894 18.018 82.9436 17.8967 82.9436C17.7497 82.9436 17.6762 83.0172 17.6762 83.1641C17.6762 83.2854 17.6266 83.3846 17.5659 83.3846C17.5053 83.3846 17.4557 83.5831 17.4557 83.8256C17.4557 84.0682 17.4061 84.2666 17.3454 84.2666C17.2848 84.2666 17.2352 84.4651 17.2352 84.7076C17.2352 84.9501 17.1856 85.1486 17.125 85.1486C17.0588 85.1486 17.0147 85.5896 17.0147 86.2511C17.0147 86.9126 17.0588 87.3535 17.125 87.3535C17.1856 87.3535 17.2352 87.4915 17.2352 87.6599C17.2352 87.8398 17.3263 88.0319 17.4557 88.1253C17.6233 88.2461 17.6762 88.4107 17.6762 88.8111C17.6762 89.1009 17.6266 89.338 17.5659 89.338C17.5053 89.338 17.4557 89.5364 17.4557 89.779C17.4557 90.0215 17.5053 90.22 17.5659 90.22C17.6266 90.22 17.6762 90.3192 17.6762 90.4405C17.6762 90.5617 17.6266 90.661 17.5659 90.661C17.503 90.661 17.4557 90.9917 17.4557 91.4327C17.4557 91.8737 17.503 92.2044 17.5659 92.2044C17.6272 92.2044 17.6762 92.4985 17.6762 92.8659C17.6762 93.2334 17.7251 93.5274 17.7864 93.5274C17.8567 93.5274 17.8967 94.438 17.8967 96.0387C17.8967 98.4236 17.9078 98.5581 18.1172 98.709C18.2466 98.8024 18.3377 98.9945 18.3377 99.1744C18.3377 99.3428 18.3873 99.4808 18.4479 99.4808C18.5086 99.4808 18.5582 99.58 18.5582 99.7013C18.5582 99.8482 18.6317 99.9217 18.7787 99.9217C18.8999 99.9217 18.9992 99.9714 18.9992 100.032C18.9992 100.093 19.2472 100.142 19.5504 100.142C19.8536 100.142 20.1016 100.192 20.1016 100.252C20.1016 100.313 20.1799 100.363 20.2756 100.363C20.3714 100.363 20.6403 100.561 20.8734 100.804C21.2129 101.157 21.3754 101.245 21.6916 101.245C21.9086 101.245 22.0861 101.294 22.0861 101.355C22.0861 101.416 22.2349 101.465 22.4168 101.465C22.5987 101.465 22.7476 101.515 22.7476 101.575C22.7476 101.636 22.8468 101.686 22.9681 101.686C23.0893 101.686 23.1886 101.735 23.1886 101.796C23.1886 101.857 23.2878 101.906 23.4091 101.906C23.5303 101.906 23.6295 101.956 23.6295 102.016C23.6295 102.077 23.7288 102.127 23.85 102.127C23.9713 102.127 24.0705 102.176 24.0705 102.237C24.0705 102.298 24.1698 102.347 24.291 102.347C24.4123 102.347 24.5115 102.397 24.5115 102.457C24.5115 102.518 24.5908 102.568 24.6878 102.568C24.7847 102.568 25.0031 102.717 25.173 102.898C25.363 103.102 25.5923 103.229 25.7685 103.229C25.9261 103.229 26.055 103.279 26.055 103.339C26.055 103.4 26.1929 103.45 26.3614 103.45C26.5413 103.45 26.7333 103.541 26.8267 103.67C26.9141 103.791 27.0739 103.891 27.1818 103.891C27.2896 103.891 27.378 103.94 27.378 104.001C27.378 104.062 27.4663 104.111 27.5741 104.111C27.682 104.111 27.8418 104.21 27.9292 104.332C28.0166 104.453 28.1764 104.552 28.2843 104.552C28.3921 104.552 28.4804 104.602 28.4804 104.662C28.4804 104.723 28.6184 104.773 28.7868 104.773C28.9667 104.773 29.1588 104.864 29.2522 104.993C29.3396 105.114 29.4884 105.214 29.5829 105.214C29.6774 105.214 29.8262 105.313 29.9136 105.434C30.0011 105.555 30.1608 105.655 30.2688 105.655C30.3766 105.655 30.4649 105.704 30.4649 105.765C30.4649 105.825 30.5415 105.875 30.6352 105.875C30.8558 105.875 31.3469 106.366 31.3469 106.587C31.3469 106.68 31.3965 106.757 31.4571 106.757C31.5177 106.757 31.5674 106.834 31.5674 106.927C31.5674 107.246 32.0816 107.639 32.4995 107.639C32.8168 107.639 32.8903 107.681 32.8903 107.86C32.8903 108.03 32.9639 108.08 33.2119 108.08C33.3888 108.08 33.5624 108.142 33.5978 108.218C33.6492 108.328 33.675 108.328 33.7263 108.218C33.7617 108.142 33.8858 108.08 34.002 108.08C34.1182 108.08 34.2133 108.03 34.2133 107.97C34.2133 107.909 34.3125 107.86 34.4338 107.86C34.5808 107.86 34.6543 107.786 34.6543 107.639C34.6543 107.518 34.7039 107.419 34.7645 107.419C34.8252 107.419 34.8748 107.319 34.8748 107.198C34.8748 107.077 34.9244 106.978 34.985 106.978C35.0457 106.978 35.0953 106.878 35.0953 106.757C35.0953 106.61 35.1688 106.537 35.3158 106.537C35.437 106.537 35.5363 106.586 35.5363 106.647C35.5363 106.842 35.9233 106.764 36.0875 106.537C36.1749 106.415 36.3137 106.316 36.3961 106.316C36.4784 106.316 36.7364 106.118 36.9695 105.875C37.2025 105.633 37.4714 105.434 37.5672 105.434C37.6629 105.434 37.7412 105.385 37.7412 105.324C37.7412 105.263 37.8701 105.214 38.0277 105.214C38.2039 105.214 38.4332 105.086 38.6232 104.883C38.7931 104.701 39.0115 104.552 39.1084 104.552C39.2054 104.552 39.2847 104.503 39.2847 104.442C39.2847 104.381 39.3839 104.332 39.5052 104.332C39.6264 104.332 39.7257 104.282 39.7257 104.221C39.7257 104.161 39.814 104.111 39.9218 104.111C40.0297 104.111 40.1895 104.012 40.2769 103.891C40.3703 103.761 40.5623 103.67 40.7423 103.67C40.9107 103.67 41.0486 103.621 41.0486 103.56C41.0486 103.499 41.1866 103.45 41.355 103.45C41.5349 103.45 41.727 103.359 41.8204 103.229C41.9078 103.108 42.0675 103.009 42.1755 103.009C42.2833 103.009 42.3716 102.959 42.3716 102.898C42.3716 102.838 42.4708 102.788 42.5921 102.788C42.7134 102.788 42.8126 102.739 42.8126 102.678C42.8126 102.617 42.9118 102.568 43.0331 102.568C43.1544 102.568 43.2536 102.518 43.2536 102.457C43.2536 102.397 43.3528 102.347 43.4741 102.347C43.5953 102.347 43.6946 102.298 43.6946 102.237C43.6946 102.176 43.7829 102.127 43.8907 102.127C43.9986 102.127 44.1584 102.027 44.2458 101.906C44.3392 101.777 44.5312 101.686 44.7112 101.686C44.8796 101.686 45.0175 101.636 45.0175 101.575C45.0175 101.515 45.1168 101.465 45.238 101.465C45.3593 101.465 45.4585 101.416 45.4585 101.355C45.4585 101.294 45.6074 101.245 45.7893 101.245C45.9712 101.245 46.12 101.195 46.12 101.134C46.12 101.074 46.2192 101.024 46.3405 101.024C46.4618 101.024 46.561 100.975 46.561 100.914C46.561 100.853 46.6602 100.804 46.7815 100.804C46.9028 100.804 47.002 100.754 47.002 100.693C47.002 100.633 47.1012 100.583 47.2225 100.583C47.3438 100.583 47.443 100.534 47.443 100.473C47.443 100.412 47.5422 100.363 47.6635 100.363C47.7848 100.363 47.884 100.313 47.884 100.252C47.884 100.192 47.9832 100.142 48.1045 100.142C48.2257 100.142 48.325 100.093 48.325 100.032C48.325 99.9714 48.4242 99.9217 48.5455 99.9217C48.6667 99.9217 48.766 99.8721 48.766 99.8115C48.766 99.7509 48.8652 99.7013 48.9865 99.7013C49.1077 99.7013 49.2069 99.6516 49.2069 99.591C49.2069 99.5304 49.3062 99.4808 49.4274 99.4808C49.5487 99.4808 49.6479 99.4311 49.6479 99.3705C49.6479 99.3099 49.7968 99.2603 49.9787 99.2603C50.1606 99.2603 50.3094 99.2107 50.3094 99.15C50.3094 99.0894 50.4583 99.0398 50.6402 99.0398C50.8221 99.0398 50.9709 98.9902 50.9709 98.9295C50.9709 98.8689 51.0475 98.8193 51.1412 98.8193C51.3618 98.8193 51.8529 98.3282 51.8529 98.1076C51.8529 98.0139 51.9025 97.9373 51.9631 97.9373C52.0238 97.9373 52.0734 97.8381 52.0734 97.7168C52.0734 97.5955 52.0238 97.4963 51.9631 97.4963C51.9025 97.4963 51.8529 97.3584 51.8529 97.1899C51.8529 97.01 51.7618 96.818 51.6324 96.7246C51.4279 96.5772 51.4119 96.4391 51.4119 94.826C51.4119 93.7397 51.3704 93.0864 51.3016 93.0864C51.241 93.0864 51.1914 92.9872 51.1914 92.8659C51.1914 92.7446 51.241 92.6454 51.3016 92.6454C51.3731 92.6454 51.4119 91.2857 51.4119 88.7868C51.4119 86.2878 51.3731 84.9281 51.3016 84.9281C51.241 84.9281 51.1914 84.7793 51.1914 84.5974C51.1914 84.4154 51.241 84.2666 51.3016 84.2666C51.3623 84.2666 51.4119 84.1178 51.4119 83.9359C51.4119 83.754 51.4615 83.6051 51.5221 83.6051C51.5828 83.6051 51.6324 83.5059 51.6324 83.3846C51.6324 83.2634 51.682 83.1641 51.7426 83.1641C51.9718 83.1641 51.8389 82.812 51.4707 82.4439C51.1025 82.0757 50.7504 81.9427 50.7504 82.1719C50.7504 82.2325 50.6016 82.2822 50.4197 82.2822C50.2378 82.2822 50.0889 82.3318 50.0889 82.3924C50.0889 82.637 49.7168 82.4776 49.3172 82.0617C49.0841 81.8191 48.8152 81.6207 48.7194 81.6207C48.6237 81.6207 48.5455 81.5711 48.5455 81.5104C48.5455 81.4498 48.4462 81.4002 48.325 81.4002C48.2037 81.4002 48.1045 81.3506 48.1045 81.2899C48.1045 81.2293 47.9556 81.1797 47.7737 81.1797C47.5165 81.1797 47.443 81.1307 47.443 80.9592C47.443 80.7916 47.3694 80.7387 47.1366 80.7387C46.9567 80.7387 46.7646 80.6476 46.6713 80.5182C46.5838 80.3969 46.4241 80.2977 46.3161 80.2977C46.2083 80.2977 46.12 80.2481 46.12 80.1875C46.12 80.1268 45.9821 80.0772 45.8136 80.0772C45.6337 80.0772 45.4417 79.9861 45.3483 79.8567C45.2609 79.7354 45.1011 79.6362 44.9932 79.6362C44.8854 79.6362 44.797 79.5866 44.797 79.526C44.797 79.4653 44.6978 79.4157 44.5765 79.4157C44.4553 79.4157 44.3561 79.3661 44.3561 79.3055C44.3561 79.2448 44.2568 79.1952 44.1356 79.1952C44.0143 79.1952 43.9151 79.1456 43.9151 79.085C43.9151 79.0244 43.8268 78.9747 43.7189 78.9747C43.611 78.9747 43.4513 78.8755 43.3638 78.7542C43.2705 78.6248 43.0784 78.5338 42.8985 78.5338C42.73 78.5338 42.5921 78.4841 42.5921 78.4235C42.5921 78.3629 42.4929 78.3133 42.3716 78.3133C42.2503 78.3133 42.1511 78.2636 42.1511 78.203C42.1511 78.1424 42.0628 78.0928 41.955 78.0928C41.847 78.0928 41.6873 77.9935 41.5999 77.8723C41.5065 77.7428 41.3144 77.6518 41.1345 77.6518C40.9661 77.6518 40.8281 77.6022 40.8281 77.5415C40.8281 77.4809 40.7289 77.4313 40.6076 77.4313C40.4864 77.4313 40.3871 77.3817 40.3871 77.321C40.3871 77.2604 40.2879 77.2108 40.1667 77.2108C40.0454 77.2108 39.9462 77.1612 39.9462 77.1005C39.9462 77.0399 39.8579 76.9903 39.75 76.9903C39.6421 76.9903 39.4824 76.8911 39.3949 76.7698C39.3075 76.6485 39.1478 76.5493 39.0398 76.5493C38.932 76.5493 38.8437 76.4997 38.8437 76.439C38.8437 76.3784 38.7058 76.3288 38.5373 76.3288C38.3574 76.3288 38.1653 76.2377 38.072 76.1083C37.9845 75.987 37.8357 75.8878 37.7412 75.8878C37.6467 75.8878 37.4979 75.7886 37.4105 75.6673C37.3228 75.5457 37.125 75.4468 36.9695 75.4468C36.8139 75.4468 36.6161 75.3479 36.5285 75.2263C36.4411 75.1051 36.2813 75.0058 36.1734 75.0058C36.0656 75.0058 35.9773 74.9562 35.9773 74.8956C35.9773 74.835 35.878 74.7853 35.7568 74.7853C35.6355 74.7853 35.5363 74.7357 35.5363 74.6751C35.5363 74.6145 35.437 74.5648 35.3158 74.5648C35.1945 74.5648 35.0953 74.5152 35.0953 74.4546C35.0953 74.394 35.007 74.3443 34.8991 74.3443C34.7912 74.3443 34.6315 74.2451 34.544 74.1239C34.4566 74.0026 34.3078 73.9034 34.2133 73.9034C34.1188 73.9034 33.97 73.8041 33.8826 73.6829C33.7892 73.5534 33.5971 73.4624 33.4172 73.4624C33.2487 73.4624 33.1108 73.4128 33.1108 73.3521C33.1108 73.2895 32.7882 73.2419 32.3635 73.2419C31.7425 73.2419 31.5892 73.2791 31.4571 73.4624ZM32.8903 75.9981C32.8903 76.0587 32.9786 76.1083 33.0865 76.1083C33.1944 76.1083 33.3541 76.2075 33.4416 76.3288C33.5349 76.4582 33.727 76.5493 33.9069 76.5493C34.0754 76.5493 34.2133 76.5989 34.2133 76.6595C34.2133 76.7202 34.3621 76.7698 34.544 76.7698C34.726 76.7698 34.8748 76.8194 34.8748 76.88C34.8748 76.9407 34.974 76.9903 35.0953 76.9903C35.2166 76.9903 35.3158 77.0399 35.3158 77.1005C35.3158 77.1612 35.415 77.2108 35.5363 77.2108C35.6575 77.2108 35.7568 77.2604 35.7568 77.321C35.7568 77.3817 35.9056 77.4313 36.0875 77.4313C36.3447 77.4313 36.4182 77.4802 36.4182 77.6518C36.4182 77.7987 36.4918 77.8723 36.6387 77.8723C36.76 77.8723 36.8592 77.9219 36.8592 77.9825C36.8592 78.0431 36.9585 78.0928 37.0797 78.0928C37.201 78.0928 37.3002 78.1424 37.3002 78.203C37.3002 78.2636 37.3994 78.3133 37.5207 78.3133C37.642 78.3133 37.7412 78.3629 37.7412 78.4235C37.7412 78.4841 37.8295 78.5338 37.9373 78.5338C38.0453 78.5338 38.205 78.633 38.2924 78.7542C38.3799 78.8755 38.5396 78.9747 38.6476 78.9747C38.7554 78.9747 38.8437 79.0244 38.8437 79.085C38.8437 79.1456 38.9816 79.1952 39.1501 79.1952C39.33 79.1952 39.522 79.2863 39.6154 79.4157C39.7028 79.537 39.8626 79.6362 39.9705 79.6362C40.0784 79.6362 40.1667 79.6858 40.1667 79.7465C40.1667 79.8071 40.3155 79.8567 40.4974 79.8567C40.6793 79.8567 40.8281 79.9063 40.8281 79.967C40.8281 80.0276 40.9165 80.0772 41.0243 80.0772C41.1322 80.0772 41.292 80.1764 41.3794 80.2977C41.4668 80.419 41.6266 80.5182 41.7345 80.5182C41.8423 80.5182 41.9306 80.5678 41.9306 80.6285C41.9306 80.6891 42.0298 80.7387 42.1511 80.7387C42.2724 80.7387 42.3716 80.7883 42.3716 80.8489C42.3716 80.9096 42.4708 80.9592 42.5921 80.9592C42.7134 80.9592 42.8126 81.0088 42.8126 81.0694C42.8126 81.1301 42.9118 81.1797 43.0331 81.1797C43.1544 81.1797 43.2536 81.2293 43.2536 81.2899C43.2536 81.3506 43.3528 81.4002 43.4741 81.4002C43.5953 81.4002 43.6946 81.4498 43.6946 81.5104C43.6946 81.5711 43.7738 81.6207 43.8709 81.6207C43.9678 81.6207 44.1862 81.7695 44.3561 81.9514C44.5318 82.1396 44.7781 82.2822 44.9271 82.2822C45.0713 82.2822 45.2609 82.3814 45.3483 82.5027C45.4357 82.6239 45.5845 82.7232 45.679 82.7232C45.7735 82.7232 45.9223 82.8224 46.0098 82.9436C46.0972 83.0649 46.2867 83.1641 46.4309 83.1641C46.58 83.1641 46.8263 83.3067 47.002 83.4949C47.1719 83.6768 47.3903 83.8256 47.4872 83.8256C47.5842 83.8256 47.6635 83.9036 47.6635 83.9988C47.6635 84.2748 47.3771 84.4871 47.0049 84.4871C46.6341 84.4871 46.12 84.9005 46.12 85.1988C46.12 85.2925 46.0317 85.3691 45.9239 85.3691C45.816 85.3691 45.6562 85.4683 45.5688 85.5896C45.4814 85.7109 45.3216 85.8101 45.2137 85.8101C45.1059 85.8101 45.0175 85.8597 45.0175 85.9203C45.0175 85.981 44.9183 86.0306 44.797 86.0306C44.6758 86.0306 44.5765 86.0802 44.5765 86.1408C44.5765 86.2015 44.4973 86.2511 44.4003 86.2511C44.3034 86.2511 44.085 86.3999 43.9151 86.5818C43.7251 86.7852 43.4958 86.9126 43.3196 86.9126C43.162 86.9126 43.0331 86.9622 43.0331 87.0228C43.0331 87.0834 42.9448 87.133 42.837 87.133C42.729 87.133 42.5693 87.2323 42.4818 87.3535C42.3944 87.4748 42.2456 87.574 42.1511 87.574C42.0566 87.574 41.9078 87.6733 41.8204 87.7945C41.7327 87.9161 41.5349 88.015 41.3794 88.015C41.2238 88.015 41.026 88.1139 40.9384 88.2355C40.851 88.3568 40.7021 88.456 40.6076 88.456C40.5132 88.456 40.3643 88.5552 40.2769 88.6765C40.1835 88.8059 39.9915 88.897 39.8116 88.897C39.6431 88.897 39.5052 88.9466 39.5052 89.0073C39.5052 89.0679 39.4059 89.1175 39.2847 89.1175C39.1634 89.1175 39.0642 89.1671 39.0642 89.2277C39.0642 89.2884 38.965 89.338 38.8437 89.338C38.7224 89.338 38.6232 89.3876 38.6232 89.4482C38.6232 89.5089 38.5439 89.5585 38.4469 89.5585C38.35 89.5585 38.1316 89.7073 37.9617 89.8892C37.7918 90.0711 37.5843 90.22 37.5009 90.22C37.4173 90.22 37.2774 90.3192 37.19 90.4405C37.1026 90.5617 36.9537 90.661 36.8592 90.661C36.7648 90.661 36.6159 90.7602 36.5285 90.8815C36.4411 91.0027 36.2922 91.102 36.1978 91.102C36.1033 91.102 35.9544 91.2012 35.867 91.3224C35.7481 91.4875 35.5816 91.5429 35.2055 91.5429C34.8295 91.5429 34.663 91.4875 34.544 91.3224C34.4334 91.1689 34.2586 91.102 33.9684 91.102C33.7393 91.102 33.5518 91.0523 33.5518 90.9917C33.5518 90.9311 33.4526 90.8815 33.3313 90.8815C33.21 90.8815 33.1108 90.8318 33.1108 90.7712C33.1108 90.7106 32.9233 90.661 32.6942 90.661C32.404 90.661 32.2293 90.594 32.1186 90.4405C32.0312 90.3192 31.8714 90.22 31.7635 90.22C31.6557 90.22 31.5674 90.1704 31.5674 90.1097C31.5674 90.0491 31.3193 89.9995 31.0161 89.9995C30.7129 89.9995 30.4649 89.9499 30.4649 89.8892C30.4649 89.8286 30.3161 89.779 30.1341 89.779C29.9522 89.779 29.8034 89.7294 29.8034 89.6687C29.8034 89.6081 29.6655 89.5585 29.497 89.5585C29.3171 89.5585 29.125 89.4674 29.0317 89.338C28.9442 89.2167 28.8043 89.1175 28.7208 89.1175C28.6373 89.1175 28.4298 88.9687 28.2599 88.7868C28.09 88.6049 27.8716 88.456 27.7747 88.456C27.6777 88.456 27.5985 88.4064 27.5985 88.3458C27.5985 88.2851 27.4496 88.2355 27.2677 88.2355C27.0858 88.2355 26.937 88.1859 26.937 88.1253C26.937 88.0646 26.8487 88.015 26.7408 88.015C26.6329 88.015 26.4732 87.9158 26.3857 87.7945C26.2924 87.6651 26.1003 87.574 25.9204 87.574C25.6875 87.574 25.614 87.5211 25.614 87.3535C25.614 87.182 25.5405 87.133 25.2833 87.133C25.1013 87.133 24.9525 87.0834 24.9525 87.0228C24.9525 86.9622 24.8533 86.9126 24.732 86.9126C24.6107 86.9126 24.5115 86.8629 24.5115 86.8023C24.5115 86.7417 24.4123 86.6921 24.291 86.6921C24.1698 86.6921 24.0705 86.6424 24.0705 86.5818C24.0705 86.5212 23.9713 86.4716 23.85 86.4716C23.7288 86.4716 23.6295 86.422 23.6295 86.3613C23.6295 86.3007 23.5303 86.2511 23.4091 86.2511C23.2878 86.2511 23.1886 86.2015 23.1886 86.1408C23.1886 86.0802 23.0397 86.0306 22.8578 86.0306C22.6759 86.0306 22.5271 85.981 22.5271 85.9203C22.5271 85.8597 22.3782 85.8101 22.1963 85.8101C21.9391 85.8101 21.8656 85.7611 21.8656 85.5896C21.8656 85.4642 21.7921 85.3691 21.6953 85.3691C21.5025 85.3691 20.9836 84.8893 20.9836 84.7112C20.9836 84.5286 23.0555 82.5027 23.2422 82.5027C23.334 82.5027 23.4091 82.453 23.4091 82.3924C23.4091 82.3318 23.4974 82.2822 23.6052 82.2822C23.7131 82.2822 23.8729 82.1829 23.9603 82.0617C24.0477 81.9404 24.1859 81.8412 24.2674 81.8412C24.3489 81.8412 24.6572 81.5931 24.9525 81.2899C25.2479 80.9868 25.5472 80.7387 25.6177 80.7387C25.6883 80.7387 25.8851 80.5899 26.055 80.408C26.2249 80.226 26.4433 80.0772 26.5402 80.0772C26.6372 80.0772 26.7165 80.0276 26.7165 79.967C26.7165 79.9063 26.7957 79.8567 26.8928 79.8567C26.9897 79.8567 27.2081 79.7079 27.378 79.526C27.5479 79.3441 27.7663 79.1952 27.8632 79.1952C27.9602 79.1952 28.0394 79.1456 28.0394 79.085C28.0394 79.0244 28.1187 78.9747 28.2157 78.9747C28.3126 78.9747 28.531 78.8259 28.7009 78.644C28.8708 78.4621 29.0683 78.3133 29.1397 78.3133C29.211 78.3133 29.4601 78.1148 29.6932 77.8723C29.9262 77.6297 30.1842 77.4313 30.2665 77.4313C30.3489 77.4313 30.4877 77.3321 30.5751 77.2108C30.6626 77.0895 30.8114 76.9903 30.9059 76.9903C31.0004 76.9903 31.1492 76.8911 31.2366 76.7698C31.324 76.6485 31.4838 76.5493 31.5917 76.5493C31.6995 76.5493 31.7879 76.4997 31.7879 76.439C31.7879 76.3784 31.8762 76.3288 31.984 76.3288C32.0919 76.3288 32.2517 76.2296 32.3391 76.1083C32.5033 75.8805 32.8903 75.8031 32.8903 75.9981ZM49.4274 88.897C49.4274 90.8815 49.3881 91.9839 49.3172 91.9839C49.1568 91.9839 49.1818 92.6169 49.3448 92.683C49.4488 92.7251 49.4421 92.77 49.3172 92.8659C49.1923 92.9618 49.1856 93.0067 49.2896 93.0488C49.4638 93.1195 49.4908 96.6143 49.3172 96.6143C49.2566 96.6143 49.2069 96.6901 49.2069 96.7826C49.2069 97.0014 48.2711 97.9373 48.0522 97.9373C47.9575 97.9373 47.884 98.0336 47.884 98.1578C47.884 98.3047 47.8104 98.3783 47.6635 98.3783C47.5422 98.3783 47.443 98.4279 47.443 98.4885C47.443 98.5492 47.2942 98.5988 47.1122 98.5988C46.9303 98.5988 46.7815 98.6484 46.7815 98.709C46.7815 98.7697 46.6823 98.8193 46.561 98.8193C46.4397 98.8193 46.3405 98.8689 46.3405 98.9295C46.3405 98.9902 46.2413 99.0398 46.12 99.0398C45.9987 99.0398 45.8995 99.0894 45.8995 99.15C45.8995 99.2107 45.6515 99.2603 45.3483 99.2603C45.0451 99.2603 44.797 99.3099 44.797 99.3705C44.797 99.4311 44.6978 99.4808 44.5765 99.4808C44.4553 99.4808 44.3561 99.5304 44.3561 99.591C44.3561 99.6516 44.2568 99.7013 44.1356 99.7013C44.0143 99.7013 43.9151 99.7509 43.9151 99.8115C43.9151 99.8721 43.8268 99.9217 43.7189 99.9217C43.611 99.9217 43.4513 100.021 43.3638 100.142C43.2705 100.272 43.0784 100.363 42.8985 100.363C42.73 100.363 42.5921 100.412 42.5921 100.473C42.5921 100.534 42.4929 100.583 42.3716 100.583C42.2503 100.583 42.1511 100.633 42.1511 100.693C42.1511 100.754 42.0628 100.804 41.955 100.804C41.847 100.804 41.6873 100.903 41.5999 101.024C41.5065 101.154 41.3144 101.245 41.1345 101.245C40.9661 101.245 40.8281 101.294 40.8281 101.355C40.8281 101.416 40.7398 101.465 40.632 101.465C40.5241 101.465 40.3643 101.564 40.2769 101.686C40.1895 101.807 40.0297 101.906 39.9218 101.906C39.814 101.906 39.7257 101.956 39.7257 102.016C39.7257 102.077 39.6374 102.127 39.5295 102.127C39.4216 102.127 39.2619 102.226 39.1744 102.347C39.087 102.468 38.9273 102.568 38.8193 102.568C38.7115 102.568 38.6232 102.617 38.6232 102.678C38.6232 102.739 38.524 102.788 38.4027 102.788C38.2814 102.788 38.1822 102.838 38.1822 102.898C38.1822 102.959 38.0443 103.009 37.8758 103.009C37.6959 103.009 37.5039 103.1 37.4105 103.229C37.3171 103.359 37.125 103.45 36.9451 103.45C36.7767 103.45 36.6387 103.499 36.6387 103.56C36.6387 103.621 36.5395 103.67 36.4182 103.67C36.2272 103.67 36.1978 103.597 36.1978 103.119C36.1978 102.816 36.2474 102.568 36.308 102.568C36.3686 102.568 36.4182 102.468 36.4182 102.347C36.4182 102.226 36.3686 102.127 36.308 102.127C36.2437 102.127 36.1978 101.759 36.1978 101.245C36.1978 100.73 36.1518 100.363 36.0875 100.363C36.0178 100.363 35.9773 99.591 35.9773 98.268C35.9773 96.9451 35.9367 96.1733 35.867 96.1733C35.7069 96.1733 35.7315 95.5421 35.8946 95.4659C36.0048 95.4145 36.0048 95.3887 35.8946 95.3373C35.8188 95.3019 35.7568 95.1779 35.7568 95.0617C35.7568 94.9455 35.7072 94.8504 35.6465 94.8504C35.5859 94.8504 35.5363 94.6519 35.5363 94.4094C35.5363 94.0419 35.573 93.9684 35.7568 93.9684C35.878 93.9684 35.9773 93.9188 35.9773 93.8581C35.9773 93.7975 36.0765 93.7479 36.1978 93.7479C36.3231 93.7479 36.4182 93.6744 36.4182 93.5776C36.4182 93.3692 36.9043 92.8659 37.1055 92.8659C37.1858 92.8659 37.323 92.7667 37.4105 92.6454C37.4979 92.5241 37.6576 92.4249 37.7656 92.4249C37.8734 92.4249 37.9617 92.3753 37.9617 92.3147C37.9617 92.254 38.0609 92.2044 38.1822 92.2044C38.3035 92.2044 38.4027 92.1548 38.4027 92.0942C38.4027 92.0335 38.491 91.9839 38.5988 91.9839C38.7068 91.9839 38.8665 91.8847 38.9539 91.7634C39.0414 91.6422 39.2011 91.5429 39.309 91.5429C39.4169 91.5429 39.5052 91.4933 39.5052 91.4327C39.5052 91.3721 39.5844 91.3224 39.6815 91.3224C39.7784 91.3224 39.9968 91.1736 40.1667 90.9917C40.3365 90.8098 40.555 90.661 40.6519 90.661C40.7489 90.661 40.8281 90.6114 40.8281 90.5507C40.8281 90.4901 40.9274 90.4405 41.0486 90.4405C41.1699 90.4405 41.2691 90.3909 41.2691 90.3302C41.2691 90.2696 41.3574 90.22 41.4653 90.22C41.5732 90.22 41.7329 90.1208 41.8204 89.9995C41.9078 89.8782 42.0566 89.779 42.1511 89.779C42.2456 89.779 42.3944 89.6798 42.4818 89.5585C42.5693 89.4372 42.729 89.338 42.837 89.338C42.9448 89.338 43.0331 89.2884 43.0331 89.2277C43.0331 89.1671 43.1323 89.1175 43.2536 89.1175C43.3749 89.1175 43.4741 89.0679 43.4741 89.0073C43.4741 88.9466 43.5733 88.897 43.6946 88.897C43.8158 88.897 43.9151 88.8474 43.9151 88.7868C43.9151 88.7261 44.0143 88.6765 44.1356 88.6765C44.2568 88.6765 44.3561 88.6269 44.3561 88.5663C44.3561 88.5056 44.494 88.456 44.6624 88.456C44.8424 88.456 45.0344 88.365 45.1278 88.2355C45.2152 88.1142 45.375 88.015 45.4829 88.015C45.5907 88.015 45.679 87.9654 45.679 87.9048C45.679 87.8441 45.7583 87.7945 45.8553 87.7945C45.9522 87.7945 46.1706 87.6457 46.3405 87.4638C46.5104 87.2819 46.7179 87.133 46.8013 87.133C46.8849 87.133 47.0248 87.0338 47.1122 86.9126C47.1997 86.7913 47.3594 86.6921 47.4674 86.6921C47.5752 86.6921 47.6635 86.6424 47.6635 86.5818C47.6635 86.5212 47.7627 86.4716 47.884 86.4716C48.0052 86.4716 48.1045 86.422 48.1045 86.3613C48.1045 86.3007 48.2037 86.2511 48.325 86.2511C48.4462 86.2511 48.5455 86.2015 48.5455 86.1408C48.5455 86.0802 48.6447 86.0306 48.766 86.0306C48.8872 86.0306 48.9865 85.981 48.9865 85.9203C48.9865 85.8597 49.0857 85.8101 49.2069 85.8101C49.4221 85.8101 49.4274 85.8836 49.4274 88.897ZM20.1016 87.6843C20.1016 87.7449 20.2505 87.7945 20.4324 87.7945C20.6143 87.7945 20.7631 87.8441 20.7631 87.9048C20.7631 87.9654 20.8623 88.015 20.9836 88.015C21.1049 88.015 21.2041 88.0646 21.2041 88.1253C21.2041 88.1859 21.3033 88.2355 21.4246 88.2355C21.5459 88.2355 21.6451 88.2851 21.6451 88.3458C21.6451 88.4064 21.774 88.456 21.9316 88.456C22.1078 88.456 22.3371 88.5834 22.5271 88.7868C22.697 88.9687 22.945 89.1175 23.0783 89.1175C23.2116 89.1175 23.4597 89.2663 23.6295 89.4482C23.8622 89.6972 24.0366 89.779 24.3352 89.779C24.5535 89.779 24.732 89.8286 24.732 89.8892C24.732 89.9499 24.8203 89.9995 24.9282 89.9995C25.0361 89.9995 25.1958 90.0987 25.2833 90.22C25.3766 90.3494 25.5687 90.4405 25.7486 90.4405C25.9171 90.4405 26.055 90.4901 26.055 90.5507C26.055 90.6114 26.2534 90.661 26.496 90.661C26.7385 90.661 26.937 90.7106 26.937 90.7712C26.937 90.8318 27.0362 90.8815 27.1575 90.8815C27.2787 90.8815 27.378 90.9311 27.378 90.9917C27.378 91.0523 27.4772 91.102 27.5985 91.102C27.7197 91.102 27.8189 91.1516 27.8189 91.2122C27.8189 91.2728 27.9073 91.3224 28.0151 91.3224C28.123 91.3224 28.2828 91.4217 28.3702 91.5429C28.4809 91.6965 28.6556 91.7634 28.9458 91.7634C29.1749 91.7634 29.3624 91.8131 29.3624 91.8737C29.3624 91.9343 29.4616 91.9839 29.5829 91.9839C29.7042 91.9839 29.8034 92.0335 29.8034 92.0942C29.8034 92.1548 29.9522 92.2044 30.1341 92.2044C30.3161 92.2044 30.4649 92.254 30.4649 92.3147C30.4649 92.3753 30.5532 92.4249 30.661 92.4249C30.7689 92.4249 30.9287 92.5241 31.0161 92.6454C31.1035 92.7667 31.2633 92.8659 31.3712 92.8659C31.4791 92.8659 31.5674 92.9155 31.5674 92.9762C31.5674 93.0368 31.6466 93.0864 31.7436 93.0864C31.8406 93.0864 32.059 93.2352 32.2288 93.4171C32.3987 93.5991 32.6171 93.7479 32.714 93.7479C32.856 93.7479 32.8903 93.8768 32.8903 94.4094C32.8903 94.7768 32.9393 95.0709 33.0006 95.0709C33.072 95.0709 33.1108 96.4305 33.1108 98.9295C33.1108 101.428 33.072 102.788 33.0006 102.788C32.9363 102.788 32.8903 103.156 32.8903 103.67V104.552H32.5596C32.3324 104.552 32.2288 104.498 32.2288 104.379C32.2288 104.126 31.9523 103.891 31.6547 103.891C31.5121 103.891 31.324 103.791 31.2366 103.67C31.1492 103.549 30.9894 103.45 30.8815 103.45C30.7737 103.45 30.6854 103.4 30.6854 103.339C30.6854 103.279 30.5862 103.229 30.4649 103.229C30.3436 103.229 30.2444 103.18 30.2444 103.119C30.2444 103.058 30.1065 103.009 29.938 103.009C29.7581 103.009 29.566 102.918 29.4727 102.788C29.3852 102.667 29.2255 102.568 29.1176 102.568C29.0097 102.568 28.9214 102.518 28.9214 102.457C28.9214 102.397 28.8331 102.347 28.7253 102.347C28.6174 102.347 28.4576 102.248 28.3702 102.127C28.2825 102.005 28.0848 101.906 27.9292 101.906C27.7736 101.906 27.5759 101.807 27.4882 101.686C27.4008 101.564 27.2519 101.465 27.1575 101.465C27.063 101.465 26.9141 101.366 26.8267 101.245C26.7393 101.123 26.5905 101.024 26.496 101.024C26.4015 101.024 26.2527 100.925 26.1652 100.804C26.0778 100.682 25.9181 100.583 25.8101 100.583C25.7023 100.583 25.614 100.534 25.614 100.473C25.614 100.412 25.5257 100.363 25.4179 100.363C25.3099 100.363 25.1502 100.264 25.0628 100.142C24.9753 100.021 24.8156 99.9217 24.7077 99.9217C24.5998 99.9217 24.5115 99.8721 24.5115 99.8115C24.5115 99.7509 24.4123 99.7013 24.291 99.7013C24.1698 99.7013 24.0705 99.6516 24.0705 99.591C24.0705 99.5304 23.9217 99.4808 23.7398 99.4808C23.5579 99.4808 23.4091 99.4311 23.4091 99.3705C23.4091 99.3099 23.3098 99.2603 23.1886 99.2603C23.0673 99.2603 22.9681 99.2107 22.9681 99.15C22.9681 99.0894 22.8914 99.0398 22.7977 99.0398C22.5771 99.0398 22.0861 98.5487 22.0861 98.3281C22.0861 98.2153 21.9826 98.1578 21.7797 98.1578C21.5998 98.1578 21.4077 98.0667 21.3144 97.9373C21.2269 97.816 21.0885 97.7168 21.0065 97.7168C20.8146 97.7168 20.5426 97.4448 20.5426 97.2529C20.5426 97.171 20.4434 97.0325 20.3221 96.9451C20.1686 96.8344 20.1016 96.6596 20.1016 96.3695C20.1016 96.1404 20.052 95.9528 19.9914 95.9528C19.9307 95.9528 19.8811 95.7544 19.8811 95.5119C19.8811 95.2693 19.9307 95.0709 19.9914 95.0709C20.052 95.0709 20.1016 94.922 20.1016 94.7401C20.1016 94.5582 20.052 94.4094 19.9914 94.4094C19.9246 94.4094 19.8811 93.9317 19.8811 93.1967C19.8811 92.4616 19.8377 91.9839 19.7709 91.9839C19.7011 91.9839 19.6606 91.1755 19.6606 89.779C19.6606 87.6476 19.668 87.574 19.8811 87.574C20.0024 87.574 20.1016 87.6236 20.1016 87.6843Z" fill="#0FC045"/>
<path fill-rule="evenodd" clip-rule="evenodd" d="M9.76195 139.707C8.21107 138.897 6.69682 138.018 5.20651 137.102C4.1568 136.474 5.08614 134.891 6.16251 135.463C6.71288 135.756 7.26112 136.051 7.81134 136.341C7.37831 135.968 6.97693 135.562 6.61702 135.119L6.64186 135.095C5.25436 133.851 7.03659 131.504 8.61458 132.526C10.0062 133.535 11.4105 134.565 13.0078 135.229C16.3164 136.633 19.9658 136.865 23.5169 136.906C24.8165 136.808 26.0577 137.033 27.3186 137.284C26.8243 135.3 25.5871 133.802 24.9309 131.88C24.4467 129.94 27.246 128.619 28.238 130.484C28.4815 130.942 28.7136 131.405 28.9405 131.87C31.0848 133.822 34.6653 133.65 36.8279 135.745C38.0596 136.838 38.6625 138.322 38.9006 139.812C39.0623 140.823 38.8109 141.837 39.4222 142.733C42.3776 146.915 47.0473 153.524 49.4188 158.126C51.0979 147.191 55.5813 133.665 60.213 123.665C61.7447 120.467 63.4969 117.343 65.7971 114.632C65.5364 113.728 66.4567 112.123 67.0419 112.617C68.8432 110.416 72.0273 109.846 74.5876 108.752C78.0438 107.273 80.9113 104.2 82.3209 100.707C84.1321 94.056 88.5906 93.2111 94.774 93.5051C100.692 93.4977 105.07 96.0297 106.361 102.056C108.984 106.63 115.178 105.874 119.634 107.084C122.899 107.831 126.068 108.985 129.08 110.449C132.431 107.27 144.43 120.613 145.521 124.047C144.879 124.172 144.241 124.322 143.608 124.504C143.045 124.667 143.282 125.518 143.85 125.382C144.557 125.212 145.268 125.095 145.983 125.014C146.005 125.083 146.024 125.151 146.038 125.218C146.118 125.212 146.198 125.206 146.279 125.2C146.101 125.293 145.93 125.4 145.763 125.539C145.359 125.874 145.884 126.521 146.313 126.254C146.717 125.951 147.246 125.999 147.73 125.898C147.759 126.894 151.313 125.779 151.865 125.449C154.318 125.142 156.843 125.472 159.133 124.288C162.181 123.646 165.251 122.936 168.265 122.118C169.063 122.429 169.812 123.543 169.179 124.359C168.822 124.731 169.281 125.338 169.729 125.074C171.234 124.188 172.398 122.804 173.385 121.314C173.85 120.845 174.674 120.946 175.299 120.751C175.382 120.901 175.431 121.068 175.43 121.24C178.078 121.676 176.189 124.568 174.858 125.47C175.564 125.93 175.591 126.83 175.529 127.582C175.679 127.85 175.729 128.182 175.599 128.482C175.101 129.63 174.024 130.596 173.206 131.526C172.302 132.553 171.496 133.586 170.396 134.418C166.204 137.615 161.145 139.402 155.955 140.101C154.112 140.384 151.461 140.818 150.32 142.376C150.6 144.226 151.114 146.001 151.581 147.805C152.233 150.199 152.188 152.706 152.197 155.148C152.288 155.074 152.463 155.09 152.489 155.229C152.641 156.241 152.754 157.276 153.369 158.126C153.908 159.708 154.266 161.394 154.468 163.055C155.275 170.931 155.468 179.039 153.648 186.792C152.945 189.668 151.803 192.401 150.246 194.918C149.782 195.669 149.036 195.889 148.366 195.742C146.124 196.907 143.299 197.281 140.882 196.985C132.642 194.651 135.513 200.27 123.96 198.549C104.019 196.008 83.8657 201.002 63.9666 198.07C63.4765 201.857 57.0607 200.771 54.8321 199.17C48.1499 194.2 44.8319 178.466 41.4784 170.485C39.1732 164.194 35.3132 153.051 30.2581 148.83C28.7423 147.644 26.9102 147.019 25.0769 146.515C18.2351 144.752 11.3669 143.084 4.51199 141.369C3.34949 141.083 3.55843 139.099 4.80148 139.226C6.45123 139.395 8.1066 139.548 9.76195 139.707Z" fill="white"/>
<path fill-rule="evenodd" clip-rule="evenodd" d="M162.071 138.528C162.534 138.47 162.988 138.305 163.44 138.175C164.129 137.974 164.804 137.739 165.468 137.471C166.84 136.921 168.171 136.271 169.419 135.476C171.434 134.19 173.215 132.542 174.558 130.558L174.65 130.419C175.416 129.251 176.831 126.657 175.245 125.77C176.267 124.916 177.233 123.381 177.178 122.197C177.101 120.521 175.048 120.544 173.987 121.255C173.292 121.72 172.771 122.371 172.249 123.012C171.67 123.723 171.052 124.402 170.411 125.055C170.24 125.228 170.068 125.397 169.893 125.563L169.717 125.729C169.744 125.664 169.769 125.597 169.79 125.529C170.144 124.425 169.722 122.987 168.618 122.482C167.942 122.172 167.241 122.361 166.586 122.624L166.486 122.665C165.605 123.03 164.713 123.352 163.795 123.611C160.056 124.667 156.152 124.843 152.32 125.37C150.844 125.574 149.341 125.832 147.872 126.21C147.312 123.831 145.938 121.55 144.449 119.673C137.314 110.696 125.548 107.729 114.785 105.808C113.803 105.634 112.99 106.933 112.42 106.626C111.337 106.044 110.385 105.22 109.549 104.325C107.767 102.415 106.502 100.169 105.017 98.0407C104.283 96.9895 102.593 97.9301 103.274 99.0585L103.608 99.61C104.983 101.869 106.504 104.197 108.475 105.949C109.523 106.879 110.686 107.613 112.015 108.072C113.022 108.419 114.435 108.712 115.537 108.375L115.669 108.182C115.626 108.247 115.581 108.311 115.537 108.375C112.66 112.545 109.051 116.074 105.247 119.405C101.408 122.765 97.2668 125.774 93.1004 128.716L92.7532 128.961C85.9656 124.008 80.2318 117.548 76.2088 110.167C77.052 110.066 77.8863 109.525 78.607 109.122C79.4746 108.634 80.2907 108.053 80.9266 107.277C82.312 105.588 82.1318 103.412 82.3816 101.362C82.3968 101.235 82.2287 101.203 82.1515 101.267C81.4005 101.891 81.137 102.913 80.8236 103.796C80.4784 104.767 80.0878 105.567 79.2959 106.25C78.5586 106.886 77.6592 107.354 76.7856 107.771C76.335 107.985 74.0985 108.534 73.8437 108.989C69.9798 108.081 66.2157 109.649 63.3526 112.294C60.5864 114.849 58.556 118.171 56.7633 121.45C54.851 124.949 53.284 128.596 51.9334 132.345C50.5647 136.15 49.5154 140.038 48.9385 144.043C48.4516 147.419 48.153 150.849 47.9598 154.263L47.9362 154.69C45.0777 150.202 42.1479 145.761 39.1576 141.359C39.8374 139.543 39.0849 137.689 37.8116 136.286C36.4005 134.734 34.4488 134.013 32.5819 133.174L32.3365 133.063C31.4368 132.652 30.5399 132.2 29.7627 131.585C29.0147 130.991 28.4651 130.173 27.6778 129.626C26.5332 128.829 24.4558 128.999 24.4028 130.739C24.3756 131.695 24.7859 132.743 25.1614 133.602C25.5869 134.573 26.1607 135.453 26.842 136.262C26.8735 136.3 26.9079 136.329 26.9429 136.353L26.9692 136.37C26.0274 136.526 25.0781 136.651 24.1106 136.695C22.159 136.785 20.1861 136.641 18.2753 136.229C16.3191 135.808 14.4235 135.123 12.6641 134.169C11.1606 133.354 9.7677 132.3 8.05981 132.051C7.90236 132.027 7.74338 132.012 7.57985 132.003C7.30731 131.988 7.03477 132.309 7.14229 132.578C7.20132 132.727 7.26341 132.874 7.33154 133.022C7.92203 134.323 8.82773 135.585 9.95743 136.543L10.0448 136.616C9.64653 136.479 9.25438 136.324 8.86829 136.15C6.59868 135.128 4.53954 133.583 2.1064 132.962C1.99133 132.931 1.87474 132.904 1.75815 132.878C1.00565 132.716 0.608963 133.534 1.05107 134.095C1.12224 134.185 1.19341 134.275 1.26759 134.364C2.3532 135.712 3.55081 136.963 4.87109 138.087C5.32381 138.472 5.79016 138.844 6.26558 139.201C6.46593 139.351 6.66739 139.499 6.87094 139.644L6.97119 139.715C6.73347 139.547 6.49879 139.376 6.26562 139.201C4.77576 138.749 3.3071 138.214 1.87022 137.622C1.29942 137.387 0.855804 137.966 0.795227 138.442C0.592346 140.035 2.36081 141.188 3.51151 141.954C4.66524 142.724 5.93556 143.308 7.23616 143.778C9.73682 144.682 12.3633 145.092 14.9856 145.46L16.2593 145.638C21.3007 146.343 26.5663 147.186 30.1836 151.11C32.211 153.31 33.5827 156.042 34.8379 158.731C36.0916 161.416 37.1923 164.173 38.237 166.945C39.3196 169.814 40.2629 172.735 41.2652 175.633C42.1858 178.294 43.2853 180.92 44.3744 183.52L44.5462 183.93C46.8582 189.456 49.6199 194.66 53.4687 199.274C54.1031 200.036 55.1282 198.955 54.5422 198.2C50.5163 193.008 47.7152 186.881 45.4032 180.769C44.3509 177.988 43.4697 175.141 42.4583 172.345L41.8565 170.684C41.0529 168.469 40.2423 166.258 39.3968 164.061C38.3264 161.281 37.1499 158.535 35.8039 155.879L35.6611 155.599C34.3433 153.036 32.7776 150.51 30.6227 148.57C26.744 145.078 21.5828 144.24 16.5927 143.576L15.0228 143.369C12.913 143.089 10.7973 142.779 8.7457 142.215C7.56168 141.891 6.40492 141.475 5.31781 140.903C4.88478 140.676 4.46236 140.426 4.05354 140.153C5.21939 140.496 6.40189 140.776 7.60558 140.995C8.19456 141.103 8.7775 141.183 9.3589 141.239C10.8563 141.388 12.3416 141.382 13.8754 141.301C14.0056 141.294 14.048 141.089 13.9087 141.064C12.8405 140.874 11.7712 140.636 10.7062 140.378L10.3869 140.3C10.3809 140.123 10.3112 139.935 10.1659 139.756C9.63594 139.111 8.62907 138.781 7.93108 138.325C7.19977 137.848 6.49118 137.333 5.8159 136.781C5.19817 136.277 4.60463 135.744 4.03383 135.187L3.8627 135.018C3.91949 135.075 3.97655 135.131 4.03383 135.187C5.57516 135.899 7.03625 136.812 8.64572 137.375C9.92513 137.825 11.2666 138.128 12.6202 138.236L12.7042 138.242L12.7883 138.248C14.2009 138.349 15.6226 138.308 17.0141 138.614C17.17 138.649 17.2185 138.44 17.0792 138.381C15.8634 137.875 14.5991 137.68 13.3212 137.443C13.294 137.343 13.2243 137.254 13.1032 137.197L12.7763 137.04C11.8026 136.573 10.8951 136.1 10.0856 135.341C9.371 134.67 8.77596 133.886 8.3293 133.016C10.1174 133.408 11.6875 134.764 13.3137 135.526C15.0851 136.357 16.9596 136.954 18.8855 137.294L19.1049 137.331C22.704 137.932 27.032 137.855 30.2563 135.983C30.3592 135.923 30.285 135.785 30.1791 135.802C29.2646 135.951 28.3591 136.129 27.4537 136.286C27.6309 136.124 27.7096 135.833 27.5052 135.6C26.692 134.668 26.0489 133.602 25.6378 132.436L25.5592 132.208C25.3698 131.667 25.05 130.827 25.3764 130.34C25.6883 129.875 26.4226 129.938 26.8617 130.135C27.7747 130.547 28.3819 131.576 29.151 132.197C29.9898 132.875 30.9437 133.378 31.9203 133.828L32.1265 133.922C33.8156 134.682 35.6204 135.322 36.9485 136.663C37.6632 137.384 38.2779 138.286 38.4838 139.296C38.5777 139.759 38.5777 140.237 38.4535 140.695C38.3551 141.054 38.1492 141.276 38.2673 141.641C38.4218 142.112 38.9683 142.675 39.25 143.095C39.577 143.58 39.9025 144.066 40.228 144.552C40.8776 145.524 41.5241 146.5 42.1706 147.474C43.4636 149.425 44.743 151.385 46.0118 153.351C46.4247 153.991 46.8362 154.632 47.2463 155.273L47.8605 156.236L48.1851 156.744L48.7387 157.614C48.719 157.695 48.7205 157.78 48.7463 157.854C48.8406 158.123 49.0174 158.306 49.237 158.44L49.2762 158.463C52.5073 163.572 55.6869 168.714 58.8982 173.835C59.0693 175.398 59.2298 176.963 59.3691 178.528C59.6855 182.069 59.9021 185.619 59.9717 189.174C60.005 190.895 59.8672 192.626 59.793 194.345C59.7567 195.166 59.707 195.985 59.6421 196.805L59.5943 197.385C59.5303 198.183 59.4941 198.975 59.7809 199.736C60.0353 200.404 60.8105 200.554 61.2693 200.045C67.2544 199.804 73.2442 199.621 79.2339 199.507C89.9551 199.301 100.681 199.333 111.404 199.541C116.789 199.645 122.176 199.792 127.56 199.974C130.213 200.062 132.867 200.186 135.521 200.222C136.951 200.242 139.202 199.721 139.317 198.111L139.32 198.062C139.499 198.111 139.684 198.15 139.873 198.179C139.957 198.192 140.038 198.188 140.113 198.171L140.15 198.161C142.282 198.811 144.978 197.883 147.004 197.343L147.171 197.299C149.104 196.795 150.658 196.074 151.925 194.471C154.143 191.664 154.9 187.896 155.294 184.423C155.663 181.154 155.684 177.825 155.235 174.562C155.5 171.904 155.241 169.161 154.94 166.518C154.791 165.21 154.617 163.905 154.408 162.605C154.292 161.88 154.139 161.162 153.983 160.445C153.92 160.159 153.869 159.851 153.79 159.553L153.754 159.426C153.996 159.458 154.261 159.405 154.517 159.264C155.126 158.929 155.303 158.252 155.314 157.604C155.347 155.65 155.114 153.64 154.908 151.698C154.7 149.759 154.416 147.813 154.043 145.898L153.947 145.405C153.665 143.973 153.342 142.494 152.773 141.148C154.909 140.785 157.04 140.399 159.112 139.741C160.124 139.419 161.12 139.017 162.071 138.528ZM50.5647 158.862C50.598 158.87 50.6298 158.879 50.6615 158.888C51.5155 159.128 52.3785 159.331 53.2385 159.549C54.7253 159.923 56.1789 160.341 57.5612 160.991C57.8508 164.647 58.2801 168.292 58.6882 171.938L58.7695 172.667C58.1426 171.504 57.5007 170.35 56.8299 169.209C54.7874 165.733 52.698 162.284 50.5647 158.862ZM153.233 159.225C153.229 159.659 153.319 160.111 153.368 160.529C153.447 161.207 153.51 161.889 153.591 162.567C153.754 163.931 153.893 165.295 153.995 166.665C154.06 167.539 154.102 168.416 154.14 169.293C153.282 166.083 152.145 162.943 151.063 159.798C151.244 159.779 151.429 159.735 151.619 159.685L151.94 159.598C152.129 159.549 152.743 159.399 153.233 159.225ZM47.8605 156.236L47.8544 156.38C47.8317 156.89 48.1375 157.178 48.5085 157.252C48.2935 156.913 48.077 156.574 47.8605 156.236ZM146.094 132.044C145.19 132.124 144.305 132.316 143.46 132.65L143.378 132.681C142.753 132.923 141.84 133.226 141.635 133.893C141.578 134.082 141.732 134.238 141.909 134.254C142.588 134.308 143.387 133.581 144.015 133.336C144.715 133.063 145.448 132.86 146.19 132.752C147.857 132.509 149.595 132.694 151.163 133.301C151.256 133.337 151.313 133.19 151.23 133.146C149.649 132.286 147.892 131.885 146.094 132.044ZM165.249 136.376C165.353 136.283 165.458 136.186 165.561 136.089C166.373 135.321 167.092 134.425 167.624 133.439L167.764 133.173C168.197 132.333 168.73 131.137 167.711 130.532C167.102 130.17 166.369 130.261 165.691 130.48C165.647 130.494 165.603 130.509 165.559 130.524C165.257 130.631 164.964 130.758 164.704 130.879C163.573 131.398 162.575 132.154 161.53 132.821C160.398 133.543 159.281 134.005 157.974 134.276L157.851 134.3C156.625 134.543 155.295 134.699 154.44 135.708C154.225 135.962 154.422 136.439 154.793 136.313C157.158 135.515 159.661 135.34 161.832 134.029C162.731 133.487 163.582 132.865 164.501 132.351C164.989 132.078 165.492 131.84 166.028 131.676L166.321 131.59C166.493 131.54 166.698 131.49 166.836 131.539C167.098 131.63 167.014 131.771 166.933 132.016L166.925 132.041C166.288 134.013 164.471 135.664 162.787 136.756C162.401 137.007 162.006 137.238 161.603 137.451C158.877 138.905 155.827 139.581 152.831 140.384C152.831 140.384 151.098 140.868 150.524 141.05C149.886 140.997 149.157 141.223 148.676 141.492C148.208 141.754 147.831 142.106 147.546 142.519C147.546 142.519 147.272 142.748 147.222 143.102C147.078 143.431 146.982 143.785 146.933 144.155C146.906 144.372 146.96 144.538 147.063 144.656C146.754 149.411 148.037 154.139 149.485 158.658L149.628 159.104L149.721 159.386C151.282 164.177 153.073 168.934 153.872 173.929C154.407 177.266 154.39 180.719 153.998 184.071L153.97 184.302C153.584 187.472 152.84 191.027 150.826 193.577C149.798 194.879 148.581 195.458 147.024 195.877L146.939 195.899C145.531 196.27 144.078 196.796 142.626 196.955C141.278 197.102 140.148 196.601 138.936 196.131L138.934 196.13C136.38 193.868 135.22 190.575 134.363 187.252C132.142 178.652 132.418 169.724 133.677 160.998C134.334 156.439 135.228 151.919 136.118 147.401C136.563 145.143 137.043 142.889 137.441 140.623L137.678 139.289C137.808 138.548 137.935 137.807 138.042 137.062C138.188 136.061 138.232 135.076 138.282 134.069C139.505 132.041 141.281 130.37 143.339 129.172C144.812 128.313 146.371 127.718 147.981 127.286C152.582 126.046 157.598 126.133 162.228 125.179C163.784 124.859 165.26 124.384 166.736 123.814L166.937 123.736C167.614 123.472 168.304 123.325 168.641 124.123C168.88 124.691 168.737 125.282 168.379 125.759C167.499 126.929 165.73 127.471 164.4 127.892C163.599 128.146 162.781 128.348 161.954 128.498C161.128 128.648 160.298 128.686 159.505 128.978C159.199 129.09 159.138 129.576 159.505 129.662C160.51 129.897 161.521 129.696 162.521 129.501C163.618 129.284 164.699 128.976 165.75 128.587C165.944 128.516 166.145 128.44 166.349 128.36L166.503 128.299C166.344 128.415 166.185 128.528 166.024 128.642C165.982 128.672 166.008 128.752 166.064 128.733C168.534 127.81 170.782 126.147 172.524 124.178L172.61 124.08C173.224 123.377 174.621 121.25 175.799 121.842C176.905 122.398 175.02 124.539 174.303 125.414L174.22 125.517C173.405 125.538 172.616 126.045 171.956 126.454C170.81 127.165 169.613 127.777 168.392 128.349C165.967 129.49 163.391 130.294 160.991 131.492C160.96 131.509 160.984 131.55 161.014 131.545C162.542 131.301 164.053 130.912 165.529 130.429L165.595 130.408L165.661 130.387C166.583 130.084 167.493 129.741 168.388 129.376C169.382 128.97 170.354 128.515 171.298 127.998C172.152 127.531 173.099 126.691 174.09 126.567C174.196 126.553 174.29 126.551 174.371 126.559C175.508 126.654 174.568 128.539 174.25 129.102C173.731 130.028 173.104 130.882 172.385 131.662C170.927 133.246 169.16 134.502 167.248 135.479C166.595 135.812 165.927 136.106 165.249 136.376Z" fill="black"/>
<path fill-rule="evenodd" clip-rule="evenodd" d="M66.2996 70.1584C66.3598 66.7652 66.4264 63.3042 66.9306 59.944C67.4236 56.659 68.7798 53.6896 71.1103 51.3042C76.0603 46.2371 83.2355 44.9995 89.9144 43.8653L101.334 41.926C104.817 41.3346 108.534 40.3891 112.054 41.2279C113.788 41.6413 115.261 42.6016 116.607 43.7377C117.905 44.8329 119.3 46.0088 120.179 47.4822C121.06 48.9576 121.363 50.6824 121.649 52.3511C121.972 54.2325 122.223 56.1286 122.401 58.0292C122.758 61.8371 122.807 65.6736 122.548 69.4894C122.422 71.3401 122.223 73.1856 121.968 75.0229C121.841 75.934 121.698 76.8428 121.537 77.7484C121.489 78.0155 121.453 78.3111 121.405 78.6098C121.765 79.6347 121.969 80.696 121.953 81.7528C121.904 84.8658 119.278 86.8256 116.63 87.8778C115.095 88.488 113.49 88.9025 111.981 89.5841C110.394 90.301 109.314 91.4632 108.229 92.789C106.16 95.3176 103.825 97.5903 101.158 99.4863C95.5049 103.506 88.3445 105.408 81.4851 103.965C79.8393 103.618 78.1789 103.081 76.6995 102.27C75.1376 101.415 73.9631 100.176 72.9768 98.7102C71.1455 95.9897 69.8322 92.9263 68.8387 89.8089C67.8253 86.629 67.106 83.4433 66.7137 80.1275C66.3227 76.8225 66.2404 73.4839 66.2996 70.1584Z" fill="white"/>
<path fill-rule="evenodd" clip-rule="evenodd" d="M102.739 30.1065C98.0134 29.4562 91.4912 31.5697 89.1379 35.8311C77.9024 33.1813 63.7317 33.0945 54.4714 41.9155C44.8086 52.3792 56.9455 66.1756 64.9933 69.2862C64.4074 72.1348 65.321 90.3844 71.7854 98.5247C76.9157 105.422 88.8629 108.605 94.3913 100.367L94.4344 100.299C95.0267 99.3475 94.5166 99.3781 93.9086 100.086C88.4951 104.848 81.1347 104.93 75.4628 99.9035C64.8327 90.717 65.9287 68.1923 70.987 55.1614C85.3905 53.5788 100.812 57.9461 110.76 68.7925L110.088 72.844C109.973 73.5342 109.843 74.2239 109.743 74.9165C109.68 75.3603 109.673 75.8017 109.98 76.161C110.995 77.347 112.705 75.5648 114.113 74.8559C114.528 74.7975 114.945 74.7749 115.353 74.8037C122.114 75.6749 120.782 88.7966 113.351 86.4965C112.726 86.1074 112.19 86.2262 111.948 86.7908C110.176 88.414 109.008 91.3088 106.065 94.097C105.027 95.1429 104.082 96.018 102.914 96.8569C102.228 97.551 100.158 98.2586 100.814 99.4463C102.055 102.149 109.373 93.6597 110.667 91.3121C114.72 92.9135 119.213 92.3695 123.413 91.9782C145.575 90.8255 142.617 67.4555 124.451 52.7009C121.032 50.1826 117.259 48.1283 113.337 46.5474C112.802 46.3316 113.036 45.4521 113.579 45.671C116.174 46.7172 118.703 47.9624 121.115 49.4036L121.118 48.542C121.122 47.0907 121.099 45.5798 120.847 44.2539C120.721 43.3351 120.509 42.3537 120.183 41.6155C119.78 39.3521 113.464 31.583 102.739 30.1065ZM115.648 77.8162C115.306 77.491 114.667 77.8787 114.363 77.8691C113.584 77.9757 112.844 78.3048 112.267 78.7111C111.886 78.9246 111.618 79.1252 111.395 79.3097L111.389 79.308C111.391 79.308 111.393 79.3097 111.395 79.3101L111.374 79.3243C111.049 79.5553 109.859 80.8563 110.611 80.5064C110.667 80.4336 110.724 80.3636 110.782 80.295C110.788 80.3044 110.797 80.3136 110.807 80.3225L110.765 80.3852C110.126 81.3465 111.229 80.3337 111.399 80.0647C111.407 80.0712 111.416 80.0756 111.425 80.0803L111.204 80.3494C111.173 80.3876 111.149 80.4181 111.128 80.4439L111.082 80.4889C110.343 81.2151 110.32 81.8687 111.178 80.795C111.145 80.8456 111.117 80.8992 111.114 80.9467L111.063 81.0116C110.389 81.8801 110.937 81.5716 111.272 81.2007L111.3 81.1688L111.294 81.1775C110.983 81.6574 111.601 81.3207 111.71 81.0639L111.714 81.0523C111.833 80.9552 111.907 80.8462 111.932 80.8187L111.936 80.814C112.516 80.2203 113.355 79.7179 114.069 79.4896C114.172 79.4699 114.277 79.4542 114.382 79.443C114.811 79.3472 115.245 79.2816 115.683 79.2462C115.737 79.2398 115.791 79.2005 115.832 79.1496C116.494 79.1272 116.29 78.8555 116.015 78.8051L116.01 78.8042L116.065 78.7996C116.49 78.7581 116.78 78.6055 116.35 78.5118L116.296 78.501C116.302 78.4905 116.308 78.4801 116.314 78.4696C116.682 78.4292 116.442 78.0711 116.238 78.1577C116.324 77.8765 115.931 78.0169 115.881 77.9751C115.844 77.9336 115.798 77.8969 115.771 77.895C115.652 77.8113 115.71 77.8189 115.648 77.8162ZM113.395 73.2622L113.482 73.3127C113.552 73.3534 113.623 73.3805 113.695 73.3964C113.594 73.4397 113.493 73.4865 113.394 73.5365C113.395 73.4754 113.396 73.4144 113.396 73.3535L113.395 73.2622Z" fill="black"/>
<path fill-rule="evenodd" clip-rule="evenodd" d="M83.4079 91.9297C84.4257 91.5143 85.3338 90.8214 85.9977 89.9363C86.2286 89.6286 86.2884 89.3037 86.24 89.0065C86.1856 88.6724 85.9879 88.3695 85.7184 88.1664C85.4481 87.9626 85.1099 87.8621 84.783 87.9133C84.4989 87.9578 84.2161 88.1134 83.9923 88.4362L83.9455 88.5007C83.5508 89.0349 83.0364 89.4732 82.4504 89.7558C81.8855 90.0281 81.2537 90.1552 80.5999 90.0812C79.3548 89.9405 78.4966 89.2669 77.5844 88.3521C77.4713 88.2366 77.3581 88.1174 77.2445 87.9964C77.1727 87.8867 77.073 87.8162 76.9624 87.7792C76.8396 87.7381 76.7006 87.7404 76.5734 87.7849C76.4506 87.8277 76.3409 87.9089 76.2673 88.017C76.1974 88.1197 76.1577 88.2466 76.1706 88.3926C76.2541 89.3406 76.7495 90.1867 77.4533 90.8511C78.235 91.589 79.2711 92.0994 80.2465 92.2785C81.3212 92.4757 82.4163 92.3344 83.4079 91.9297ZM79.7396 77.3041C78.5962 77.9993 76.8541 79.6205 78.0841 81.3441C79.5319 82.8638 81.6164 81.1213 82.6436 80.3333C83.5961 79.7225 84.6662 81.2933 83.7825 82.0065C76.3599 87.504 73.3477 77.4859 79.1613 76.4866C79.8014 76.3765 80.0391 77.089 79.7396 77.3041ZM93.0409 70.909C92.9146 69.3403 90.5265 68.9841 90.2889 70.5364C90.0762 71.9268 90.3266 73.2042 90.9527 74.4561C91.5509 75.652 93.0545 75.0941 93.1682 74.005C93.3206 72.5452 93.1195 71.8848 93.0409 70.909ZM74.8623 70.2145C74.5293 69.7783 74.0486 69.4805 73.4726 69.6488C71.6731 70.1748 72.2035 72.7305 72.8355 73.9746C73.1789 74.6501 74.2889 74.8214 74.7905 74.2266C75.6081 73.2566 75.9996 71.3195 74.9602 70.364C74.9321 70.3146 74.9007 70.2648 74.8623 70.2145ZM90.9781 64.0451L90.6938 63.9953C89.8145 63.8432 88.7211 63.697 88.099 64.4042C87.7691 64.7793 87.6556 65.4763 88.099 65.8353C88.8791 66.4669 89.7415 66.2222 90.6763 66.2756C91.4467 66.3198 92.1871 66.4474 92.9291 66.6596C94.5571 67.1251 95.8836 67.9748 97.2739 68.9078C97.4564 69.0302 97.6426 68.7968 97.5556 68.6261C96.7529 67.0534 95.1975 65.7615 93.6395 64.9741C92.808 64.5537 91.898 64.2051 90.9781 64.0451ZM76.5027 63.3406L76.2851 63.3852C73.9175 63.8802 70.8414 64.8692 69.7202 67.1957C69.6775 67.5246 69.7227 67.5951 69.7594 67.6412L69.7716 67.6565C69.8018 67.6959 69.826 67.7501 69.9685 67.7949C70.0081 67.7854 70.048 67.7755 70.0884 67.7649C70.6023 67.6301 71.0089 67.4445 71.4026 67.2519L71.8294 67.0416C72.3246 66.7987 72.8241 66.5646 73.3536 66.3918C74.4834 66.0232 75.6455 65.7635 76.8256 65.6248C77.0814 65.5948 77.3277 65.5084 77.522 65.3604C77.7065 65.2199 77.8474 65.0254 77.9116 64.7668C77.9949 64.4322 77.971 64.1789 77.7915 63.8771C77.6566 63.6504 77.4635 63.4932 77.2418 63.403C77.0158 63.311 76.7584 63.2893 76.5027 63.3406Z" fill="black"/>
<path fill-rule="evenodd" clip-rule="evenodd" d="M93.2282 92.8791C92.0024 90.0062 89.3269 87.8947 86.2465 87.1228C83.9845 86.5574 81.6105 86.5754 79.3046 86.7998C78.0964 86.9166 76.8006 87.0123 75.662 87.4611C74.6897 87.8446 73.8974 88.5694 73.3017 89.4201C72.5925 90.4283 72.1101 91.5822 71.7714 92.7649C71.7234 92.9331 71.6781 93.1025 71.636 93.2728C71.7832 94.1651 72.0959 94.9246 72.9221 95.4856C73.7284 96.0335 74.6903 96.2576 75.6493 96.3372C75.7434 96.292 75.8342 96.2456 75.9175 96.198C77.4119 95.3422 78.4637 93.3198 80.3499 93.5934C82.0331 93.8379 83.1412 95.9566 84.1422 97.1991C87.3553 97.5736 90.5661 96.6077 93.1804 94.7696C93.3132 94.1405 93.3209 93.5061 93.2282 92.8791ZM69.4521 90.6997C69.7091 89.9781 70.0329 89.2793 70.4166 88.6209C71.6852 86.4437 73.6328 84.7089 75.9448 83.7172C81.4139 81.3745 88.4904 83.0259 92.9072 86.8681C94.416 88.1815 95.9415 90.1116 96.4028 92.1877C96.5406 92.215 96.6706 92.2867 96.7777 92.3877C99.9688 90.3778 103.255 88.4441 105.826 85.6581C107.694 83.6338 108.993 81.2382 109.788 78.6058C109.853 78.3891 110.202 78.4208 110.192 78.6605C110.189 78.7166 110.186 78.7726 110.183 78.8287C110.216 78.7255 110.373 78.7786 110.385 78.8787C110.813 82.0766 111.348 85.467 110.856 88.6816C110.561 90.5997 109.69 92.0039 108.525 93.5202C107.278 95.1455 105.866 96.6573 104.422 98.107C103.505 99.0273 102.548 100.089 101.426 100.763C100.121 101.547 98.641 102.143 97.2484 102.748C95.8316 103.365 94.3936 103.936 92.9284 104.43C89.9995 105.421 86.9723 106.107 83.8922 106.407C81.426 106.647 78.6075 106.908 76.2442 105.979C74.4327 105.268 72.9705 103.983 71.8108 102.436C70.5482 100.751 69.55 98.8324 68.9983 96.8089C68.4249 94.707 69.3313 91.0386 69.4521 90.6997Z" fill="black"/>
</svg>
