<svg width="184" height="184" viewBox="0 0 184 184" fill="none" xmlns="http://www.w3.org/2000/svg">
<g clip-path="url(#clip0)">
<path fill-rule="evenodd" clip-rule="evenodd" d="M71.7951 41.3776C71.681 41.5061 71.68 41.5282 71.7886 41.5252C71.8354 41.5239 71.8732 41.5037 71.8726 41.4804C71.8719 41.4571 71.9015 41.4372 71.9383 41.4362C72.0028 41.4344 72.1241 41.3353 72.1227 41.2855C72.1208 41.2175 71.8764 41.2862 71.7951 41.3776ZM71.4078 41.6207C71.3754 41.6683 71.3148 41.7081 71.2731 41.7093C71.2315 41.7105 71.1979 41.7305 71.1986 41.7538C71.1992 41.7771 71.2189 41.7957 71.2423 41.795C71.2657 41.7944 71.2854 41.8129 71.2861 41.8362C71.2867 41.8595 71.2532 41.8796 71.2115 41.8807C71.1698 41.8819 71.1092 41.9218 71.0768 41.9693C71.0443 42.0169 70.9837 42.0568 70.942 42.0579C70.9004 42.0591 70.8668 42.0791 70.8675 42.1025C70.8681 42.1258 70.8385 42.1457 70.8015 42.1467C70.7645 42.1478 70.6628 42.227 70.5754 42.3227C70.4881 42.4185 70.3944 42.4975 70.3673 42.4982C70.3403 42.499 70.2466 42.578 70.1592 42.6738C70.0718 42.7695 69.9702 42.8487 69.9332 42.8498C69.8962 42.8508 69.8665 42.8707 69.8672 42.894C69.8689 42.9555 69.709 42.9506 69.6847 42.8885C69.6734 42.8597 69.6501 42.8499 69.6329 42.8667C69.5909 42.9078 69.7196 43.0254 69.8039 43.0231C69.8406 43.022 69.8713 43.0403 69.8719 43.0636C69.8726 43.0869 69.8348 43.107 69.788 43.1084C69.7411 43.1097 69.7023 43.0917 69.7016 43.0684C69.701 43.045 69.6621 43.027 69.6153 43.0284C69.5586 43.0299 69.531 43.059 69.5325 43.1155C69.5339 43.1649 69.5065 43.2011 69.4668 43.2022C69.4294 43.2032 69.3467 43.2628 69.2831 43.3346C69.2194 43.4064 69.1448 43.4657 69.1172 43.4665C69.0896 43.4673 68.9956 43.5463 68.9082 43.642C68.8192 43.7396 68.709 43.8173 68.6576 43.8187C68.6061 43.8202 68.4959 43.8978 68.4069 43.9954C68.3195 44.0912 68.2178 44.1704 68.1808 44.1715C68.1439 44.1725 68.1145 44.2033 68.1155 44.2399C68.1179 44.3256 68.0183 44.4305 67.9322 44.4329C67.8954 44.434 67.8659 44.4539 67.8665 44.4772C67.8672 44.5005 67.8376 44.5204 67.8008 44.5215C67.7148 44.5239 67.6152 44.6288 67.6176 44.7145C67.6186 44.7511 67.5902 44.7819 67.5545 44.7829C67.4668 44.7853 67.0874 45.1883 67.1539 45.2083C67.2292 45.231 67.2197 45.3013 67.1411 45.3035C67.055 45.3059 66.9554 45.4109 66.9578 45.4965C66.9588 45.5332 66.9256 45.5641 66.8839 45.5652C66.8422 45.5664 66.7816 45.6063 66.7492 45.6539C66.7167 45.7014 66.6561 45.7413 66.6144 45.7425C66.5671 45.7438 66.5396 45.7763 66.5411 45.8294C66.5424 45.8783 66.5151 45.9149 66.4763 45.916C66.4393 45.9171 66.3376 45.9963 66.2502 46.092C66.1628 46.1878 66.0627 46.267 66.0277 46.2679C65.9927 46.2689 65.955 46.2939 65.9439 46.3233C65.9288 46.3638 65.9114 46.3617 65.873 46.3147C65.8346 46.2677 65.8172 46.2656 65.8021 46.3061C65.791 46.3356 65.7261 46.3612 65.6578 46.3631C65.562 46.3658 65.5342 46.386 65.536 46.4514C65.5376 46.5079 65.51 46.537 65.4532 46.5386C65.4064 46.5399 65.3686 46.56 65.3693 46.5833C65.3699 46.6066 65.3322 46.6268 65.2853 46.6281C65.2286 46.6297 65.201 46.6588 65.2026 46.7153C65.2042 46.7718 65.1765 46.8008 65.1198 46.8024C65.0708 46.8038 65.0355 46.8331 65.0365 46.8714C65.0387 46.9496 64.9417 47.0619 64.8704 47.0639C64.8429 47.0647 64.7684 47.1241 64.7048 47.1958C64.6336 47.2761 64.5464 47.3275 64.4784 47.3294C64.4062 47.3315 64.3684 47.3557 64.3696 47.3991C64.372 47.4848 64.2724 47.5897 64.1864 47.5921C64.1496 47.5932 64.12 47.6131 64.1207 47.6364C64.1213 47.6597 64.0925 47.6796 64.0566 47.6806C63.9718 47.683 63.7038 47.9652 63.7062 48.0496C63.7075 48.0965 63.6633 48.1158 63.5471 48.1191C63.4351 48.1222 63.3684 48.1498 63.3273 48.2101C63.2948 48.2577 63.2342 48.2975 63.1925 48.2987C63.1509 48.2999 63.1176 48.3297 63.1186 48.3651C63.1209 48.4488 62.5205 49.0811 62.4364 49.0834C62.4009 49.0844 62.3724 49.1043 62.3731 49.1276C62.3737 49.1509 62.3437 49.1709 62.3062 49.1719C62.2688 49.173 62.186 49.2326 62.1224 49.3043C62.0566 49.3786 61.963 49.4361 61.9054 49.4377C61.8498 49.4392 61.7777 49.4794 61.7452 49.527C61.7105 49.5778 61.6374 49.6149 61.5679 49.6168C61.4887 49.619 61.4502 49.6422 61.4515 49.6867C61.4539 49.7724 61.3542 49.8773 61.2682 49.8797C61.2314 49.8808 61.2021 49.9116 61.2032 49.9482C61.2054 50.0299 61.1072 50.1388 61.0293 50.1409C60.9976 50.1418 60.9452 50.1815 60.9128 50.229C60.8803 50.2766 60.8279 50.3163 60.7963 50.3171C60.7262 50.3191 60.6201 50.4253 60.6219 50.4917C60.6238 50.5581 60.5177 50.6643 60.4475 50.6663C60.4159 50.6672 60.3635 50.7068 60.3311 50.7544C60.2986 50.802 60.2461 50.8416 60.2143 50.8425C60.1825 50.8434 60.085 50.9225 59.9976 51.0182C59.9102 51.114 59.8175 51.193 59.7914 51.1937C59.7203 51.1957 59.4569 51.4876 59.459 51.5622C59.46 51.5989 59.4238 51.6282 59.3757 51.6296C59.3288 51.6309 59.2911 51.651 59.2917 51.6743C59.2924 51.6976 59.2546 51.7178 59.2078 51.7191C59.1609 51.7204 59.1232 51.7406 59.1238 51.7639C59.1245 51.7872 59.0757 51.8076 59.0156 51.8093C58.8969 51.8126 58.7869 51.9026 58.7894 51.9942C58.7903 52.0257 58.7535 52.08 58.7076 52.1149C58.6617 52.1498 58.6249 52.2033 58.6257 52.2337C58.6284 52.3296 58.2645 52.6788 58.1589 52.6817C58.1049 52.6832 58.0342 52.7234 58.0017 52.771C57.9693 52.8185 57.8982 52.8587 57.8438 52.8602C57.7427 52.8631 57.5406 53.0397 57.5429 53.1232C57.5449 53.1927 57.3505 53.3831 57.2753 53.3852C57.2379 53.3862 57.2105 53.4236 57.2119 53.4718C57.2136 53.5341 57.1859 53.5574 57.1071 53.5596C57.0306 53.5617 56.9116 53.6558 56.6903 53.8887C56.52 54.0681 56.3814 54.2438 56.3824 54.2791C56.3834 54.3151 56.3468 54.3445 56.2991 54.3458C56.2522 54.3471 56.2145 54.3672 56.2151 54.3906C56.2158 54.4139 56.1862 54.4338 56.1494 54.4348C56.0634 54.4372 55.9637 54.5422 55.9661 54.6278C55.9675 54.6773 55.9242 54.6957 55.7977 54.6992C55.7041 54.7018 55.628 54.723 55.6286 54.7463C55.6293 54.7697 55.5915 54.7898 55.5447 54.7911C55.4963 54.7925 55.4603 54.8218 55.4614 54.859C55.4637 54.9438 55.2794 55.1379 55.1942 55.1403C55.1495 55.1416 55.1296 55.1829 55.132 55.2693C55.1351 55.378 55.1195 55.3969 55.0249 55.3996C54.9569 55.4015 54.8697 55.4529 54.7986 55.5332C54.7349 55.6049 54.6522 55.6645 54.6148 55.6656C54.5651 55.667 54.5479 55.7084 54.551 55.8188C54.5558 55.9909 54.4797 56.0936 54.3446 56.0974C54.2938 56.0988 54.2001 56.1587 54.1365 56.2304C54.0728 56.3022 53.9901 56.3618 53.9527 56.3628C53.9152 56.3639 53.8854 56.3942 53.8864 56.4302C53.8888 56.5151 53.7045 56.7092 53.6193 56.7116C53.5746 56.7128 53.5547 56.7541 53.5571 56.8406C53.5597 56.9342 53.5407 56.9683 53.4849 56.9698C53.4432 56.971 53.3826 57.0109 53.3502 57.0585C53.3177 57.106 53.2571 57.1459 53.2154 57.1471C53.1738 57.1482 53.1402 57.1683 53.1409 57.1916C53.1415 57.2149 53.112 57.2348 53.0752 57.2358C52.9819 57.2384 52.8524 57.3779 52.9234 57.3993C52.9998 57.4223 52.9914 57.4927 52.912 57.4949C52.834 57.4971 52.7263 57.5997 52.7282 57.6698C52.73 57.7316 52.6258 57.8423 52.5643 57.844C52.5041 57.8457 52.23 58.133 52.2316 58.1927C52.2333 58.2514 51.9597 58.5397 51.9009 58.5413C51.8362 58.5432 51.4852 58.9219 51.487 58.9879C51.4879 59.0183 51.451 59.0718 51.4052 59.1067C51.3593 59.1416 51.3226 59.1999 51.3236 59.2362C51.3246 59.2726 51.2879 59.3309 51.242 59.3658C51.1961 59.4007 51.1595 59.4632 51.1607 59.5047C51.162 59.5518 51.1309 59.581 51.0776 59.5825C51.0292 59.5839 50.9933 59.6132 50.9943 59.6504C50.997 59.7454 50.8079 59.9294 50.7045 59.9323C50.6134 59.9349 50.3281 60.2016 50.3304 60.2822C50.332 60.3419 50.0579 60.6292 49.9977 60.6308C49.9286 60.6328 49.8321 60.7464 49.8343 60.8233C49.8353 60.8599 49.806 60.8907 49.7693 60.8918C49.7324 60.8928 49.6757 60.9217 49.6433 60.9559C49.6107 60.9901 49.585 61.0481 49.586 61.0848C49.587 61.1214 49.5687 61.1519 49.5453 61.1526C49.5219 61.1532 49.5038 61.1919 49.5051 61.2385C49.5064 61.2874 49.4791 61.3241 49.4406 61.3252C49.3463 61.3278 49.255 61.4354 49.2579 61.5404C49.2595 61.5984 49.0453 61.855 48.6396 62.2809C48.2981 62.6393 48.0196 62.9616 48.0206 62.9971C48.0216 63.0326 48.0032 63.0623 47.9798 63.0629C47.9564 63.0636 47.9383 63.1022 47.9396 63.1489C47.9409 63.1955 47.9228 63.2342 47.8994 63.2348C47.876 63.2355 47.8579 63.2742 47.8592 63.3208C47.8606 63.3685 47.8332 63.4064 47.7968 63.4074C47.7097 63.4098 47.2474 63.9001 47.3135 63.92C47.4347 63.9565 47.3244 64.1842 47.1836 64.1881C47.1451 64.1892 47.1177 64.226 47.1191 64.2748C47.1204 64.3214 47.1023 64.3601 47.0789 64.3608C47.0555 64.3614 47.0371 64.3914 47.0382 64.4274C47.0403 64.5035 46.8598 64.7063 46.7881 64.7083C46.7613 64.709 46.6873 64.7684 46.6237 64.8401C46.56 64.9119 46.4773 64.9715 46.4399 64.9725C46.4024 64.9736 46.3723 64.9935 46.373 65.0168C46.3737 65.0402 46.3359 65.0603 46.289 65.0616C46.2422 65.0629 46.2044 65.0831 46.2051 65.1064C46.2057 65.1297 46.1762 65.1496 46.1394 65.1506C46.0285 65.1537 45.954 65.2681 45.9585 65.4284C45.9626 65.5768 45.9593 65.5799 45.7924 65.5846C45.6988 65.5872 45.6227 65.6084 45.6234 65.6317C45.624 65.655 45.5944 65.675 45.5577 65.676C45.4631 65.6786 45.3721 65.7863 45.375 65.8921C45.3779 65.9963 45.2047 66.1949 45.1086 66.1976C45.0712 66.1987 45.0438 66.236 45.0452 66.2842C45.0465 66.3309 45.0284 66.3695 45.005 66.3702C44.9816 66.3708 44.9632 66.4014 44.9643 66.438C44.9653 66.4746 44.9395 66.5326 44.907 66.5668C44.8745 66.6011 44.8178 66.63 44.781 66.631C44.7442 66.632 44.715 66.6633 44.716 66.7006C44.717 66.7379 44.6619 66.8235 44.5935 66.8908C44.517 66.966 44.4703 67.0555 44.4722 67.1233C44.4739 67.1839 44.4561 67.234 44.4327 67.2346C44.4093 67.2353 44.3918 67.293 44.3937 67.363C44.3961 67.4487 44.3761 67.4907 44.3323 67.492C44.2592 67.494 43.8964 67.8591 43.8983 67.9286C43.9 67.9881 43.6257 68.2753 43.5656 68.277C43.4867 68.2792 43.3717 68.4212 43.4337 68.4399C43.5185 68.4655 43.4976 68.5334 43.4041 68.5361C43.3473 68.5377 43.3197 68.5667 43.3213 68.6232C43.3229 68.6797 43.2953 68.7088 43.2385 68.7104C43.1917 68.7117 43.1539 68.7318 43.1546 68.7552C43.1552 68.7785 43.1175 68.7986 43.0706 68.7999C43.0059 68.8017 42.9863 68.8306 42.9888 68.9201C42.9907 68.9893 42.9576 69.0641 42.9087 69.1014C42.8628 69.1363 42.8262 69.1988 42.8273 69.2403C42.8285 69.2818 42.7994 69.3166 42.7626 69.3176C42.6516 69.3207 42.5772 69.4351 42.5817 69.5954C42.584 69.6786 42.5667 69.7473 42.5433 69.748C42.5199 69.7486 42.5018 69.7873 42.5031 69.8339C42.5044 69.8805 42.4864 69.9192 42.4629 69.9199C42.4395 69.9205 42.4198 69.902 42.4192 69.8787C42.4185 69.8554 42.3797 69.8374 42.3329 69.8387C42.2761 69.8403 42.2485 69.8693 42.2501 69.9258C42.2514 69.9725 42.2333 70.0112 42.2099 70.0118C42.1865 70.0125 42.1684 70.0512 42.1697 70.0978C42.1713 70.1543 42.1437 70.1833 42.0869 70.1849C42.0302 70.1865 42.0026 70.2156 42.0042 70.2721C42.0055 70.3187 41.9874 70.3574 41.964 70.3581C41.9406 70.3587 41.9228 70.4084 41.9245 70.4685C41.9265 70.5406 41.8711 70.6349 41.7618 70.7455C41.6707 70.8377 41.5969 70.9433 41.598 70.9801C41.599 71.0169 41.5807 71.0475 41.5573 71.0482C41.5338 71.0488 41.5161 71.0984 41.5177 71.1584C41.521 71.2765 41.437 71.3909 41.345 71.3935C41.3134 71.3944 41.261 71.434 41.2286 71.4816C41.1961 71.5292 41.1355 71.569 41.0938 71.5702C41.0068 71.5727 40.9942 71.6388 41.0742 71.6733C41.1173 71.6919 41.1176 71.7018 41.0755 71.7227C41.0467 71.7371 41.0241 71.7855 41.0253 71.8302C41.0266 71.8758 40.9982 71.9123 40.9607 71.9133C40.8674 71.9159 40.7379 72.0554 40.8089 72.0768C40.8937 72.1023 40.8728 72.1703 40.7793 72.1729C40.713 72.1748 40.6949 72.2036 40.6977 72.3025C40.7004 72.3995 40.6819 72.4302 40.6197 72.4319C40.5748 72.4332 40.5289 72.4106 40.5176 72.3817C40.5057 72.3512 40.4818 72.3455 40.4604 72.3679C40.439 72.3904 40.4462 72.4139 40.4774 72.424C40.5596 72.4507 40.5451 72.5777 40.4518 72.6487C40.4059 72.6836 40.3693 72.7461 40.3705 72.7876C40.3716 72.8291 40.3534 72.8636 40.33 72.8642C40.3066 72.8649 40.289 72.9226 40.291 72.9926C40.2934 73.079 40.2735 73.1203 40.2288 73.1216C40.1926 73.1226 40.1173 73.1716 40.0614 73.2304C40.0055 73.2893 39.9606 73.3669 39.9616 73.4029C39.9627 73.4389 39.9443 73.4689 39.9209 73.4696C39.8975 73.4702 39.8794 73.5089 39.8807 73.5555C39.882 73.6022 39.8639 73.6409 39.8405 73.6415C39.8171 73.6422 39.7988 73.6732 39.7998 73.7105C39.8009 73.7477 39.7458 73.8333 39.6774 73.9006C39.6089 73.9679 39.5538 74.0535 39.5549 74.0907C39.5559 74.128 39.5376 74.159 39.5142 74.1597C39.4908 74.1604 39.4726 74.1948 39.4737 74.2363C39.4749 74.2778 39.4383 74.3403 39.3924 74.3752C39.3465 74.4101 39.3099 74.4726 39.3111 74.5141C39.3123 74.5556 39.2941 74.5901 39.2706 74.5907C39.2472 74.5914 39.229 74.6259 39.2302 74.6673C39.2313 74.7088 39.1948 74.7713 39.1489 74.8062C39.103 74.8412 39.0661 74.8948 39.067 74.9254C39.0695 75.0145 38.7902 75.2829 38.692 75.2857C38.6427 75.287 38.5758 75.3162 38.5433 75.3504C38.4705 75.4272 38.4708 75.6176 38.5438 75.6403C38.5778 75.6508 38.548 75.7061 38.4628 75.7904C38.3887 75.8637 38.3288 75.9501 38.3297 75.9822C38.3306 76.0143 38.2938 76.0692 38.2479 76.1041C38.202 76.139 38.1654 76.2015 38.1666 76.243C38.1678 76.2845 38.1496 76.319 38.1262 76.3196C38.1027 76.3203 38.0844 76.3503 38.0854 76.3863C38.0864 76.4223 38.0415 76.4999 37.9857 76.5588C37.9298 76.6176 37.8545 76.6666 37.8183 76.6676C37.7821 76.6686 37.7534 76.6995 37.7544 76.7363C37.7554 76.7732 37.6817 76.8787 37.5905 76.9709C37.4891 77.0736 37.4259 77.1773 37.4276 77.2385C37.4292 77.2935 37.3929 77.367 37.347 77.402C37.3011 77.4369 37.2645 77.4994 37.2657 77.5409C37.267 77.588 37.2359 77.6172 37.1826 77.6187C37.1193 77.6204 37.0983 77.6493 37.1006 77.7312C37.1025 77.7989 37.0558 77.8885 36.9793 77.9637C36.9109 78.031 36.8558 78.1166 36.8568 78.1538C36.8578 78.1911 36.8395 78.2222 36.8161 78.2228C36.7927 78.2235 36.7752 78.2812 36.7771 78.3512C36.7791 78.4211 36.7615 78.4789 36.7381 78.4795C36.7147 78.4802 36.6966 78.5189 36.6979 78.5655C36.6993 78.6137 36.6719 78.6511 36.6345 78.6521C36.5378 78.6548 36.3651 78.8536 36.3681 78.9588C36.3695 79.0088 36.3147 79.1047 36.2463 79.172C36.1778 79.2393 36.1227 79.3249 36.1238 79.3622C36.1248 79.3995 36.1065 79.4305 36.0831 79.4311C36.0597 79.4318 36.0415 79.4663 36.0426 79.5077C36.0438 79.5492 36.0072 79.6117 35.9613 79.6466C35.9123 79.6839 35.8792 79.7588 35.8812 79.8279C35.883 79.8927 35.8653 79.9463 35.8419 79.9469C35.8185 79.9476 35.8007 79.9973 35.8024 80.0574C35.8044 80.1295 35.7491 80.2238 35.6397 80.3344C35.507 80.4688 35.4749 80.5322 35.4783 80.6537C35.4815 80.7709 35.4653 80.8059 35.4068 80.8075C35.3651 80.8087 35.3045 80.8486 35.272 80.8961C35.2396 80.9437 35.179 80.9836 35.1373 80.9848C35.0815 80.9863 35.0625 81.0204 35.0651 81.114C35.0671 81.184 35.0878 81.2407 35.1113 81.24C35.1347 81.2394 35.1552 81.2871 35.1568 81.3462C35.1602 81.4656 34.9149 81.7546 34.8076 81.7576C34.7708 81.7586 34.7434 81.7963 34.7447 81.8442C34.746 81.8908 34.728 81.9295 34.7045 81.9301C34.6811 81.9308 34.6628 81.9612 34.6638 81.9977C34.6648 82.0342 34.5705 82.1616 34.4542 82.281L34.2426 82.4979L34.3345 82.5729C34.4498 82.6669 34.4535 82.7494 34.3463 82.831C34.3004 82.8659 34.2637 82.9242 34.2648 82.9606C34.2658 82.9969 34.2291 83.0552 34.1832 83.0901C34.1342 83.1274 34.1011 83.2022 34.103 83.2714C34.1049 83.3362 34.0872 83.3897 34.0638 83.3904C34.0404 83.3911 34.0223 83.4297 34.0236 83.4764C34.0249 83.523 34.0068 83.5617 33.9834 83.5623C33.96 83.563 33.9419 83.6017 33.9432 83.6483C33.9445 83.6949 33.9264 83.7336 33.903 83.7343C33.8796 83.7349 33.8613 83.7659 33.8623 83.8032C33.8634 83.8405 33.8082 83.9261 33.7398 83.9934C33.6714 84.0606 33.6162 84.142 33.6171 84.1741C33.618 84.2062 33.5812 84.2611 33.5353 84.296C33.4728 84.3436 33.4532 84.4082 33.4573 84.5527C33.4613 84.6973 33.4417 84.7619 33.3792 84.8095C33.3334 84.8444 33.2968 84.9069 33.2979 84.9484C33.2991 84.9898 33.2809 85.0243 33.2575 85.025C33.234 85.0256 33.216 85.0643 33.2173 85.1109C33.2186 85.1576 33.2005 85.1962 33.1771 85.1969C33.1537 85.1976 33.1365 85.2702 33.139 85.3583C33.1421 85.4698 33.1181 85.5378 33.06 85.582C33.0142 85.6169 32.9776 85.6794 32.9787 85.7209C32.9799 85.7623 32.9617 85.7968 32.9383 85.7975C32.9148 85.7981 32.8968 85.8368 32.8981 85.8835C32.8994 85.9301 32.8813 85.9688 32.8579 85.9694C32.8345 85.9701 32.8172 86.0382 32.8195 86.1209C32.8237 86.2708 32.6803 86.4834 32.573 86.4864C32.4803 86.489 32.4004 86.368 32.3962 86.2187C32.3928 86.0956 32.3761 86.0677 32.3068 86.0697C32.2406 86.0715 32.2209 86.0438 32.2181 85.9449C32.2162 85.875 32.1954 85.8183 32.172 85.8189C32.1486 85.8196 32.1284 85.782 32.1271 85.7354C32.1258 85.6887 32.1055 85.6511 32.0821 85.6518C32.0587 85.6524 32.0386 85.619 32.0374 85.5776C32.0363 85.5361 31.9962 85.4757 31.9485 85.4434C31.9007 85.4111 31.8607 85.3508 31.8595 85.3093C31.8583 85.2678 31.8273 85.2347 31.7905 85.2357C31.7045 85.2381 31.5991 85.1389 31.5967 85.0533C31.5957 85.0166 31.5757 84.9872 31.5523 84.9879C31.5289 84.9885 31.5089 84.96 31.5079 84.9245C31.5056 84.8406 31.0462 84.4081 30.9619 84.4105C30.9255 84.4115 30.8961 84.3752 30.8947 84.3275C30.8934 84.2809 30.8732 84.2433 30.8498 84.244C30.8264 84.2446 30.8063 84.2112 30.8051 84.1697C30.804 84.1282 30.7639 84.0679 30.7162 84.0356C30.6684 84.0033 30.6284 83.9429 30.6272 83.9014C30.626 83.86 30.6059 83.8266 30.5825 83.8272C30.5591 83.8279 30.5386 83.7789 30.5369 83.7183C30.535 83.6505 30.4833 83.5637 30.4027 83.4929C30.3307 83.4295 30.2709 83.3472 30.2698 83.3099C30.2688 83.2726 30.2488 83.2427 30.2253 83.2433C30.2019 83.244 30.1819 83.2151 30.1809 83.179C30.1783 83.0837 29.9791 82.9109 29.8753 82.9138C29.7609 82.917 29.5722 82.7399 29.569 82.6264C29.5665 82.536 29.1247 82.0864 29.0406 82.0887C28.972 82.0906 28.8693 81.9823 28.8672 81.9057C28.8662 81.8691 28.8462 81.8396 28.8227 81.8403C28.7993 81.8409 28.7791 81.8033 28.7778 81.7567C28.7765 81.7091 28.747 81.6727 28.7106 81.6737C28.638 81.6758 28.1671 81.2491 28.1652 81.1795C28.1627 81.0888 27.8607 80.8491 27.7527 80.8521C27.6653 80.8546 27.6443 80.8346 27.6418 80.7462C27.6379 80.6071 27.5439 80.5186 27.4043 80.5225C27.3232 80.5248 27.2942 80.5036 27.2924 80.4408C27.2909 80.3843 27.2617 80.3568 27.2049 80.3584C27.1581 80.3597 27.1193 80.3417 27.1186 80.3184C27.118 80.2951 27.0868 80.2769 27.0494 80.2779C27.0119 80.279 26.926 80.2241 26.8584 80.156C26.7909 80.0879 26.7132 80.0328 26.6857 80.0336C26.6144 80.0356 26.5113 79.9289 26.5091 79.8507C26.5078 79.8049 26.4672 79.7852 26.3795 79.7876C26.3092 79.7896 26.2512 79.7721 26.2506 79.7488C26.2499 79.7255 26.2153 79.7074 26.1737 79.7086C26.132 79.7097 26.0692 79.6733 26.0342 79.6276C25.9991 79.5819 25.9364 79.5455 25.8947 79.5467C25.8531 79.5479 25.8184 79.5297 25.8178 79.5064C25.8171 79.4831 25.7591 79.4656 25.6889 79.4676C25.6186 79.4696 25.5606 79.4521 25.56 79.4288C25.5593 79.4055 25.463 79.3891 25.3459 79.3924C25.1808 79.397 25.1327 79.3834 25.1312 79.3317C25.1284 79.2317 25.0181 79.147 24.8949 79.1505C24.8347 79.1522 24.7849 79.1345 24.7842 79.1111C24.7836 79.0878 24.7529 79.0696 24.7162 79.0706C24.6301 79.073 24.5248 78.9738 24.5224 78.8882C24.5213 78.8499 24.4844 78.8226 24.4354 78.824C24.3885 78.8253 24.3497 78.8073 24.349 78.784C24.3484 78.7606 24.3137 78.7425 24.2721 78.7437C24.2304 78.7449 24.1677 78.7084 24.1326 78.6628C24.0976 78.6171 24.0425 78.5804 24.0102 78.5813C23.978 78.5822 23.8963 78.5273 23.8287 78.4592C23.7611 78.3911 23.6794 78.3361 23.6472 78.337C23.6149 78.3379 23.5598 78.3012 23.5248 78.2556C23.4589 78.1698 23.3086 78.1442 23.3107 78.2191C23.3128 78.2941 23.1625 78.2685 23.0967 78.1827C23.0551 78.1285 22.9841 78.101 22.8925 78.1036C22.7789 78.1068 22.7058 78.0641 22.5122 77.8818C22.3125 77.6938 22.2718 77.6312 22.2683 77.5069C22.2649 77.3859 22.248 77.358 22.179 77.36C22.1222 77.3616 22.0931 77.3341 22.0915 77.2776C22.0902 77.231 22.0699 77.1933 22.0465 77.194C22.0231 77.1947 22.0029 77.157 22.0016 77.1104C22.0003 77.0638 21.9801 77.0262 21.9566 77.0268C21.9332 77.0275 21.9132 76.9981 21.9122 76.9614C21.91 76.8838 21.8071 76.7765 21.7367 76.7785C21.6527 76.7808 21.5631 76.6666 21.56 76.5531C21.5574 76.4603 21.538 76.4447 21.4292 76.4477C21.3157 76.4509 21.3019 76.4654 21.305 76.5784L21.3086 76.7056L21.0532 76.7128C20.9113 76.7167 20.7983 76.7387 20.7989 76.7623C20.7996 76.787 20.6582 76.8087 20.4596 76.8142C20.2609 76.8198 20.1185 76.8061 20.1178 76.7814C20.1155 76.6987 19.8984 76.7467 19.7984 76.852C19.7234 76.931 19.698 77.0047 19.7016 77.1335C19.7075 77.3424 19.635 77.4312 19.4545 77.4363C19.2922 77.4408 19.2014 77.5273 19.2055 77.6735C19.2072 77.7335 19.1894 77.783 19.166 77.7837C19.1426 77.7844 19.1261 77.8803 19.1294 77.9968C19.1326 78.1134 19.1545 78.2082 19.1779 78.2076C19.2013 78.2069 19.2226 78.2827 19.2252 78.3759C19.2278 78.4692 19.2108 78.546 19.1874 78.5467C19.1221 78.5485 19.1451 78.8429 19.2158 78.9095C19.2868 78.9764 19.4978 78.9842 19.496 78.9198C19.4954 78.8965 19.5625 78.8755 19.6453 78.8732C19.7602 78.87 19.8315 78.9028 19.9474 79.0118C20.0918 79.1478 20.1624 79.3678 20.0625 79.3706C20.0391 79.3713 20.021 79.4099 20.0223 79.4566C20.0237 79.5048 19.9963 79.5421 19.9589 79.5432C19.8555 79.5461 19.6896 79.7479 19.693 79.8669C19.6946 79.9262 19.7151 79.9742 19.7386 79.9736C19.762 79.9729 19.7822 80.0105 19.7835 80.0571C19.7853 80.1231 19.8143 80.1411 19.9136 80.1383C20.0129 80.1356 20.0418 80.1536 20.0437 80.2195C20.045 80.2662 20.0269 80.3049 20.0035 80.3055C19.9801 80.3062 19.9614 80.3258 19.9621 80.3491C19.9627 80.3724 19.9934 80.3906 20.0302 80.3896C20.1081 80.3874 20.2215 80.4838 20.2234 80.5539C20.2254 80.624 20.3387 80.7203 20.4167 80.7182C20.4627 80.7169 20.4847 80.7561 20.4872 80.8434C20.4891 80.9134 20.5099 80.9701 20.5333 80.9694C20.5567 80.9688 20.5767 80.9983 20.5777 81.0351C20.5788 81.072 20.6583 81.1732 20.7545 81.2602C20.8668 81.3618 20.9304 81.4561 20.9323 81.5241C20.9339 81.5823 20.9595 81.6403 20.9891 81.6531C21.0323 81.6716 21.0325 81.6816 20.9905 81.7025C20.9616 81.7169 20.9398 81.7945 20.9421 81.875C20.9452 81.9853 20.9834 82.0563 21.0979 82.164C21.1813 82.2426 21.27 82.3063 21.295 82.3056C21.3647 82.3036 21.6435 82.5815 21.6456 82.6549C21.6466 82.6916 21.6844 82.7189 21.7325 82.7175C21.7829 82.7161 21.8185 82.7434 21.8196 82.7844C21.8207 82.8224 21.8657 82.8905 21.9197 82.9357C21.9863 82.9915 22.0009 83.0245 21.9652 83.0384C21.9362 83.0497 21.9135 83.0955 21.9148 83.1402C21.916 83.1849 21.8979 83.222 21.8745 83.2226C21.8511 83.2233 21.833 83.2619 21.8343 83.3086C21.8369 83.4032 21.9886 83.4258 22.016 83.3357C22.0417 83.2512 22.1778 83.403 22.181 83.5198C22.1826 83.5746 22.2229 83.6458 22.2707 83.6781C22.3184 83.7104 22.3585 83.7708 22.3596 83.8123C22.3608 83.8537 22.3809 83.8872 22.4043 83.8865C22.4277 83.8859 22.448 83.9235 22.4493 83.9701C22.4506 84.0167 22.4708 84.0543 22.4942 84.0537C22.5176 84.053 22.5378 84.0906 22.5391 84.1373C22.5405 84.1839 22.5607 84.2215 22.5841 84.2208C22.6075 84.2202 22.6276 84.2536 22.6288 84.2951C22.6299 84.3366 22.67 84.3969 22.7177 84.4292C22.7655 84.4615 22.8055 84.5219 22.8067 84.5634C22.8079 84.6048 22.828 84.6382 22.8514 84.6376C22.8748 84.6369 22.895 84.6745 22.8963 84.7212C22.8976 84.7678 22.9179 84.8054 22.9413 84.8047C22.9647 84.8041 22.9854 84.8592 22.9873 84.9272C22.9892 84.9952 23.015 85.0613 23.0447 85.0741C23.0878 85.0926 23.0881 85.1025 23.046 85.1235C22.9475 85.1727 22.9969 85.2752 23.2157 85.4758C23.3359 85.5861 23.435 85.7019 23.4359 85.7332C23.4368 85.7646 23.4766 85.8166 23.5243 85.8489C23.5722 85.8813 23.6126 85.9563 23.6142 86.0161C23.6159 86.0759 23.6562 86.1509 23.7041 86.1833C23.7519 86.2156 23.7919 86.2759 23.7931 86.3174C23.7942 86.3589 23.8143 86.3923 23.8378 86.3916C23.8612 86.391 23.8813 86.4244 23.8824 86.4659C23.8836 86.5074 23.9236 86.5677 23.9714 86.6C24.0192 86.6323 24.0592 86.6926 24.0604 86.7341C24.0617 86.7813 24.0944 86.8087 24.1476 86.8072C24.2044 86.8056 24.2336 86.8331 24.2351 86.8896C24.2364 86.9362 24.2567 86.9738 24.2801 86.9731C24.3035 86.9725 24.3237 87.0101 24.325 87.0567C24.3263 87.1034 24.3465 87.141 24.37 87.1403C24.3934 87.1397 24.4141 87.1963 24.4161 87.2663C24.4181 87.3362 24.4388 87.3929 24.4622 87.3923C24.4856 87.3916 24.5059 87.4292 24.5072 87.4758C24.5085 87.5225 24.5287 87.5601 24.5521 87.5594C24.5755 87.5588 24.5963 87.6155 24.5982 87.6854C24.601 87.7843 24.6207 87.812 24.6869 87.8102C24.7532 87.8083 24.7729 87.8361 24.7756 87.935C24.7776 88.0049 24.7984 88.0616 24.8218 88.0609C24.8452 88.0603 24.8653 88.0937 24.8665 88.1351C24.8676 88.1766 24.9076 88.237 24.9554 88.2693C25.0032 88.3016 25.0432 88.3619 25.0444 88.4034C25.0455 88.4449 25.0656 88.4783 25.0891 88.4777C25.1125 88.477 25.1338 88.5528 25.1364 88.646C25.1409 88.8062 25.1482 88.8154 25.2688 88.812C25.3824 88.8088 25.3969 88.8225 25.4001 88.9356C25.4021 89.0055 25.4228 89.0622 25.4462 89.0616C25.4696 89.0609 25.4897 89.0908 25.4907 89.1281C25.4917 89.1654 25.5516 89.2478 25.6236 89.3111C25.6957 89.3745 25.7555 89.4568 25.7566 89.4941C25.7576 89.5314 25.7776 89.5613 25.801 89.5607C25.8244 89.56 25.8452 89.6167 25.8472 89.6866C25.8491 89.7566 25.8699 89.8133 25.8933 89.8126C25.9167 89.812 25.9379 89.8835 25.9404 89.9716C25.9435 90.0832 25.9712 90.1496 26.0317 90.1905C26.0795 90.2228 26.1195 90.2832 26.1206 90.3247C26.1218 90.3661 26.1419 90.3995 26.1653 90.3989C26.1887 90.3982 26.209 90.4358 26.2103 90.4825C26.2116 90.5291 26.2318 90.5667 26.2552 90.5661C26.2786 90.5654 26.2989 90.603 26.3002 90.6496C26.3015 90.6963 26.3217 90.7339 26.3451 90.7332C26.3685 90.7326 26.3887 90.7702 26.39 90.8168C26.3914 90.8634 26.4116 90.901 26.435 90.9004C26.4584 90.8997 26.4786 90.9374 26.4799 90.984C26.4812 91.0306 26.5015 91.0682 26.5249 91.0676C26.5483 91.0669 26.5688 91.1159 26.5705 91.1765C26.5724 91.2443 26.6241 91.3311 26.7047 91.4019C26.7767 91.4652 26.8365 91.5476 26.8376 91.5849C26.8386 91.6222 26.8586 91.6521 26.8821 91.6515C26.9055 91.6508 26.9265 91.7184 26.9289 91.8016C26.9334 91.9619 27.0141 92.072 27.125 92.0689C27.1635 92.0678 27.1929 92.1029 27.1943 92.1518C27.1956 92.1984 27.2158 92.236 27.2392 92.2354C27.2626 92.2347 27.2833 92.2872 27.2851 92.352C27.287 92.4211 27.3243 92.494 27.3752 92.5285C27.4231 92.5609 27.4635 92.6358 27.4651 92.6957C27.4668 92.7555 27.5071 92.8304 27.555 92.8628C27.6155 92.9037 27.6432 92.9702 27.6464 93.0817C27.6488 93.1698 27.67 93.2414 27.6934 93.2407C27.7168 93.2401 27.737 93.2777 27.7384 93.3243C27.7397 93.3709 27.7216 93.4096 27.6982 93.4103C27.6747 93.4109 27.6567 93.4496 27.658 93.4963C27.6593 93.5429 27.6795 93.5805 27.7029 93.5798C27.7263 93.5792 27.7463 93.6086 27.7473 93.6452C27.7501 93.7453 27.8605 93.83 27.9837 93.8265C28.0648 93.8242 28.0938 93.8454 28.0955 93.9082C28.0968 93.9548 28.1171 93.9925 28.1405 93.9918C28.1639 93.9911 28.184 94.0246 28.1852 94.066C28.1863 94.1075 28.2263 94.1679 28.2741 94.2002C28.3251 94.2347 28.3623 94.3075 28.3643 94.3767C28.3661 94.4415 28.3867 94.494 28.4101 94.4933C28.4335 94.4926 28.4538 94.5303 28.4551 94.5769C28.4564 94.6235 28.4766 94.6611 28.5 94.6605C28.5234 94.6598 28.5442 94.7165 28.5462 94.7864C28.5481 94.8564 28.5689 94.9131 28.5923 94.9124C28.6157 94.9118 28.6359 94.9494 28.6372 94.996C28.6385 95.0426 28.6588 95.0802 28.6822 95.0796C28.7056 95.0789 28.7258 95.1165 28.7271 95.1632C28.7284 95.2098 28.7486 95.2474 28.7721 95.2467C28.7955 95.2461 28.8156 95.2795 28.8167 95.321C28.8179 95.3625 28.8579 95.4228 28.9057 95.4551C28.9535 95.4874 28.9935 95.5478 28.9947 95.5893C28.9958 95.6307 29.0159 95.6641 29.0393 95.6635C29.0628 95.6628 29.0829 95.6962 29.084 95.7377C29.0852 95.7792 29.1252 95.8395 29.173 95.8718C29.2304 95.9106 29.2612 95.9792 29.2638 96.0738C29.2668 96.1782 29.3033 96.2481 29.3989 96.3321C29.471 96.3955 29.5308 96.4779 29.5318 96.5151C29.5329 96.5524 29.5529 96.5824 29.5763 96.5817C29.5997 96.5811 29.6199 96.6187 29.6212 96.6653C29.6225 96.7119 29.6428 96.7495 29.6662 96.7489C29.6896 96.7482 29.7098 96.7858 29.7111 96.8325C29.7124 96.8791 29.7327 96.9167 29.7561 96.916C29.7795 96.9154 29.8013 97.0102 29.8046 97.1268C29.8097 97.3105 29.8219 97.3384 29.8956 97.3363C29.9425 97.335 29.9813 97.353 29.982 97.3763C29.9826 97.3997 29.964 97.4193 29.9406 97.4199C29.9172 97.4206 29.8996 97.4783 29.9016 97.5483C29.9043 97.6472 29.924 97.6749 29.9903 97.6731C30.0371 97.6718 30.076 97.6898 30.0766 97.7131C30.0773 97.7364 30.1353 97.7538 30.2055 97.7519C30.3048 97.7491 30.3337 97.7671 30.3356 97.8331C30.3369 97.8797 30.3571 97.9173 30.3805 97.9167C30.4039 97.916 30.424 97.9494 30.4252 97.9909C30.4264 98.0324 30.4664 98.0927 30.5142 98.125C30.5619 98.1573 30.6018 98.21 30.6027 98.2422C30.6036 98.2743 30.6633 98.3524 30.7353 98.4158C30.8159 98.4866 30.8676 98.5734 30.8694 98.6411C30.8711 98.7018 30.8917 98.7508 30.9151 98.7501C30.9385 98.7495 30.9591 98.7992 30.9608 98.8605C30.9625 98.9221 31.0061 99.0066 31.0581 99.049C31.1099 99.0912 31.1374 99.1404 31.1192 99.1583C31.1011 99.1761 31.077 99.1672 31.0657 99.1383C31.0349 99.0595 30.9669 99.0773 30.9693 99.1634C30.9704 99.2049 31.0105 99.2653 31.0582 99.2976C31.106 99.3299 31.146 99.3902 31.1472 99.4317C31.1484 99.4732 31.1685 99.5066 31.1919 99.5059C31.2153 99.5053 31.2353 99.5343 31.2363 99.5704C31.2373 99.6065 31.3778 99.7657 31.5486 99.9242C31.8589 100.212 31.859 100.213 31.7719 100.292C31.7027 100.355 31.6861 100.421 31.6914 100.61C31.6951 100.742 31.679 100.85 31.6556 100.85C31.6321 100.851 31.6135 100.871 31.6142 100.894C31.6148 100.917 31.6639 100.935 31.7232 100.933C31.8647 100.929 32.1334 101.18 32.1373 101.32C32.1389 101.377 32.1645 101.434 32.1942 101.447C32.2373 101.466 32.2376 101.475 32.1955 101.496C32.1332 101.527 32.1287 101.686 32.1901 101.684C32.2136 101.683 32.2338 101.721 32.2351 101.767C32.2364 101.814 32.2484 101.852 32.2618 101.852C32.3048 101.85 32.4044 101.728 32.403 101.678C32.4016 101.628 32.5011 101.506 32.5442 101.504C32.5576 101.504 32.5696 101.542 32.5709 101.588C32.5722 101.635 32.5541 101.674 32.5307 101.674C32.4527 101.677 32.4905 101.805 32.5992 101.908C32.6583 101.963 32.7362 102.008 32.7724 102.007C32.8098 102.006 32.8392 102.042 32.8406 102.09C32.8419 102.138 32.8713 102.174 32.9087 102.173C32.9449 102.172 33.0228 102.217 33.0819 102.272C33.141 102.328 33.1901 102.403 33.1911 102.439C33.1922 102.475 33.2121 102.504 33.2356 102.503C33.259 102.502 33.2791 102.538 33.2804 102.583C33.2816 102.628 33.3069 102.673 33.3365 102.684C33.3771 102.699 33.375 102.717 33.3278 102.755C33.2806 102.793 33.2785 102.811 33.3191 102.826C33.3488 102.837 33.3745 102.901 33.3764 102.969C33.3791 103.065 33.3993 103.092 33.465 103.091C33.5118 103.089 33.5507 103.107 33.5513 103.131C33.552 103.154 33.5826 103.172 33.6194 103.171C33.6562 103.17 33.7145 103.196 33.7488 103.228C33.8205 103.296 33.8357 103.42 33.7725 103.421C33.7491 103.422 33.731 103.461 33.7323 103.507C33.7339 103.564 33.7631 103.591 33.8198 103.59C33.8666 103.588 33.9055 103.606 33.9061 103.63C33.9068 103.653 33.9648 103.67 34.035 103.668C34.1053 103.666 34.1633 103.684 34.1639 103.707C34.1646 103.731 34.2787 103.746 34.4205 103.742C34.5624 103.739 34.6765 103.754 34.6772 103.778C34.6778 103.801 34.7508 103.818 34.8392 103.816C34.9513 103.812 35.0195 103.836 35.0638 103.894C35.0989 103.94 35.154 103.976 35.1863 103.976C35.2185 103.975 35.3002 104.03 35.3678 104.098C35.4353 104.166 35.5213 104.221 35.5587 104.22C35.5961 104.219 35.6273 104.237 35.6279 104.26C35.6286 104.283 35.6866 104.301 35.7568 104.299C35.8271 104.297 35.884 104.276 35.8834 104.253C35.8827 104.23 35.978 104.208 36.095 104.205C36.2121 104.201 36.3073 104.18 36.3067 104.156C36.306 104.133 36.419 104.111 36.5609 104.107C36.7028 104.103 36.8158 104.081 36.8152 104.057C36.8145 104.034 36.8441 104.014 36.8808 104.013C36.9588 104.011 37.0666 103.908 37.0646 103.838C37.0623 103.755 37.177 103.665 37.291 103.662C37.3721 103.66 37.4011 103.681 37.4028 103.744C37.4044 103.8 37.4336 103.828 37.4903 103.826C37.5471 103.825 37.5747 103.796 37.5731 103.739C37.5715 103.683 37.5423 103.655 37.4856 103.657C37.4107 103.659 37.3997 103.631 37.3938 103.423C37.3875 103.196 37.3948 103.18 37.5943 102.975C37.8013 102.763 37.8014 102.762 37.7936 102.484C37.7892 102.327 37.8043 102.205 37.8284 102.205C37.8518 102.204 37.8693 102.146 37.8674 102.076C37.8654 102.006 37.883 101.949 37.9064 101.948C37.9316 101.947 37.9446 101.791 37.9383 101.565C37.932 101.339 37.9103 101.184 37.885 101.185C37.8616 101.186 37.8414 101.148 37.8401 101.102C37.8388 101.055 37.8569 101.016 37.8803 101.016C37.9037 101.015 37.9218 100.976 37.9205 100.93C37.9192 100.883 37.899 100.845 37.8755 100.846C37.8521 100.847 37.8314 100.79 37.8294 100.72C37.8275 100.65 37.845 100.592 37.8684 100.592C37.8918 100.591 37.9089 100.514 37.9062 100.421C37.9036 100.328 37.8823 100.252 37.8589 100.253C37.8355 100.253 37.8158 100.235 37.8152 100.211C37.8145 100.188 37.8523 100.168 37.8991 100.167C38.021 100.163 38.0128 99.8692 37.8884 99.7851C37.8279 99.7442 37.8002 99.6777 37.7971 99.5662C37.7946 99.4781 37.7735 99.4065 37.75 99.4072C37.7266 99.4078 37.705 99.3212 37.7021 99.2146C37.6968 99.0258 37.7614 98.8978 37.8635 98.895C37.8903 98.8942 37.9404 98.8639 37.9749 98.8275C38.031 98.7684 38.0234 98.7488 37.9028 98.6428C37.8286 98.5776 37.7671 98.4953 37.7661 98.46C37.7651 98.4247 37.7401 98.3853 37.7104 98.3725C37.6673 98.3539 37.667 98.344 37.709 98.3231C37.7435 98.3058 37.7588 98.1975 37.7535 98.0072C37.7481 97.8169 37.7634 97.7086 37.7979 97.6913C37.8399 97.6704 37.8396 97.6604 37.7965 97.6419C37.7267 97.6118 37.7228 97.4709 37.7907 97.437C37.8328 97.416 37.8325 97.4061 37.7894 97.3876C37.7195 97.3574 37.7156 97.2157 37.7837 97.1859C37.8235 97.1686 37.8204 97.1514 37.7711 97.1159C37.7218 97.0803 37.7188 97.0631 37.7585 97.0458C37.7875 97.0332 37.8101 96.9863 37.8088 96.9416C37.8076 96.8969 37.8257 96.8598 37.8491 96.8591C37.8725 96.8585 37.8901 96.8007 37.8881 96.7308C37.8862 96.6608 37.9037 96.6031 37.9271 96.6024C37.9506 96.6018 37.9681 96.544 37.9662 96.4741C37.9642 96.4041 37.9434 96.3475 37.92 96.3481C37.8964 96.3488 37.8743 96.2363 37.8703 96.095C37.8641 95.8726 37.8735 95.8404 37.9448 95.8384C37.9897 95.8371 38.0356 95.8597 38.0469 95.8885C38.0581 95.9174 38.0815 95.9272 38.0987 95.9103C38.1407 95.8693 38.012 95.7516 37.9277 95.754C37.8444 95.7563 37.8231 95.4363 37.9042 95.4008C37.9439 95.3835 37.9408 95.3663 37.8915 95.3308C37.8423 95.2953 37.8392 95.2781 37.8789 95.2608C37.9472 95.231 37.9411 95.0025 37.8715 94.9815C37.8334 94.97 37.8392 94.9434 37.8918 94.8879C37.9624 94.8136 37.969 94.8143 38.0519 94.9043C38.0995 94.9559 38.1522 94.9825 38.1691 94.9634C38.186 94.9444 38.1757 94.9209 38.1461 94.9113C38.0624 94.8842 38.0793 94.7711 38.1808 94.6784C38.2584 94.6074 38.2629 94.5882 38.2093 94.5559C38.1535 94.5224 38.1534 94.5123 38.2084 94.4735C38.2641 94.4342 38.2638 94.4244 38.2059 94.3855C38.1569 94.3525 38.1538 94.336 38.1934 94.3187C38.2556 94.2915 38.2584 94.0479 38.1965 94.0496C38.1731 94.0503 38.1553 94.0999 38.157 94.1598C38.1597 94.258 38.0798 94.3923 38.0175 94.394C38.0041 94.3944 37.9878 94.2039 37.9813 93.9708C37.9742 93.7165 37.9864 93.5465 38.012 93.5457C38.0734 93.544 38.0601 93.3864 37.9961 93.3588C37.953 93.3403 37.9527 93.3303 37.9947 93.3094C38.0236 93.295 38.0462 93.2466 38.045 93.2019C38.0437 93.1572 38.0618 93.1201 38.0853 93.1195C38.1087 93.1188 38.1262 93.0611 38.1243 92.9911C38.1211 92.8781 38.1349 92.8636 38.2484 92.8604C38.3969 92.8562 38.4096 92.8146 38.2874 92.732C38.1836 92.6619 38.1739 92.6079 38.2645 92.6054C38.3007 92.6044 38.376 92.5554 38.4319 92.4966C38.5188 92.4051 38.5323 92.35 38.5258 92.1157C38.5208 91.9363 38.5363 91.8339 38.5707 91.8188C38.6103 91.8015 38.6072 91.785 38.5582 91.752C38.5003 91.7131 38.5 91.7029 38.5557 91.6608C38.6028 91.6251 38.6049 91.6084 38.5644 91.5934C38.5348 91.5824 38.509 91.5177 38.5071 91.4497C38.5052 91.3817 38.4845 91.3266 38.4611 91.3273C38.4377 91.3279 38.4175 91.2903 38.4162 91.2437C38.4149 91.1971 38.433 91.1584 38.4564 91.1577C38.4798 91.1571 38.4963 91.0612 38.493 90.9446C38.4897 90.828 38.5062 90.7321 38.5296 90.7315C38.5531 90.7308 38.5711 90.6921 38.5698 90.6455C38.5685 90.5967 38.5959 90.5599 38.6343 90.5588C38.7164 90.5566 38.8201 90.4528 38.8179 90.3752C38.817 90.3437 38.7772 90.2915 38.7294 90.2592C38.6817 90.2269 38.6419 90.1748 38.641 90.1433C38.6388 90.0657 38.7425 89.9619 38.8245 89.9596C38.8621 89.9586 38.8904 89.9221 38.8891 89.8765C38.8879 89.8318 38.9105 89.7835 38.9394 89.769C38.9814 89.7481 38.9811 89.7382 38.938 89.7196C38.9084 89.7068 38.8831 89.6598 38.8818 89.6151C38.8806 89.5704 38.8604 89.5344 38.837 89.5351C38.8136 89.5357 38.7939 89.5172 38.7932 89.4939C38.7926 89.4706 38.8495 89.4499 38.9197 89.4479C39.0333 89.4447 39.0471 89.4302 39.0439 89.3172C39.0419 89.2472 39.0212 89.1905 38.9978 89.1912C38.9743 89.1919 38.9541 89.1542 38.9528 89.1076C38.9515 89.061 38.9696 89.0223 38.993 89.0217C39.0164 89.021 39.034 88.9632 39.032 88.8933C39.0301 88.8234 39.0476 88.7656 39.071 88.7649C39.0944 88.7643 39.1141 88.7828 39.1148 88.8061C39.1154 88.8294 39.1351 88.848 39.1585 88.8473C39.182 88.8467 39.1995 88.7889 39.1976 88.719C39.1956 88.649 39.2131 88.5913 39.2366 88.5906C39.26 88.59 39.2771 88.5173 39.2746 88.4292C39.2715 88.3177 39.2955 88.2498 39.3536 88.2056C39.417 88.1573 39.4357 88.0934 39.4314 87.9395C39.4282 87.8281 39.4448 87.7364 39.4682 87.7357C39.4917 87.7351 39.5098 87.6964 39.5084 87.6497C39.5069 87.5932 39.5345 87.5642 39.5912 87.5626C39.638 87.5613 39.6758 87.5411 39.6752 87.5178C39.6745 87.4945 39.6548 87.476 39.6314 87.4766C39.5527 87.4788 39.5797 87.2441 39.6657 87.1787C39.772 87.0978 39.7707 87.0485 39.6621 87.0516C39.552 87.0546 39.5537 87.0207 39.6689 86.9128C39.7322 86.8534 39.745 86.8196 39.7085 86.8077C39.632 86.7827 39.6399 86.7128 39.7195 86.7106C39.8055 86.7082 39.9052 86.6032 39.9028 86.5176C39.9018 86.4809 39.9201 86.4504 39.9435 86.4498C39.9669 86.4491 39.9845 86.3914 39.9825 86.3214C39.9805 86.2515 39.9981 86.1937 40.0215 86.1931C40.0449 86.1924 40.0627 86.1427 40.061 86.0826C40.059 86.0105 40.1143 85.9162 40.2237 85.8056C40.333 85.695 40.3884 85.6007 40.3863 85.5286C40.3847 85.4685 40.4024 85.4188 40.4258 85.4182C40.4493 85.4175 40.4674 85.3804 40.4661 85.3357C40.4649 85.291 40.4876 85.2441 40.5165 85.2315C40.5562 85.2142 40.5531 85.197 40.5039 85.1615C40.4546 85.1259 40.4515 85.1088 40.4913 85.0914C40.5202 85.0788 40.543 85.0361 40.5419 84.9965C40.5407 84.957 40.5774 84.8961 40.6233 84.8612C40.6722 84.8239 40.7053 84.749 40.7034 84.6799C40.7009 84.5903 40.7205 84.5615 40.7852 84.5597C40.842 84.5581 40.8696 84.529 40.868 84.4725C40.8667 84.4259 40.8848 84.3872 40.9082 84.3866C40.9316 84.3859 40.9499 84.3542 40.9488 84.3161C40.9478 84.2781 40.9884 84.2091 41.039 84.1628C41.1173 84.0913 41.1215 84.0724 41.0675 84.0371C41.0192 84.0057 41.0165 83.9901 41.0564 83.9727C41.0853 83.96 41.1076 83.9017 41.106 83.843C41.1042 83.7792 41.1529 83.6873 41.2274 83.614C41.3574 83.4862 41.3857 83.3745 41.2949 83.3472C41.2636 83.3377 41.3312 83.2391 41.4586 83.1085C41.6403 82.9221 41.675 82.8612 41.6714 82.7347C41.668 82.6119 41.6831 82.5832 41.7523 82.5812C41.8091 82.5797 41.8367 82.5506 41.8351 82.4941C41.8338 82.4475 41.8519 82.4088 41.8753 82.4081C41.8987 82.4075 41.9163 82.3497 41.9143 82.2798C41.9119 82.1938 41.9319 82.152 41.976 82.1508C42.0119 82.1498 42.1059 82.081 42.1847 81.9979C42.2943 81.8825 42.3272 81.8114 42.324 81.697C42.3217 81.6146 42.339 81.5467 42.3624 81.5461C42.3858 81.5454 42.4042 81.5154 42.4031 81.4794C42.401 81.4039 42.5813 81.2006 42.652 81.1986C42.7808 81.195 42.8692 80.9703 42.7604 80.9233C42.7172 80.9048 42.717 80.8949 42.759 80.8739C42.7879 80.8595 42.8105 80.8111 42.8092 80.7665C42.808 80.7217 42.8261 80.6847 42.8495 80.684C42.8729 80.6833 42.8913 80.6533 42.8902 80.6173C42.8879 80.5325 43.0722 80.3384 43.1574 80.336C43.1936 80.335 43.2222 80.3002 43.221 80.2588C43.2199 80.2173 43.2565 80.1548 43.3024 80.1199C43.3482 80.0849 43.3848 80.0224 43.3837 79.9809C43.3825 79.9395 43.4007 79.905 43.4241 79.9043C43.4475 79.9037 43.4656 79.865 43.4643 79.8184C43.463 79.7717 43.4811 79.7331 43.5045 79.7324C43.5279 79.7317 43.5446 79.6439 43.5417 79.5372C43.5369 79.3661 43.5559 79.3231 43.7019 79.1754C43.7931 79.0832 43.867 78.9846 43.8662 78.9564C43.8654 78.9282 43.9068 78.8657 43.9582 78.8175C44.0215 78.7582 44.0343 78.7243 43.9979 78.7124C43.913 78.6848 43.9332 78.6175 44.0271 78.6148C44.121 78.6122 44.1411 78.5449 44.0563 78.5172C44.0198 78.5053 44.0326 78.4715 44.096 78.4121C44.1473 78.364 44.1885 78.2935 44.1874 78.2554C44.1864 78.2173 44.2046 78.1856 44.2281 78.185C44.2515 78.1843 44.2696 78.1456 44.2683 78.099C44.267 78.0524 44.285 78.0137 44.3085 78.0131C44.3319 78.0124 44.35 77.9737 44.3487 77.9271C44.3473 77.8805 44.3654 77.8418 44.3888 77.8411C44.4123 77.8405 44.4304 77.8018 44.429 77.7552C44.4277 77.7085 44.4458 77.6698 44.4692 77.6692C44.4927 77.6685 44.5107 77.6298 44.5094 77.5832C44.5081 77.5366 44.5262 77.4979 44.5496 77.4972C44.573 77.4966 44.5914 77.4656 44.5903 77.4283C44.5893 77.391 44.6444 77.3054 44.7128 77.2382C44.7812 77.1709 44.8364 77.0895 44.8355 77.0574C44.8346 77.0253 44.8715 76.9704 44.9173 76.9355C44.9632 76.9006 44.9998 76.8381 44.9987 76.7966C44.9975 76.7551 45.0157 76.7206 45.0391 76.72C45.0625 76.7193 45.0806 76.6806 45.0793 76.634C45.078 76.5874 45.0961 76.5487 45.1195 76.548C45.1429 76.5474 45.1612 76.5169 45.1602 76.4802C45.1578 76.3946 45.2575 76.2896 45.3435 76.2872C45.3871 76.286 45.4093 76.2471 45.4073 76.1752C45.4054 76.1075 45.4521 76.0179 45.5286 75.9427C45.597 75.8754 45.6522 75.794 45.6513 75.7619C45.6504 75.7298 45.6873 75.6749 45.7331 75.64C45.779 75.6051 45.8158 75.5506 45.815 75.519C45.8141 75.4873 45.8879 75.386 45.9791 75.2938C46.0884 75.1832 46.1437 75.0889 46.1417 75.0168C46.14 74.9567 46.1578 74.907 46.1812 74.9063C46.2046 74.9057 46.2227 74.867 46.2214 74.8203C46.2201 74.7737 46.2382 74.735 46.2616 74.7344C46.285 74.7337 46.3031 74.695 46.3018 74.6484C46.3002 74.5919 46.3278 74.5628 46.3846 74.5612C46.4413 74.5597 46.4689 74.5306 46.4674 74.4741C46.4661 74.4275 46.4458 74.3898 46.4224 74.3905C46.399 74.3912 46.3785 74.3432 46.3768 74.2838C46.3735 74.1648 46.5393 73.963 46.6428 73.9601C46.6801 73.9591 46.7075 73.9217 46.7062 73.8735C46.7049 73.8269 46.6846 73.7893 46.6612 73.7899C46.6378 73.7906 46.617 73.7339 46.6151 73.664C46.6123 73.5651 46.6304 73.5363 46.6967 73.5344C46.7597 73.5326 46.781 73.5037 46.7788 73.423C46.7749 73.284 46.8638 73.1904 47.0034 73.1864C47.0845 73.1842 47.1123 73.1614 47.1105 73.0986C47.1092 73.052 47.1273 73.0133 47.1507 73.0126C47.1741 73.012 47.1906 72.9161 47.1873 72.7995C47.1827 72.6351 47.1964 72.5872 47.2483 72.5857C47.3432 72.583 47.4339 72.4752 47.4309 72.3685C47.4275 72.2462 47.5227 72.1538 47.6561 72.1501C47.7272 72.1481 47.7649 72.1237 47.7637 72.0804C47.7613 71.9948 47.8609 71.8898 47.9469 71.8874C48.0268 71.8852 48.0339 71.8174 47.9577 71.7846C47.9146 71.766 47.9143 71.7561 47.9564 71.7351C47.9853 71.7207 48.0078 71.6724 48.0066 71.6277C48.0053 71.583 48.0235 71.5459 48.0469 71.5452C48.0703 71.5446 48.0886 71.5141 48.0876 71.4775C48.0852 71.3918 48.1849 71.2868 48.2709 71.2844C48.3156 71.2832 48.3367 71.2436 48.3345 71.1648C48.3325 71.0956 48.3656 71.0208 48.4146 70.9835C48.4605 70.9485 48.4971 70.886 48.4959 70.8446C48.4948 70.8031 48.513 70.7686 48.5364 70.768C48.5598 70.7673 48.5781 70.7368 48.5771 70.7002C48.5747 70.6145 48.6743 70.5096 48.7604 70.5072C48.7971 70.5061 48.8267 70.4862 48.8261 70.4629C48.8254 70.4396 48.855 70.4197 48.8917 70.4186C49.0115 70.4153 49.0771 70.2985 49.0715 70.0985C49.0668 69.933 49.0785 69.9044 49.1512 69.9023C49.2044 69.9008 49.2355 69.8717 49.2342 69.8245C49.2331 69.783 49.2697 69.7205 49.3155 69.6856C49.3614 69.6507 49.3977 69.5778 49.3962 69.5236C49.3931 69.4122 49.5626 69.2121 49.6624 69.2093C49.6986 69.2083 49.7273 69.1773 49.7263 69.1405C49.7253 69.1037 49.799 68.9982 49.8902 68.9059C49.9813 68.8137 50.0552 68.7124 50.0543 68.6807C50.0534 68.6491 50.0902 68.5946 50.1361 68.5597C50.182 68.5248 50.2187 68.4665 50.2177 68.4301C50.2166 68.3938 50.2534 68.3355 50.2992 68.3006C50.3451 68.2657 50.3817 68.2032 50.3806 68.1617C50.3794 68.1202 50.4085 68.0854 50.4453 68.0844C50.5314 68.082 50.631 67.9771 50.6286 67.8914C50.6276 67.8548 50.6459 67.8243 50.6693 67.8236C50.6927 67.823 50.7111 67.793 50.7101 67.7569C50.709 67.7209 50.754 67.6433 50.8098 67.5844C50.8657 67.5256 50.941 67.4766 50.9772 67.4756C51.0136 67.4746 51.0419 67.4375 51.0407 67.3925C51.0394 67.3478 51.0621 67.2995 51.0909 67.2851C51.1329 67.2641 51.1327 67.2542 51.0895 67.2356C51.0058 67.1995 51.024 67.1349 51.1186 67.1323C51.1719 67.1308 51.203 67.1016 51.2016 67.0545C51.2005 67.013 51.2371 66.9505 51.2829 66.9156C51.3288 66.8807 51.3655 66.8224 51.3645 66.786C51.3635 66.7497 51.4002 66.6914 51.4461 66.6565C51.492 66.6216 51.5288 66.5673 51.5279 66.5358C51.5258 66.4581 51.6294 66.3544 51.7115 66.3521C51.7483 66.3511 51.7775 66.3203 51.7765 66.2837C51.7741 66.198 51.8738 66.093 51.9598 66.0906C51.9966 66.0896 52.0257 66.0548 52.0246 66.0134C52.0234 65.9719 52.06 65.9094 52.1059 65.8744C52.1518 65.8395 52.1885 65.7812 52.1874 65.7449C52.1864 65.7086 52.2231 65.6503 52.269 65.6153C52.3149 65.5804 52.3517 65.5256 52.3508 65.4934C52.3499 65.4613 52.4052 65.38 52.4736 65.3127C52.542 65.2454 52.5973 65.1686 52.5966 65.1421C52.5959 65.1156 52.7629 64.9189 52.9678 64.7049C53.1727 64.491 53.3398 64.2953 53.3391 64.2699C53.3383 64.2446 53.4682 64.0884 53.6276 63.9229C53.7869 63.7574 53.9166 63.5966 53.9158 63.5657C53.9149 63.5347 53.9517 63.4808 53.9976 63.4459C54.0435 63.411 54.0801 63.3485 54.079 63.307C54.0778 63.2655 54.106 63.2308 54.1416 63.2298C54.216 63.2277 54.6605 62.7746 54.6585 62.703C54.6578 62.6769 54.7131 62.6004 54.7815 62.5331C54.85 62.4658 54.9053 62.3891 54.9046 62.3627C54.9026 62.2913 55.1801 62.0129 55.2555 62.0108C55.2913 62.0098 55.3202 61.9899 55.3195 61.9666C55.3189 61.9433 55.3476 61.9234 55.3833 61.9224C55.4678 61.92 55.8191 61.5501 55.8168 61.4659C55.8157 61.4295 55.8521 61.4002 55.9001 61.3989C55.9469 61.3975 55.9847 61.3774 55.984 61.3541C55.9834 61.3308 55.9637 61.3122 55.9403 61.3129C55.9169 61.3135 55.8972 61.295 55.8965 61.2717C55.8959 61.2484 55.9336 61.2282 55.9805 61.2269C56.0295 61.2255 56.0648 61.1963 56.0638 61.1579C56.0616 61.0797 56.1585 60.9674 56.2299 60.9654C56.2573 60.9646 56.3319 60.9053 56.3955 60.8335C56.4591 60.7617 56.5528 60.7018 56.6036 60.7004C56.7153 60.6973 56.8626 60.5609 56.7809 60.5362C56.7045 60.5133 56.7129 60.4428 56.7923 60.4406C56.8702 60.4384 56.978 60.3359 56.976 60.2658C56.9743 60.2043 57.0784 60.0932 57.1393 60.0915C57.1998 60.0898 57.7226 59.5393 57.7209 59.4791C57.719 59.4109 57.8279 59.3087 57.9047 59.3065C57.9432 59.3054 57.9706 59.2687 57.9692 59.2199C57.9679 59.1721 57.9953 59.1343 58.0318 59.1333C58.1059 59.1312 58.4678 58.7657 58.4658 58.695C58.4639 58.6265 58.5726 58.5242 58.6496 58.5221C58.6881 58.521 58.7155 58.4843 58.7141 58.4354C58.7128 58.3865 58.7402 58.3499 58.779 58.3488C58.8159 58.3477 58.9176 58.2685 59.005 58.1728C59.1098 58.0579 59.2012 57.9976 59.2737 57.9956C59.3443 57.9936 59.3827 57.9691 59.3816 57.927C59.3789 57.8312 59.5683 57.6479 59.673 57.645C59.7888 57.6418 59.8821 57.543 59.8788 57.4271C59.8758 57.3205 59.9665 57.2126 60.0614 57.2099C60.0982 57.2089 60.1278 57.189 60.1271 57.1657C60.1265 57.1424 60.1642 57.1222 60.2111 57.1209C60.2601 57.1195 60.2954 57.0902 60.2943 57.0519C60.2922 56.9743 60.389 56.8614 60.4594 56.8594C60.5222 56.8577 60.6267 56.7477 60.6249 56.6851C60.623 56.6163 60.7302 56.5125 60.8051 56.5104C60.84 56.5094 60.8775 56.4845 60.8886 56.455C60.9038 56.4145 60.9197 56.4163 60.9539 56.4626C60.9788 56.4962 61.0136 56.5085 61.0313 56.4899C61.0489 56.4713 61.0364 56.4406 61.0035 56.4215C60.9534 56.3926 60.9543 56.3756 61.0094 56.3176C61.0456 56.2795 61.0973 56.2477 61.1242 56.2469C61.1511 56.2462 61.2446 56.1672 61.332 56.0714C61.4194 55.9756 61.5211 55.8964 61.558 55.8954C61.595 55.8944 61.6247 55.8744 61.624 55.8511C61.6234 55.8278 61.6529 55.8079 61.6897 55.8069C61.7718 55.8046 61.8754 55.7008 61.8733 55.6232C61.8724 55.5917 61.9092 55.5374 61.9551 55.5025C62.001 55.4676 62.0376 55.4051 62.0364 55.3636C62.0351 55.3164 62.0662 55.2873 62.1195 55.2858C62.1762 55.2842 62.2038 55.2551 62.2022 55.1986C62.2002 55.128 62.2282 55.1131 62.3701 55.1091C62.4638 55.1065 62.5399 55.0852 62.5392 55.0619C62.5386 55.0386 62.5763 55.0185 62.6232 55.0172C62.6894 55.0153 62.7075 54.9865 62.7048 54.8876C62.702 54.7887 62.7201 54.7599 62.7863 54.7581C62.8354 54.7567 62.8707 54.7274 62.8696 54.6891C62.8673 54.6074 62.9655 54.4985 63.0435 54.4963C63.0751 54.4954 63.1275 54.4558 63.16 54.4082C63.1924 54.3607 63.253 54.3208 63.2947 54.3196C63.342 54.3183 63.3696 54.2857 63.3681 54.2327C63.3667 54.1839 63.3941 54.1472 63.4326 54.1461C63.5186 54.1437 63.6183 54.0387 63.6159 53.9531C63.6148 53.9147 63.6501 53.8855 63.6991 53.8841C63.746 53.8828 63.7837 53.8626 63.7831 53.8393C63.7824 53.816 63.8309 53.7956 63.8907 53.7939C63.9674 53.7917 64.0713 53.7138 64.2431 53.5295C64.377 53.3857 64.5164 53.2673 64.5529 53.2663C64.5907 53.2652 64.618 53.2281 64.6167 53.1797C64.6154 53.133 64.6335 53.0943 64.6569 53.0937C64.6803 53.093 64.6981 53.044 64.6964 52.9846C64.6925 52.8457 64.8654 52.6636 65.0049 52.6597C65.0849 52.6575 65.1127 52.6345 65.1109 52.5719C65.1096 52.5253 65.1277 52.4866 65.1511 52.486C65.1745 52.4853 65.1942 52.5038 65.1949 52.5272C65.1955 52.5505 65.2152 52.569 65.2386 52.5684C65.262 52.5677 65.2801 52.529 65.2788 52.4824C65.2772 52.4259 65.3048 52.3968 65.3616 52.3952C65.4084 52.3939 65.4462 52.3738 65.4455 52.3505C65.4449 52.3271 65.4252 52.3086 65.4018 52.3093C65.3784 52.3099 65.3587 52.2914 65.358 52.2681C65.3574 52.2447 65.4101 52.2242 65.4751 52.2224C65.5446 52.2204 65.6178 52.1833 65.6525 52.1326C65.6849 52.085 65.7455 52.0451 65.7872 52.0439C65.8345 52.0426 65.862 52.0101 65.8606 51.957C65.8592 51.9081 65.8866 51.8715 65.9254 51.8704C65.9624 51.8694 66.0641 51.7901 66.1514 51.6944C66.2388 51.5986 66.3405 51.5194 66.3775 51.5184C66.4163 51.5173 66.4437 51.4807 66.4423 51.4317C66.441 51.3851 66.4591 51.3464 66.4825 51.3457C66.5578 51.3436 66.5237 51.1956 66.434 51.135C66.3443 51.0743 66.3102 50.9264 66.3855 50.9242C66.4089 50.9236 66.427 50.8849 66.4257 50.8383C66.4244 50.7917 66.4425 50.753 66.4659 50.7523C66.4893 50.7517 66.5074 50.713 66.5061 50.6663C66.5042 50.6004 66.5321 50.5808 66.6314 50.578C66.7255 50.5754 66.7586 50.5545 66.757 50.499C66.7559 50.4575 66.7925 50.395 66.8383 50.3601C66.8843 50.3251 66.9204 50.248 66.9187 50.1882C66.9171 50.1283 66.9531 50.0512 66.9991 50.0162C67.045 49.9813 67.0817 49.923 67.0807 49.8867C67.0797 49.8504 67.1164 49.7921 67.1623 49.7571C67.2082 49.7222 67.2449 49.6639 67.2439 49.6276C67.2428 49.5913 67.2796 49.533 67.3254 49.498C67.4114 49.4326 67.4384 49.1979 67.3597 49.2001C67.3363 49.2008 67.3155 49.1441 67.3136 49.0742C67.3104 48.9611 67.3242 48.9466 67.4377 48.9434C67.537 48.9406 67.5649 48.921 67.5631 48.8551C67.5618 48.8084 67.5798 48.7698 67.6033 48.7691C67.6267 48.7684 67.6448 48.7298 67.6435 48.6831C67.6422 48.6365 67.6602 48.5978 67.6837 48.5972C67.7071 48.5965 67.7254 48.566 67.7244 48.5294C67.7216 48.4293 67.827 48.3386 67.9502 48.3352C68.0268 48.333 68.059 48.3094 68.0576 48.2567C68.0564 48.2152 68.093 48.1527 68.1389 48.1178C68.1848 48.0829 68.2213 48.0204 68.2202 47.9789C68.219 47.9374 68.2372 47.9029 68.2606 47.9023C68.2841 47.9016 68.3022 47.8645 68.3009 47.8198C68.2997 47.7751 68.3224 47.7282 68.3513 47.7156C68.3911 47.6982 68.3884 47.6825 68.3401 47.6511C68.305 47.6282 68.2907 47.5943 68.3083 47.5757C68.326 47.5571 68.3575 47.5678 68.3784 47.5995C68.4098 47.647 68.4299 47.6431 68.4923 47.5773C68.5461 47.5207 68.5526 47.4928 68.5148 47.4814C68.4328 47.4567 68.4477 47.329 68.5408 47.2581C68.5898 47.2208 68.6229 47.146 68.621 47.0768C68.6185 46.9873 68.6381 46.9584 68.7028 46.9566C68.7596 46.955 68.7872 46.926 68.7856 46.8695C68.7843 46.8228 68.8024 46.7842 68.8258 46.7835C68.8492 46.7829 68.8673 46.7442 68.866 46.6975C68.8647 46.6509 68.8828 46.6122 68.9062 46.6116C68.9296 46.6109 68.9479 46.5799 68.9468 46.5426C68.9458 46.5053 69.0009 46.4198 69.0693 46.3525C69.1377 46.2852 69.1931 46.2078 69.1923 46.1805C69.1903 46.1094 69.2975 46.0067 69.3761 46.0045C69.4129 46.0035 69.4421 45.9734 69.4411 45.9377C69.4389 45.8583 69.7045 45.5711 69.7821 45.5689C69.8129 45.5681 69.8645 45.5285 69.897 45.4809C69.9294 45.4333 69.982 45.3937 70.0138 45.3928C70.0456 45.3919 70.1431 45.3128 70.2304 45.217C70.3178 45.1213 70.4195 45.042 70.4565 45.041C70.4953 45.0399 70.5227 45.0033 70.5213 44.9544C70.5198 44.9013 70.5473 44.8688 70.5947 44.8675C70.6363 44.8663 70.697 44.8264 70.7294 44.7788C70.7619 44.7313 70.8225 44.6914 70.8641 44.6902C70.9058 44.6891 70.939 44.6581 70.938 44.6215C70.9356 44.5359 71.0353 44.4309 71.1213 44.4285C71.1598 44.4274 71.1872 44.3907 71.1858 44.3419C71.1843 44.2888 71.2118 44.2563 71.2592 44.255C71.3008 44.2538 71.3615 44.2139 71.3939 44.1663C71.4264 44.1188 71.4828 44.079 71.5193 44.078C71.5557 44.077 71.6121 44.0372 71.6446 43.9896C71.6793 43.9389 71.7524 43.9018 71.8219 43.8998C71.8869 43.898 71.9399 43.8856 71.9395 43.8723C71.9381 43.8226 71.8115 43.7304 71.7469 43.7323C71.665 43.7345 71.6463 43.4986 71.7257 43.4639C71.7655 43.4465 71.7624 43.4294 71.7131 43.3938C71.6638 43.3583 71.6608 43.3411 71.7005 43.3238C71.7295 43.3112 71.7521 43.2658 71.7509 43.2231C71.7497 43.1804 71.7724 43.1336 71.8013 43.1191C71.8433 43.0982 71.843 43.0883 71.7999 43.0697C71.7359 43.0422 71.7226 42.8845 71.784 42.8828C71.8074 42.8821 71.826 42.8625 71.8254 42.8392C71.8247 42.8159 71.7667 42.7984 71.6965 42.8004C71.6263 42.8024 71.5693 42.8231 71.57 42.8464C71.5706 42.8697 71.5137 42.8904 71.4435 42.8923C71.3557 42.8948 71.3163 42.9168 71.3176 42.9625C71.3186 42.9992 71.2929 43.0571 71.2603 43.0914C71.1816 43.1743 71.0679 43.1739 71.0656 43.0908C71.0632 43.0069 70.9381 42.8855 70.8993 42.9295C70.8833 42.9476 70.8945 42.9703 70.924 42.9798C71.0073 43.0069 70.9895 43.0747 70.8983 43.0773C70.8535 43.0785 70.8095 43.1034 70.8006 43.1327C70.7889 43.1713 70.7645 43.167 70.7114 43.117C70.625 43.0356 70.6138 42.9326 70.6873 42.8958C70.7294 42.8749 70.7291 42.8649 70.686 42.8464C70.6123 42.8146 70.6101 42.5418 70.6829 42.4652C70.7154 42.4309 70.787 42.4017 70.8421 42.4001C70.8971 42.3986 70.9687 42.3584 71.0011 42.3108C71.0336 42.2632 71.0942 42.2234 71.1359 42.2222C71.1775 42.221 71.2108 42.1908 71.2098 42.1551C71.2068 42.0483 71.4828 41.7883 71.6028 41.7849C71.7245 41.7815 71.7451 41.6847 71.6443 41.5899C71.5577 41.5083 71.4774 41.5188 71.4078 41.6207ZM71.8195 42.6273C71.821 42.6838 71.8502 42.7113 71.907 42.7097C71.9637 42.7081 71.9913 42.679 71.9897 42.6225C71.9882 42.566 71.959 42.5385 71.9022 42.5401C71.8455 42.5417 71.8179 42.5708 71.8195 42.6273ZM71.1395 42.6887C71.1402 42.712 71.1599 42.7306 71.1833 42.7299C71.2067 42.7293 71.2253 42.7097 71.2247 42.6863C71.224 42.663 71.2043 42.6445 71.1809 42.6452C71.1575 42.6458 71.1389 42.6654 71.1395 42.6887ZM67.5702 45.0178C67.6075 45.0529 67.6254 45.0947 67.6101 45.1109C67.5948 45.127 67.5634 45.1127 67.5403 45.079C67.5033 45.0251 67.4936 45.0254 67.4597 45.0813C67.4385 45.1162 67.4083 45.1326 67.3925 45.1178C67.3683 45.0949 67.4474 44.9621 67.4889 44.956C67.4964 44.9549 67.533 44.9827 67.5702 45.0178ZM65.7654 51.6021C65.7676 51.6798 65.6708 51.7927 65.6004 51.7946C65.5502 51.7961 65.4272 51.697 65.426 51.6541C65.4257 51.6408 65.4828 51.6283 65.5531 51.6263C65.6233 51.6243 65.6803 51.6036 65.6796 51.5803C65.679 51.557 65.6976 51.5374 65.721 51.5367C65.7444 51.5361 65.7644 51.5655 65.7654 51.6021ZM46.2423 64.5325C46.1852 64.6008 46.1757 64.7254 46.2276 64.724C46.2458 64.7235 46.2873 64.6841 46.3197 64.6365C46.3522 64.589 46.4128 64.5491 46.4545 64.5479C46.4961 64.5468 46.5297 64.5267 46.529 64.5034C46.5272 64.4392 46.301 64.4622 46.2423 64.5325ZM42.178 70.3945C42.1787 70.4178 42.16 70.4374 42.1366 70.4381C42.1132 70.4387 42.0935 70.4202 42.0929 70.3969C42.0922 70.3736 42.1108 70.354 42.1342 70.3533C42.1577 70.3526 42.1774 70.3712 42.178 70.3945ZM43.2163 70.9593C43.217 70.9826 43.1983 71.0022 43.1749 71.0029C43.1515 71.0036 43.1318 70.985 43.1312 70.9617C43.1305 70.9384 43.1491 70.9188 43.1725 70.9181C43.196 70.9175 43.2156 70.936 43.2163 70.9593ZM40.2506 71.5514C40.2513 71.5747 40.271 71.5933 40.2944 71.5926C40.3178 71.5919 40.3364 71.5723 40.3358 71.549C40.3351 71.5257 40.3154 71.5072 40.292 71.5078C40.2686 71.5085 40.25 71.5281 40.2506 71.5514ZM40.6858 71.8786C40.6865 71.9019 40.7062 71.9204 40.7296 71.9198C40.753 71.9191 40.7716 71.8995 40.771 71.8762C40.7703 71.8529 40.7506 71.8343 40.7272 71.835C40.7038 71.8357 40.6852 71.8553 40.6858 71.8786ZM46.7854 73.6592C46.786 73.6825 46.8057 73.701 46.8291 73.7004C46.8525 73.6997 46.8712 73.6801 46.8705 73.6568C46.8699 73.6335 46.8502 73.6149 46.8268 73.6156C46.8033 73.6163 46.7847 73.6359 46.7854 73.6592ZM38.8228 89.6809C38.9076 89.7607 38.9024 89.7878 38.8015 89.7906C38.7448 89.7922 38.7156 89.7647 38.714 89.7082C38.7112 89.6078 38.738 89.6011 38.8228 89.6809ZM38.5824 91.0936C38.5833 91.1251 38.7008 91.2357 38.7324 91.2348C38.7458 91.2345 38.7557 91.196 38.7544 91.1494C38.7528 91.0929 38.7236 91.0654 38.6668 91.067C38.62 91.0683 38.582 91.0803 38.5824 91.0936ZM38.1154 98.7606C38.116 98.7839 38.1549 98.802 38.2017 98.8006C38.2485 98.7993 38.2863 98.7792 38.2857 98.7559C38.285 98.7326 38.2462 98.7146 38.1993 98.7159C38.1525 98.7172 38.1147 98.7373 38.1154 98.7606Z" fill="#05A034"/>
<path fill-rule="evenodd" clip-rule="evenodd" d="M102.057 83.2684C98.3192 80.4213 88.936 79.1409 84.9469 81.8823C81.007 84.6353 80.5775 89.0871 78.7415 93.1825C77.0092 92.3653 74.1486 93.5356 73.6464 95.1436C73.0235 95.902 72.9955 98.0328 72.5659 99.0523C53.8758 102.028 51.0383 116.606 48.7886 133.155C45.8126 149.948 39.0566 166.704 41.9895 183.984C41.6073 184.538 41.306 185.075 41.0275 185.714C40.3599 186.85 41.2197 188.459 42.5662 188.396C44.3091 188.243 46.0347 188.034 47.7857 187.969C52.6398 187.8 57.4984 187.82 62.3543 187.882L63.0165 187.891C87.4891 188.196 111.96 188.796 136.434 188.955C137.322 188.957 137.757 188.16 137.638 187.374C137.399 185.792 137.178 184.209 136.946 182.627C142.735 184.156 148.889 184.541 154.661 182.787C155.065 182.376 153.72 182.599 153.507 182.536C158.819 178.905 157.233 171.255 156.762 165.745C153.836 146.864 152.805 125.974 141.499 109.863C136.608 103.288 129.438 98.0823 121.198 96.911L120.97 96.8796C118.56 96.5583 115.875 96.4548 113.769 95.1436C111.4 93.2516 110.39 89.7556 107.898 89.7229C107.075 89.7121 105.955 90.7537 104.75 91.4608C104.66 89.9052 103.822 88.5923 103.637 87.3861L103.622 87.283C103.429 85.8767 103.694 84.6115 102.057 83.2684ZM61.8898 133.653C67.1422 130.003 80.7104 131.837 81.021 132.042C81.7049 132.492 81.9994 132.531 82.3693 133.116C82.7345 133.164 83.0994 133.215 83.464 133.266C84.1955 133.505 83.6534 134.405 82.8086 134.084C83.3167 136.277 81.8212 137.836 81.2259 140.003C81.0326 140.707 81.2189 141.973 81.2259 142.692C81.1681 143.609 80.1549 144.692 80.3238 145.611C80.9241 148.881 84.1822 152.071 82.8086 155.243C81.8986 157.034 79.1617 157.947 77.3421 158.556C73.5722 160.003 67.0034 158.501 64.813 155.243C63.6447 153.504 62.2911 149.12 61.5945 147.76L61.4401 145.602C61.0593 140.239 60.7206 134.466 61.8898 133.653Z" fill="white"/>
<path fill-rule="evenodd" clip-rule="evenodd" d="M108.813 89.4067C108.451 89.0854 107.914 89.4891 108.144 89.923C108.662 90.8983 109.193 91.8224 109.888 92.6846C110.31 93.2073 110.761 93.7017 111.218 94.1906C110.045 95.2065 109.038 96.4678 108.087 97.6498C106.871 99.1616 105.722 100.737 104.357 102.121C103.012 103.485 101.524 104.439 99.7242 105.075L99.3608 105.201C97.5533 105.836 95.6214 106.693 94.6026 108.405C94.4016 108.743 94.8062 109.16 95.1463 108.949C96.9167 107.853 98.9969 107.632 100.924 106.908C102.786 106.208 104.408 105.13 105.842 103.755C107.274 102.383 108.476 100.821 109.729 99.2926C110.969 97.7811 112.304 96.4902 113.77 95.2113C116.033 96.7343 118.616 97.3969 121.242 98.0478L121.529 98.1188C124.159 98.7701 126.774 99.5265 129.241 100.661C131.417 101.661 133.556 102.855 135.328 104.482C137.209 106.208 138.672 108.414 140.012 110.57C143.009 115.396 145.116 120.682 146.971 126.032C148.9 131.598 150.514 137.274 151.817 143.018C152.479 145.94 153.017 148.883 153.46 151.846C153.673 153.273 153.862 154.703 154.028 156.137C154.205 157.667 154.246 159.242 154.715 160.713C154.916 161.344 155.392 161.606 155.867 161.584L155.964 162.792C156.092 164.403 156.211 166.015 156.252 167.637C156.318 170.332 156.288 173.02 156.094 175.711L156.067 176.077C155.914 178.041 155.574 180.247 154.098 181.684C152.57 183.173 150.22 183.641 148.16 183.668C143.362 183.731 138.744 181.463 134.498 179.473C130.126 177.425 125.873 175.15 121.722 172.684C119.608 171.428 117.517 170.13 115.453 168.794C114.439 168.138 113.434 167.471 112.435 166.794C111.863 166.406 111.321 165.98 110.739 165.636C111.024 165.37 111.152 164.953 110.913 164.588C112.596 163.127 113.296 160.519 113.378 158.409C113.444 156.705 113.194 155.007 112.996 153.32C112.896 152.469 112.773 151.62 112.645 150.773C112.594 150.438 112.556 150.08 112.497 149.727C117.041 152.225 121.713 154.45 126.508 156.426C128.966 157.44 131.455 158.351 133.979 159.185L134.491 159.354C136.882 160.137 139.33 160.876 141.803 161.324C141.935 161.348 142.042 161.153 141.901 161.091C139.492 160.027 136.999 159.13 134.554 158.151L134.152 157.987V157.987C134.198 157.984 134.246 157.978 134.296 157.966C135.73 157.62 137.153 157.086 138.56 156.637C139.865 156.22 141.332 155.958 142.552 155.329C142.646 155.28 142.593 155.15 142.502 155.143C141.13 155.048 139.642 155.448 138.297 155.683L137.792 155.772C136.946 155.921 136.081 156.082 135.238 156.291C135.208 156.009 135.05 155.725 134.826 155.559C132.359 153.731 132.609 150.039 132.345 147.316L132.15 145.295C131.805 141.757 131.441 138.22 130.888 134.709C130.859 134.522 130.569 134.575 130.567 134.752C130.539 139.105 130.867 143.437 131.032 147.783L131.057 148.496C131.148 151.177 131.22 153.961 132.908 156.025C132.672 155.887 132.353 155.887 132.161 156.114C131.926 156.394 131.791 156.708 131.795 157.016C130.27 156.376 128.751 155.72 127.239 155.05C122.38 152.897 117.623 150.487 112.992 147.879C112.493 147.598 112.019 147.819 111.773 148.189L111.737 148.184C111.731 148.183 111.725 148.182 111.719 148.182L111.684 148.181C111.682 148.181 111.681 148.181 111.68 148.181C111.028 147.822 110.14 148.078 109.58 148.6C109.564 148.616 109.55 148.633 109.535 148.65C108.827 148.332 108.165 147.902 107.565 147.358C106.337 146.244 105.297 144.867 104.39 143.487C102.72 140.944 101.301 138.115 99.0447 136.022C97.2116 134.321 94.939 133.262 92.5548 132.598C92.5648 132.528 92.5381 132.454 92.49 132.404C92.3675 132.279 92.2801 132.235 92.1219 132.311C92.1093 132.318 92.1017 132.326 92.0966 132.335L91.8639 131.937C91.7369 131.722 91.6065 131.504 91.5614 131.447C91.2906 131.106 91.0121 130.768 90.7292 130.437C90.2497 129.876 89.7033 129.322 89.0705 128.933C87.6852 128.082 86.2288 128.564 84.8045 129.029C83.9439 129.31 83.0861 129.601 82.227 129.886L82.1384 129.915C81.4978 130.121 80.7482 130.301 80.4618 130.98C80.3484 131.249 80.3308 131.528 80.3836 131.798C74.2994 130.25 67.5418 130.962 61.6046 132.779C61.3767 132.848 61.1492 133.036 61.1012 133.282C60.4209 136.772 60.1179 140.351 60.4257 143.9C60.6913 146.964 61.3699 149.967 62.6487 152.772L62.7214 152.93C63.9232 155.53 65.828 158.734 68.737 159.549C70.4935 160.041 72.4362 159.751 74.2277 159.661C75.9687 159.573 77.7484 159.561 79.4729 159.287C81.0088 159.043 82.3545 158.354 83.3037 157.105C84.1225 156.027 84.5537 154.724 84.907 153.429C85.0687 153.48 85.2293 153.535 85.3874 153.597C86.0546 153.857 86.62 154.278 87.1312 154.773C88.2105 155.819 89.0478 157.089 90.1772 158.087C91.1995 158.99 92.3644 159.693 93.614 160.233C96.2033 161.352 98.981 161.799 101.72 162.393L101.911 162.434C103.973 162.887 106.077 163.443 107.897 164.516C107.933 164.833 108.077 165.13 108.308 165.325C107.987 165.626 107.851 166.104 108.133 166.552C108.921 167.803 110.278 168.515 111.496 169.315L111.575 169.367C112.774 170.162 113.983 170.941 115.202 171.704C117.68 173.256 120.209 174.723 122.775 176.125C126.901 178.38 131.115 180.507 135.406 182.436C135.149 183.704 135.243 185.011 135.049 186.287L135.019 186.469C134.937 186.942 135.048 187.338 135.374 187.648L135.409 187.68L135.408 187.675L135.439 187.703L135.449 187.712L135.446 187.709C135.483 187.744 135.522 187.776 135.562 187.803L135.612 187.836V187.836C135.926 188.026 136.33 188.024 136.652 187.856L136.689 187.836L136.75 187.8C137.175 187.556 137.468 186.95 137.292 186.469C136.859 185.286 136.695 184.024 136.295 182.833L136.612 182.975V182.975L137.031 183.158C141.555 185.115 146.58 186.762 151.508 185.428C153.686 184.839 155.722 183.592 156.812 181.559C157.884 179.558 158.035 177.236 158.092 175.011C158.163 172.264 158.015 169.476 157.653 166.754C157.41 164.926 157.117 163.064 156.663 161.255C156.896 161.049 157.068 160.754 157.113 160.389C157.327 158.661 156.953 156.865 156.723 155.147C156.499 153.469 156.252 151.794 155.972 150.124C155.407 146.753 154.751 143.389 153.987 140.057C152.627 134.126 150.831 128.302 148.669 122.616L148.479 122.121C146.482 116.924 144.168 111.838 140.947 107.273C139.406 105.089 137.777 103.109 135.6 101.535C133.56 100.06 131.26 98.9983 128.885 98.1868C126.508 97.3746 124.065 96.8304 121.579 96.4919C119.054 96.148 116.389 95.9372 114.033 94.9011C114.331 94.3668 114.075 93.6453 113.574 93.3139C111.886 92.1985 110.326 90.7474 108.813 89.4067ZM54.7897 137.91C54.719 137.802 54.5511 137.87 54.5821 137.997C55.4029 141.361 56.1734 144.732 56.6766 148.16C57.5848 154.348 57.4177 160.616 57.3435 166.849L57.3397 167.171C57.3016 170.529 57.2486 173.887 57.1376 177.243C57.0816 178.939 56.9708 180.652 57.031 182.349C57.0639 183.269 57.3091 184.14 57.3961 185.05C57.4722 185.845 57.4044 186.653 57.3664 187.449C57.3409 187.979 58.1222 187.956 58.1754 187.449L58.2433 186.793C58.3316 185.963 58.4407 185.139 58.7126 184.344C59.0394 183.389 59.1963 182.451 59.3097 181.448C59.4834 179.911 59.5607 178.358 59.6277 176.811L59.6735 175.74C59.9535 169.272 59.9437 162.773 59.4905 156.312L59.4573 155.85C59.0086 149.742 58.2299 143.143 54.7897 137.91ZM72.2857 99.4148C72.5001 99.3267 72.425 99.0024 72.1876 99.0589L71.7558 99.1619C68.5922 99.9199 65.486 100.741 62.5332 102.152C59.5784 103.563 57.0768 105.67 55.0892 108.261C51.2252 113.298 49.6195 119.419 48.3519 125.534C46.9432 132.329 45.6606 139.148 44.2397 145.941L43.9758 147.207C42.661 153.533 41.4196 159.864 40.5049 166.265L40.4392 166.73C39.5168 173.313 38.9619 180.124 39.9684 186.724C40.1675 188.03 42.3396 187.704 42.2547 186.414C42.0094 182.685 41.8338 178.975 42.0035 175.237C42.1734 171.498 42.5239 167.776 43.0464 164.07C43.4861 160.951 44.1416 157.871 44.7217 154.777L44.8126 154.289C45.2983 151.657 45.7991 149.028 46.2987 146.399L47.0453 142.463C48.1644 136.569 49.3054 130.669 50.5946 124.812L50.6711 124.468C51.9328 118.833 53.7928 112.93 57.5773 108.455C61.4177 103.914 66.9155 101.627 72.2857 99.4148ZM86.2406 159.184C86.1482 158.978 85.8251 159 85.7258 159.184C85.3366 159.902 85.2934 160.819 85.2198 161.63L85.2121 161.713C85.1185 162.703 85.0357 163.696 84.985 164.688C84.8888 166.573 84.8428 168.454 84.8487 170.341C84.8548 172.274 84.8937 174.205 84.9978 176.136L85.0261 176.653C85.1212 178.33 85.2807 180.202 86.0775 181.668C86.3672 182.202 87.1549 182.045 87.3227 181.506C87.8723 179.74 87.5901 177.647 87.4491 175.839L87.3396 174.428C87.2313 173.017 87.1279 171.605 87.0459 170.192C86.9336 168.259 86.8409 166.325 86.7517 164.391C86.7228 163.763 86.6914 163.135 86.6583 162.506L86.6074 161.565C86.564 160.777 86.5676 159.912 86.2406 159.184ZM148.038 161.686L147.794 161.451C147.047 160.719 146.104 159.593 144.999 159.663C144.559 159.691 144.279 160.057 144.37 160.49C144.565 161.416 145.509 161.897 146.189 162.463C146.934 163.082 147.636 163.744 148.337 164.413C148.959 165.005 149.557 165.615 150.14 166.243L150.358 166.48C150.568 166.708 152.057 168.056 151.896 168.406L151.887 168.421C151.842 168.488 151.917 168.58 151.991 168.557C152.634 168.354 152.594 167.802 152.351 167.243C151.884 166.17 151.066 165.177 150.351 164.26C149.639 163.345 148.867 162.493 148.038 161.686V161.686ZM83.9099 134.762C84.4073 133.586 86.2395 133.611 87.2797 133.681C89.899 133.858 92.7331 134.521 95.0637 135.746C97.48 137.016 99.1076 139.05 100.564 141.3L100.632 141.405C102.052 143.613 103.419 146.226 105.641 147.743C106.773 148.517 108.095 149.223 109.469 149.528C109.563 149.694 109.716 149.826 109.916 149.873L110.009 149.895C110.401 149.981 111.008 150.077 111.533 150.019C111.53 150.276 111.533 150.531 111.526 150.775C111.508 151.472 111.5 152.173 111.5 152.871C111.499 154.333 111.578 155.798 111.517 157.261C111.463 158.554 111.28 159.905 110.66 161.062C110.204 161.91 109.603 162.471 108.878 163.007C107.093 161.919 105.076 161.256 103.028 160.757C100.551 160.154 98.015 159.752 95.5946 158.934C94.4296 158.541 93.3097 158.025 92.2949 157.326C91.218 156.583 90.3954 155.578 89.549 154.595L89.4167 154.442C88.5529 153.451 87.6104 152.502 86.3897 151.965C85.3385 151.502 83.9529 151.42 83.0337 150.704C82.5532 150.329 82.5129 149.785 82.4623 149.229C83.051 149.313 83.6742 149.178 84.2609 149.109L84.5649 149.073C85.1197 149.007 85.6617 148.935 86.2079 148.794C86.3093 148.767 86.3093 148.614 86.2079 148.588C85.5624 148.421 84.9227 148.35 84.2609 148.273L84.1054 148.253C83.5067 148.175 82.8774 148.056 82.2902 148.188C82.1848 147.787 82.0326 147.404 81.8191 147.021C81.5195 146.482 80.9525 145.871 80.8759 145.242C80.853 145.054 80.8967 144.832 80.9853 144.666L81.0159 144.609C81.0531 144.542 81.0972 144.475 81.1617 144.433C81.1688 144.442 81.184 144.451 81.2168 144.462C81.6688 144.604 82.063 144.383 82.2723 144.042C83.1606 144.152 84.1301 144.115 84.9631 144.152L85.8054 144.192C86.7054 144.234 87.6463 144.252 88.492 144.07C88.6101 144.045 88.6458 143.848 88.5276 143.797C87.4879 143.352 86.2266 143.211 85.1135 143.04C84.4918 142.944 83.8656 142.871 83.2421 142.787C82.8269 142.731 82.3863 142.639 81.9562 142.616C80.8777 141.273 81.4588 139.155 82.9597 138.576C83.5064 138.817 83.998 138.677 84.5954 138.626C85.1916 138.574 85.7894 138.54 86.388 138.542C87.5876 138.548 88.8589 138.863 90.0468 138.727C90.24 138.705 90.4196 138.448 90.2274 138.291C89.3181 137.549 88.0149 137.307 86.8606 137.148L86.6214 137.116C86.2344 137.066 85.7638 136.992 85.2756 136.948C85.1653 136.732 84.9672 136.569 84.6697 136.529C84.5813 136.517 84.4924 136.51 84.4037 136.502L84.405 136.493V136.493C83.6795 136.458 83.711 135.232 83.9099 134.762ZM133.582 157.698C133.595 157.718 133.609 157.737 133.624 157.755L133.647 157.781L133.528 157.733L133.582 157.698V157.698ZM71.2488 132.134C74.3027 131.806 77.361 131.875 80.424 131.963C80.669 132.765 81.5218 133.448 82.348 133.474C81.7009 134.459 81.6341 135.793 82.0879 136.838C81.1245 137.221 80.2944 137.91 79.7906 138.892C79.0918 140.253 79.1833 141.767 79.8738 143.024C79.2844 143.558 78.9366 144.425 78.9714 145.242C79.0103 146.153 79.5531 146.931 80.0042 147.685C80.4916 148.501 80.5079 149.219 80.6577 150.133C80.8768 151.47 81.7782 152.281 82.9382 152.788L82.8765 153.03C82.5775 154.195 82.2054 155.424 81.3507 156.275C80.2512 157.371 78.5454 157.36 77.0927 157.43L77.0226 157.433C75.6924 157.5 74.3628 157.578 73.033 157.653L72.0357 157.709C70.5047 157.793 69.0343 157.803 67.7844 156.791C65.7439 155.138 64.345 152.403 63.4596 149.981C61.6012 144.898 61.579 139.321 62.432 134.027C65.2929 133.105 68.2612 132.455 71.2488 132.134ZM96.6459 140.567L96.6235 140.568C95.9947 140.64 95.5627 141.149 95.4089 141.754C95.1854 142.632 95.295 143.426 94.7574 144.219C94.2043 145.034 93.8642 145.686 93.7838 146.694C93.7508 147.108 93.7659 147.521 93.6737 147.927L93.6069 148.211C93.5359 148.514 93.4778 148.806 93.5131 149.131C93.5453 149.428 93.6898 149.659 93.9873 149.754C94.9568 150.065 95.7053 149.35 95.9558 148.446C96.1721 147.666 95.8832 146.735 96.1885 146.002C96.3576 145.596 96.6695 145.256 96.8457 144.847C97.0203 144.441 97.108 144.018 97.136 143.577C97.1891 142.743 96.4521 141.742 96.8633 140.986C96.9509 140.825 96.8517 140.562 96.6459 140.567ZM109.524 131.964C108.867 131.83 108.122 131.524 107.475 131.778C107.142 131.909 106.978 132.315 107.259 132.597C107.747 133.087 108.457 133.114 109.114 133.23L109.172 133.24C109.949 133.384 110.728 133.52 111.508 133.65C112.975 133.893 114.446 134.108 115.922 134.291C117.438 134.478 118.958 134.645 120.48 134.771L121.07 134.819C122.356 134.922 123.694 135 124.955 134.803C125.139 134.774 125.109 134.507 124.955 134.46C123.573 134.042 122.057 133.93 120.628 133.753C119.109 133.564 117.592 133.365 116.079 133.128C114.569 132.892 113.061 132.639 111.558 132.359C110.879 132.233 110.201 132.101 109.524 131.964ZM85.8351 130.62C86.4112 130.416 87.045 130.113 87.6692 130.215C88.7458 130.389 89.7039 131.438 90.556 132.129L90.1281 132.046C87.9389 131.625 85.0397 131.172 83.2019 132.564C83.1972 132.556 83.1936 132.548 83.1883 132.54C83.0399 132.315 82.8681 132.139 82.6805 131.946C82.6625 131.929 82.6452 131.912 82.6281 131.894L82.5269 131.786L82.7584 131.706C83.2543 131.531 83.8416 131.304 83.9345 131.271L83.9409 131.269C84.5731 131.055 85.206 130.843 85.8351 130.62ZM103.823 84.7138C103.913 83.5547 102.109 83.5642 102.02 84.7138C101.825 87.2237 102.39 89.7097 103.605 91.9101C103.614 91.9261 103.624 91.9404 103.633 91.9555C102.873 92.3511 102.104 92.7307 101.319 93.07C100.313 93.5041 99.2892 93.8994 98.2468 94.2348C97.3038 94.5383 96.142 94.6581 95.3493 95.2898C93.6776 96.6215 94.3056 99.3851 94.6272 101.177L94.6774 101.459C94.8375 102.381 94.9533 103.327 94.5648 104.212C94.1499 105.157 93.311 105.858 92.5626 106.534L92.4114 106.671C91.7484 107.275 90.9908 108.009 90.5045 108.829C90.0606 107.91 89.4554 107.16 88.8155 106.315C88.359 105.712 88.684 105.514 89.0119 104.925C89.3276 104.358 89.4817 103.754 89.383 103.107C89.2009 101.913 88.2468 101.05 87.2972 100.402C86.1757 99.6372 84.924 99.0704 83.7647 98.3586C81.3824 96.8964 79.0624 95.2245 76.9722 93.3676C76.9145 93.3163 76.8146 93.3835 76.8608 93.4537C78.5119 95.9661 80.4479 98.137 82.8273 99.9798C83.7921 100.727 84.8056 101.347 85.8259 101.998L86.1193 102.187C86.5289 102.452 87.0399 102.807 87.2251 103.259C87.4115 103.713 87.0141 104.057 86.8001 104.433C86.1208 105.629 86.4485 106.745 87.2539 107.759L87.2915 107.806C88.0918 108.792 88.6983 109.71 88.9884 110.97C89.6118 113.678 88.7436 116.499 87.8347 119.041L87.7988 119.141C87.3072 120.511 86.7847 121.871 86.3576 123.263L86.24 123.648C85.853 124.929 85.5361 126.192 85.9703 127.509C86.1179 127.957 86.7285 128.063 86.9821 127.641C87.8768 126.155 88.0998 124.366 88.6606 122.732C89.2072 121.139 89.8348 119.575 90.3628 117.976C91.0426 115.916 91.4976 113.7 91.2506 111.54C91.2579 111.527 91.2659 111.515 91.272 111.502L91.445 111.123C91.9169 110.098 92.3727 109.203 93.2309 108.385C94.126 107.533 95.0976 106.778 95.802 105.746C97.3319 103.504 96.3857 101.01 96.2009 98.5586L96.1798 98.258C96.1462 97.749 96.1278 97.0573 96.4601 96.7051C96.834 96.3085 97.7106 96.2073 98.2066 96.0318C99.4885 95.578 100.752 95.0492 101.955 94.4143C103.1 93.8099 104.209 93.1423 105.242 92.3601L105.766 91.9661C106.592 91.3426 107.448 90.6617 108.002 89.813C108.066 89.7153 107.957 89.5576 107.842 89.6044C106.917 89.9796 106.073 90.5764 105.208 91.0956C105.195 91.064 105.179 91.032 105.162 90.9999C104.092 89.0629 103.652 86.9169 103.823 84.7138ZM74.3005 97.9847C73.9323 96.9746 72.2541 97.0526 72.321 98.2528C72.3723 99.1749 72.7637 100.007 73.1215 100.844L73.1597 100.934C73.5291 101.806 73.9558 102.625 74.4663 103.425C75.4418 104.953 76.5845 106.371 77.805 107.71C78.9115 108.924 80.3638 109.666 82.0373 109.542C82.7425 109.49 83.4542 109.311 84.0721 108.959C84.806 108.54 85.603 107.283 86.5393 107.587C86.6299 107.617 86.7144 107.484 86.6361 107.421C85.5552 106.55 84.3283 107.901 83.2934 108.226C81.7341 108.716 80.1338 108.174 79.1302 106.913C78.0823 105.596 77.1178 104.122 76.237 102.688C75.7898 101.96 75.3817 101.205 75.0293 100.426C74.6736 99.6402 74.5927 98.7861 74.3005 97.9847ZM76.8141 91.7681C76.8595 91.6286 76.6863 91.4959 76.5638 91.5756C75.8536 92.0382 75.2381 92.6493 74.5829 93.1851C73.856 93.7795 73.1238 94.3617 72.3802 94.935C71.2963 95.7709 72.5535 97.3099 73.5076 96.3967C74.8134 95.1475 76.2434 93.5141 76.8141 91.7681ZM80.7136 86.8788C80.4251 85.7657 78.7185 86.2247 78.9672 87.3248L78.9753 87.3584C79.4464 89.1755 78.7755 91.0254 77.3433 92.2034L77.2906 92.2462C76.3845 92.9716 77.6682 94.2397 78.5653 93.5213C80.5238 91.9533 81.3385 89.2897 80.7136 86.8788Z" fill="black"/>
<path fill-rule="evenodd" clip-rule="evenodd" d="M117.385 28.7746C116.599 27.9317 115.595 27.3037 114.497 27.103C115.501 27.6045 116.482 28.1272 117.385 28.7746ZM118.923 36.0426C119.061 35.4002 119.155 34.7517 119.184 34.1032C119.009 34.3701 118.728 34.5484 118.414 34.6405C118.617 35.0959 118.79 35.5652 118.923 36.0426ZM66.3808 46.1142C67.2871 42.3401 71.5157 35.0807 72.5151 33.6834C73.6004 30.2238 67.6813 27.4492 70.9004 24.7439C72.3578 23.5232 74.284 23.0912 76.091 22.6583C88.6018 19.6526 102.044 21.1685 113.647 26.6957C115.412 26.3241 117.251 27.0503 118.534 28.3256C124.564 34.3886 116.347 45.3279 114.55 52.163C111.467 59.7844 117.817 61.0664 117.136 67.5149C116.607 70.8463 113.234 71.7267 110.388 72.2302C109.932 72.337 109.322 72.3531 109.175 72.8355C108.713 75.6514 107.132 78.335 105.01 80.1562C105.195 80.7064 105.054 81.3742 104.399 81.8574C98.4688 86.2661 90.9912 88.4725 83.5946 88.0759C74.7799 87.6032 70.2215 82.549 69.1215 81.2476C63.0396 73.0309 63.7663 62.1897 65.0069 52.3975C65.8712 45.576 64.7753 52.8 66.3808 46.1142Z" fill="white"/>
<path fill-rule="evenodd" clip-rule="evenodd" d="M93.5609 14.7094C93.2838 13.843 92.4995 13.322 91.6017 13.4295C90.8068 13.5234 89.9559 14.3126 90.0528 15.1835C90.0709 15.3516 90.0952 15.5092 90.1239 15.6576L90.1202 15.6589V15.6589L90.1164 15.6591L90.1361 15.7167C90.1951 15.9939 90.2769 16.2423 90.398 16.477C90.5524 16.9269 90.7008 17.3783 90.8477 17.8312C90.6357 17.8221 90.4192 17.8342 90.1996 17.8751C89.9725 17.2934 89.7439 16.7133 89.5168 16.1302C89.273 15.5076 89.1019 14.7079 88.6205 14.2262C88.0042 13.6113 86.9353 13.484 86.1843 13.9233C85.3909 14.3868 85.1078 15.2108 85.2804 16.0938C85.3681 16.5443 85.6689 16.8577 86.0412 17.0547L86.0813 17.0753L86.3675 17.7539C86.2797 17.716 86.1888 17.6812 86.0904 17.6524C85.936 17.607 85.7846 17.5782 85.6362 17.5661C85.2274 16.8254 84.7777 16.1059 84.3129 15.4001C83.7784 14.5882 82.7337 14.2429 81.857 14.7564C81.0727 15.2153 80.6518 16.421 81.2136 17.2132C81.6405 17.8145 82.0448 18.4279 82.443 19.0474C82.3749 19.0596 82.3067 19.0747 82.2416 19.0944C82.2113 19.0535 82.1795 19.0126 82.1462 18.9717C81.7117 18.4325 81.206 18.0281 80.6867 17.5797C80.2006 17.1586 79.9765 16.4967 79.3376 16.1771C78.5336 15.7757 77.5646 15.9681 77.0862 16.7679C76.0596 18.481 77.7826 19.7321 78.8849 20.7696C77.9265 20.1713 76.9287 19.6245 75.9052 19.152C75.3298 18.8869 74.7454 18.6309 74.1519 18.4098C73.2722 18.0826 72.5606 18.1873 71.8383 18.796C71.5158 19.0687 71.3554 19.6641 71.5037 20.0608C71.7914 20.8211 72.2456 21.2831 73.042 21.5027C73.6023 21.6572 74.1761 21.7617 74.7363 21.9238C75.675 22.1934 76.5865 22.5221 77.4707 22.9326C77.4071 22.972 77.3466 23.0144 77.2906 23.0629C76.6304 22.8493 75.9582 22.6645 75.2829 22.507C74.1629 22.2443 73.023 22.0668 71.8781 21.9557L71.4978 21.9203C70.1252 21.7886 68.4746 21.5454 67.6322 22.8599C67.3551 23.2931 67.3249 24.008 67.6322 24.4367C68.2197 25.2606 68.8041 25.4242 69.7762 25.4394C68.8193 25.5409 67.8639 25.6666 66.913 25.8135C66.2576 25.9135 65.6023 26.0268 64.9497 26.1525L64.6237 26.2164C63.8288 26.3755 62.9416 26.4678 62.2587 26.9283C60.7689 27.9341 61.4684 29.8925 63.1187 30.1016C63.9167 30.2015 64.8024 29.8638 65.5852 29.7062C66.3453 29.5532 67.1083 29.4184 67.8745 29.3003C68.2712 29.2382 68.6679 29.1837 69.0661 29.1337C68.256 29.2503 67.452 29.4154 66.6693 29.6487L66.4518 29.7143C64.9385 30.1757 62.8959 30.9105 62.4238 32.5281C62.1376 33.5111 62.9204 34.3684 63.8682 34.426C64.7494 34.479 65.4837 33.9534 66.2317 33.5656C66.7768 33.2839 67.3309 33.0734 67.9184 32.8931C68.5255 32.7068 69.1448 32.5523 69.7686 32.4266C69.2414 32.7171 68.728 33.0365 68.2352 33.3937L68.0086 33.5611C66.6988 34.5375 64.7013 36.0492 65.1628 37.8794C65.3081 38.4565 65.9516 39.0079 66.5693 38.9488C68.1773 38.7988 69.0645 37.0857 70.2773 36.1678C70.5938 35.9285 70.9405 35.6922 71.3039 35.462C69.4658 37.6552 68.0032 40.1908 66.8903 42.8097C64.4446 48.5712 63.6942 53.9068 63.6762 60.1017L63.6759 60.2936C63.6729 63.7107 63.7501 67.1899 64.0832 70.5919C64.3921 73.7349 64.9583 76.8369 66.3831 79.6831C68.7708 84.4557 73.4236 88.1728 78.5548 89.5875C84.2644 91.1627 90.6463 89.9313 95.3233 86.2961C96.5164 85.3691 94.9342 83.3562 93.7153 84.2119C88.8476 87.6275 82.552 88.7089 76.965 86.3975C72.5333 84.5648 68.9646 80.6221 67.452 76.0826C66.4893 73.1947 66.209 70.1154 65.8656 67.1057L65.8426 66.9052C65.4792 63.7577 65.2687 60.589 65.2718 57.4203C65.2763 51.5357 66.1212 46.6918 68.7087 41.3541C69.9261 38.8397 71.5052 36.5148 73.3918 34.4744C73.9641 34.5911 74.5728 34.4275 75.1512 34.3654C75.4464 34.3336 75.7417 34.3033 76.0369 34.276C75.7353 34.4711 75.4395 34.6739 75.1488 34.8815L74.7674 35.1566C73.5741 36.0116 72.06 36.9854 72.3668 38.6383C72.45 39.0851 72.8952 39.4956 73.3267 39.5971C74.8907 39.9697 75.9657 38.4489 77.0226 37.5462C77.9416 36.7616 78.9031 36.0588 79.8827 35.3545C80.1052 35.1954 80.3293 35.0364 80.5549 34.8788C80.343 35.126 80.1368 35.3771 79.9357 35.6305L79.6383 36.0075C78.7386 37.1337 77.4416 38.5976 78.2429 40.0575C78.47 40.4695 78.9545 40.7437 79.4239 40.7346C81.0379 40.7013 81.6799 38.8685 82.4369 37.7113C83.088 36.7192 83.7951 35.7846 84.5264 34.8501C84.7277 34.5941 84.9306 34.3381 85.1365 34.0821C88.5266 34.2578 91.9045 34.7062 95.2234 35.4226C97.5036 35.9149 99.7459 36.5527 101.972 37.2508L102.157 37.3097C103.361 37.6977 104.602 38.1942 105.471 39.0457C105.595 39.6324 105.5 40.2511 105.381 40.837L105.288 41.2855C104.908 43.1607 104.648 45.0013 104.842 46.9266C105.044 48.9123 105.642 50.6981 106.372 52.543C106.717 53.4124 107.074 53.2549 107.197 54.1879C107.291 54.8986 107.233 55.6323 107.168 56.349L107.115 56.9565C106.98 58.548 106.913 60.2831 107.955 61.5962C108.117 61.7977 108.464 61.7174 108.579 61.516C108.625 61.4357 108.673 61.3584 108.726 61.2842C109.229 60.5557 109.999 60.1406 110.881 59.9801C110.993 59.9604 110.949 59.8104 110.855 59.7983C110.11 59.7105 109.404 59.8968 108.805 60.2815C109.089 59.2979 111.29 59.7762 112.014 59.9674L112.039 59.974C112.941 60.2164 113.795 60.6102 114.548 61.1676C116.062 62.2884 116.937 64.0364 116.893 65.9191C116.849 67.7701 115.894 69.4801 114.252 70.3662C113.461 70.7933 112.56 70.9993 111.663 70.9903C110.728 70.9812 109.895 70.5707 108.958 70.6283C108.416 70.6616 108.001 71.2432 108.314 71.7506C108.523 72.0899 108.796 72.3565 109.111 72.561C108.343 74.3316 107.363 76.0205 106.234 77.5791C105.608 78.444 104.9 79.2422 104.12 79.9708C103.511 80.5403 102.193 81.1992 102.267 82.1489C102.293 82.4912 102.47 82.7002 102.782 82.8275C103.751 83.224 104.931 81.8585 105.579 81.2001L105.631 81.1477C106.44 80.3419 107.177 79.4512 107.819 78.5061C108.958 76.8278 109.665 74.936 109.957 72.9487C111.512 73.4168 113.571 72.9775 114.84 72.4035C118.828 70.601 120.132 65.2284 117.708 61.6508C117.238 60.9586 116.651 60.3663 115.981 59.8877C116.128 59.8074 116.266 59.7044 116.389 59.5741C117.067 58.8532 117.547 57.9124 118.023 57.0453L118.08 56.9416C118.503 56.1782 118.901 55.4029 119.275 54.6155L119.414 54.3197C120.248 52.5248 120.979 51.7402 121.574 49.8529C122.147 48.0323 122.598 46.1768 122.89 44.2895L122.968 43.79C123.137 42.6949 123.297 41.5238 123.173 40.412C124.023 40.6891 124.877 40.8603 125.717 40.4438C126.271 40.1696 126.577 39.3699 126.388 38.7958C126.25 38.3732 126.02 38.0415 125.728 37.781C125.902 37.6931 126.065 37.581 126.209 37.4568L126.335 37.3479V37.3479C126.844 36.9055 126.88 36.0648 126.571 35.5105C126.541 35.4575 126.51 35.4029 126.482 35.3499C126.188 34.8243 125.581 34.4805 124.981 34.4896C124.884 34.4911 124.787 34.4911 124.689 34.4896C124.969 34.4275 125.243 34.332 125.504 34.1715C126.678 33.449 126.53 31.4905 125.108 31.1452C124.512 31.0013 123.853 31.0603 123.196 31.2148C123.22 31.2012 123.245 31.1876 123.269 31.1724C123.765 30.868 124.182 30.2727 124.135 29.6623C124.083 28.9868 123.865 28.5051 123.269 28.1507C122.751 27.8447 122.018 27.8159 121.503 28.1507C121.057 28.443 120.619 28.7656 120.198 29.1125C120.621 28.5929 120.987 28.028 121.135 27.4282C121.319 26.6814 121.013 25.868 120.341 25.4742C119.805 25.1607 119.238 25.1955 118.733 25.4379C118.76 25.0456 118.664 24.6457 118.404 24.2913C117.871 23.5644 116.902 23.1462 116.059 23.6763C115.948 23.746 115.8 23.8656 115.656 24.0126C115.936 23.1204 115.683 22.1843 114.728 21.7814C114.145 21.5345 113.356 21.6587 112.85 22.0844C113.171 20.347 110.608 19.0702 109.612 20.8651C109.386 21.2717 109.162 21.6998 108.962 22.1378L108.888 22.3025L108.88 22.2995L108.931 22.179V22.179L108.983 22.0586C109.26 21.4149 109.613 20.7454 109.71 20.0471C109.852 19.0141 109.392 18.0341 108.269 17.8827C107.689 17.8039 107.044 18.0674 106.655 18.5281C106.865 16.9254 105.076 15.7606 103.787 16.9572C103.177 17.5237 102.851 18.3522 102.464 19.0793C102.244 19.4897 102.02 19.8987 101.801 20.3107C101.745 20.244 101.684 20.1774 101.62 20.1123C101.946 19.1368 102.199 18.1371 102.412 17.1314C102.615 16.1832 102.141 15.1987 101.163 14.9307C100.274 14.6852 99.1615 15.2336 98.9632 16.1803C98.8239 16.8466 98.6588 17.5057 98.4771 18.1614C98.353 18.1311 98.2303 18.1099 98.1092 18.0947C98.0991 17.9715 98.0877 17.8477 98.0749 17.7245L98.0272 17.2863C97.9214 16.2852 97.8146 15.1424 97.2916 14.2914C96.3998 12.8373 94.1136 13.4401 94.0893 15.1593C94.0757 16.0484 94.4376 16.9299 94.5632 17.81C94.6177 18.1932 94.6495 18.5809 94.6677 18.9687C94.4239 17.6812 94.0893 16.4104 93.7017 15.1593C93.6563 15.0093 93.6078 14.8594 93.5609 14.7094ZM113.286 64.3575C111.28 64.047 109.447 65.1664 108.258 66.734C108.042 67.0203 108.184 67.4247 108.379 67.6656C108.52 67.8428 108.709 67.864 108.923 67.8913C109.168 67.9231 109.478 67.7246 109.586 67.5111C110.351 65.9843 111.715 65.0194 113.286 64.4257C113.315 64.4151 113.324 64.3636 113.286 64.3575ZM110.505 37.0018L110.445 36.9365C110.039 36.5153 110.68 35.8719 111.087 36.294C111.515 36.7384 111.8 37.2782 112.074 37.8253C112.335 38.347 111.551 38.8078 111.289 38.2841L111.17 38.0461C110.983 37.6761 110.783 37.3105 110.505 37.0018V37.0018ZM116.139 36.1372C115.564 36.0403 115.808 35.1644 116.381 35.261C117.123 35.3861 117.862 35.5283 118.605 35.6536C119.18 35.7505 118.936 36.6265 118.363 36.53C117.621 36.4047 116.882 36.2625 116.139 36.1372ZM81.8653 30.1571C82.4212 29.9716 82.6596 30.849 82.1068 31.0335C81.343 31.2885 80.5853 31.5497 79.8607 31.9037C79.3373 32.1594 78.8762 31.3759 79.4022 31.119C80.1976 30.7305 81.0268 30.4371 81.8653 30.1571ZM116.27 28.9793C116.813 28.7621 117.049 29.6408 116.512 29.8557L114.549 30.6408V30.6408C114.007 30.858 113.771 29.9795 114.308 29.7645L116.27 28.9793V28.9793ZM75.0135 26.8455L75.0851 26.8003C75.5772 26.4813 76.0331 27.2677 75.5438 27.5851C75.2565 27.7713 74.9072 27.8975 74.6441 28.1193L74.5891 28.1684C74.1643 28.5698 73.5206 27.9285 73.9467 27.5257C74.2584 27.2313 74.653 27.0674 75.0135 26.8455V26.8455Z" fill="black"/>
<path fill-rule="evenodd" clip-rule="evenodd" d="M81.4079 77.9297C82.4257 77.5143 83.3338 76.8215 83.9977 75.9363C84.2286 75.6286 84.2884 75.3037 84.24 75.0065C84.1856 74.6724 83.9879 74.3695 83.7184 74.1664C83.4481 73.9626 83.1099 73.8621 82.783 73.9133C82.4989 73.9578 82.2161 74.1134 81.9923 74.4362L81.9455 74.5007C81.5508 75.0349 81.0364 75.4732 80.4504 75.7558C79.8855 76.0281 79.2537 76.1552 78.5999 76.0812C77.3548 75.9405 76.4966 75.2669 75.5844 74.3521C75.4713 74.2366 75.3581 74.1174 75.2445 73.9964C75.1727 73.8867 75.073 73.8162 74.9624 73.7792C74.8396 73.7381 74.7006 73.7404 74.5734 73.7849C74.4506 73.8277 74.3409 73.9089 74.2673 74.017C74.1974 74.1197 74.1577 74.2466 74.1706 74.3926C74.2541 75.3406 74.7495 76.1867 75.4533 76.8511C76.235 77.589 77.2711 78.0994 78.2465 78.2785C79.3212 78.4757 80.4163 78.3344 81.4079 77.9297V77.9297ZM77.7396 63.3041C76.5962 63.9993 74.8541 65.6205 76.0841 67.3441C77.5319 68.8638 79.6164 67.1213 80.6436 66.3333C81.5961 65.7225 82.6662 67.2933 81.7825 68.0065C74.3599 73.504 71.3477 63.4859 77.1613 62.4866C77.8014 62.3765 78.0391 63.089 77.7396 63.3041ZM91.0409 56.909C90.9146 55.3403 88.5265 54.9841 88.2889 56.5364C88.0762 57.9268 88.3266 59.2042 88.9527 60.4561C89.5509 61.652 91.0545 61.0941 91.1682 60.005C91.3206 58.5452 91.1195 57.8848 91.0409 56.909ZM72.8623 56.2145C72.5293 55.7783 72.0486 55.4805 71.4726 55.6488C69.6731 56.1748 70.2035 58.7305 70.8355 59.9746C71.1789 60.6501 72.2889 60.8214 72.7905 60.2266C73.6081 59.2566 73.9996 57.3195 72.9602 56.364C72.9321 56.3146 72.9007 56.2648 72.8623 56.2145ZM88.9781 50.0451L88.6938 49.9953C87.8145 49.8432 86.7211 49.697 86.099 50.4042C85.7691 50.7793 85.6556 51.4763 86.099 51.8353C86.8791 52.4669 87.7415 52.2222 88.6763 52.2756C89.4467 52.3198 90.1871 52.4474 90.9291 52.6596C92.5571 53.1251 93.8836 53.9748 95.2739 54.9078C95.4564 55.0302 95.6426 54.7968 95.5556 54.6261C94.7529 53.0534 93.1975 51.7615 91.6395 50.9741C90.808 50.5537 89.898 50.2051 88.9781 50.0451ZM74.5027 49.3406L74.2851 49.3852C71.9175 49.8802 68.8414 50.8692 67.7202 53.1957C67.6775 53.5246 67.7227 53.5951 67.7594 53.6412L67.7716 53.6565C67.8018 53.6959 67.826 53.7501 67.9685 53.7949C68.0081 53.7854 68.048 53.7755 68.0884 53.7649C68.6023 53.6301 69.0089 53.4445 69.4026 53.2519L69.8294 53.0416C70.3246 52.7987 70.8241 52.5646 71.3536 52.3918C72.4834 52.0232 73.6455 51.7635 74.8256 51.6248C75.0814 51.5948 75.3277 51.5084 75.522 51.3604C75.7065 51.2199 75.8474 51.0254 75.9116 50.7668C75.9949 50.4322 75.971 50.1789 75.7915 49.8771C75.6566 49.6504 75.4635 49.4932 75.2418 49.403C75.0158 49.311 74.7585 49.2893 74.5027 49.3406Z" fill="black"/>
<path fill-rule="evenodd" clip-rule="evenodd" d="M91.2282 78.8789C90.0024 76.0059 87.3269 73.8945 84.2465 73.1226C81.9845 72.5571 79.6105 72.5752 77.3046 72.7996C76.0964 72.9163 74.8006 73.012 73.662 73.4608C72.6897 73.8443 71.8974 74.5691 71.3017 75.4199C70.5925 76.4281 70.1101 77.582 69.7714 78.7647C69.7234 78.9329 69.6781 79.1022 69.636 79.2725C69.7832 80.1648 70.0959 80.9244 70.9221 81.4854C71.7284 82.0332 72.6903 82.2573 73.6493 82.3369C73.7434 82.2918 73.8342 82.2454 73.9175 82.1977C75.4119 81.342 76.4637 79.3195 78.3499 79.5932C80.0331 79.8376 81.1412 81.9564 82.1422 83.1988C85.3553 83.5733 88.5661 82.6075 91.1804 80.7694C91.3132 80.1403 91.3209 79.5059 91.2282 78.8789M67.4521 76.6995C67.7091 75.9779 68.0329 75.279 68.4166 74.6207C69.6853 72.4434 71.6328 70.7086 73.9448 69.717C79.4139 67.3743 86.4904 69.0257 90.9072 72.8678C92.416 74.1812 93.9415 76.1113 94.4028 78.1874C94.5406 78.2147 94.6706 78.2865 94.7777 78.3874C97.9688 76.3776 101.255 74.4439 103.826 71.6578C105.694 69.6336 106.993 67.238 107.788 64.6055C107.853 64.3888 108.202 64.4205 108.192 64.6603C108.189 64.7164 108.186 64.7723 108.183 64.8284C108.216 64.7253 108.373 64.7784 108.385 64.8785C108.813 68.0763 109.348 71.4668 108.856 74.6813C108.561 76.5994 107.69 78.0037 106.525 79.52C105.278 81.1453 103.866 82.657 102.422 84.1068C101.505 85.027 100.548 86.0884 99.4262 86.7632C98.1213 87.5471 96.641 88.1432 95.2484 88.748C93.8316 89.3651 92.3936 89.9353 90.9284 90.4296C87.9995 91.4212 84.9723 92.1066 81.8922 92.4068C79.426 92.6464 76.6075 92.9074 74.2442 91.9792C72.4327 91.2681 70.9705 89.9824 69.8108 88.4356C68.5482 86.751 67.5501 84.8322 66.9983 82.8087C66.4249 80.7068 67.3313 77.0384 67.4521 76.6995" fill="black"/>
</g>
<defs>
<clipPath id="clip0">
<rect width="184" height="184" fill="white"/>
</clipPath>
</defs>
</svg>
