<svg width="184" height="184" viewBox="0 0 184 184" fill="none" xmlns="http://www.w3.org/2000/svg">
<g clip-path="url(#clip0)">
<path fill-rule="evenodd" clip-rule="evenodd" d="M34.4793 51.0497C32.4841 51.1351 30.6795 51.3772 30.4691 51.5867C30.2582 51.7967 30.0582 53.882 30.024 56.2202C29.9898 58.559 29.7539 60.6008 29.5 60.7575C28.7092 61.2453 28.9926 62.9907 29.9447 63.4941C31.8555 64.5044 37.848 62.9209 37.848 61.4052C37.848 61.0839 38.316 61.2438 38.8876 61.7606C39.4597 62.2768 40.0972 62.5303 40.3045 62.3229C41.0394 61.5893 41.1057 54.2063 40.3895 52.8706C39.4463 51.1113 38.6637 50.8702 34.4793 51.0497ZM53.2939 55.2409L49.4765 57.26L47.7149 55.825C46.3996 54.7536 45.7964 54.5359 45.3346 54.9668C44.693 55.5648 45.0713 56.2238 48.2435 60.0369C49.8667 61.9882 50.5513 61.8356 54.4283 58.6588C55.994 57.3754 57.7586 56.3257 58.3494 56.3257C58.9402 56.3257 60.1358 57.1286 61.006 58.1094C63.0852 60.4539 64.7747 60.848 67.2535 59.5672C70.3619 57.9609 72.0385 57.7049 73.1097 58.6722C74.4535 59.8864 77.5723 60.158 81.865 59.4353C84.4583 58.9987 85.6964 58.546 85.9146 57.9542C86.0872 57.485 86.479 56.9274 86.7847 56.7137C87.5528 56.1778 86.1432 55.3092 84.4905 55.2994C83.7779 55.2953 81.5017 55.6444 79.4323 56.0754C75.8409 56.8234 75.5771 56.8115 73.6228 55.8162C71.0652 54.5141 69.3057 54.5146 66.4248 55.8198C63.5687 57.1136 62.3861 57.112 61.6906 55.8136C61.1583 54.8214 58.6407 53.2219 57.6114 53.2219C57.3362 53.2219 55.3933 54.1303 53.2939 55.2409ZM38.6927 55.9378C38.5212 56.5782 38.3771 57.7059 38.3735 58.4446C38.3667 59.7115 38.2087 59.7922 35.5791 59.8781C32.4794 59.9795 32.084 59.5299 32.5401 56.4266C32.7826 54.7785 32.7914 54.7738 35.8942 54.7738C38.8679 54.7738 38.9917 54.8255 38.6927 55.9378ZM29.5881 69.5869C27.7483 71.4089 27.4363 76.1728 29.0248 78.182C30.0779 79.5146 30.4033 79.6046 34.1544 79.6046C36.357 79.6046 38.3823 79.8275 38.6554 80.1002C39.7489 81.1917 40.5149 79.6858 40.7486 75.9845C40.9575 72.6789 40.8403 71.996 39.8064 70.4793C38.6818 68.8311 38.4719 68.7478 35.4288 68.7447C33.6704 68.7427 31.9213 68.6501 31.5419 68.5383C31.162 68.4271 30.2831 68.8989 29.5881 69.5869ZM32.5727 71.8998C32.7665 71.9303 33.8574 71.9893 34.9976 72.0307C37.0545 72.1067 37.0706 72.1228 37.0706 74.1573V76.2074L34.4793 76.0553C33.0542 75.972 31.7326 75.747 31.5419 75.5556C31.3517 75.3642 31.0263 74.0513 30.8184 72.6375C30.4619 70.2087 30.4899 70.1166 31.331 70.9562C31.8207 71.4451 32.3794 71.8698 32.5727 71.8998ZM44.067 74.8438C44.067 76.7568 45.6989 76.9291 66.7404 77.24C81.6743 77.4603 82.4175 77.4262 82.4175 76.524C82.4175 76.0031 82.0096 75.4154 81.5105 75.2183C81.0114 75.0212 76.7556 74.7802 72.0525 74.6819C67.3493 74.5836 59.1289 74.3487 53.7842 74.1594C44.3147 73.8237 44.067 73.8413 44.067 74.8438ZM28.0406 91.8229C28.0007 95.2821 28.1971 97.581 28.5708 98.0306C29.245 98.8412 35.01 99.0445 35.4868 98.2742C36.088 97.3032 35.1505 96.3452 32.652 95.3773C30.4821 94.5367 30.0742 94.1668 30.0742 93.0396C30.0742 91.0852 31.0905 90.1147 33.5128 89.7567C36.0144 89.3874 36.2689 89.8312 36.2943 94.6065C36.3098 97.5758 36.8576 99.0972 37.72 98.5649C39.1845 97.6617 38.6544 89.1111 37.0219 87.3109C36.2948 86.508 35.4013 86.3296 32.1187 86.3296H28.1044L28.0406 91.8229ZM43.0305 91.558C43.0305 92.8994 46.24 98.6912 47.4055 99.4537C48.9152 100.441 49.5868 100.237 53.4582 97.6146C55.0606 96.5293 56.5003 95.6411 56.6573 95.6411C56.8149 95.6411 57.643 96.3395 58.4982 97.193C59.3533 98.0466 60.383 98.745 60.7867 98.745C61.1905 98.745 62.2638 97.9302 63.1717 96.9344C64.0792 95.9386 65.2836 95.1238 65.8475 95.1238C66.4113 95.1238 67.7152 96.055 68.7455 97.193C70.6319 99.2773 71.8597 99.6782 73.5657 98.7672C74.0752 98.4951 75.66 97.8128 77.0867 97.2515L79.6811 96.2308L81.58 97.5789C82.9284 98.537 83.639 98.7672 84.0328 98.374C86.5116 95.8998 79.168 92.1886 75.9533 94.2909C75.2366 94.7601 73.7072 95.234 72.5546 95.3452C70.7656 95.517 70.3334 95.354 69.5954 94.2299C67.6929 91.3319 64.0844 91.0919 61.3164 93.68L60.168 94.7539L58.6469 93.128C57.045 91.4168 56.0551 91.124 55.0974 92.08C54.7792 92.3976 54.064 92.9211 53.5074 93.2439C52.9513 93.5667 51.9407 94.2221 51.2613 94.7006C50.5824 95.1797 49.4096 95.7223 48.6556 95.9075C47.4206 96.2101 47.1371 95.9825 45.8052 93.6148C44.451 91.2088 43.0305 90.1556 43.0305 91.558Z" fill="#05A034"/>
<path fill-rule="evenodd" clip-rule="evenodd" d="M107.564 75.8944C103.153 76.1122 96.285 78.0039 95.9416 79.2129C95.4055 81.1007 96.5576 88.1784 94.6306 91.9907C93.8091 93.6159 90.6898 93.4702 89.4811 93.9994C85.4371 95.7703 73.4649 99.1288 70.9965 103.358C70.0076 105.052 63.9301 126.074 60.7008 136.799C60.3367 138.008 59.9255 139.126 59.4785 140.162L59.3142 139.357C57.9975 132.875 57.3391 128.951 57.3391 127.585C57.3391 125.45 59.0412 116.444 57.3391 114.154C55.6541 111.886 51.5931 110.032 49.7661 109.996L49.7114 109.995C48.5118 109.995 47.4709 109.62 46.5887 108.87L45.2953 108.219C38.7152 104.916 34.8709 103.104 33.7623 102.783C31.9931 102.272 28.9823 103.362 30.4877 104.998C31.4913 106.089 34.0133 108.019 38.0536 110.788L39.577 111.999L39.393 112.095C37.4241 113.132 36.2665 114.005 35.92 114.713C35.5629 115.444 35.7342 116.308 36.4341 117.305L36.3279 117.409C35.4429 118.278 35.0004 118.861 35.0004 119.157V120.607C34.1199 121.897 33.8998 122.973 34.3401 123.834C34.7803 124.696 35.4783 125.442 36.4341 126.074C37.1384 127.927 37.9771 129.246 38.9502 130.031C39.9234 130.816 41.6052 131.469 43.9958 131.991L46.1591 137.166L47.912 144.435L48.7952 152.547L48.5388 152.733C47.3501 153.599 46.5887 154.241 46.5887 154.904C46.5887 155.938 51.3848 180.245 58.8468 181.333C60.4606 181.568 68.8299 180.414 71.5779 178.178L71.5374 178.42C70.8908 182.326 71.0276 184.355 71.9477 184.506C83.256 186.361 115.372 186.934 168.297 186.225C168.611 158.125 167.188 139.41 164.025 130.082C155.937 106.223 147.019 98.0746 143.899 97.3767C141.167 96.7654 131.69 92.9922 129.041 91.9907C127.312 91.337 126.941 89.3771 124.971 89.3771L124.812 89.3779C122.906 89.3971 121.216 89.738 120.267 88.7575C117.775 86.1845 118.472 82.623 117.438 79.2129C116.868 77.3339 112.976 75.6272 107.564 75.8944Z" fill="white"/>
<path fill-rule="evenodd" clip-rule="evenodd" d="M119.682 82.6316C119.423 82.1185 118.736 82.185 118.282 82.4178C116.922 83.4125 118.345 85.3405 118.721 86.5544C119.689 88.9088 121.37 91.2097 123.691 92.3101C123.498 94.6506 123.281 96.9859 123.2 99.3337C120.233 103.015 115.231 104.359 110.791 105.392C103.817 107.321 95.946 103.368 93.5922 96.4723C96.2711 94.9496 97.138 90.9627 96.3387 88.1811C96.2692 87.9857 95.9664 87.8994 95.8588 88.1175C95.1252 89.6269 95.223 91.4683 94.389 92.9595C86.3844 93.7261 76.0538 96.7475 70.8098 103.223C68.4858 106.463 67.5652 110.677 66.4206 114.432C63.9784 122.173 62.0325 130.071 59.6373 137.82L59.3549 136.354C58.5811 132.315 57.878 128.221 58.4006 124.114L58.41 123.917C58.5807 120.649 59.6032 114.575 57.0694 112.369C54.7776 110.617 51.4575 109.209 48.5815 110.016C43.4634 107.738 39.0459 103.901 33.5951 102.407C31.9175 102.062 29.504 102.471 29.9006 104.747C30.9995 108.729 35.6015 110.275 38.7475 112.328C36.7309 112.875 34.2725 115.328 35.848 117.467C35.8617 117.505 35.8738 117.534 35.8859 117.557C34.6082 118.123 34.4292 119.547 34.7428 120.768C34.7746 121.091 34.8593 120.813 34.6699 121.106C33.2282 122.466 33.8655 126.258 36.0373 126.386C35.8951 128.182 37.0487 129.927 38.5098 130.907C40.0846 131.963 42.3616 132.008 43.6654 133.453C46.7264 138.853 47.7824 145.227 48.1161 151.41C46.0982 152.166 44.2878 154.425 46.1211 156.342C46.1573 156.346 46.1935 156.351 46.2301 156.354C47.2929 159.191 47.7032 162.215 48.2652 165.178C49.1299 170.234 51.3833 174.876 54.2608 179.088C57.5885 184.663 66.5366 183.779 71.0444 180.181C71.0264 181.125 70.8709 182.063 71.1731 182.976C71.6192 183.96 72.7068 183.535 72.8144 182.565C75.1974 183.906 75.7587 179.481 73.1096 180.182C73.3134 176.983 73.4315 173.78 73.5274 170.575C76.5265 171.546 76.6558 166.569 73.5881 167.564L73.5917 166.188C73.6143 155.636 73.4978 145.049 72.1058 134.58C71.9771 133.797 71.7591 133.04 71.6319 132.261C71.6183 132.181 71.4926 132.204 71.4922 132.281C71.2767 146.937 72.2342 161.624 71.2352 176.285C70.4035 176.539 70.0719 177.494 69.4562 178.05C68.0891 179.312 66.2274 179.927 64.4068 180.141C59.3089 180.856 57.1079 179.299 54.8377 174.866C55.8616 175.551 57.2452 174.342 56.6211 173.258L56.6016 173.226C55.9534 172.078 54.123 172.766 54.3548 174.051C52.0724 170.395 50.8778 166.272 49.9955 162.088L49.8761 161.588C49.4473 159.812 48.8907 157.777 47.8608 156.17C54.1415 154.569 60.2854 149.69 61.2681 142.996C62.8628 148.008 65.0231 152.908 67.0821 157.782C67.718 159.477 67.983 161.299 68.8944 162.871C69.1064 163.235 69.6439 163.141 69.7638 162.758C70.5836 159.091 68.0995 155.604 66.8099 152.303C65.7567 150.438 62.7336 141.92 60.8593 141.899C62.9654 132.665 65.7745 123.499 68.4498 114.379C71.0366 102.065 76.3082 99.6907 87.4757 95.8136C85.4614 106.082 76.2649 116.023 81.1585 126.793L81.2775 127.073C81.7781 128.26 82.1938 129.457 81.8444 130.76C81.5052 132.025 80.7331 133.123 80.1152 134.261C76.6618 140.686 79.039 148.19 80.3742 154.881C82.0609 162.729 83.7272 170.583 85.4706 178.418C85.8143 179.981 86.0371 181.591 86.5562 183.106C86.8242 183.888 88.1612 183.813 88.0747 182.901C87.9098 181.132 87.4132 179.407 87.0495 177.67C84.8786 166.422 81.9412 155.306 80.0734 144.009C78.872 135.646 83.6018 134.361 83.4253 128.958C82.7824 126.194 81.0807 123.728 81.1784 120.783C80.8001 111.768 87.364 104.331 88.1743 95.5635L89.6052 95.0529C90.3203 94.7968 91.0346 94.5386 91.7467 94.2744C87.9985 120.497 89.1367 147.293 91.0104 173.645C91.3931 174.861 91.029 183.355 92.6338 182.602C92.7148 183.076 92.9669 183.543 93.515 183.541C98.4918 183.586 103.47 183.665 108.447 183.724C110.841 183.504 114.131 184.418 116.167 183.036C118.518 182.365 118.789 175.996 119.417 173.726L119.662 172.075C123.657 145.097 127.232 117.562 124.36 90.3174C128.355 90.471 129.18 94.7844 129.476 97.9249C130.217 104.857 134.694 110.826 134.909 117.837C134.927 119.538 134.606 121.186 133.926 122.748C132.123 126.574 129.004 130.998 131.335 135.271C134.092 138.598 133.853 139.474 132.841 143.585C129.995 157.176 125.269 170.243 120.773 183.347C121.75 188.44 127.626 169.532 128.179 168.106C130.78 169.414 132.2 165.073 129.217 164.763C131.133 158.347 132.897 151.882 134.365 145.347L134.404 145.162C135.052 142.143 136.328 138.607 134.174 135.928C128.619 130.309 137.844 124.028 136.68 117.221C137.685 117.966 139.206 117.182 139.183 115.93C139.228 114.521 137.336 113.799 136.425 114.874C135.489 109.351 132.232 104.53 131.246 99.0228L131.202 98.7642C130.868 96.818 130.774 94.7701 129.818 92.9963C131.119 93.8415 132.504 94.5246 133.929 95.1274C131.381 97.256 136.314 99.1987 135.906 95.9105C149.876 99.9538 153.034 105.592 158.163 118.541C157.205 117.61 155.564 118.815 156.137 120.003C156.595 121.254 158.591 120.888 158.59 119.555L158.824 120.112C161.934 127.552 164.765 135.173 166.188 143.135C163.397 142.741 164.108 147.203 166.636 145.945C167.651 153.026 167.667 160.207 167.543 167.346C165.189 166.111 165.118 170.307 167.52 169.11C167.433 174.96 167.304 180.81 167.207 186.659C167.187 187.904 169.107 187.898 169.137 186.659C169.362 177.671 169.77 168.667 169.576 159.676C169.759 144.07 165.274 129.03 158.593 115.051C152.681 98.955 144.514 97.1245 129.49 92.4448C128.103 90.3853 125.14 88.4374 122.722 89.7306C121.37 87.5465 120.683 84.9588 119.682 82.6316ZM145.424 138.729C145.368 138.53 145.085 138.58 145.076 138.776C144.95 141.301 145.062 143.842 145.235 146.378C145.339 147.926 145.468 149.472 145.577 151.01C145.866 155.066 146.099 159.127 146.276 163.191C146.214 163.165 146.151 163.142 146.084 163.124C145.778 163.041 145.472 163.041 145.166 163.124C144.894 163.2 144.655 163.334 144.45 163.526L144.406 163.568C144.238 163.724 144.119 163.909 144.049 164.122C143.95 164.312 143.9 164.516 143.9 164.733L143.901 164.787C143.902 165.099 143.979 165.389 144.137 165.658C144.29 165.917 144.496 166.123 144.755 166.278C145.024 166.434 145.313 166.511 145.625 166.512C145.659 166.516 145.692 166.519 145.725 166.52C145.957 166.529 146.173 166.481 146.373 166.376L146.403 166.367V166.367C146.479 168.429 146.541 170.492 146.587 172.555C146.628 174.353 146.682 176.151 146.718 177.948L146.735 178.848V178.848L146.768 180.835C146.779 181.653 146.774 182.435 147.051 183.206L147.085 183.295C147.285 183.81 147.44 184.527 147.975 184.813C148.402 185.041 148.977 184.957 149.223 184.511C149.429 184.139 149.25 183.603 148.946 183.351C148.952 183.335 148.961 183.319 148.968 183.303C149.015 183.166 149.087 183.038 149.129 182.9C149.262 182.464 149.226 181.999 149.227 181.546C149.227 180.746 149.2 179.946 149.179 179.148C149.132 177.448 149.077 175.751 149.011 174.053C148.786 168.357 148.362 162.661 147.877 156.981L147.712 155.064C147.493 152.514 147.265 149.962 146.944 147.426C146.929 147.305 146.914 147.184 146.897 147.063C147.07 146.976 147.23 146.857 147.357 146.723C147.868 146.188 148.177 145.387 148.467 144.696L148.534 144.539C148.849 143.803 149.139 143.058 149.289 142.267L149.304 142.194C149.372 141.858 149.507 141.261 149.15 141.098C148.964 141.013 148.846 141.074 148.785 141.26C148.777 141.284 148.784 141.311 148.797 141.333C148.65 141.558 148.42 141.769 148.275 141.978L147.777 142.69V142.69L147.531 143.047C147.22 143.506 146.886 143.945 146.543 144.379C146.272 142.476 145.94 140.581 145.424 138.729ZM125.023 181.123C124.401 180.635 123.388 180.9 123.388 181.8C123.388 182.704 124.402 182.965 125.023 182.477L125.054 182.454V182.454L125.084 182.43C125.422 182.166 125.433 181.478 125.109 181.191L125.084 181.17C125.064 181.153 125.044 181.138 125.023 181.123ZM152.132 179.365L152.078 179.366C151.797 179.366 151.535 179.437 151.291 179.58C151.185 179.66 151.08 179.742 150.974 179.824C150.781 180.017 150.647 180.248 150.573 180.513L150.517 180.928V180.928C150.51 181.143 150.554 181.343 150.652 181.529C150.716 181.723 150.823 181.891 150.974 182.032C151.117 182.185 151.283 182.293 151.477 182.355C151.648 182.445 151.83 182.491 152.025 182.491L152.078 182.49C152.361 182.49 152.623 182.418 152.867 182.276C152.973 182.196 153.078 182.114 153.184 182.032C153.376 181.838 153.511 181.608 153.585 181.343C153.603 181.205 153.621 181.066 153.641 180.928C153.648 180.713 153.603 180.513 153.506 180.326C153.442 180.133 153.335 179.965 153.184 179.824C153.041 179.671 152.875 179.563 152.681 179.501C152.51 179.411 152.327 179.365 152.132 179.365V179.365ZM81.2555 176.485L80.8586 176.538V176.538C80.4786 176.625 80.1729 176.905 79.9685 177.224C79.8593 177.396 79.8005 177.58 79.7914 177.779C79.7473 177.976 79.7565 178.174 79.8186 178.373C79.864 178.566 79.9532 178.736 80.0851 178.88C80.1304 178.951 80.1835 179.016 80.2439 179.074C80.3682 179.281 80.5558 179.418 80.7498 179.557C80.9132 179.662 81.0905 179.718 81.2812 179.727C81.4069 179.76 81.5341 179.76 81.6613 179.727C81.8505 179.718 82.0277 179.662 82.1912 179.557C82.288 179.483 82.3849 179.407 82.4804 179.333C82.565 179.234 82.6439 179.133 82.7181 179.027C82.7679 178.91 82.8165 178.795 82.8648 178.68C82.9543 178.403 82.9104 178.158 82.8618 177.88C82.8544 177.833 82.8421 177.791 82.8255 177.745L82.7928 177.657C82.7056 177.427 82.6591 177.349 82.5046 177.149L82.4457 177.07C82.4163 177.031 82.3861 176.992 82.3515 176.958C82.2548 176.858 82.1169 176.774 82.008 176.688C81.7748 176.553 81.5235 176.487 81.2555 176.485ZM132.661 175.515L132.61 175.516C132.391 175.517 132.185 175.572 131.994 175.682L131.746 175.875V175.875C131.594 176.028 131.49 176.206 131.431 176.414C131.417 176.523 131.402 176.632 131.387 176.74C131.381 176.908 131.415 177.065 131.493 177.212C131.541 177.364 131.626 177.494 131.746 177.606C131.856 177.724 131.988 177.809 132.139 177.859C132.271 177.928 132.414 177.964 132.565 177.965L132.61 177.964C132.831 177.964 133.037 177.908 133.228 177.797L133.476 177.606V177.606C133.628 177.453 133.732 177.273 133.791 177.065C133.805 176.956 133.82 176.849 133.835 176.74C133.841 176.572 133.806 176.414 133.729 176.269C133.679 176.117 133.596 175.985 133.476 175.875C133.366 175.755 133.234 175.67 133.083 175.622C132.95 175.552 132.811 175.517 132.661 175.515V175.515ZM142.653 175.015C142.337 175.011 142.016 175.101 141.757 175.284C141.505 175.463 141.315 175.655 141.192 175.945C141.159 176.023 141.125 176.101 141.097 176.179C140.966 176.526 140.942 176.875 141.122 177.214C141.296 177.542 141.672 177.686 142.008 177.785C142.293 177.87 142.615 177.883 142.898 177.782C143.039 177.732 143.177 177.679 143.304 177.602C143.542 177.455 143.67 177.28 143.829 177.065C143.954 176.853 144.016 176.623 144.016 176.378C144.016 176.131 143.954 175.902 143.829 175.689C143.586 175.272 143.134 175.018 142.653 175.015ZM158.702 175.307C158.303 175.307 157.951 175.492 157.71 175.804C157.467 176.12 157.378 176.514 157.485 176.907C157.599 177.321 157.942 177.685 158.368 177.789C158.683 177.867 158.94 177.864 159.254 177.81C159.518 177.765 159.721 177.607 159.924 177.444C160.156 177.255 160.227 176.909 160.189 176.631C160.153 176.352 160.024 176.17 159.829 176.005L159.827 176.001L159.9 176.057C159.873 176.032 159.846 176.007 159.818 175.981C159.809 175.966 159.802 175.949 159.794 175.932C159.682 175.742 159.531 175.592 159.341 175.48C159.143 175.364 158.931 175.307 158.702 175.307ZM65.4969 170.719C65.2774 170.66 65.0563 170.66 64.8368 170.719C64.6746 170.757 64.534 170.831 64.4142 170.941C64.2929 171.021 64.1938 171.122 64.1189 171.247L64.0949 171.29C63.9221 171.584 63.895 171.92 63.9692 172.247C64.0614 172.652 64.4339 173.02 64.8368 173.115L64.8503 173.118V173.118L64.8639 173.121C65.0274 173.173 65.1926 173.18 65.356 173.142C65.5211 173.135 65.6741 173.086 65.8147 172.996C65.9934 172.88 66.1433 172.732 66.2583 172.553C66.3493 172.411 66.3976 172.258 66.4054 172.093C66.434 171.984 66.434 171.875 66.4054 171.766C66.3976 171.6 66.3493 171.447 66.2583 171.305L66.0647 171.055V171.055L66.0449 171.039V171.039C65.8904 170.884 65.7074 170.778 65.4969 170.719ZM80.7406 162.703C78.7557 162.703 78.7587 165.784 80.7406 165.784C82.7255 165.784 82.7226 162.703 80.7406 162.703ZM153.414 162.314C153.205 162.267 152.996 162.276 152.788 162.341C152.663 162.394 152.538 162.447 152.414 162.499L152.096 162.744V162.744C152.037 162.794 152.009 162.849 151.954 162.92L151.886 163.009C151.787 163.141 151.785 163.169 151.677 163.45C151.604 163.72 151.604 163.989 151.677 164.259C151.712 164.389 151.765 164.512 151.833 164.625C151.895 164.734 151.97 164.83 152.054 164.918L152.096 164.962C152.239 165.115 152.407 165.222 152.601 165.286C152.723 165.357 152.855 165.392 152.996 165.392C153.205 165.439 153.414 165.43 153.621 165.364C153.747 165.311 153.871 165.258 153.995 165.207L154.313 164.962L154.558 164.644L154.637 164.457V164.457L154.716 164.269L154.772 163.853C154.779 163.636 154.735 163.436 154.637 163.249C154.599 163.117 154.533 163 154.436 162.903C154.366 162.785 154.272 162.691 154.154 162.621C154.057 162.524 153.941 162.458 153.809 162.42C153.686 162.349 153.554 162.314 153.414 162.314ZM55.2376 160.113C55.0724 160.107 54.9179 160.142 54.7756 160.218C54.7257 160.234 54.677 160.255 54.6303 160.28C54.4471 160.387 54.3017 160.533 54.1942 160.715C54.1064 160.854 54.0579 161.004 54.0504 161.166C54.0175 161.312 54.0205 161.459 54.0601 161.605L54.0731 161.649C54.1064 161.769 54.1564 161.879 54.2228 161.981C54.2292 161.993 54.2366 162.005 54.2457 162.015C54.3471 162.176 54.4819 162.308 54.6484 162.406C54.8332 162.512 55.0315 162.567 55.2465 162.568C55.675 162.568 56.0444 162.337 56.27 161.981C56.3018 161.931 56.32 161.867 56.3425 161.816C56.3624 161.767 56.3942 161.705 56.411 161.649C56.4683 161.434 56.4683 161.219 56.411 161.004C56.3731 160.846 56.3018 160.708 56.1943 160.592C56.1082 160.46 55.9946 160.356 55.8536 160.28C55.6789 160.178 55.4912 160.123 55.292 160.114L55.2376 160.113ZM139.045 158.606C138.835 158.549 138.627 158.544 138.419 158.593L138.367 158.606C138.2 158.645 138.056 158.721 137.932 158.833C137.794 158.924 137.684 159.044 137.604 159.192C137.488 159.391 137.431 159.606 137.43 159.836C137.431 160.066 137.488 160.281 137.604 160.48C137.717 160.672 137.87 160.824 138.062 160.937L138.229 161.017V161.017C138.368 161.105 138.516 161.152 138.677 161.16C138.784 161.189 138.892 161.189 138.998 161.16C139.107 161.16 139.209 161.133 139.302 161.078C139.405 161.049 139.493 160.998 139.569 160.922C139.701 160.837 139.803 160.725 139.879 160.584L140.002 160.295V160.295L140.044 159.974V159.974L140.002 159.654V159.654L139.935 159.497V159.497C139.875 159.28 139.766 159.092 139.607 158.933C139.448 158.776 139.26 158.666 139.045 158.606ZM63.9585 156.051C63.7376 155.981 63.5179 155.972 63.2984 156.02C63.1501 156.02 63.0108 156.058 62.882 156.134C62.7412 156.173 62.6202 156.243 62.5171 156.346C62.3371 156.463 62.1961 156.617 62.0916 156.809L61.9253 157.205V157.205C61.8253 157.461 61.8617 157.838 61.9221 158.096C61.972 158.308 62.0689 158.492 62.2128 158.65C62.2855 158.773 62.3824 158.87 62.5051 158.942C62.6453 159.07 62.807 159.161 62.9904 159.215L63.041 159.228L63.0591 159.233C63.0623 159.235 63.0652 159.235 63.0682 159.235C63.0697 159.236 63.0729 159.236 63.0744 159.236C63.147 159.254 63.2211 159.265 63.2984 159.268C63.5179 159.316 63.7376 159.307 63.9585 159.238C64.0887 159.183 64.2204 159.127 64.3522 159.071C64.4642 158.986 64.5749 158.9 64.6868 158.813C64.7731 158.701 64.8594 158.589 64.9457 158.479C65.067 158.289 65.1319 158.083 65.141 157.864C65.1805 157.717 65.1805 157.572 65.141 157.424C65.141 157.275 65.1031 157.137 65.0291 157.008C64.9623 156.802 64.8488 156.625 64.6868 156.475C64.5749 156.388 64.4642 156.302 64.3522 156.217C64.2204 156.161 64.0887 156.105 63.9585 156.051ZM160.527 150.628C160.298 150.566 160.07 150.566 159.841 150.628L159.534 150.757V150.757C159.382 150.839 159.263 150.949 159.172 151.09C159.057 151.214 158.98 151.361 158.94 151.529C158.851 151.76 158.861 152.125 158.932 152.359C159.013 152.626 159.137 152.838 159.329 153.038C159.649 153.368 160.139 153.464 160.574 153.364C160.693 153.336 160.807 153.283 160.91 153.218C161.238 153.015 161.459 152.661 161.458 152.269C161.458 152.226 161.455 152.184 161.449 152.142C161.47 152.055 161.478 151.966 161.475 151.872L161.429 151.529V151.529L161.426 151.52C161.366 151.304 161.257 151.116 161.098 150.957C160.951 150.811 160.78 150.706 160.584 150.643L160.534 150.628H160.527ZM46.2755 116.616C46.6892 113.224 48.2443 109.574 52.9875 111.566L53.3398 111.698C54.5134 112.143 55.8811 112.727 56.5954 113.753C57.0875 114.461 56.9211 115.832 56.9891 116.657C57.2984 119.341 57.1324 122.021 56.8102 124.694C56.3943 130.958 57.711 137.449 60.3323 143.143C57.7088 147.389 54.1978 151.35 49.4083 153.12C49.2057 148.292 48.2608 143.552 47.2551 138.841L47.2156 138.636C46.8134 136.511 46.6121 134.331 45.2173 132.564C42.3802 129.483 38.4781 131.227 36.6111 126.277C37.0033 126.078 36.7868 125.4 36.3142 125.53C34.6767 125.821 34.4107 122.784 35.5314 122.052C36.6992 121.34 35.5235 120.026 36.0206 119.077C36.2977 118.669 36.8958 118.655 37.1669 118.184C37.8855 116.45 34.2893 115.338 38.5184 113.383C39.384 113.075 40.3515 113.266 41.2245 113.263C42.5088 113.383 43.5294 114.288 44.7039 114.573C43.4251 117.885 46.6518 121.075 49.5641 118.429C51.1489 119.928 52.9212 123.343 49.0689 121.751C47.1834 120.492 45.5601 118.865 43.3714 118.09L43.3251 118.075C42.5126 117.809 38.9572 116.081 39.1334 117.577C40.4652 118.862 42.6617 118.847 44.2041 119.891C46.3425 120.88 47.7098 123.277 50.2697 123.244C50.8599 126.829 46.7935 124.648 45.2793 123.659L44.8594 123.431C42.7235 122.277 40.5555 121.208 38.0646 121.194C37.3772 121.189 37.3803 122.249 38.0646 122.258C41.3108 122.279 43.9529 124.308 46.6722 125.818C46.9399 127.91 43.8768 126.994 42.7144 126.685C41.4957 126.514 39.5385 125.195 38.4718 125.892C38.0546 126.964 39.8905 126.884 40.5296 127.21C37.6116 128.612 40.1682 129.495 40.9505 127.34L41.1796 127.418C43.1336 128.075 47.8715 129.427 47.308 126.116C48.0231 126.433 48.8951 126.622 49.6853 126.446C51.6558 129.362 54.7992 128.234 50.2303 126.246C51.2599 125.767 51.6038 123.918 50.6147 123.229C54.2112 123.01 51.5411 119.235 50.0526 117.977C50.1931 117.835 50.3292 117.69 50.4561 117.543C51.3144 117.952 52.2167 118.2 53.1814 118.288C54.1049 118.372 54.3106 116.799 53.3993 116.671C52.4227 116.533 51.5232 116.272 50.6634 115.781C49.36 115.218 48.9152 117.638 47.6108 117.723C46.8993 117.864 46.418 117.24 46.2755 116.616ZM76.5541 147.832C76.2391 147.832 75.9592 147.964 75.7305 148.173C75.5019 148.382 75.4035 148.696 75.3899 148.995C75.3838 149.156 75.4171 149.306 75.4898 149.445C75.5367 149.589 75.617 149.713 75.7305 149.819C75.9425 150.03 76.2559 150.16 76.5541 150.16C76.869 150.16 77.1491 150.028 77.3779 149.819C77.6063 149.609 77.7049 149.297 77.7185 148.995C77.7246 148.836 77.6911 148.686 77.6186 148.547C77.5764 148.417 77.5071 148.303 77.4109 148.205L77.3779 148.173C77.1657 147.961 76.8525 147.832 76.5541 147.832ZM67.0114 140.649L66.961 140.649C66.6945 140.651 66.4475 140.718 66.2175 140.851C66.1176 140.928 66.0177 141.004 65.9191 141.081C65.7361 141.266 65.6104 141.482 65.5406 141.733C65.4694 141.993 65.4694 142.255 65.5406 142.515C65.5648 142.666 65.6208 142.811 65.7087 142.937C65.839 143.153 66.0115 143.328 66.2297 143.456C66.4553 143.588 66.699 143.653 66.961 143.655C67.2227 143.653 67.4667 143.588 67.6923 143.456C67.9103 143.328 68.0829 143.153 68.2116 142.937C68.3009 142.811 68.3569 142.666 68.3812 142.515C68.4523 142.255 68.4523 141.993 68.3812 141.733C68.3165 141.5 68.2035 141.297 68.041 141.121L68.0026 141.081C67.8694 140.937 67.7119 140.836 67.5287 140.777C67.3677 140.692 67.1953 140.649 67.0114 140.649ZM139.838 140.73C139.726 140.699 139.616 140.699 139.504 140.73C139.337 140.737 139.181 140.787 139.037 140.878C138.953 140.945 138.868 141.01 138.783 141.075L138.709 141.164C138.551 141.356 138.547 141.389 138.426 141.683C138.376 141.846 138.368 142.01 138.405 142.173C138.405 142.284 138.433 142.387 138.488 142.482C138.518 142.587 138.57 142.678 138.647 142.753C138.701 142.846 138.774 142.92 138.866 142.975C138.984 143.082 139.124 143.156 139.284 143.194L139.61 143.238V143.238C139.652 143.232 139.696 143.226 139.738 143.221C139.79 143.22 139.839 143.214 139.888 143.205L139.937 143.194V143.194L139.982 143.182C140.041 143.165 140.099 143.142 140.155 143.112C140.261 143.082 140.353 143.029 140.432 142.95C140.568 142.862 140.677 142.744 140.756 142.597L140.777 142.549V142.549C140.806 142.497 140.83 142.444 140.848 142.387C140.9 142.296 140.925 142.199 140.927 142.095C140.957 141.955 140.955 141.818 140.919 141.68L140.906 141.634L140.789 141.357C140.729 141.263 140.665 141.167 140.583 141.09C140.534 141.047 140.414 140.953 140.346 140.906L140.305 140.878V140.878C140.161 140.787 140.005 140.737 139.838 140.73ZM158.092 138.564C157.874 137.705 156.748 137.434 156.134 138.047C155.521 138.661 155.792 139.788 156.651 140.006L156.749 140.03V140.03C157.579 140.241 158.327 139.491 158.116 138.661L158.092 138.564V138.564ZM54.17 131.558C54.1761 131.474 54.067 131.443 54.0125 131.493C53.2828 132.148 52.8179 132.932 51.9322 133.44C51.0418 133.949 50.1244 133.908 49.1962 134.236C48.8813 134.348 48.8798 134.77 49.1962 134.88C50.9526 135.494 54.0368 133.414 54.17 131.558ZM136.695 131.425C136.5 131.365 136.303 131.355 136.108 131.399C135.974 131.399 135.85 131.433 135.737 131.499C135.611 131.534 135.503 131.598 135.411 131.689C135.301 131.754 135.213 131.843 135.146 131.954C135.016 132.096 134.928 132.263 134.883 132.454L134.831 132.846V132.846L134.883 133.238V133.238C134.933 133.355 134.983 133.473 135.031 133.59L135.167 133.773C135.276 133.919 135.294 133.921 135.56 134.118C135.729 134.226 135.912 134.285 136.108 134.292C136.238 134.329 136.368 134.329 136.5 134.292C136.631 134.292 136.756 134.259 136.871 134.192C136.995 134.158 137.104 134.094 137.196 134.003C137.357 133.899 137.482 133.761 137.575 133.59C137.625 133.473 137.675 133.355 137.723 133.238L137.776 132.846V132.846L137.723 132.454V132.454L137.72 132.441V132.441C137.651 132.196 137.526 131.983 137.348 131.802L137.054 131.575V131.575C136.939 131.501 136.819 131.463 136.695 131.425ZM66.0161 131.719C65.5969 131.604 65.1364 131.725 64.8292 132.033C64.5217 132.34 64.4006 132.799 64.5156 133.219C64.6292 133.628 64.9578 133.959 65.3681 134.07C65.4907 134.103 65.6149 134.121 65.7406 134.115C65.9512 134.114 66.1478 134.061 66.3311 133.955L66.5673 133.771V133.771C66.6825 133.665 66.7626 133.54 66.8097 133.394C66.8839 133.255 66.9172 133.105 66.9111 132.943L66.9125 132.914C66.9172 132.857 66.9096 132.799 66.8913 132.743C66.8913 132.684 66.8822 132.626 66.867 132.57C66.7565 132.161 66.4234 131.831 66.0161 131.719ZM156.431 127.617C156.296 127.613 156.171 127.64 156.054 127.702C155.932 127.741 155.827 127.808 155.739 127.905C155.642 127.993 155.576 128.099 155.536 128.22C155.474 128.337 155.447 128.463 155.452 128.597C155.452 128.774 155.497 128.94 155.585 129.091C155.636 129.158 155.688 129.224 155.739 129.289C155.86 129.412 156.004 129.495 156.171 129.542L156.268 129.576V129.576C156.41 129.627 156.549 129.63 156.698 129.611C156.854 129.589 156.998 129.547 157.125 129.45C157.249 129.377 157.347 129.279 157.42 129.155L157.503 128.958V128.958C157.521 128.891 157.529 128.791 157.533 128.721C157.533 128.711 157.533 128.702 157.535 128.691C157.535 128.632 157.517 128.488 157.502 128.429C157.468 128.305 157.4 128.187 157.323 128.087C157.256 127.982 157.166 127.9 157.053 127.84L157.044 127.832V127.832L157.032 127.825C156.998 127.8 156.961 127.776 156.925 127.75C156.773 127.663 156.608 127.617 156.431 127.617ZM78.2453 126.542C78.0031 126.542 77.7775 126.604 77.5685 126.725C77.5611 126.728 77.5535 126.731 77.5475 126.734C77.3475 126.852 77.1886 127.011 77.0704 127.211C76.9493 127.419 76.8888 127.643 76.8888 127.882C76.8888 128.123 76.9493 128.346 77.0704 128.553C77.1886 128.753 77.3475 128.912 77.5475 129.031C77.5535 129.035 77.5611 129.038 77.5685 129.041C77.7775 129.162 78.0031 129.223 78.2453 129.224C78.486 129.223 78.7116 129.162 78.9207 129.041C79.3294 128.802 79.5854 128.355 79.5854 127.882C79.5854 127.41 79.3294 126.963 78.9207 126.725C78.7116 126.604 78.486 126.542 78.2453 126.542ZM141.123 124.79L141.081 124.789C140.921 124.783 140.771 124.817 140.633 124.891C140.49 124.938 140.364 125.018 140.258 125.132L140.037 125.316V125.316L139.972 125.368C139.962 125.377 139.952 125.386 139.941 125.395C139.793 125.545 139.691 125.721 139.634 125.924C139.616 126.041 139.601 126.156 139.588 126.272C139.555 126.575 139.734 126.886 139.931 127.101C140.037 127.214 140.162 127.295 140.308 127.343C140.447 127.416 140.598 127.449 140.759 127.443C141.088 127.414 141.399 127.345 141.636 127.09C141.663 127.06 141.689 127.028 141.716 126.996L141.905 126.778V126.778C142.049 126.633 142.149 126.461 142.203 126.265C142.219 126.16 142.232 126.057 142.246 125.954C142.259 125.644 142.108 125.353 141.905 125.132C141.718 124.927 141.4 124.802 141.123 124.79ZM148.765 121.601C147.191 121.601 147.194 124.044 148.765 124.044C150.339 124.044 150.336 121.601 148.765 121.601ZM69.5968 118.175L69.5471 118.176C69.2865 118.178 69.0429 118.243 68.8172 118.375L68.5236 118.6V118.6C68.3448 118.782 68.2208 118.994 68.151 119.24C68.1345 119.368 68.1177 119.497 68.0995 119.624C68.0919 119.824 68.1345 120.011 68.2252 120.183C68.2827 120.362 68.3826 120.518 68.5236 120.65C68.6552 120.791 68.8097 120.891 68.9898 120.948C69.1624 121.039 69.3486 121.081 69.5471 121.074C69.8089 121.072 70.0528 121.007 70.2784 120.875C70.3767 120.8 70.4736 120.724 70.572 120.65C70.7369 120.482 70.8554 120.288 70.9262 120.067L70.9429 120.011L70.9959 119.624C71.0035 119.426 70.9613 119.24 70.8704 119.067C70.8127 118.887 70.7128 118.732 70.572 118.6C70.4403 118.459 70.2843 118.359 70.1057 118.302C69.9476 118.219 69.7778 118.176 69.5968 118.175ZM76.689 113.602C76.5482 113.597 76.418 113.626 76.2952 113.69C76.1697 113.731 76.0607 113.802 75.9683 113.9C75.7728 114.056 75.6534 114.368 75.6534 114.621C75.6534 114.874 75.7728 115.186 75.9683 115.342C76.0955 115.468 76.2454 115.556 76.418 115.604L76.689 115.641V115.641C76.9525 115.653 77.2205 115.515 77.4082 115.342C77.446 115.308 77.4824 115.273 77.5202 115.239C77.6912 115.082 77.7654 114.847 77.7761 114.621C77.7807 114.502 77.7548 114.39 77.7004 114.285C77.6654 114.176 77.605 114.084 77.5202 114.003C77.4824 113.97 77.446 113.935 77.4082 113.9C77.2036 113.711 76.9646 113.616 76.689 113.602ZM31.754 105.455C30.7591 104.242 31.3384 103.379 32.8335 103.679C35.409 104.028 37.8329 105.656 40.1011 106.824C42.5768 108.132 45.1282 109.211 47.6535 110.44C46.6115 111.08 45.8366 112.082 45.2446 113.225C44.0629 112.327 42.5523 111.898 41.0777 111.842C38.4025 109.279 33.9721 108.692 31.754 105.455ZM149.295 109.479C149.025 109.48 148.773 109.544 148.536 109.67L148.485 109.699L148.161 109.95C148.004 110.095 147.893 110.268 147.828 110.467C147.728 110.657 147.683 110.865 147.69 111.086C147.683 111.307 147.728 111.513 147.828 111.704C147.893 111.904 148.004 112.075 148.161 112.221C148.251 112.337 148.366 112.428 148.503 112.495C148.632 112.548 148.759 112.602 148.888 112.657C149.032 112.702 149.198 112.708 149.354 112.716C149.638 112.714 149.901 112.643 150.146 112.501L150.464 112.256V112.256C150.617 112.113 150.726 111.945 150.79 111.749C150.88 111.577 150.926 111.394 150.926 111.197L150.924 111.144C150.924 111.132 150.924 111.118 150.923 111.104C150.905 110.962 150.885 110.819 150.866 110.677C150.815 110.468 150.72 110.285 150.578 110.13C150.541 110.058 150.493 109.999 150.431 109.95C150.231 109.75 149.995 109.614 149.722 109.536C149.58 109.518 149.438 109.499 149.295 109.479ZM79.0425 105.466L78.9964 105.467C78.792 105.467 78.6028 105.518 78.427 105.62C78.3499 105.679 78.2742 105.738 78.1985 105.797C78.0575 105.938 77.9606 106.104 77.9078 106.295L77.8668 106.595V106.595C77.8624 106.751 77.8942 106.895 77.9653 107.03C78.0106 107.169 78.088 107.29 78.1985 107.393C78.3 107.504 78.4209 107.581 78.5617 107.627C78.6951 107.698 78.8405 107.73 78.9964 107.724C79.1993 107.724 79.3901 107.672 79.5657 107.569C79.6414 107.511 79.7186 107.452 79.7944 107.393C79.922 107.264 80.0141 107.113 80.0694 106.942L80.0835 106.895L80.1243 106.595C80.1303 106.439 80.0985 106.295 80.0275 106.16C79.9821 106.02 79.9032 105.898 79.7944 105.797C79.6914 105.686 79.5701 105.609 79.4308 105.564C79.3097 105.499 79.1798 105.467 79.0425 105.466V105.466ZM140.445 103.825L140.393 103.826C140.091 103.828 139.811 103.903 139.551 104.055C139.439 104.141 139.326 104.228 139.215 104.316C139.007 104.523 138.865 104.768 138.784 105.052L138.726 105.494V105.494C138.716 105.724 138.765 105.938 138.869 106.136C138.936 106.344 139.051 106.522 139.215 106.674C139.364 106.836 139.543 106.951 139.751 107.018C139.949 107.122 140.162 107.171 140.393 107.161C140.694 107.161 140.974 107.086 141.234 106.934C141.346 106.848 141.458 106.76 141.572 106.674C141.778 106.465 141.92 106.219 142 105.938L142.06 105.494V105.494C142.069 105.265 142.02 105.05 141.916 104.852C141.849 104.646 141.734 104.465 141.572 104.316C141.42 104.152 141.242 104.037 141.035 103.97C140.851 103.874 140.655 103.826 140.445 103.825ZM84.3819 99.6609C84.2441 99.6244 84.1065 99.6244 83.9687 99.6609C83.7628 99.6698 83.5703 99.7319 83.3917 99.8455L83.0783 100.088V100.088C83.0739 100.092 83.0692 100.097 83.0646 100.103C82.8754 100.294 82.7438 100.52 82.6711 100.779L82.6165 101.186V101.186C82.6089 101.397 82.6528 101.593 82.7482 101.775C82.8051 101.95 82.899 102.102 83.0284 102.234L83.0783 102.283C83.2192 102.434 83.3843 102.542 83.5765 102.604C83.6975 102.675 83.8294 102.71 83.9687 102.71C84.1745 102.757 84.3819 102.748 84.588 102.683C84.7104 102.63 84.8348 102.578 84.9588 102.527L84.9983 102.504C85.4661 102.248 85.7553 101.712 85.7553 101.186C85.7553 100.66 85.4661 100.123 84.9983 99.8667C84.9845 99.8608 84.9725 99.8531 84.9588 99.8455C84.7801 99.7319 84.588 99.6698 84.3819 99.6609Z" fill="black"/>
<path fill-rule="evenodd" clip-rule="evenodd" d="M84.3214 38.5016C84.906 34.9635 82.9874 34.2294 84.3214 30.8661C87.2863 24.6341 95.3662 24.9027 101.295 24.4235C107.909 24.1699 114.602 25.0433 120.699 27.6949C122.155 28.3282 123.556 29.073 124.898 29.9192C126.059 30.651 125.9 32.0424 125.168 32.8014C130.446 40.2797 127.427 50.3177 131.639 58.1894C132.417 59.5965 133.447 60.8583 134.123 62.3223C135.151 64.5478 135.217 67.7366 132.885 69.2146C129.602 70.9777 127.769 67.4868 126.156 72.5472C118.098 90.1918 101.898 91.1855 86.5184 81.9862C85.1878 81.2458 83.8298 80.409 82.8251 79.2458C80.5444 76.6782 80.813 73.0675 80.7626 69.8612C80.7344 67.9822 80.7297 66.1029 80.748 64.2235C80.8198 56.6111 83.3418 46.0514 84.3214 38.5016Z" fill="white"/>
<path fill-rule="evenodd" clip-rule="evenodd" d="M117.078 17.3394C107.792 13.1256 97.2602 11.5276 87.131 12.5758C82.1314 13.0923 77.1976 14.2005 72.5023 16.0006L72.0908 16.1598C70.9317 16.606 69.6823 17.049 68.8015 17.9574C67.7763 19.0132 67.4888 20.6096 68.2216 21.9138C68.7909 22.9271 69.8144 23.654 70.9061 24.0419C70.5215 24.3569 70.1566 24.7083 69.8144 25.1006C69.2376 25.758 69.1937 26.6955 69.8144 27.3439C71.0106 28.5935 72.5625 29.4976 74.2341 29.931C74.0463 30.8382 74.1477 31.8425 74.5505 32.7467C75.7062 35.3424 78.9617 35.6518 81.4669 35.4977L81.5425 35.4928L81.6818 37.0878C81.756 37.9375 82.2648 38.5964 83.1278 38.7267C83.1581 38.7312 83.1885 38.7343 83.2186 38.7371C81.8529 43.6782 81.0277 48.7719 80.2662 53.8356C79.8683 56.4789 79.5121 59.1283 79.1711 61.7794L79.0579 62.6631C78.6945 65.5213 78.2403 68.4083 78.0829 71.2877C77.942 73.9005 78.4402 76.3952 80.0496 78.5036C81.4941 80.3939 83.4639 81.8102 85.5821 82.8613C90.3681 85.2377 95.4055 87.007 100.699 87.828L101.052 87.8823C103.095 88.1943 105.2 88.4573 107.221 87.8916C108.997 87.3948 110.86 86.1134 110.459 84.0549C110.324 83.3597 109.352 83.3294 109.019 83.8671L108.942 83.9903C108.542 84.6243 108.105 85.2135 107.407 85.5407C106.592 85.9255 105.645 86.0329 104.753 86.0437C102.263 86.0725 99.6692 85.4514 97.2708 84.8289C92.7922 83.6658 88.1924 81.7693 84.5238 78.8959C82.9627 77.6751 81.7091 76.1483 81.267 74.1838C80.7204 71.7618 81.2231 69.1141 81.4714 66.68C81.9824 61.6575 82.5905 56.6442 83.2322 51.6365L83.361 50.6351C83.9013 46.4485 84.4691 42.2604 84.7388 38.0496C84.8508 37.8966 84.9265 37.7225 84.9568 37.5316L84.999 37.2574V37.2574C85.0355 37.0227 85.0416 36.8076 85.0158 36.6092C85.0143 35.8488 84.9931 35.093 84.9492 34.3325C84.9418 34.1963 84.9356 34.06 84.9311 33.9252C85.7214 34.0993 86.5178 34.2402 87.3173 34.3599C92.9375 35.2066 98.6456 35.4186 104.311 34.9975C107.138 34.7869 109.944 34.425 112.74 33.9721C114.164 33.7419 115.582 33.4874 116.996 33.2027C118.018 32.9982 119.019 32.721 120.025 32.4605C121.062 33.9706 121.622 35.8291 121.513 37.6543C121.39 39.737 120.003 41.6258 120.392 43.7539C120.758 45.7455 122.463 46.3631 124.147 46.8563L124.863 47.0633C125.414 47.2243 125.815 47.3795 125.914 48.0419C126.085 49.1795 125.875 50.4594 125.831 51.603C125.778 52.9556 125.709 54.3082 125.677 55.6608C125.66 56.3606 125.633 57.0634 125.634 57.7631C125.636 58.26 125.71 58.5992 125.902 58.9202C125.754 59.1067 125.621 59.3081 125.502 59.5217C125.465 59.5914 125.558 59.6654 125.614 59.608C125.764 59.452 125.924 59.3111 126.091 59.1853C126.176 59.2899 126.275 59.396 126.39 59.5096L126.399 59.4974V59.4974C126.759 59.8564 127.331 59.8913 127.778 59.5096L127.896 59.4079C128.223 59.1212 128.447 58.8823 128.538 58.4084C128.543 58.3842 128.547 58.3599 128.55 58.3357C129.382 58.3069 130.226 58.5037 130.974 58.9173C132.16 59.5732 132.994 60.5077 133.488 61.6619C133.291 61.8922 133.061 62.0982 132.793 62.2708C132.755 62.2966 132.788 62.3526 132.829 62.3329C133.103 62.2042 133.348 62.0451 133.568 61.8588C133.745 62.3132 133.869 62.801 133.945 63.3175C134.211 65.1411 133.736 67.3692 132.089 68.4083C131.376 68.8582 130.561 69.102 129.716 69.105C129.304 69.1064 128.949 69.0369 128.549 68.9384C128.278 68.8718 128.008 68.7748 127.725 68.7748C127.483 68.7748 127.259 68.8354 127.051 68.9566L127.109 68.9616C127.249 68.9748 127.222 68.9807 127.027 68.9807C126.422 69.0066 126.075 69.6216 126.353 70.1562L126.39 70.2388C126.398 70.2555 126.404 70.2693 126.409 70.2803L126.431 70.4221C126.433 70.4356 126.436 70.4495 126.438 70.4637L126.447 70.4924C126.448 70.497 126.45 70.5016 126.452 70.5061L125.543 71.8918C124.43 73.5869 123.291 75.2755 121.996 76.8238C121.087 77.9099 120.124 78.9747 119.107 79.9607C118.192 80.8468 117.096 81.274 116.061 81.9707C115.508 82.3403 115.346 83.1143 115.849 83.6126C117.323 85.0773 119.411 83.914 120.621 82.7235C121.766 81.5951 122.754 80.2379 123.607 78.8793C125.119 76.4634 126.323 73.8945 126.85 71.1059C127.07 71.3074 127.35 71.4331 127.633 71.5316C128.201 71.7285 128.826 71.8103 129.425 71.8315C130.575 71.8693 131.725 71.5906 132.759 71.0968C136.967 69.0899 137.585 63.0797 135.012 59.5353C135.359 58.529 135.553 57.4372 135.764 56.5061L135.859 56.0899C136.923 51.4409 137.637 46.5462 135.751 41.9908C135.509 41.4031 135.237 40.8306 134.914 40.2823C134.655 39.8415 134.21 39.3719 134.087 38.8706C133.815 37.7694 135.497 36.6122 135.988 35.7382C136.564 34.7128 136.646 33.5026 135.86 32.5648C135.76 32.4468 135.652 32.3376 135.533 32.2424C136.278 30.8913 136.313 29.1918 135.332 27.8589C134.687 26.9804 133.703 26.3654 132.628 26.1791C131.971 26.0655 131.18 26.1079 130.458 26.3109C126.503 22.6378 121.991 19.569 117.078 17.3394ZM132.264 63.2993C131.209 62.3678 130.043 61.8801 128.605 62.0027C127.159 62.1268 125.418 62.7252 124.568 63.9658C123.897 64.9458 125.265 66.3832 126.249 65.6471C127.145 64.9761 127.743 64.2187 128.856 63.8582C129.856 63.5356 131.093 63.3281 132.139 63.5129C132.254 63.5326 132.369 63.3902 132.264 63.2993Z" fill="black"/>
<path fill-rule="evenodd" clip-rule="evenodd" d="M96.4079 76.9297C97.4257 76.5143 98.3338 75.8215 98.9977 74.9363C99.2286 74.6286 99.2884 74.3037 99.24 74.0065C99.1856 73.6724 98.9879 73.3695 98.7184 73.1664C98.4481 72.9626 98.1099 72.8621 97.783 72.9133C97.4989 72.9578 97.2161 73.1134 96.9923 73.4362L96.9455 73.5007C96.5508 74.0349 96.0364 74.4732 95.4504 74.7558C94.8855 75.0281 94.2537 75.1552 93.5999 75.0812C92.3548 74.9405 91.4966 74.2669 90.5844 73.3521C90.4713 73.2366 90.3581 73.1174 90.2445 72.9964C90.1727 72.8867 90.073 72.8162 89.9624 72.7792C89.8396 72.7381 89.7006 72.7404 89.5734 72.7849C89.4506 72.8277 89.3409 72.9089 89.2673 73.017C89.1974 73.1197 89.1577 73.2466 89.1706 73.3926C89.2541 74.3406 89.7495 75.1867 90.4533 75.8511C91.235 76.589 92.2711 77.0994 93.2465 77.2785C94.3212 77.4757 95.4163 77.3344 96.4079 76.9297V76.9297ZM92.7396 62.3041C91.5962 62.9993 89.8541 64.6205 91.0841 66.3441C92.5319 67.8638 94.6164 66.1213 95.6436 65.3333C96.5961 64.7225 97.6662 66.2933 96.7825 67.0065C89.3599 72.504 86.3477 62.4859 92.1613 61.4866C92.8014 61.3765 93.0391 62.089 92.7396 62.3041ZM106.041 55.909C105.915 54.3403 103.526 53.9841 103.289 55.5364C103.076 56.9268 103.327 58.2042 103.953 59.4561C104.551 60.652 106.054 60.0941 106.168 59.005C106.321 57.5452 106.12 56.8848 106.041 55.909ZM87.8623 55.2145C87.5293 54.7783 87.0486 54.4805 86.4726 54.6488C84.6731 55.1748 85.2035 57.7305 85.8355 58.9746C86.1789 59.6501 87.2889 59.8214 87.7905 59.2266C88.6081 58.2566 88.9996 56.3195 87.9602 55.364C87.9321 55.3146 87.9007 55.2648 87.8623 55.2145ZM103.978 49.0451L103.694 48.9953C102.814 48.8432 101.721 48.697 101.099 49.4042C100.769 49.7793 100.656 50.4763 101.099 50.8353C101.879 51.4669 102.742 51.2222 103.676 51.2756C104.447 51.3198 105.187 51.4474 105.929 51.6596C107.557 52.1251 108.884 52.9748 110.274 53.9078C110.456 54.0302 110.643 53.7968 110.556 53.6261C109.753 52.0534 108.198 50.7615 106.64 49.9741C105.808 49.5537 104.898 49.2051 103.978 49.0451ZM89.5027 48.3406L89.2851 48.3852C86.9175 48.8802 83.8414 49.8692 82.7202 52.1957C82.6775 52.5246 82.7227 52.5951 82.7594 52.6412L82.7716 52.6565C82.8018 52.6959 82.826 52.7501 82.9685 52.7949C83.0081 52.7854 83.048 52.7755 83.0884 52.7649C83.6023 52.6301 84.0089 52.4445 84.4026 52.2519L84.8294 52.0416C85.3246 51.7987 85.8241 51.5646 86.3536 51.3918C87.4834 51.0232 88.6455 50.7635 89.8256 50.6248C90.0814 50.5948 90.3277 50.5084 90.522 50.3604C90.7065 50.2199 90.8474 50.0254 90.9116 49.7668C90.9949 49.4322 90.971 49.1789 90.7915 48.8771C90.6566 48.6504 90.4635 48.4932 90.2418 48.403C90.0158 48.311 89.7585 48.2893 89.5027 48.3406Z" fill="black"/>
<path fill-rule="evenodd" clip-rule="evenodd" d="M79.189 63.2267C81.0273 65.1268 84.096 65.6721 86.5417 64.653C92.8216 62.0283 89.7478 53.8414 84.9047 51.6429C84.2997 51.492 83.4916 51.1341 82.7547 51.0529C82.6881 51.0202 82.543 51.1149 82.3672 51.0253C77.0269 51.6218 75.8108 59.915 79.189 63.2267M99.4442 63.713C101.506 66.4487 105.339 67.2927 108.471 66.0209C114.658 63.5835 112.463 56.3238 108.23 53.4777C99.2885 50.1165 95.5961 58.669 99.4442 63.713M112.856 57.6516C112.862 57.6489 112.867 57.6475 112.873 57.6448C112.841 57.6304 112.808 57.616 112.775 57.6013C112.786 57.629 112.797 57.6564 112.808 57.6842C112.824 57.6731 112.838 57.6602 112.856 57.6516M74.9327 54.6945C75.4375 54.6955 76.1666 54.7786 76.5845 55.1289C77.615 51.6523 81.4187 48.4346 84.7267 50.7809C87.3317 51.6189 89.2647 53.4776 90.3633 55.9486C92.3442 54.7699 95.459 55.2732 97.1767 56.832C98.3016 53.1133 101.07 51.8111 104.366 51.6189C107.963 51.0296 111.548 54.5241 112.666 57.3275C113.596 57.2216 114.986 56.9255 115.861 57.4997C121.54 56.0098 131.469 55.1884 132.623 56.0162C133.446 56.332 133.897 58.2747 132.748 58.3795C131.747 58.2373 132.865 56.9561 131.856 56.8162C126.477 56.4827 121.256 57.5663 115.934 58.021C115.459 58.6604 113.924 58.8742 113.105 58.6173C114.395 63.3728 111.61 66.6082 107.438 67.5773C100.978 69.0618 95.3578 63.2806 97.0471 57.2673C95.0901 56.2934 92.8391 56.3352 90.7073 56.8482C94.2696 69.9638 73.1547 69.3753 76.4525 55.5783C74.2578 56.6704 73.7812 54.9149 74.9327 54.6945" fill="black"/>
</g>
<defs>
<clipPath id="clip0">
<rect width="184" height="184" fill="white"/>
</clipPath>
</defs>
</svg>
