<svg width="184" height="184" viewBox="0 0 184 184" fill="none" xmlns="http://www.w3.org/2000/svg">
<g clip-path="url(#clip0)">
<path fill-rule="evenodd" clip-rule="evenodd" d="M25.9109 11.3418C25.3566 12.6468 26.5493 16.1472 28.1393 17.8827C28.9008 18.7142 29.6565 19.2442 29.8179 19.0606C30.2129 18.6127 28.3163 13.4817 27.1512 11.8447C26.3315 10.6928 26.2075 10.6427 25.9109 11.3418ZM26.9176 23.6553C25.5721 24.8398 24.6349 26.4323 25.4213 26.1982C25.6595 26.1272 25.7985 26.2769 25.7294 26.5315C25.6602 26.7856 25.2832 26.9852 24.8912 26.9753C23.0189 26.9276 21.2742 34.1858 21.8272 39.7209C22.2691 44.1434 24.6827 51.4604 26.3863 53.5421C27.0629 54.3688 27.6803 55.2718 27.7585 55.5491C27.9016 56.0564 29.8347 58.1291 32.0905 60.1931C34.4494 62.3517 36.3706 62.5669 41.1842 61.2111C43.123 60.6649 43.4493 60.8087 45.4203 63.075C46.3332 64.1241 47.1091 65.7304 48.347 69.1316C49.3467 71.8794 50.328 74.0215 50.7609 74.4021C51.287 74.8645 52.2304 74.9699 54.1392 74.7785C56.6715 74.5252 56.8474 74.4532 58.1414 73.1493C59.1646 72.1184 59.5111 71.3999 59.5621 70.2044C59.6499 68.136 59.7026 68.0717 60.9822 68.4743C61.5811 68.6631 62.1162 68.6528 62.1709 68.4516C62.2254 68.25 61.449 66.772 60.4448 65.1663C56.9629 59.5976 56.3488 58.4237 56.0804 56.8222C55.6508 54.2562 56.2164 52.0942 57.6965 50.6431C58.4174 49.936 59.2876 48.7493 59.6302 48.0059C60.4545 46.2164 60.7503 42.3056 60.151 41.1223C59.8902 40.6071 59.753 40.0433 59.8464 39.8693C60.3666 38.9008 56.1134 28.9015 55.2859 29.1478C55.1383 29.1917 54.7786 28.7771 54.4866 28.2262C54.1947 27.6754 53.1339 26.5054 52.1297 25.6261C51.1251 24.7468 50.2874 23.971 50.268 23.9024C50.1887 23.6215 46.5492 21.6432 45.0975 21.0922C42.6394 20.1586 39.3839 20.1156 34.9297 20.957C29.4231 21.9977 28.4156 22.3369 26.9176 23.6553ZM64.3861 12.0466C64.4057 12.2093 64.4774 12.4632 64.5455 12.6115C64.6132 12.76 64.5033 12.9303 64.3014 12.9904C64.0995 13.0505 63.882 12.9144 63.818 12.6877C63.7541 12.4613 63.0473 13.131 62.2473 14.176C61.4471 15.2214 60.6226 16.127 60.4148 16.1889C60.207 16.2507 60.0137 16.5839 59.9854 16.9292C59.9567 17.2745 59.713 17.6227 59.4436 17.7029C59.1741 17.7831 58.9054 18.0268 58.8466 18.2444C58.7864 18.4656 59.5584 18.3142 60.5985 17.9005C62.6538 17.0832 64.3401 15.5225 63.8642 14.8782C63.6958 14.6495 63.7083 14.2918 63.8926 14.083C64.0954 13.8528 64.1726 13.9049 64.0879 14.2155C63.894 14.9302 64.2819 14.7465 65.2916 13.6453C66.4588 12.373 66.425 11.1333 65.233 11.4882C64.7473 11.6328 64.3661 11.8839 64.3861 12.0466ZM28.1688 24.5636C28.2273 24.7708 28.1099 24.9895 27.908 25.0496C27.7061 25.1097 27.493 24.9894 27.4346 24.7822C27.3761 24.5751 27.4935 24.3564 27.6954 24.2963C27.8973 24.2362 28.1104 24.3565 28.1688 24.5636ZM62.7308 15.2618C62.422 15.6722 62.0686 15.9513 61.9459 15.8817C61.6851 15.7348 62.4432 14.784 62.9481 14.6243C63.1374 14.5647 63.0393 14.8515 62.7308 15.2618ZM41.8229 22.1802C41.8813 22.3873 41.7344 22.5013 41.4963 22.4333C41.2583 22.3654 41.0157 22.1404 40.9573 21.9332C40.8988 21.7261 41.0457 21.6121 41.2838 21.68C41.5218 21.748 41.7644 21.973 41.8229 22.1802ZM4.28388 33.5164C4.18069 34.7613 5.51297 35.6806 8.09414 36.1461C9.51384 36.402 11.3599 36.5371 12.1971 36.4463L13.7183 36.2809L12.43 35.3044C10.7708 34.0472 6.1504 32.3756 5.12648 32.6621C4.69163 32.7838 4.31257 33.1681 4.28388 33.5164ZM37.2633 23.3277C37.1767 23.489 36.8637 23.5969 36.5683 23.5668C36.2414 23.5339 36.3032 23.4187 36.7258 23.2733C37.1082 23.142 37.3499 23.1664 37.2633 23.3277ZM30.0917 27.2575C30.6325 27.0965 31.2079 26.717 31.3704 26.4142C31.8092 25.5969 38.4699 23.8144 41.0897 23.8131C44.2826 23.8119 45.4714 24.1378 48.7982 25.9274C53.4693 28.4401 56.4725 32.6014 58.2888 39.0784C58.9066 41.2805 58.9462 42.1106 58.5284 44.06C58.0372 46.3485 55.2054 51.6745 53.7924 52.9657C52.9103 53.7717 53.014 54.3214 53.9932 54.0299C54.8926 53.7621 54.8646 53.6529 54.5343 56.1552C54.2339 58.429 55.1593 62.4405 56.347 64.0153C57.3051 65.2856 56.8909 65.6751 52.9899 67.1721C49.8766 68.3667 49.6319 68.4077 49.572 67.7413C49.5248 67.2115 50.0298 66.7586 51.5024 66.0103C54.6949 64.3887 55.7613 61.6574 52.6917 62.9644C51.9307 63.2886 50.6557 63.76 49.8585 64.012C48.5534 64.4246 48.3458 64.3672 47.7735 63.4348C47.4238 62.8653 46.696 61.7301 46.1563 60.9121C45.0691 59.2645 45.0528 58.7329 46.0807 58.4269C47.2768 58.0708 47.0277 57.4884 45.575 57.2439L44.177 57.0085L43.3485 54.0199C42.8929 52.3758 42.3299 50.8543 42.0972 50.6386C41.8648 50.4228 41.4106 49.383 41.0879 48.3281C40.5492 46.5671 40.5689 46.3999 41.3264 46.2863C42.4453 46.1181 42.6114 45.2439 41.5968 44.8625C40.8186 44.5699 40.8226 44.5149 41.6712 43.8568C42.8481 42.9446 42.6358 42.3448 41.181 42.4721C40.1068 42.5661 39.3541 42.0565 40.197 41.8055C40.8141 41.6218 39.6891 38.2903 38.9892 38.23C38.1517 38.1576 38.082 37.6721 38.8427 37.2059C39.9422 36.5328 40.7484 37.0686 42.2867 39.4939C43.11 40.7926 44.073 41.9843 44.4272 42.1422C44.8803 42.3446 45.2881 43.2357 45.8055 45.1541C46.5168 47.7906 49.0263 52.8596 49.8854 53.3951C50.4668 53.7577 49.6484 51.0531 48.5874 49.1066C47.384 46.8996 46.3755 43.2068 46.4888 41.4248C46.5413 40.5995 46.4103 39.8337 46.1977 39.7231C45.985 39.6125 45.797 39.7558 45.7801 40.0414C45.7629 40.3274 45.592 40.6077 45.4004 40.6648C44.9364 40.8029 43.9163 39.3779 44.0754 38.8136C44.1447 38.5684 44.083 37.9478 43.9382 37.4345C43.5632 36.1056 44.5642 35.7492 46.231 36.6171C48.127 37.6046 48.7712 38.692 47.8391 39.332C47.2733 39.7201 47.2326 39.9989 47.6381 40.7127C47.9455 41.2532 48.005 41.7675 47.7888 42.0127C47.4166 42.4354 47.9361 43.1762 48.4893 43.0115C49.3902 42.7433 50.4426 40.2489 50.3834 38.5215C50.3238 36.7755 50.2256 36.563 48.9751 35.4736C48.2357 34.8294 47.593 34.1719 47.5463 34.0122C47.447 33.6715 44.7049 32.7061 44.2342 32.8462C44.0565 32.8991 44.2998 33.0871 44.7741 33.2644C46.0685 33.7479 45.5225 34.1922 43.987 33.905C42.9676 33.714 42.5506 33.7932 42.2602 34.2321C42.013 34.6057 41.1916 34.9172 39.9393 35.1124C38.7869 35.2918 37.8579 35.6255 37.6481 35.9354C37.4537 36.2223 36.5653 36.6832 35.6734 36.9593C32.6611 37.8924 31.4049 41.1623 32.7358 44.6057C33.1249 45.6122 33.6302 46.4429 33.859 46.4524C34.0876 46.4615 34.9254 46.8172 35.7206 47.2422C36.5159 47.6673 37.5674 47.8961 38.0575 47.7502C38.8277 47.5209 39.1394 47.7751 40.3492 49.6197C41.7753 51.7939 43.445 55.8444 43.0842 56.2539C42.9749 56.3783 41.8385 56.5313 40.5593 56.5944C39.2802 56.6576 37.5353 56.9104 36.6819 57.1567C34.3224 57.8367 32.4778 56.6473 28.8691 52.1187C25.6755 48.1104 22.8228 38.9676 23.4962 34.8986C23.649 33.9761 23.6237 33.2659 23.4401 33.3205C23.2566 33.3752 23.0586 33.2504 23.0002 33.0432C22.9417 32.8361 23.0925 32.6075 23.3352 32.5352C24.1076 32.3053 25.5048 29.3857 25.103 28.8418C24.8545 28.5055 24.9199 28.3423 25.2959 28.3574C25.6078 28.3698 26.2704 27.9199 26.7682 27.3568C27.6554 26.3533 27.6874 26.3454 28.391 26.9419C28.8099 27.2969 29.5179 27.4283 30.0917 27.2575ZM44.4865 21.7473C44.5449 21.9545 44.4176 22.1761 44.2039 22.2397C43.9903 22.3033 43.8694 22.1556 43.9358 21.9113C44.0021 21.6669 44.1291 21.4454 44.2183 21.4189C44.3075 21.3923 44.428 21.5402 44.4865 21.7473ZM35.9847 38.1601C36.0432 38.3672 35.9159 38.5888 35.7022 38.6524C35.4886 38.7161 35.3677 38.5683 35.4341 38.324C35.5004 38.0797 35.6274 37.8582 35.7166 37.8316C35.8058 37.805 35.9263 37.9529 35.9847 38.1601ZM34.0525 41.185C34.111 41.3922 33.9011 41.6384 33.5865 41.732C33.2718 41.8257 33.0683 41.7025 33.1347 41.4582C33.2011 41.2139 33.4106 40.9678 33.6008 40.9112C33.791 40.8546 33.9941 40.9778 34.0525 41.185ZM36.5449 42.1709C36.7105 43.2963 36.7955 44.3113 36.7337 44.4264C36.4733 44.9114 34.5241 44.2668 34.3465 43.6374C33.9601 42.2679 34.4671 40.6598 35.3712 40.3874C36.2114 40.134 36.2547 40.1999 36.5449 42.1709ZM58.4867 68.105C58.7689 70.2731 58.3816 70.7522 55.706 71.5447C51.3341 72.8396 51.3348 72.8394 50.7569 72.0393C49.7061 70.5847 49.8626 70.4328 54.7867 68.1258C58.3839 66.4404 58.2698 66.4409 58.4867 68.105Z" fill="#05A034"/>
<path fill-rule="evenodd" clip-rule="evenodd" d="M64.0979 77.4138C65.66 73.1132 64.4866 67.6684 67.7064 64.1099C68.6588 63.5313 69.1639 63.8532 69.5559 64.862C69.7925 66.1895 70.347 70.7604 68.3529 70.7583C68.1021 73.6129 68.2589 76.4883 68.873 79.2899C70.3446 79.0539 71.4175 79.8099 72.4911 80.3721C73.2916 80.7913 74.0924 81.1028 75.0591 80.8151C79.0501 80.112 80.1875 84.301 80.2359 87.7203C80.2945 89.3886 80.4514 93.2777 81.1866 94.8965C84.5143 88.0081 91.503 84.872 98.1621 83.3235C99.2059 83.0349 100.097 82.6405 100.766 81.9665C106.377 79.7522 103.681 72.4977 106.263 68.3284C110.303 63.3718 115.155 61.9456 121.267 62.795C126.616 63.3862 130.251 68.8163 129.921 73.9419C129.823 74.9878 130.451 76.0879 130.82 77.1642C134.512 81.5795 140.256 83.5549 145.197 86.2228C161.675 94.2731 167.386 100.425 173.79 117.555C176.786 124 180.371 130.255 181.562 137.353C182.961 145.718 182.965 154.28 182.478 162.727C183.387 162.836 182.398 169.329 181.6 171.578C181.327 172.349 180.672 172.905 179.856 172.892C178.215 173.69 174.361 176.903 172.645 176.796C167.098 176.455 161.707 176.983 156.363 176.71C150.582 176.414 144.856 175.336 139.05 175.476C128.925 175.72 136.174 176.321 125.699 176.796C119.086 177.101 94.9612 173.491 88.3672 174.08C83.0037 175.208 80.5568 173.307 81.375 167.706C81.6775 165.56 82.6435 160.785 79.4657 160.583C77.9625 160.757 76.7183 162.258 75.5919 163.136C65.6447 170.538 55.4826 165.208 54.6818 153.039C53.1742 142.832 51.0604 140.421 55.6555 130.229C70.1936 92.2863 48.2903 97.4413 63.0789 79.6695C64.2337 80.6745 63.9401 77.992 64.0979 77.4138Z" fill="white"/>
<path fill-rule="evenodd" clip-rule="evenodd" d="M69.6223 63.8258C68.8289 63.0464 67.5677 63.2403 66.794 63.9332C66.0067 64.637 65.5328 65.7432 65.1285 66.6968C63.3146 70.9842 63.7371 75.6785 62.8195 80.1642C61.1404 81.0707 59.6247 82.2541 58.5513 83.8462C56.9207 86.2646 56.147 89.0811 56.9646 91.9473C57.387 93.4304 58.1047 94.8045 58.6164 96.2559C59.163 97.801 59.4976 99.4067 59.6581 101.038C59.8156 102.639 59.8368 104.249 59.7914 105.857C59.7672 106.689 59.7232 107.52 59.6793 108.351C59.64 109.095 59.5079 109.872 59.6861 110.602L59.7081 110.686C59.6385 110.675 59.5703 110.662 59.5022 110.647C58.9176 110.516 58.403 110.314 57.7928 110.394C57.3174 110.456 57.0706 110.852 57.2719 111.3C57.3598 111.496 57.4763 111.659 57.6172 111.798C56.3907 120.863 54.2483 129.783 52.8387 138.819C52.1998 142.919 51.8106 147.031 52.0302 151.182L52.0532 151.594C52.2771 155.405 52.827 159.605 54.7646 162.938C55.67 164.499 56.9146 165.883 58.4226 166.88C59.1132 167.337 59.8535 167.695 60.6574 167.873C64.8242 169.532 69.2302 169.125 73.1592 166.932C74.9262 165.947 76.6886 164.798 78.1315 163.372C78.8325 162.679 79.5091 161.797 79.9242 160.833C79.9226 161.049 79.9618 161.271 79.9181 161.484L79.8307 161.906C79.1763 165.038 76.6823 176.616 76.6492 177.588C76.6312 178.112 81.0471 178.099 81.5264 178.115L81.5397 178.116C88.6917 178.414 95.8481 178.255 102.996 177.959L103.561 177.936C110.493 177.642 118.036 177.248 124.976 177.046L124.962 176.93C124.879 176.307 124.474 173.536 124.429 173.324L124.428 173.317C124.231 172.524 123.852 170.06 124.051 169.243C124.566 167.137 126.884 167.618 128.515 167.841L128.858 167.886C129.122 167.922 129.765 168.017 129.759 168.023C129.932 167.843 129.52 167.331 129.418 167.194L129.337 167.081C128.899 166.468 128.502 165.831 128.545 165.042C128.651 163.112 131.409 163.221 132.764 163.355C132.86 163.364 132.899 163.513 132.789 163.536L132.522 163.591C131.662 163.776 129.752 164.246 129.795 164.957C129.819 165.361 130.25 165.659 130.513 165.914C130.803 166.194 131.091 166.497 131.305 166.841C131.717 167.505 131.81 168.399 131.403 169.09C130.933 169.886 130.099 169.979 129.264 169.907L129.217 169.903C129.033 169.885 128.849 169.868 128.666 169.85L127.563 169.742C127.29 169.716 126.413 169.486 126.157 169.644C125.794 169.869 126.231 170.864 126.313 171.192L126.317 171.215C126.387 171.69 126.43 176.664 126.437 176.992C131.845 176.867 137.254 175.665 142.662 175.947C146.958 176.171 151.243 176.559 155.531 176.896L155.639 175.976C156.828 165.956 158.692 152.736 157.797 142.826C157.727 142.05 158.939 142.055 159.008 142.826C159.933 153.073 157.909 166.839 156.731 176.988C158.557 177.127 160.383 177.253 162.212 177.349L162.678 177.372C168.9 177.683 175.321 177.702 181.41 176.275C181.598 176.232 181.662 176.044 181.622 175.888C181.683 175.923 181.774 175.903 181.799 175.818C182.509 173.481 182.869 167.531 183.19 164.956L183.212 164.788C183.542 162.286 183.731 159.756 183.868 157.239C184.143 152.204 184.11 147.163 183.737 142.134C182.552 126.094 177.831 109.888 167.923 96.9974C165.527 93.8814 162.801 91.0302 159.529 88.8252C156.319 86.6612 152.718 85.1371 149.065 83.8993C146.65 83.0804 144.197 82.3797 141.744 81.6806C141.651 81.6341 141.558 81.5884 141.465 81.5434L141.325 81.4764C140.453 81.0631 139.594 80.6106 138.701 80.2429L138.503 80.1626C137.209 79.6436 135.701 79.1843 134.299 79.2001C132.03 78.0575 130.124 76.3309 130.308 73.5613C130.384 72.4233 128.597 72.4248 128.534 73.5613C128.367 76.585 130.231 78.7295 132.607 80.1687L132.595 80.1802L132.584 80.1929C132.213 80.6136 131.816 81.0041 131.388 81.3673C128.823 83.5496 125.578 85.3612 122.335 86.5536C118.53 87.9535 114.728 88.3727 110.793 87.2408C108.736 86.649 106.793 85.7364 105.008 84.556C104.463 84.1958 103.941 83.81 103.439 83.3967C103.913 82.749 104.292 82.0513 104.61 81.3113C105.249 79.8221 105.777 77.8048 105.125 76.2324C104.964 75.845 104.327 75.6059 104.104 76.0992C103.491 77.4492 103.235 78.9081 102.52 80.2279C102.248 80.7302 101.934 81.2069 101.583 81.6563C101.583 81.6806 98.9002 82.1391 98.9002 82.1391C95.657 82.1376 92.6031 83.3831 89.7339 84.9388C88.0379 85.8587 86.3711 86.8369 84.7091 87.8165L81.4609 89.7317C81.2217 89.8724 80.9537 90.0086 80.6857 90.1541C80.9992 88.6073 81.1521 87.0303 81.0491 85.467C80.8932 83.1092 79.9756 80.5305 77.5455 79.6905C76.3963 79.2925 75.067 79.415 73.9511 79.8569C73.4363 80.0612 72.8761 80.3321 72.3976 80.6938C72.1658 79.6526 71.1894 78.8717 70.2083 78.5268C69.8903 78.4147 69.5648 78.3436 69.2347 78.3088C69.2444 78.1417 69.2454 77.9727 69.2431 77.7986L69.2408 77.6671C69.2256 76.8953 69.2317 76.1235 69.2483 75.3531C69.2786 73.8927 69.3483 72.4626 69.4967 71.0067C69.6205 69.8015 69.8358 68.6101 69.9956 67.4098L70.0618 66.8938C70.1966 65.8773 70.4228 64.6114 69.6223 63.8258ZM167.182 162.375L167.452 162.214C168.339 161.691 169.252 161.209 170.326 161.451C171.35 161.682 172.075 162.512 172.457 163.448C172.637 163.89 172.731 164.336 172.8 164.807C172.84 165.07 172.866 165.336 172.912 165.599L172.928 165.68C172.949 165.784 172.981 165.93 173.01 166.056C173.289 165.934 173.57 165.739 173.799 165.623L173.983 165.531C174.416 165.315 174.865 165.111 175.337 165.011C176.358 164.795 177.49 165.107 178.073 166.021C178.573 166.803 178.562 167.724 178.371 168.6L178.358 168.661C178.275 169.025 177.847 170.48 177.224 170.268C176.619 170.062 176.538 169.257 176.492 168.721L176.489 168.67C176.468 168.266 176.548 167.416 176.09 167.263C175.518 167.071 174.417 167.947 173.919 168.176C173.028 168.584 172.049 168.705 171.324 167.91C170.674 167.196 170.619 166.152 170.451 165.247L170.407 165.019C170.318 164.56 170.145 163.825 169.636 163.844C169.22 163.859 168.764 164.29 168.421 164.494C168.043 164.72 167.65 164.908 167.239 165.069C166.281 165.443 165.215 165.563 164.196 165.452C163.605 165.388 163.221 165.106 163.012 164.551C162.941 164.388 162.887 164.22 162.85 164.046C162.519 162.803 164.328 161.916 164.994 163.028C165.764 162.999 166.48 162.792 167.182 162.375ZM55.8821 154.063C56.4336 153.67 57.1824 153.754 57.6753 154.197L57.7046 154.225C57.8412 154.357 58.1492 154.7 58.3487 155.002L58.4112 154.953C58.4212 154.945 58.4309 154.938 58.4402 154.93L58.4673 154.908C58.8749 154.564 59.3008 154.248 59.8253 154.107C61.1919 153.74 62.4339 154.655 63.0306 155.827C63.3135 156.384 63.4347 156.958 63.5758 157.558L63.5878 157.613C63.6447 157.892 63.7187 158.459 63.9638 158.597C64.0539 158.648 64.2583 158.548 64.4606 158.431C64.922 158.165 65.3361 157.826 65.7882 157.545C66.8489 156.887 68.0543 156.616 69.2456 157.09C70.4249 157.559 71.2697 158.667 71.2896 159.958C71.3043 160.909 70.6668 162.57 69.4672 162.454C69.2269 162.43 68.9176 162.282 68.8787 162.006C68.7753 161.271 69.3549 160.369 68.6902 159.762C68.0475 159.175 67.3816 159.669 66.7997 160.076L66.3828 160.368C65.7057 160.838 65.0083 161.268 64.151 161.32C63.0663 161.385 62.0649 160.786 61.5191 159.863C61.0256 159.029 61.0184 158.085 60.6326 157.228C60.5482 157.041 60.3308 156.869 60.4032 156.783C60.1108 156.935 59.7337 157.373 59.5515 157.496C58.6446 158.108 57.4321 158.103 56.6371 157.292C56.3203 156.97 56.1186 156.571 55.8841 156.191C55.7993 156.054 55.6935 155.927 55.6161 155.786C55.5878 155.734 55.5413 155.541 55.503 155.369L55.4443 155.095L55.4381 155.051C55.3878 154.637 55.5341 154.311 55.8821 154.063ZM90.8143 150.45C91.8561 149.904 93.1405 150.111 94.0791 150.774C95.1315 151.517 95.648 152.658 95.9993 153.864C96.2548 154.743 96.3773 155.954 97.1118 156.589C97.9667 157.33 99.3998 156.544 100.302 156.252C101.394 155.899 102.706 155.755 103.771 156.277C104.815 156.788 105.318 157.832 105.426 158.95C105.527 159.993 105.377 161.367 104.782 162.24C104.723 162.326 104.611 162.304 104.574 162.213C104.183 161.25 104.258 160.148 103.94 159.151C103.601 158.087 102.806 157.862 101.796 158.148C100.743 158.446 99.7789 159.005 98.6959 159.204C97.5412 159.416 96.3979 159.197 95.4877 158.435C94.7218 157.793 94.2581 156.858 93.9447 155.927C93.6393 155.019 93.5894 153.804 92.939 153.05C92.7749 152.86 92.4889 152.63 92.2233 152.606C91.8287 152.57 91.6861 152.863 91.3674 153.087C90.5266 153.68 89.1845 153.692 88.6697 152.649C88.5012 152.308 88.4176 151.823 88.6697 151.488C89.1117 150.903 89.4746 150.907 90.0578 151.034C90.0764 151.019 90.0971 150.998 90.1204 150.971L90.1382 150.95C90.2925 150.754 90.5922 150.567 90.8143 150.45ZM132.079 144.294C132.113 143.51 133.058 142.758 133.803 143.306C133.923 143.393 134.041 143.483 134.157 143.576L134.204 143.627V143.627C134.343 143.626 134.472 143.59 134.609 143.546L134.849 143.47C135.477 143.27 136.082 143.11 136.753 143.257C137.907 143.51 138.64 144.506 139.016 145.562C139.366 146.547 139.251 147.552 139.416 148.562C139.571 149.519 140.064 149.893 140.988 149.688L141.035 149.677C142.873 149.237 144.968 148.006 146.579 149.693C148.32 151.515 147.182 154.41 145.276 155.58C145.193 155.632 145.1 155.547 145.119 155.46C145.373 154.283 146.111 153.161 145.864 151.911C145.692 151.045 145.09 150.635 144.231 150.773C142.424 151.064 140.734 152.503 138.881 151.459C137.955 150.937 137.445 149.956 137.214 148.952C137.007 148.048 137.066 147.029 136.668 146.176C136.232 145.243 135.499 145.92 134.708 146.047C133.59 146.227 132.019 145.641 132.079 144.294ZM71.4583 116.413C71.4547 115.634 72.6659 115.633 72.6695 116.413C72.7142 126.283 77.334 135.407 78.1638 145.179C78.2295 145.956 77.018 145.951 76.9526 145.179C76.1224 135.404 71.5029 126.299 71.4583 116.413ZM171.479 132.57C172.117 131.848 173.051 132.072 173.81 132.434C174.949 132.977 176.04 133.588 177.086 134.293C177.343 134.467 177.181 134.844 176.878 134.786C176.111 134.639 175.365 134.474 174.621 134.235C174.062 134.055 173.48 133.794 172.896 133.702C172.933 133.836 172.977 133.967 173.03 134.096C173.125 134.361 173.236 134.62 173.331 134.885C173.518 135.414 173.687 135.95 173.851 136.486L173.933 136.754C174.274 137.879 174.605 139.516 173.032 139.862C172.449 139.991 171.87 139.737 171.327 139.537L171.216 139.496L169.235 138.795C169 138.711 168.563 138.653 168.367 138.507L168.398 138.657C168.439 138.856 168.478 139.052 168.564 139.251L168.612 139.36C169.104 140.475 169.724 141.59 169.151 142.822C168.659 143.878 167.497 144.379 166.378 144.079C165.314 143.794 164.544 142.597 165.095 141.555C165.3 141.167 165.901 140.977 166.282 141.219L166.385 141.287C166.505 141.366 166.712 141.5 166.717 141.525C166.745 141.533 166.775 141.54 166.805 141.548C166.741 141.359 166.698 141.068 166.642 140.94L166.434 140.47C166.049 139.586 165.715 138.686 166.009 137.695C166.851 134.857 169.708 136.471 171.815 137.28C171.784 137.161 171.753 137.042 171.728 136.926C171.637 136.515 171.537 136.106 171.439 135.697L171.238 134.853C171.056 134.075 170.915 133.209 171.479 132.57ZM63.6778 129.402C63.676 129.335 63.7587 129.283 63.8167 129.322C65.1637 130.227 66.0649 132.117 65.5588 133.727C65.313 134.509 64.7904 135.195 64.0566 135.574C63.1444 136.046 62.1371 135.867 61.1786 135.665L60.7715 135.578C60.4846 135.517 60.2014 135.473 59.9094 135.554C59.8092 135.581 59.6929 135.669 59.5977 135.688C59.637 135.754 59.6788 135.87 59.7 135.913L59.7694 136.053C59.8391 136.195 59.9071 136.342 59.9498 136.491C60.0931 136.989 60.0576 137.525 59.8257 137.99C59.3936 138.857 58.4872 139.345 57.5436 139.428C56.9815 139.478 55.565 138.986 55.2301 139.582C54.5654 140.765 52.6727 139.97 53.0406 138.66C53.2894 137.774 53.9951 137.201 54.8695 136.962C55.3353 136.834 55.8176 136.852 56.2913 136.904C56.4769 136.924 56.6619 136.953 56.8477 136.973L56.9872 136.986C56.9509 136.983 57.3722 136.973 57.5415 136.961L57.5054 136.864C57.5001 136.851 57.4952 136.839 57.491 136.829C57.3026 136.427 57.163 136.025 57.1744 135.576C57.1951 134.764 57.7205 134.056 58.4108 133.666C59.0471 133.305 59.8049 133.162 60.5284 133.242C61.3236 133.33 62.4537 133.96 63.2357 133.628C63.8248 133.378 64.0248 132.506 64.0339 131.935C64.0476 131.075 63.7017 130.259 63.6778 129.402ZM118.545 123.758C120.712 122.786 122.573 124.446 123.845 126.035C123.911 126.117 123.828 126.255 123.725 126.191L123.556 126.086C122.517 125.435 121.366 124.666 120.079 124.888C118.914 125.088 118.626 125.85 118.858 126.889L118.926 127.181C119.172 128.25 119.361 129.357 118.747 130.351C118.168 131.29 117.037 131.7 115.979 131.725C114.757 131.754 113.703 131.186 112.586 130.79L112.498 130.759C112.024 130.596 110.294 130.168 110.27 131.142C110.258 131.587 110.735 132.11 110.919 132.511C111.159 133.034 111.319 133.584 111.316 134.166C111.309 135.615 110.098 136.793 108.666 136.09C108.109 135.816 107.966 135.031 108.256 134.527C108.665 133.816 108.831 133.853 108.544 133.107L108.461 132.897C108.109 131.998 107.828 131.072 108.224 130.128C109.015 128.243 111.388 128.014 113.083 128.639L113.145 128.662C114.2 129.071 117.36 130.707 117.142 128.393C117.056 127.481 116.779 126.607 116.973 125.685C117.153 124.829 117.75 124.114 118.545 123.758ZM128.988 116.016C129.384 115.319 130.712 115.569 130.602 116.453L130.567 116.728C130.521 117.104 130.512 117.458 130.772 117.793C131.088 118.199 131.628 118.322 132.119 118.26C133.158 118.129 133.821 117.166 134.964 117.391C135.892 117.573 136.533 118.332 136.904 119.16C137.297 120.037 137.289 120.987 137.582 121.889C137.919 122.927 138.637 122.88 139.535 122.516L139.728 122.437C140.587 122.08 141.448 121.684 142.405 121.854C143.994 122.138 145.362 124.58 143.874 125.759C143.605 125.972 143.135 125.861 143.147 125.458L143.148 125.382C143.156 124.649 142.971 123.704 142.131 123.531C141.24 123.348 140.234 124.161 139.406 124.395C137.264 125 136.044 123.389 135.68 121.483L135.667 121.41C135.551 120.742 135.459 119.508 134.761 119.195C134.388 119.029 133.991 119.439 133.68 119.604C133.197 119.86 132.678 120.023 132.131 120.065C130.108 120.219 127.809 118.092 128.988 116.016ZM78.361 113.383C79.0276 113.094 80.0218 113.255 80.1847 114.125L80.2835 114.672C80.4771 115.729 80.7856 117.05 81.825 117.431C82.4752 117.669 83.2218 117.252 83.8049 116.997C84.5051 116.692 85.1878 116.429 85.9547 116.357C87.5107 116.209 88.6698 117.109 89.2201 118.515L89.2681 118.641C89.712 119.822 90.3119 122.082 89.34 123.04C89.1982 123.18 88.9122 123.249 88.738 123.118C88.1638 122.687 88.0185 121.98 87.8213 121.316L87.8043 121.259C87.5951 120.57 87.4235 119.811 87.0457 119.19C86.3435 118.035 84.5113 119.353 83.63 119.658C82.1827 120.158 80.6818 119.866 79.5757 118.796C78.8771 118.121 78.4641 117.266 78.18 116.361C77.9987 116.455 77.8105 116.536 77.6077 116.591C76.8355 116.8 75.9195 116.69 75.3316 116.105C74.2281 115.007 74.8267 113.039 76.5091 113.357C76.8404 113.42 77.0578 113.736 77.0972 114.059L77.1197 114.11V114.11C77.5431 113.97 78.0059 113.537 78.361 113.383ZM156.324 103.579C157.896 101.962 160.623 102.839 161.699 104.553C161.922 104.909 161.553 105.359 161.162 105.251C160.226 104.994 158.905 103.979 157.916 104.625C157.183 105.103 157.582 106.355 157.649 107.055L157.659 107.159C157.744 108.112 157.763 109.415 157.02 110.128C156.593 110.539 155.938 110.484 155.374 110.425L155.195 110.406C154.53 110.34 153.87 110.222 153.234 110.018C152.649 109.831 152.095 109.575 151.545 109.305L151.408 109.238C151.164 109.117 150.353 108.639 150.11 108.939C149.983 109.096 150.297 109.783 150.362 109.936C150.609 110.512 150.922 111.054 151.148 111.64C151.547 112.673 151.58 113.839 151.021 114.824C150.479 115.779 149.304 116.553 148.263 115.82C147.667 115.399 147.669 114.635 148.263 114.215C148.578 113.992 148.895 113.846 149.025 113.472C149.194 112.986 148.976 112.47 148.765 112.019L148.512 111.483C147.952 110.287 147.392 108.911 148.175 107.687C148.983 106.425 150.625 106.405 151.868 106.931C152.577 107.231 153.224 107.634 153.963 107.866C154.475 108.027 154.988 108.134 155.512 108.193C155.628 107.563 155.463 106.858 155.462 106.232C155.459 105.282 155.636 104.286 156.324 103.579ZM75.2653 81.0934C77.9179 80.7044 79.2019 83.0759 79.3851 85.3596C79.5501 87.4329 79.214 89.5123 78.6886 91.5282C78.4918 92.2757 78.2707 93.0142 78.0391 93.7406C77.6666 94.9076 77.2623 96.0727 76.7703 97.1957C76.6204 97.5346 76.469 97.8752 76.2994 98.202C75.7185 98.6781 75.2215 99.3193 74.7696 99.9356L74.4728 100.343V100.343L74.3932 100.452C73.6255 101.503 72.9699 102.592 72.4339 103.777C71.9235 104.906 71.5435 106.082 71.2482 107.284L71.1755 107.583C70.9484 108.508 70.6134 109.611 71.0183 110.471C70.2234 110.716 69.433 110.939 68.5882 111.057C67.4223 111.22 66.2095 111.231 65.0331 111.188C63.8964 111.147 62.761 111.058 61.6292 110.937L60.8137 110.848C60.7292 110.838 60.6448 110.828 60.5605 110.818C60.5923 110.778 60.6196 110.734 60.6392 110.686C60.9298 109.99 60.8923 109.182 60.9245 108.434L60.9284 108.351C60.9708 107.52 60.9966 106.689 61.0072 105.857C61.0268 104.295 60.9844 102.729 60.8134 101.174C60.6651 99.8139 60.4333 98.4533 60.0715 97.1321C59.7066 95.7928 59.1494 94.5351 58.6346 93.2488C58.1259 91.9775 57.7063 90.6717 57.7519 89.2853C57.7807 88.4045 57.9745 87.5479 58.303 86.7382C58.3183 86.7504 58.3377 86.7594 58.3605 86.7579C59.3916 86.7201 60.3682 86.422 61.3645 86.1707C62.4213 85.903 63.5039 85.6834 64.5849 85.5533L64.8147 85.5264C65.7157 85.4253 66.6973 85.376 67.5298 85.7621C68.4307 86.1815 68.9985 87.1137 69.3407 88.008L69.3788 88.111C69.9868 89.8065 69.8474 92.0696 67.9674 92.8719C67.3845 93.1217 66.0536 93.2745 65.7538 92.4845C65.6191 92.1243 65.8961 91.5918 66.0006 91.2513C66.1232 90.8455 66.2035 90.446 66.1944 90.0223C66.1871 89.6506 65.903 89.3703 65.5416 89.3403L65.5085 89.3382C64.8514 89.3096 63.4963 88.5529 63.3646 89.6424C63.3388 89.8543 63.5009 90.0767 63.6719 90.1798C64.0172 90.384 64.3775 90.5203 64.753 90.6034C64.7015 90.8304 64.6288 91.0529 64.5575 91.2738C64.5153 91.2526 64.4684 91.2392 64.4184 91.2345C63.8627 91.1891 63.3131 91.277 62.7574 91.2829L62.4537 91.285C62.0224 91.2893 61.6464 91.3124 61.2282 91.5356C60.8421 91.7415 60.9103 92.2575 61.2282 92.4785C62.0625 93.0566 63.4751 92.7176 64.3442 92.1304C64.3063 92.4285 64.3245 92.7327 64.4517 93.052C64.8272 93.9996 65.9037 94.4716 66.8665 94.5124C67.7221 94.5488 68.5397 94.2794 69.2226 93.8072C69.3619 94.3051 69.5859 94.7833 69.6828 95.2995C69.81 95.9774 69.6586 96.7704 69.8947 97.4075C70.131 98.0493 71.044 98.479 71.5724 97.8494C72.3461 96.9293 72.1054 95.4719 71.4256 94.5397C71.0637 94.0463 70.4066 93.4803 69.7374 93.391C70.2022 92.9538 70.5746 92.4134 70.8093 91.8171C70.826 91.8247 70.8457 91.8262 70.8669 91.8202C73.0426 91.2256 74.2266 89.255 74.2993 87.1862C74.4598 87.3012 74.6262 87.4043 74.8004 87.4964C75.2168 87.7206 75.7513 87.5237 75.88 87.0591C75.9981 86.6263 75.6544 86.0922 75.1714 86.1284C74.8958 86.1511 74.6188 86.1526 74.3447 86.1072C74.3069 86.1011 74.2705 86.0937 74.2327 86.086C74.2084 85.9271 74.1766 85.7682 74.1373 85.6108C74.9594 85.7046 75.8194 85.5699 76.6143 85.3944C77.2987 85.2445 77.1397 84.1564 76.4508 84.1822L76.3401 84.187C75.4362 84.2304 74.1018 84.3762 73.3272 83.8038C73.191 83.6071 73.0396 83.4209 72.876 83.2454C72.8548 83.2015 72.8367 83.1547 72.82 83.1062C72.4037 81.9076 74.3765 81.2235 75.2653 81.0934ZM99.0776 97.9552C100.11 97.6792 101.197 98.0552 101.907 98.8346C102.504 99.4898 102.813 100.294 103.09 101.117L103.247 101.59C103.477 102.26 103.741 102.791 104.561 102.536C105.613 102.208 106.524 101.638 107.668 101.683C108.708 101.724 109.725 102.171 110.449 102.92C111.189 103.686 111.542 104.754 111.385 105.806L111.375 105.87C111.293 106.355 110.584 108.084 109.832 107.288C109.497 106.933 109.563 106.54 109.484 106.089C109.408 105.659 109.246 105.238 108.98 104.889C108.51 104.271 107.753 104.03 107.013 104.249C106.037 104.537 105.175 105.132 104.124 105.146C103.018 105.16 102.079 104.587 101.469 103.687C100.976 102.961 100.8 102.11 100.454 101.32L100.421 101.245C100.13 100.595 99.9312 100.36 99.2647 100.671L99.0318 100.783C98.034 101.257 96.9114 101.69 95.8797 101.022C94.9211 100.401 94.5125 99.1541 95.3187 98.2459C95.7636 97.7445 96.7933 97.8299 97.0823 98.4731C97.1331 98.5837 97.1802 98.6959 97.2265 98.8083C97.3148 98.7814 97.4006 98.7487 97.4821 98.703C98.0229 98.4593 98.4926 98.1117 99.0776 97.9552ZM129.226 90.6123C130.404 89.9778 131.387 91.2259 131.199 92.3528L131.19 92.4022C131.183 92.4362 131.167 92.5104 131.147 92.5954C131.208 92.5882 131.267 92.5776 131.326 92.5625L131.6 92.529C132.03 92.479 132.447 92.453 132.878 92.5911C133.894 92.917 134.394 93.9045 134.419 94.9165C134.443 95.925 133.921 96.7385 133.768 97.7019C133.611 98.6871 134.631 98.4058 135.297 98.3337L135.323 98.331C136.25 98.2373 137.224 98.2356 137.994 98.8393C138.789 99.4627 139.142 100.54 139.029 101.526C138.928 102.417 138.37 103.788 137.36 103.929C137.26 103.943 137.147 103.921 137.096 103.821C136.687 103.027 137.256 102.15 137.191 101.313C137.121 100.392 136.533 100.238 135.723 100.298C134.937 100.356 134.152 100.522 133.376 100.288C132.533 100.034 131.922 99.311 131.749 98.4587C131.558 97.5194 131.909 96.6454 132.136 95.7526C132.212 95.4562 132.249 95.1579 132.197 94.8548C132.185 94.7892 132.128 94.7287 132.108 94.7028C131.979 94.6786 131.785 94.7405 131.674 94.7523L131.517 94.7678C130.664 94.8448 129.842 94.7932 129.233 94.0885C128.92 93.7275 128.805 93.2863 128.836 92.8206L128.852 92.6325C128.868 92.4516 128.9 92.2129 128.994 92.1133L128.995 92.1084V92.1084C128.964 92.0661 128.934 92.0226 128.907 91.9774L128.88 91.9317C128.619 91.4963 128.77 90.8578 129.226 90.6123ZM68.8726 79.5664C70.046 79.5664 71.1545 79.9493 72.0418 80.992C71.7253 81.2931 71.4725 81.6427 71.333 82.0528C70.8986 81.8152 70.4383 81.6293 69.9675 81.4974C68.5306 81.0964 66.5653 81.1024 65.3571 82.0877C64.7242 82.6022 65.4192 83.5254 66.1005 83.3665C66.7107 83.2242 67.2406 82.9609 67.8811 82.9306C68.4367 82.9034 68.9818 82.976 69.5148 83.1364C70.3278 83.3817 71.0667 83.8462 71.6103 84.4864C71.7919 84.7012 71.9509 84.9343 72.0842 85.1857C73.0986 87.1105 72.334 89.8709 70.9335 91.4554C71.4831 89.6303 70.935 87.4783 69.8403 85.9666C68.5224 84.1463 66.5512 83.94 64.4746 84.2241L64.4061 84.2336C62.397 84.5168 59.9094 85.0115 58.4074 86.487C58.5573 86.1465 58.7299 85.8166 58.9239 85.4973C60.0623 83.6237 61.9504 82.1618 63.9096 81.1191C64.2382 80.942 64.5698 80.7786 64.8998 80.6273C66.155 80.0507 67.554 79.5664 68.8726 79.5664ZM68.2308 65.268L68.2354 65.2893C68.2364 65.2933 68.2374 65.2973 68.2384 65.3013C68.3078 65.9167 68.144 66.6231 68.0605 67.2442L68.0491 67.3323C67.8735 68.7458 67.6418 70.1608 67.5661 71.5848C67.4924 72.9543 67.5208 74.3748 67.6855 75.7384L67.71 75.9328C67.8069 76.6758 67.8644 77.5475 68.1156 78.3103C67.1498 78.4026 66.1838 78.7128 65.3056 79.0429C64.9907 79.1623 64.6773 79.2879 64.3654 79.4212C64.756 77.3463 64.9649 75.2412 65.3889 73.1724L65.4723 72.7607C65.9332 70.4722 66.3658 68.1689 67.5571 66.1216C67.716 65.8492 67.8871 65.6206 68.0809 65.377C68.1233 65.3212 68.1733 65.2848 68.2308 65.268Z" fill="black"/>
<path fill-rule="evenodd" clip-rule="evenodd" d="M111.16 80.3423C114.521 80.3621 117.377 79.409 119.557 77.8322C122.276 76.8629 125.557 75.3679 127.549 73.7983C128.326 73.9966 129.256 73.1713 129.851 72.7358C133.549 69.9756 136.452 65.9353 137.312 61.8883C138.64 63.5636 140.53 63.6332 142.34 62.8005C146.134 60.6497 145.992 56.1209 144.626 52.7373C147.498 46.2969 149.488 29.2948 145.104 22.433C144.208 21.4063 142.892 20.7922 141.944 19.7393C141.101 18.8198 140.3 17.8792 139.319 17.1516C136.326 14.8749 131.171 13.6627 127.944 13.0926C114.471 10.1812 104.12 15.4141 91.9161 19.8282C92.6184 21.5837 93.59 23.1847 94.7035 24.6775C91.6738 25.8078 93.0654 28.3492 95.4159 29.6375L96.8152 28.9577C94.6338 36.7586 89.6137 56.1573 91.7798 62.3868C93.5071 72.1056 101.087 80.4128 111.16 80.3423" fill="white"/>
<path fill-rule="evenodd" clip-rule="evenodd" d="M109.214 81.1793C113.577 81.627 118.761 80.5959 121.67 77.0529C121.757 76.9468 121.795 76.8267 121.798 76.7108C121.8 76.5819 121.757 76.4573 121.682 76.3604C121.603 76.2585 121.492 76.1875 121.363 76.1645C121.255 76.1451 121.132 76.1575 121.005 76.2288L120.738 76.3776C118.751 77.4744 116.688 78.4097 114.436 78.81C112.118 79.2221 109.757 79.176 107.46 78.6526C103.275 77.6996 99.8879 75.2683 97.3949 72.0624C94.6129 68.4849 92.9423 63.9436 92.5165 59.402C92.0005 53.898 93.1974 48.4276 94.4358 43.0984C95.7371 37.4988 97.1595 31.9277 98.8118 26.4213C98.8616 26.2556 98.8749 26.1004 98.8606 25.9575C99.3479 25.7667 99.8666 25.8197 100.383 25.9939C101.326 26.3122 102.266 27.03 103.049 27.6225C103.333 27.8371 103.597 28.0365 103.834 28.1988C104.806 28.8634 105.868 29.3416 107.056 29.4169C108.292 29.4949 109.503 29.1111 110.625 28.6309C111.195 28.3869 111.755 28.1338 112.314 27.8817C113.905 27.1639 115.476 26.4531 117.194 25.9912C119.495 25.3721 121.872 25.0672 124.255 25.089C128.509 25.1279 132.776 26.2224 135.383 29.8184C136.439 31.2752 137.128 32.9494 136.591 34.7472C136.299 35.7252 135.747 36.6131 135.146 37.4296L134.939 37.7077C134.609 38.156 134.323 38.6024 134.236 39.0777C134.164 39.4759 134.22 39.8971 134.505 40.3588C134.684 40.6494 134.912 40.91 135.141 41.1698C135.306 41.3572 135.472 41.5442 135.614 41.7456C135.902 42.1516 136.156 42.5888 136.356 43.0449C136.746 43.9376 136.912 44.8979 136.947 45.8664C136.989 47.0349 136.824 48.1779 136.661 49.3226C136.546 50.1343 136.43 50.9468 136.384 51.7691C136.376 51.9126 136.42 52.0195 136.481 52.0986C136.556 52.1954 136.666 52.2564 136.791 52.2733C136.829 52.2785 136.868 52.2793 136.908 52.2758C136.888 52.3549 136.871 52.4344 136.856 52.5141C136.935 52.4126 137.019 52.3142 137.108 52.219C137.114 52.2161 137.119 52.2132 137.125 52.2101C137.216 52.1599 137.294 52.0834 137.343 51.9849C137.468 51.8683 137.601 51.7576 137.741 51.6536C138.466 51.1123 139.314 50.7914 140.164 50.7808C140.984 50.7705 141.806 51.0495 142.437 51.6387C143.693 52.8096 144.061 54.7211 144.074 56.3623C144.087 58.0376 143.699 60.0482 142.238 61.0884C141.652 61.5056 140.936 61.7563 140.215 61.7636C139.617 61.7696 139.045 61.5581 138.481 61.3567C138.308 61.2946 138.135 61.2328 137.962 61.1767C137.766 61.1129 137.588 61.117 137.432 61.1636C137.257 61.2161 137.108 61.3246 136.997 61.4692C136.886 61.6133 136.813 61.7937 136.791 61.9827C136.769 62.1656 136.794 62.3555 136.871 62.5267C136.891 62.5698 136.911 62.6117 136.933 62.6526L136.611 63.1809C135.38 65.1984 134.128 67.1791 132.486 68.9132C131.543 69.9085 130.544 70.8478 129.448 71.67L129.29 71.7873C129.196 71.8567 129.091 71.9423 128.979 72.0338C128.659 72.2951 128.276 72.6457 127.919 72.6595C127.812 72.6636 127.72 72.6503 127.636 72.6393C127.432 72.6125 127.261 72.6047 127.093 72.6732C126.958 72.7282 126.818 72.8311 126.674 73.0434C126.577 73.1872 126.527 73.3674 126.527 73.5504C126.527 73.7341 126.577 73.9179 126.667 74.0632C126.853 74.364 127.079 74.5503 127.323 74.656C127.596 74.774 127.897 74.792 128.21 74.7336C128.981 74.5899 129.834 73.9516 130.377 73.535L130.482 73.4545C131.686 72.5369 132.827 71.5217 133.829 70.3862C135.537 68.4527 137.07 66.1741 137.858 63.6845C138.413 64.0491 139.099 64.2221 139.816 64.2494C140.861 64.2891 141.967 64.0204 142.782 63.6341C144.578 62.7828 145.669 61.1727 146.18 59.3211C146.774 57.1709 146.581 54.6989 145.829 52.7673C145.808 52.7111 145.785 52.6552 145.762 52.5984C148.075 46.739 148.787 40.2326 148.589 33.9796C148.496 31.0527 148.296 27.9819 147.606 25.1273C147.296 23.8479 146.758 22.6294 145.899 21.6222C145.409 21.0478 144.808 20.6006 144.205 20.1547C143.682 19.7685 143.157 19.3831 142.715 18.9008L142.506 18.6718C142.461 18.622 142.416 18.5723 142.371 18.5226C141.608 17.6825 140.866 16.8672 139.94 16.1782C138.867 15.3793 137.683 14.7539 136.452 14.2346C133.801 13.1162 130.947 12.4456 128.124 11.9268C122.017 10.8046 115.748 10.7492 109.715 12.3266C106.911 13.0599 104.189 14.0637 101.472 15.0662C101.219 15.1593 100.967 15.2524 100.715 15.3452C98.6031 16.1224 96.4903 16.8962 94.3775 17.67C93.3956 18.0297 92.4137 18.3893 91.4319 18.7493C91.2189 18.8274 91.0103 18.9957 90.8915 19.2048C90.7756 19.4089 90.7411 19.6468 90.8347 19.8837C91.4371 21.4094 92.1972 22.8407 93.1225 24.1774C92.801 24.396 92.5273 24.6867 92.3204 25.0269C92.0586 25.4573 91.9035 25.9668 91.893 26.5073C91.8577 28.3174 93.5058 29.5445 94.8731 30.432C95.0005 30.5148 95.1267 30.5637 95.2486 30.5861C93.9238 35.6494 92.6555 40.7299 91.5779 45.8506L91.5038 46.2056C90.3936 51.5647 89.6774 57.0338 90.7273 62.4641C91.6312 67.1403 93.7314 71.6532 97.0131 75.1368C100.229 78.5509 104.545 80.7001 109.214 81.1793ZM137.947 50.3501C138.518 48.5378 138.821 46.5659 138.602 44.7288C138.465 43.5739 138.117 42.4622 137.552 41.4443C137.228 40.8614 136.833 40.3217 136.402 39.8134L136.253 39.6427C136.178 39.5555 136.103 39.4754 136.08 39.3749C136.067 39.3165 136.08 39.2527 136.116 39.1764C136.194 39.0074 136.341 38.8446 136.477 38.6857C136.564 38.5847 136.649 38.4855 136.721 38.3891C137.973 36.6947 138.907 34.6776 138.603 32.529C138.307 30.4327 136.933 28.4787 135.469 27.0061C132.247 23.7636 127.252 23.0184 122.876 23.1973C120.328 23.3013 117.785 23.7501 115.359 24.5339C114.163 24.9206 112.993 25.3914 111.857 25.9311L111.605 26.0519C111.469 26.1176 111.333 26.1841 111.198 26.2507C110.309 26.6862 109.417 27.1259 108.453 27.3627C106.569 27.825 105.292 26.8513 103.949 25.8694C103.489 25.5329 103.021 25.1917 102.525 24.8923L102.422 24.8319C101.526 24.3127 100.455 23.9633 99.4252 23.979C98.5309 23.9926 97.6681 24.278 96.9657 24.9525C96.8215 25.091 96.7385 25.2422 96.6995 25.3927C96.6218 25.5016 96.5591 25.6315 96.5182 25.7849C96.2666 26.7286 96.0161 27.673 95.7664 28.6176L95.5623 28.4862C94.9576 28.0936 94.3001 27.6449 94.0032 26.9881C93.8889 26.7353 93.9051 26.3141 94.0491 26.0045C94.0995 25.8963 94.166 25.8001 94.258 25.7401C94.3249 25.6964 94.4056 25.6759 94.4993 25.6834C94.7272 25.7128 94.9365 25.6794 95.1139 25.6045C95.3185 25.518 95.4817 25.3758 95.5876 25.2044C95.696 25.0289 95.7455 24.8225 95.719 24.6085C95.6962 24.4245 95.617 24.2324 95.4602 24.0518C94.4286 22.8633 93.5598 21.5522 92.8995 20.1291L97.2671 18.5139C98.8244 17.9383 100.382 17.3635 101.94 16.7908L102.793 16.4775C105.627 15.4387 108.477 14.4235 111.423 13.7547C117.28 12.4257 123.386 12.738 129.226 13.9891L129.579 14.0653C132.029 14.5994 134.513 15.2456 136.762 16.3689C137.866 16.9202 138.916 17.5906 139.817 18.4376C140.215 18.8117 140.575 19.2212 140.935 19.6302C141.439 20.2034 141.945 20.775 142.544 21.2578L143.101 21.7034C143.929 22.3705 144.676 23.0204 145.144 24.055C145.632 25.1365 145.866 26.3314 146.056 27.4956C146.536 30.4283 146.725 33.4079 146.707 36.3785C146.677 41.3663 145.919 46.2525 144.961 51.1214C144.192 50.0222 143.113 49.1701 141.728 48.9884C140.824 48.8699 139.929 49.0382 139.152 49.4375C138.703 49.6682 138.294 49.976 137.947 50.3501V50.3501ZM139.398 56.2728C140.41 55.881 141.472 55.7528 142.542 55.9401C142.655 55.9596 142.762 55.9363 142.851 55.8841C142.943 55.8311 143.014 55.7474 143.053 55.655C143.098 55.5482 143.101 55.4325 143.061 55.3298C143.027 55.2407 142.961 55.1541 142.84 55.0963C141.681 54.5435 140.393 54.2995 139.114 54.4731L138.987 54.4911C138.334 54.588 137.415 54.7919 136.725 55.1933C136.184 55.5087 135.787 55.9435 135.689 56.5114C135.637 56.8074 135.711 57.1164 135.881 57.3403C136.046 57.5569 136.299 57.7012 136.625 57.692C137.201 57.6756 137.542 57.4323 137.952 57.1172C138.002 57.079 138.053 57.0398 138.106 57.0001C138.503 56.7036 138.936 56.4518 139.398 56.2728Z" fill="black"/>
<path fill-rule="evenodd" clip-rule="evenodd" d="M108.408 67.8506C109.426 67.4356 110.334 66.7433 110.998 65.859C111.229 65.5515 111.288 65.2269 111.24 64.93C111.186 64.5961 110.988 64.2935 110.718 64.0905C110.448 63.8869 110.11 63.7865 109.783 63.8377C109.499 63.8822 109.216 64.0376 108.992 64.3601L108.946 64.4246C108.551 64.9583 108.036 65.3963 107.45 65.6785C106.885 65.9506 106.254 66.0776 105.6 66.0037C104.355 65.8632 103.497 65.1901 102.584 64.2761C102.471 64.1607 102.358 64.0416 102.244 63.9207C102.173 63.8111 102.073 63.7406 101.962 63.7037C101.84 63.6626 101.701 63.6649 101.573 63.7093C101.451 63.7521 101.341 63.8333 101.267 63.9413C101.197 64.0439 101.158 64.1707 101.171 64.3165C101.254 65.2638 101.75 66.1091 102.453 66.7729C103.235 67.5102 104.271 68.0202 105.247 68.1991C106.321 68.3961 107.416 68.2549 108.408 67.8506V67.8506ZM104.74 53.2376C103.596 53.9322 101.854 55.552 103.084 57.2741C104.532 58.7925 106.616 57.0515 107.644 56.2642C108.596 55.6539 109.666 57.2234 108.783 57.9359C101.36 63.4287 98.3477 53.4192 104.161 52.4208C104.801 52.3108 105.039 53.0227 104.74 53.2376ZM118.041 46.848C117.915 45.2807 115.526 44.9248 115.289 46.4757C115.076 47.865 115.327 49.1412 115.953 50.392C116.551 51.587 118.054 51.0295 118.168 49.9414C118.321 48.4828 118.12 47.8229 118.041 46.848ZM99.8623 46.1541C99.5293 45.7183 99.0486 45.4208 98.4726 45.5889C96.6731 46.1145 97.2035 48.668 97.8355 49.9109C98.1789 50.5859 99.2889 50.757 99.7905 50.1627C100.608 49.1936 101 47.2581 99.9602 46.3035C99.9321 46.2542 99.9007 46.2044 99.8623 46.1541ZM115.978 39.99L115.694 39.9403C114.814 39.7883 113.721 39.6422 113.099 40.3489C112.769 40.7236 112.656 41.42 113.099 41.7787C113.879 42.4098 114.742 42.1652 115.676 42.2186C116.447 42.2628 117.187 42.3902 117.929 42.6023C119.557 43.0673 120.884 43.9163 122.274 44.8486C122.456 44.9708 122.643 44.7376 122.556 44.5671C121.753 42.9957 120.198 41.705 118.64 40.9182C117.808 40.4982 116.898 40.1498 115.978 39.99ZM101.503 39.2861L101.285 39.3306C98.9175 39.8253 95.8414 40.8134 94.7202 43.1379C94.6775 43.4666 94.7227 43.537 94.7594 43.583L94.7716 43.5984C94.8018 43.6377 94.826 43.6918 94.9685 43.7366C95.0081 43.7272 95.048 43.7172 95.0884 43.7066C95.6023 43.572 96.0089 43.3865 96.4026 43.1941L96.8294 42.9839C97.3246 42.7412 97.8241 42.5074 98.3536 42.3347C99.4834 41.9664 100.646 41.7069 101.826 41.5684C102.081 41.5384 102.328 41.4521 102.522 41.3042C102.706 41.1638 102.847 40.9695 102.912 40.7111C102.995 40.3768 102.971 40.1237 102.792 39.8221C102.657 39.5956 102.463 39.4386 102.242 39.3485C102.016 39.2566 101.758 39.2349 101.503 39.2861Z" fill="black"/>
<path fill-rule="evenodd" clip-rule="evenodd" d="M137.805 51.9342C136.734 51.9342 136.296 54.4244 136.296 54.4244C133.574 59.1152 130.955 63.7928 126.28 67.0201C121.091 69.0985 115.987 72.6383 110.075 73.0264C107.409 72.7467 106.627 70.3081 103.336 71.1662C101.235 71.6762 98.8773 72.6821 96.9356 71.2292C95.2943 70.1568 94.1396 68.5324 92.7239 67.219C92.6518 66.982 92.1816 69.4828 92.3237 70.3281L92.4334 70.808C93.31 74.6781 94.1964 79.2322 98.1188 81.3595C99.3138 81.9888 100.99 82.5961 102.316 82.2414C109.323 83.3582 116.923 82.541 123.062 79.0474C125.223 78.4862 126.831 76.7636 128.533 75.4624C132.695 71.8183 137.465 67.2021 137.91 61.6661C138.354 56.1301 138.156 51.9342 137.805 51.9342ZM116.634 62.8654C114.249 59.0375 109.511 59.6591 105.824 61.4031C103.787 60.0209 101.1 60.2754 98.8902 61.2491L98.8905 61.2504C96.855 62.3634 95.3134 64.191 93.8963 65.939C93.5515 66.4035 93.4144 67.0274 93.8993 67.2564C96.1836 69.1382 100.929 68.0338 103.083 66.6347C104.637 66.5095 104.296 64.3044 106.09 65.8477C107.287 66.9722 108.79 67.6694 110.423 68.0826C114.075 69.3357 117.437 69.1275 120.617 67.1743C121.026 67.1347 122.701 66.1873 122.106 65.8502C121.458 66.025 117.87 63.9665 116.634 62.8654Z" fill="white"/>
<path fill-rule="evenodd" clip-rule="evenodd" d="M138.362 56.0494C138.338 55.8481 138.025 55.8381 138.018 56.0494C137.873 60.4784 136.43 65.3341 133.99 69.1262C128.125 78.698 116.155 83.4929 104.633 81.8454C96.2136 81.7313 95.3142 76.9627 93.2213 70.304C92.1351 69.4126 91.6015 69.732 91.9388 70.7769C94.5331 78.8119 95.4214 83.4204 105.686 83.3329C122.168 85.6843 140.042 72.2146 138.362 56.0494ZM115.077 59.6209C112.388 58.421 109.188 58.5903 106.942 60.2495L106.784 60.2856C106.391 60.3735 106.013 60.4403 105.571 60.3954C99.6276 57.268 95.6598 62.7221 92.6125 66.8058C92.3827 66.8136 92.1954 66.9939 92.2576 67.2051L92.16 67.3094C92.5439 68.3384 93.2375 69.3318 94.1859 69.9559C97.2954 74.0943 99.6174 72.8006 103.669 71.0966C107.834 70.4733 108.003 75.3815 113.815 73.1331L114.034 73.0617C115.946 72.4305 118.141 71.4732 119.531 70.0898C119.576 70.0445 119.532 69.9571 119.462 69.9798C116.237 70.9516 112.09 74.1246 108.808 71.9868C107.978 71.4303 107.233 70.7546 106.305 70.3354C101.009 68.5643 99.1482 75.559 94.5141 68.2971C98.2875 68.9544 102.541 68.3009 105.361 65.7329C109.578 70.8087 117.784 69.9954 123.002 66.8427C123.716 66.9454 124.772 66.2399 124.114 65.5683C123.396 64.9972 122.258 65.221 121.374 64.9113C118.554 63.9083 117.888 60.7112 115.077 59.6209ZM105.65 61.7434C108.631 59.6244 113.088 59.2676 115.94 61.7673C117.721 63.5555 118.877 66.1215 121.748 66.5944C116.817 69.4316 109.731 69.4792 105.934 64.9651C105.815 64.5748 105.197 64.7431 105.122 65.0823C102.404 66.9784 98.926 67.986 95.5394 67.4046C94.9936 67.3151 94.4545 67.1877 93.9289 67.0241L94.4287 66.3374C97.0863 62.7028 100.505 58.4705 105.574 61.4597C105.689 61.5177 105.737 61.3694 105.752 61.2933L105.814 61.3388C105.769 61.4327 105.395 61.742 105.65 61.7434ZM93.4465 68.0546C93.4216 68.0769 93.4012 68.1012 93.3837 68.1266C93.3003 68.0832 93.2138 68.0391 93.1249 67.9969L93.1489 67.9792C93.2445 68.0063 93.3441 68.0314 93.4465 68.0546ZM137.979 50.5534L137.98 50.4082C137.98 48.9463 137.586 50.7894 137.41 51.1519C136.651 52.5174 136.017 53.8686 135.213 55.1997C131.99 60.9958 131.491 63.508 124.996 66.8097C124.513 67.2227 125.02 67.9639 125.62 67.8115C126.516 67.5837 127.362 67.0128 128.143 66.5523C132.565 64.2724 134.215 59.6216 136.199 55.5737C136.782 53.9686 138.126 52.2562 137.979 50.5534Z" fill="black"/>
<path fill-rule="evenodd" clip-rule="evenodd" d="M88.6485 49.29C90.092 59.0496 100.169 60.1289 101.959 50.44C101.672 50.3142 101.465 50.0666 101.508 49.586C101.519 47.4745 100.863 45.2429 98.9571 44.0687C96.9879 42.8571 94.6833 42.7369 92.4045 42.7675C88.0557 42.664 88.1472 46.2971 88.6485 49.29M103.537 45.0454C104.902 44.9879 106.628 45.036 107.851 45.8672C108.187 44.9625 109.06 43.9965 109.943 43.48C106.663 43.5759 103.287 43.2533 99.9825 43.0028C100.773 43.5417 101.509 44.3514 101.988 45.2874C102.431 45.0509 103.067 45.073 103.537 45.0454M109.553 50.3247C113.337 63.3451 122.784 57.67 123.813 56.0013C125.671 53.24 126.021 46.5276 124.402 44.7329C122.086 43.11 118.807 43.5277 116.071 43.4879C111.044 43.5557 107.474 45.0587 109.553 50.3247M84.18 44.3361C85.2082 44.2017 86.307 44.1746 87.2629 44.6271C87.5573 43.3766 88.4813 42.3312 89.5247 41.8711C89.651 41.7128 89.632 41.6278 90.0634 41.6515C92.7123 40.8558 95.6764 41.2768 98.2219 42.0928C102.242 42.4312 106.46 42.698 110.514 43.1643C114.311 41.4596 125.772 41.2098 126.484 45.4114C127.38 45.2774 128.906 44.5726 129.659 45.5286C135.181 44.5929 140.887 45.8934 146.432 46.4725C147.828 46.7295 148.548 49.4987 146.963 49.4608C146.072 49.2192 146.99 47.7365 145.791 47.625C140.44 47.0408 135.206 46.2121 129.8 46.1151C129.988 47.0481 126.225 47.1088 126.169 46.5639C126.161 46.568 126.153 46.5708 126.145 46.5744C127.074 50.0385 126.235 55.0238 124.554 57.1719C122.2 59.9847 116.288 60.7916 113.667 58.9819C110.285 57.3116 106.768 48.9272 107.756 46.1417C105.962 45.5736 104.19 45.7441 102.328 46.0335C102.754 47.2365 103.49 50.1979 102.432 50.4547C102.626 56.3341 97.2727 60.0027 92.3377 57.5908C88.0663 55.5867 86.5725 49.2429 87.0952 45.3924C86.5634 46.4194 82.0987 45.3013 84.18 44.3361" fill="black"/>
</g>
<defs>
<clipPath id="clip0">
<rect width="184" height="184" fill="white"/>
</clipPath>
</defs>
</svg>
