<svg width="184" height="184" viewBox="0 0 184 184" fill="none" xmlns="http://www.w3.org/2000/svg">
<g clip-path="url(#clip0)">
<path fill-rule="evenodd" clip-rule="evenodd" d="M50.6732 47.4437C50.5215 47.5219 50.3076 47.5403 50.1978 47.4845C50.088 47.4288 49.9725 47.4336 49.9412 47.4953C49.9098 47.5571 49.7832 47.5563 49.6597 47.4936C49.5363 47.4309 49.4097 47.4301 49.3783 47.4918C49.347 47.5535 49.2423 47.5638 49.1457 47.5148C49.0491 47.4657 48.596 47.5532 48.1386 47.709C47.6812 47.8649 47.2392 47.958 47.1563 47.9159C47.0733 47.8737 46.8814 47.9033 46.7297 47.9815C46.578 48.0597 46.3854 48.089 46.3016 48.0464C46.2178 48.0038 45.8526 48.0724 45.49 48.1988C45.1274 48.3251 44.7723 48.3989 44.7009 48.3626C44.6296 48.3264 44.2745 48.4001 43.9119 48.5264C43.5492 48.6528 43.1841 48.7214 43.1002 48.6788C43.0164 48.6363 42.8238 48.6655 42.6722 48.7437C42.5205 48.8219 42.3268 48.8506 42.2417 48.8074C42.1568 48.7642 41.8686 48.8085 41.6017 48.9058C41.3347 49.0031 41.0558 49.052 40.9818 49.0144C40.9079 48.9768 40.6289 49.0257 40.362 49.123C40.095 49.2203 39.8161 49.2692 39.7421 49.2317C39.6682 49.1941 39.3892 49.243 39.1223 49.3403C38.8553 49.4376 38.5764 49.4865 38.5024 49.4489C38.4285 49.4114 38.1495 49.4602 37.8826 49.5575C37.6156 49.6549 37.3367 49.7037 37.2627 49.6662C37.1888 49.6286 36.9098 49.6775 36.6429 49.7748C36.3759 49.8721 36.097 49.921 36.023 49.8834C35.9491 49.8459 35.6701 49.8948 35.4032 49.9921C35.1362 50.0894 34.8481 50.1336 34.7631 50.0904C34.6781 50.0472 34.4844 50.0759 34.3327 50.1541C34.1406 50.2532 33.9282 50.231 33.6328 50.0809C33.2836 49.9036 33.2289 49.8259 33.3228 49.6411C33.3855 49.5177 33.4873 49.4423 33.549 49.4737C33.6107 49.505 33.7895 49.2782 33.9462 48.9696C34.103 48.6611 34.2817 48.4342 34.3434 48.4656C34.4051 48.4969 34.5326 48.3711 34.6266 48.1859C34.7207 48.0008 34.8481 47.875 34.9099 47.9063C34.9716 47.9377 35.1503 47.7108 35.3071 47.4022C35.4638 47.0937 35.6426 46.8668 35.7043 46.8982C35.7667 46.9299 35.9685 46.6559 36.1585 46.2819C36.3485 45.9079 36.5503 45.634 36.6127 45.6657C36.6744 45.697 36.8275 45.5207 36.9529 45.2738C37.0783 45.0269 37.1304 44.7993 37.0687 44.768C37.007 44.7366 36.9975 44.6303 37.0477 44.5315C37.0978 44.4329 37.0592 44.1337 36.9619 43.8667C36.8646 43.5997 36.8139 43.3244 36.8492 43.2549C36.9511 43.0543 36.4106 41.5305 36.2824 41.6571C36.2197 41.719 36.0717 41.7205 35.9534 41.6604C35.835 41.6003 35.7127 41.6016 35.6813 41.6633C35.65 41.725 35.4958 41.7103 35.3387 41.6305C34.9149 41.4152 34.2644 41.6736 34.0202 42.1543C33.9091 42.3731 33.7677 42.5264 33.706 42.4951C33.6442 42.4637 33.4911 42.6401 33.3657 42.8869C33.2403 43.1338 33.0872 43.3101 33.0255 43.2788C32.9638 43.2474 32.8107 43.4237 32.6853 43.6706C32.5599 43.9175 32.4068 44.0938 32.3451 44.0625C32.2834 44.0311 32.1046 44.2579 31.9479 44.5665C31.7911 44.8751 31.6124 45.1019 31.5507 45.0706C31.4889 45.0392 31.3102 45.2661 31.1534 45.5746C30.9967 45.8832 30.8179 46.11 30.7562 46.0787C30.6945 46.0473 30.5671 46.1732 30.473 46.3583C30.379 46.5435 30.2515 46.6693 30.1898 46.638C30.1281 46.6066 29.975 46.7829 29.8496 47.0298C29.7242 47.2767 29.5711 47.453 29.5094 47.4217C29.447 47.39 29.2451 47.6639 29.0551 48.0379C28.8652 48.4119 28.6633 48.6859 28.6009 48.6542C28.5392 48.6228 28.4118 48.7487 28.3177 48.9338C28.2237 49.119 28.0962 49.2448 28.0345 49.2135C27.9728 49.1821 27.8766 49.2463 27.8209 49.3561C27.7651 49.4659 27.5815 49.5772 27.4129 49.6035C27.1544 49.6438 27.0409 49.78 26.6904 50.4699L26.2746 51.2885L25.0082 51.7017C24.3117 51.9289 23.6653 52.076 23.5717 52.0285C23.4781 51.9809 23.3759 51.9926 23.3446 52.0543C23.3132 52.116 23.2079 52.126 23.1105 52.0765C23.013 52.027 22.6367 52.09 22.2741 52.2163C21.9115 52.3427 21.5564 52.4164 21.485 52.3802C21.4137 52.3439 21.0586 52.4176 20.696 52.544C20.3333 52.6704 19.9682 52.739 19.8843 52.6964C19.8005 52.6538 19.6079 52.683 19.4563 52.7613C19.3046 52.8395 19.112 52.8687 19.0282 52.8262C18.9444 52.7836 18.5792 52.8522 18.2166 52.9785C17.8539 53.1049 17.4989 53.1786 17.4275 53.1424C17.3561 53.1061 17.0011 53.1799 16.6384 53.3062C16.2758 53.4326 15.8995 53.4955 15.802 53.446C15.6998 53.3941 15.5768 53.4509 15.5109 53.5805C15.4396 53.7209 15.3221 53.7669 15.1973 53.7035C15.0875 53.6477 14.8736 53.6661 14.7219 53.7443C14.5702 53.8226 14.3563 53.841 14.2464 53.7851C14.1217 53.7218 14.0041 53.7678 13.9328 53.9082C13.867 54.0378 13.744 54.0946 13.6417 54.0426C13.5442 53.9931 13.1679 54.0561 12.8053 54.1824C12.4427 54.3088 12.0866 54.382 12.014 54.3451C11.9413 54.3082 11.6634 54.3576 11.3964 54.4549C11.1294 54.5522 10.8413 54.5964 10.7564 54.5533C10.6713 54.5101 10.4776 54.5387 10.3259 54.617C10.164 54.7004 9.92141 54.6938 9.73828 54.6008L9.42644 54.4424L8.99745 55.2869L8.5684 56.1315L8.81547 56.8884C8.95123 57.3048 9.13946 57.6846 9.23372 57.7325C9.32786 57.7803 9.3793 57.87 9.34795 57.9317C9.31541 57.9958 9.62759 58.2149 10.0764 58.4429C10.5253 58.6709 10.8864 58.7938 10.9189 58.7297C10.9503 58.668 11.0658 58.6631 11.1755 58.7189C11.2854 58.7747 11.4993 58.7563 11.651 58.6781C11.8027 58.5998 11.9941 58.57 12.0765 58.6119C12.1588 58.6537 12.6776 58.5361 13.2291 58.3504C13.7807 58.1647 14.2903 58.0424 14.3614 58.0786C14.4327 58.1148 14.7095 58.0648 14.9764 57.9675C15.2434 57.8702 15.5224 57.8213 15.5963 57.8589C15.6702 57.8964 15.9492 57.8475 16.2162 57.7502C16.4831 57.6529 16.7824 57.6143 16.881 57.6645C16.9856 57.7176 17.108 57.662 17.1744 57.5312C17.2457 57.3908 17.3633 57.3448 17.4881 57.4082C17.5979 57.464 17.8118 57.4456 17.9635 57.3673C18.1152 57.2891 18.3089 57.2604 18.3939 57.3037C18.4789 57.3468 18.767 57.3026 19.034 57.2053C19.3009 57.108 19.5757 57.057 19.6445 57.0919C19.8344 57.1884 22.29 56.3535 22.3888 56.159C22.4372 56.0637 22.5739 56.039 22.6997 56.1029C22.8231 56.1656 22.9497 56.1664 22.9811 56.1046C23.0124 56.0429 23.1683 56.0586 23.3274 56.1394C23.5182 56.2363 23.8411 56.2082 24.276 56.0566C24.6386 55.9302 25.0038 55.8616 25.0876 55.9042C25.1714 55.9468 25.364 55.9176 25.5157 55.8393C25.6674 55.7611 25.8585 55.7311 25.9404 55.7727C26.0223 55.8144 26.6175 55.672 27.263 55.4564C27.9086 55.2409 28.5038 55.0985 28.5857 55.1401C28.6676 55.1817 28.8587 55.1518 29.0104 55.0735C29.1621 54.9953 29.376 54.9769 29.4858 55.0327C29.5956 55.0885 29.7257 55.0548 29.775 54.9578C29.8849 54.7415 30.2942 54.5963 30.4996 54.7007C30.583 54.7431 30.7753 54.7137 30.9269 54.6354C31.0786 54.5572 31.2925 54.5388 31.4024 54.5946C31.5272 54.658 31.6447 54.612 31.716 54.4716C31.7818 54.342 31.9048 54.2852 32.0071 54.3371C32.1046 54.3867 32.4809 54.3237 32.8435 54.1973C33.2061 54.071 33.5713 54.0024 33.6551 54.0449C33.7389 54.0875 33.9315 54.0583 34.0832 53.9801C34.2349 53.9018 34.425 53.8714 34.5058 53.9124C34.5866 53.9534 35.5634 53.6873 36.6766 53.3211C37.7898 52.9549 38.7666 52.6888 38.8474 52.7298C38.9282 52.7709 39.1183 52.7404 39.27 52.6622C39.4217 52.5839 39.6356 52.5655 39.7454 52.6214C39.8552 52.6771 39.9707 52.6723 40.0021 52.6105C40.0867 52.4439 40.4002 52.642 40.4905 52.9192C40.5841 53.2056 39.6656 55.1218 39.4801 55.0276C39.4136 54.9938 39.1589 55.3821 38.8549 55.9805C38.5509 56.5789 38.2962 56.9672 38.2297 56.9334C38.1656 56.9008 37.9464 57.213 37.7184 57.6619C37.4904 58.1107 37.2713 58.4229 37.2072 58.3904C37.1399 58.3561 36.867 58.7822 36.525 59.4555C36.183 60.1287 35.9101 60.5548 35.8428 60.5206C35.7804 60.4889 35.5785 60.7629 35.3886 61.1369C35.1986 61.5109 34.9967 61.7848 34.9343 61.7531C34.8726 61.7218 34.6939 61.9486 34.5371 62.2572C34.3804 62.5658 34.2016 62.7926 34.1399 62.7612C34.0758 62.7287 33.8567 63.0409 33.6287 63.4897C33.4007 63.9386 33.1815 64.2508 33.1175 64.2182C33.0557 64.1869 32.9026 64.3632 32.7772 64.6101C32.6518 64.8569 32.4987 65.0332 32.437 65.0019C32.3753 64.9705 32.2479 65.0964 32.1538 65.2815C32.0598 65.4667 31.9323 65.5925 31.8706 65.5612C31.8089 65.5298 31.6814 65.6557 31.5874 65.8408C31.4933 66.026 31.3659 66.1518 31.3042 66.1204C31.2425 66.0891 31.1407 66.1644 31.078 66.2879C31.0153 66.4113 30.9135 66.4866 30.8517 66.4553C30.79 66.4239 30.623 66.6278 30.4805 66.9083C30.2814 67.3002 30.1252 67.4498 29.806 67.5538C29.413 67.6821 29.321 67.654 28.0951 67.0313C27.3062 66.6306 26.8219 66.3293 26.8566 66.261C26.8879 66.1993 26.7116 66.0462 26.4647 65.9208C26.2179 65.7954 26.0415 65.6423 26.0729 65.5806C26.1042 65.5189 25.9784 65.3914 25.7933 65.2974C25.6081 65.2033 25.4823 65.0759 25.5136 65.0141C25.545 64.9524 25.4696 64.8506 25.3462 64.7879C25.2228 64.7252 25.1474 64.6234 25.1788 64.5617C25.2101 64.5 25.0843 64.3725 24.8991 64.2785C24.714 64.1844 24.5882 64.057 24.6195 63.9953C24.6509 63.9336 24.5866 63.8374 24.4769 63.7817C24.367 63.7259 24.2557 63.5423 24.2295 63.3736C24.2032 63.205 24.103 63.0271 24.0068 62.9782C23.9107 62.9294 23.8105 62.7514 23.7842 62.5828C23.7579 62.4142 23.6466 62.2306 23.5368 62.1748C23.427 62.119 23.3628 62.0229 23.3941 61.9611C23.4255 61.8994 23.3704 61.808 23.2717 61.7578C23.1731 61.7077 23.0277 61.4433 22.9489 61.1703C22.87 60.8973 22.7247 60.6329 22.626 60.5828C22.5273 60.5326 22.4722 60.4412 22.5036 60.3794C22.5882 60.2128 22.2434 60.0765 21.9662 60.167C21.8098 60.218 21.6023 60.4864 21.3778 60.9282L21.0313 61.6104L21.7761 63.8933C22.1858 65.1488 22.5861 66.2092 22.6655 66.2495C22.7451 66.29 22.8316 66.4609 22.8578 66.6296C22.8842 66.7987 23.0344 67.0016 23.1927 67.082C23.351 67.1624 23.5012 67.3653 23.5275 67.5344C23.5538 67.7031 23.6651 67.8867 23.775 67.9425C23.8847 67.9982 23.9489 68.0944 23.9176 68.1561C23.8862 68.2178 24.0121 68.3452 24.1972 68.4393C24.3824 68.5333 24.5082 68.6608 24.4769 68.7225C24.4455 68.7842 24.5713 68.9117 24.7565 69.0057C24.9416 69.0998 25.0675 69.2272 25.0361 69.2889C25.0048 69.3507 25.0801 69.4524 25.2036 69.5151C25.327 69.5778 25.4023 69.6796 25.371 69.7414C25.3396 69.8031 25.5664 69.9818 25.875 70.1386C26.3612 70.3856 26.4209 70.4535 26.3221 70.648C26.2594 70.7714 26.2586 70.8981 26.3203 70.9294C26.382 70.9608 26.3812 71.0874 26.3185 71.2109C26.2558 71.3343 26.154 71.4096 26.0923 71.3783C26.0306 71.3469 25.9031 71.4728 25.8091 71.6579C25.715 71.8431 25.5876 71.9689 25.5259 71.9375C25.4641 71.9062 25.3623 71.9815 25.2996 72.105C25.2369 72.2284 25.1352 72.3037 25.0734 72.2724C25.0117 72.241 24.9099 72.3164 24.8472 72.4398C24.7845 72.5633 24.6827 72.6386 24.621 72.6072C24.5593 72.5759 24.4575 72.6512 24.3948 72.7747C24.3321 72.8981 24.2303 72.9734 24.1686 72.9421C24.1069 72.9107 24.0051 72.9861 23.9424 73.1095C23.8797 73.2329 23.7779 73.3083 23.7162 73.2769C23.6544 73.2456 23.5373 73.3511 23.4558 73.5116C23.3647 73.6909 23.1165 73.8584 22.8113 73.9466C22.5061 74.0348 22.2579 74.2024 22.1668 74.3817C22.0853 74.5421 21.9682 74.6477 21.9064 74.6163C21.8447 74.585 21.7173 74.7108 21.6232 74.8959C21.5292 75.0811 21.4017 75.2069 21.34 75.1756C21.2783 75.1442 21.1765 75.2196 21.1138 75.343C21.0511 75.4664 20.9493 75.5418 20.8876 75.5104C20.8259 75.4791 20.7297 75.5433 20.674 75.653C20.6182 75.7629 20.4346 75.8742 20.2659 75.9005C20.0973 75.9268 19.9137 76.0381 19.8579 76.1479C19.8022 76.2577 19.706 76.3219 19.6443 76.2905C19.5826 76.2592 19.4864 76.3234 19.4307 76.4332C19.3749 76.543 19.1913 76.6543 19.0227 76.6806C18.854 76.7069 18.6704 76.8182 18.6146 76.928C18.5589 77.0378 18.4627 77.102 18.401 77.0706C18.3393 77.0393 18.2375 77.1146 18.1748 77.2381C18.1121 77.3615 18.0103 77.4368 17.9486 77.4055C17.8869 77.3741 17.7851 77.4495 17.7224 77.5729C17.6597 77.6964 17.5579 77.7717 17.4962 77.7403C17.4344 77.709 17.2813 77.8853 17.1559 78.1322C17.0305 78.3791 16.8774 78.5554 16.8157 78.524C16.754 78.4927 16.6579 78.5569 16.6021 78.6667C16.5463 78.7765 16.3627 78.8878 16.1941 78.9141C16.0255 78.9404 15.8475 79.0406 15.7987 79.1367C15.7498 79.2329 15.5719 79.3331 15.4032 79.3594C15.2346 79.3856 15.051 79.4969 14.9952 79.6068C14.9395 79.7165 14.8433 79.7808 14.7816 79.7494C14.7199 79.7181 14.6181 79.7934 14.5554 79.9168C14.4927 80.0403 14.3909 80.1156 14.3292 80.0843C14.2674 80.0529 14.1713 80.1171 14.1155 80.2269C14.0597 80.3367 13.8762 80.448 13.7075 80.4743C13.5389 80.5006 13.3553 80.6119 13.2995 80.7217C13.2437 80.8315 13.1476 80.8957 13.0859 80.8644C13.0242 80.833 12.9224 80.9084 12.8597 81.0318C12.7837 81.1814 12.6708 81.2182 12.5212 81.1422C12.393 81.0771 12.2588 81.1031 12.2082 81.2027C12.1594 81.2988 11.6655 81.5208 11.1105 81.6961C10.5556 81.8715 10.0734 82.0704 10.039 82.1381C10.0046 82.2059 9.36941 82.4558 8.62755 82.6935C7.25918 83.1318 6.95929 83.3598 7.11664 83.8418C7.17566 84.0229 7.5149 84.2458 8.46915 84.7305C9.61404 85.3121 9.77065 85.3631 10.0186 85.2353C10.3034 85.0883 10.7374 85.2097 10.6366 85.4081C10.6053 85.4698 10.6806 85.5716 10.804 85.6343C10.9536 85.7103 11.0665 85.6734 11.1425 85.5238C11.2185 85.3743 11.3313 85.3374 11.4809 85.4134C11.6043 85.4761 11.731 85.4769 11.7623 85.4152C11.7937 85.3535 12.0213 85.4056 12.2682 85.531C12.515 85.6564 12.7427 85.7085 12.774 85.6468C12.8054 85.5851 12.9096 85.5745 13.0055 85.6232C13.1016 85.672 13.6314 85.56 14.1829 85.3743C14.7345 85.1887 15.2643 85.0766 15.3604 85.1254C15.4563 85.1742 15.5605 85.1636 15.5918 85.1019C15.6232 85.0401 15.7768 85.0546 15.9331 85.134C16.3121 85.3266 17.3425 84.9904 17.535 84.6113C17.6144 84.455 17.7299 84.3528 17.7916 84.3841C17.8533 84.4155 17.9551 84.3401 18.0178 84.2167C18.0805 84.0933 18.1823 84.0179 18.244 84.0493C18.3058 84.0806 18.3967 84.0266 18.4462 83.9292C18.4957 83.8317 18.8367 83.6606 19.2041 83.5488C19.5715 83.437 19.9068 83.277 19.9494 83.1932C19.992 83.1094 20.1648 83.0194 20.3334 82.9931C20.502 82.9668 20.6856 82.8555 20.7414 82.7457C20.7972 82.6359 20.8933 82.5717 20.955 82.603C21.0167 82.6344 21.1386 82.5197 21.2256 82.3482C21.3187 82.1651 21.5107 82.0167 21.6907 81.9886C21.8593 81.9623 22.0373 81.8621 22.0861 81.7659C22.135 81.6698 22.3129 81.5696 22.4815 81.5433C22.6502 81.517 22.8337 81.4057 22.8896 81.2959C22.9453 81.1861 23.0415 81.1219 23.1032 81.1532C23.1649 81.1846 23.2923 81.0588 23.3864 80.8736C23.4804 80.6885 23.6079 80.5626 23.6696 80.594C23.7313 80.6253 23.8331 80.55 23.8958 80.4266C23.9585 80.3031 24.0603 80.2278 24.122 80.2591C24.1837 80.2905 24.2855 80.2151 24.3482 80.0917C24.4109 79.9683 24.5127 79.8929 24.5745 79.9243C24.6362 79.9556 24.7533 79.8501 24.8348 79.6896C24.9259 79.5103 25.1741 79.3428 25.4793 79.2546C25.7523 79.1757 26.0167 79.0304 26.0668 78.9318C26.117 78.833 26.2085 78.778 26.2702 78.8093C26.3319 78.8407 26.485 78.6643 26.6104 78.4175C26.7358 78.1706 26.8889 77.9943 26.9506 78.0256C27.0123 78.057 27.1341 77.9423 27.2212 77.7708C27.3142 77.5877 27.5062 77.4393 27.6862 77.4112C27.8549 77.3849 28.0385 77.2736 28.0943 77.1637C28.15 77.054 28.2462 76.9897 28.3079 77.0211C28.3696 77.0525 28.4714 76.9771 28.5341 76.8537C28.5968 76.7302 28.6986 76.6549 28.7603 76.6863C28.822 76.7176 28.9495 76.5918 29.0435 76.4066C29.1376 76.2215 29.265 76.0956 29.3267 76.127C29.3885 76.1583 29.5159 76.0325 29.61 75.8474C29.704 75.6622 29.8315 75.5364 29.8932 75.5677C29.9549 75.5991 30.108 75.4227 30.2334 75.1759C30.3588 74.929 30.5119 74.7527 30.5736 74.784C30.6353 74.8154 30.7628 74.6895 30.8568 74.5044C30.9509 74.3192 31.0783 74.1934 31.14 74.2248C31.2018 74.2561 31.3035 74.1808 31.3662 74.0573C31.4422 73.9078 31.5551 73.8709 31.7047 73.9469C31.8281 74.0096 31.9547 74.0104 31.9861 73.9487C32.0689 73.7858 32.6987 74.1372 32.6919 74.3425C32.6872 74.4813 32.7135 74.4946 32.8228 74.409C32.898 74.3501 33.1571 74.4024 33.399 74.5252C33.6408 74.6481 33.8641 74.698 33.8955 74.6363C33.9268 74.5746 34.104 74.601 34.2891 74.6951C34.4743 74.7891 34.6514 74.8156 34.6828 74.7539C34.7141 74.6922 34.9417 74.7443 35.1886 74.8697C35.4355 74.9951 35.6631 75.0472 35.6945 74.9855C35.7258 74.9237 35.9534 74.9759 36.2003 75.1013C36.4472 75.2267 36.6748 75.2788 36.7062 75.217C36.7379 75.1547 37.0624 75.2569 37.4364 75.4468C37.8104 75.6368 38.135 75.739 38.1667 75.6766C38.1981 75.6149 38.3136 75.6101 38.4233 75.6658C38.5332 75.7216 38.7471 75.7032 38.8988 75.625C39.0607 75.5416 39.3033 75.5482 39.4864 75.6412C39.6579 75.7283 39.8239 75.7491 39.8553 75.6874C39.8866 75.6257 40.0526 75.6465 40.2241 75.7336C40.4072 75.8266 40.6498 75.8332 40.8117 75.7498C40.9634 75.6715 41.1773 75.6531 41.2872 75.7089C41.3969 75.7647 41.5125 75.7598 41.5438 75.6981C41.5752 75.6364 41.731 75.652 41.8901 75.7329C42.081 75.8298 42.4038 75.8017 42.8387 75.6501C43.2013 75.5237 43.5776 75.4608 43.6751 75.5103C43.7725 75.5598 43.8779 75.5497 43.9092 75.488C43.9406 75.4263 44.0957 75.4416 44.254 75.522C44.4517 75.6225 44.8022 75.5795 45.3733 75.3848C45.8307 75.2289 46.2838 75.1414 46.3804 75.1905C46.477 75.2396 46.5817 75.2292 46.613 75.1675C46.6444 75.1058 46.771 75.1066 46.8945 75.1693C47.0179 75.232 47.1445 75.2328 47.1759 75.1711C47.2072 75.1094 47.3122 75.0992 47.4092 75.1484C47.6162 75.2536 48.0401 75.1372 48.1357 74.949C48.1724 74.8767 48.4258 74.753 48.6988 74.6742C49.0502 74.5726 49.2484 74.4258 49.3774 74.1719C49.5064 73.918 49.7047 73.7712 50.0561 73.6696C50.3613 73.5815 50.6095 73.4139 50.7006 73.2346C50.8354 72.9692 50.8084 72.9225 50.3999 72.715C50.153 72.5895 49.9254 72.5374 49.894 72.5992C49.8627 72.6609 49.736 72.6601 49.6126 72.5974C49.4892 72.5347 49.3625 72.5339 49.3312 72.5956C49.2998 72.6573 49.1732 72.6565 49.0498 72.5938C48.9263 72.5311 48.7997 72.5303 48.7683 72.592C48.737 72.6537 48.5598 72.6273 48.3747 72.5332C48.1895 72.4392 48.0124 72.4127 47.9811 72.4744C47.9497 72.5361 47.7726 72.5097 47.5874 72.4156C47.4023 72.3216 47.2251 72.2951 47.1938 72.3568C47.1624 72.4185 47.0358 72.4177 46.9124 72.355C46.7889 72.2923 46.6623 72.2915 46.6309 72.3532C46.5996 72.415 46.4729 72.4142 46.3495 72.3515C46.2261 72.2888 46.0994 72.288 46.0681 72.3497C46.0367 72.4114 45.8091 72.3593 45.5622 72.2339C45.3154 72.1085 45.0877 72.0564 45.0564 72.1181C45.025 72.1798 44.8479 72.1533 44.6627 72.0593C44.4776 71.9652 44.3005 71.9388 44.2691 72.0005C44.2378 72.0622 44.0101 72.0101 43.7633 71.8847C43.5164 71.7593 43.2888 71.7072 43.2574 71.7689C43.2261 71.8306 43.0994 71.8298 42.976 71.7671C42.8526 71.7044 42.7259 71.7036 42.6946 71.7653C42.6632 71.8271 42.4356 71.7749 42.1887 71.6495C41.9419 71.5241 41.7142 71.472 41.6829 71.5338C41.6515 71.5955 41.4744 71.569 41.2892 71.475C41.1041 71.3809 40.9269 71.3545 40.8956 71.4162C40.863 71.4802 40.502 71.3574 40.0531 71.1294C39.6043 70.9014 39.2432 70.7785 39.2106 70.8426C39.1793 70.9043 38.9011 70.8265 38.5926 70.6698C38.284 70.513 38.0059 70.4353 37.9745 70.497C37.9432 70.5587 37.7155 70.5066 37.4687 70.3812C37.2218 70.2558 36.9942 70.2037 36.9628 70.2654C36.9303 70.3295 36.5692 70.2066 36.1203 69.9786L35.3348 69.5796L35.6768 68.9063C35.8668 68.5323 36.0687 68.2584 36.1311 68.2901C36.1965 68.3233 36.4333 67.9731 36.6993 67.4494C36.9653 66.9257 37.2021 66.5754 37.2675 66.6087C37.3292 66.64 37.4802 66.468 37.603 66.2261C37.7258 65.9843 37.9043 65.7892 37.9998 65.7924C38.1385 65.7971 38.1519 65.7709 38.0662 65.6616C37.9398 65.5 38.3545 64.6198 38.518 64.7029C38.5797 64.7342 38.7306 64.5621 38.8534 64.3203C38.9786 64.0739 39.151 63.8872 39.2459 63.8952C39.3736 63.9061 39.3899 63.857 39.3124 63.6947C39.2348 63.5325 39.2512 63.4834 39.3789 63.4943C39.4914 63.5038 39.6804 63.2483 39.9423 62.7325C40.1672 62.2898 40.3849 61.9809 40.4488 62.0134C40.5178 62.0484 40.846 61.5093 41.3021 60.6116C41.7581 59.7139 42.0863 59.1748 42.1553 59.2098C42.2207 59.2431 42.4575 58.8928 42.7235 58.3692C42.9895 57.8455 43.2263 57.4952 43.2917 57.5285C43.3534 57.5598 43.5065 57.3835 43.6319 57.1366C43.7573 56.8897 43.8094 56.6621 43.7477 56.6308C43.686 56.5994 43.6868 56.4728 43.7495 56.3493C43.8122 56.2259 43.813 56.0993 43.7513 56.0679C43.6896 56.0366 43.7674 55.7584 43.9241 55.4499C44.0809 55.1413 44.1586 54.8631 44.0969 54.8318C44.0352 54.8004 44.0303 54.6849 44.0861 54.5752C44.1419 54.4653 44.1235 54.2514 44.0453 54.0997C43.9618 53.9378 43.9684 53.6952 44.0614 53.5121C44.1675 53.3034 44.1615 53.1706 44.0436 53.1107C43.9465 53.0614 43.8317 52.9123 43.7884 52.7793C43.6978 52.5021 43.8342 52.1573 44.0008 52.242C44.0625 52.2733 44.1643 52.198 44.227 52.0745C44.303 51.925 44.4159 51.8881 44.5654 51.9641C44.6889 52.0268 44.8155 52.0276 44.8469 51.9659C44.8782 51.9042 45.0049 51.905 45.1283 51.9677C45.2517 52.0304 45.3784 52.0312 45.4097 51.9695C45.4411 51.9078 45.5474 51.8983 45.6461 51.9484C45.7448 51.9985 46.044 51.96 46.311 51.8627C46.578 51.7653 46.8772 51.7268 46.9758 51.7769C47.0804 51.83 47.2028 51.7744 47.2693 51.6436C47.3357 51.5128 47.4581 51.4572 47.5627 51.5103C47.6613 51.5604 47.9606 51.5219 48.2275 51.4246C48.4945 51.3272 48.7724 51.2778 48.8452 51.3148C48.9178 51.3517 49.2738 51.2784 49.6365 51.1521C49.9991 51.0257 50.3518 50.9508 50.4205 50.9857C50.584 51.0687 51.6997 50.7031 51.7829 50.5393C51.8184 50.4693 52.0709 50.3476 52.3439 50.2687C52.8273 50.129 53.1361 49.8241 52.9103 49.7094C52.8486 49.6781 52.8374 49.575 52.8855 49.4804C52.9336 49.3857 52.8868 49.0443 52.7814 48.7217C52.598 48.1593 52.5562 48.1179 51.7695 47.7183C51.0777 47.3669 50.9057 47.3238 50.6732 47.4437ZM60.3357 59.2692C60.3043 59.3309 60.0262 59.2532 59.7176 59.0964C59.409 58.9397 59.1309 58.8619 59.0996 58.9236C59.0682 58.9853 58.9632 58.9955 58.8663 58.9463C58.6395 58.8311 58.232 58.964 58.1168 59.1908C58.0676 59.2878 57.9768 59.3415 57.9151 59.3101C57.8534 59.2788 57.7259 59.4046 57.6319 59.5897C57.5378 59.7749 57.5113 59.952 57.5731 59.9834C57.8226 60.1102 57.3728 60.6283 56.8926 60.7671C56.4803 60.8863 56.3519 60.9979 56.1341 61.4265C55.9899 61.7104 55.9225 61.9683 55.9842 61.9996C56.0459 62.031 56.0195 62.2081 55.9254 62.3932C55.8314 62.5784 55.8049 62.7555 55.8666 62.7869C55.9283 62.8182 55.9275 62.9449 55.8648 63.0683C55.8021 63.1917 55.8013 63.3184 55.863 63.3497C55.9247 63.3811 55.8983 63.5582 55.8042 63.7434C55.7102 63.9285 55.6837 64.1057 55.7454 64.137C55.8072 64.1684 55.8064 64.295 55.7437 64.4184C55.681 64.5419 55.6802 64.6685 55.7419 64.6999C55.8036 64.7312 55.7771 64.9083 55.6831 65.0935C55.589 65.2786 55.5626 65.4558 55.6243 65.4871C55.686 65.5185 55.6339 65.7461 55.5085 65.993C55.3831 66.2398 55.331 66.4675 55.3927 66.4988C55.4544 66.5302 55.4536 66.6568 55.3909 66.7803C55.3282 66.9037 55.3274 67.0303 55.3891 67.0617C55.4508 67.093 55.4244 67.2702 55.3303 67.4553C55.2363 67.6405 55.2098 67.8176 55.2715 67.849C55.3333 67.8803 55.3068 68.0574 55.2127 68.2426C55.1187 68.4277 55.0922 68.6049 55.154 68.6362C55.2157 68.6676 55.1379 68.9457 54.9812 69.2543C54.8244 69.5629 54.7466 69.841 54.8084 69.8723C54.8701 69.9037 54.7923 70.1818 54.6356 70.4904C54.4788 70.799 54.4011 71.0771 54.4628 71.1085C54.5245 71.1398 54.5237 71.2665 54.461 71.3899C54.3983 71.5133 54.3975 71.64 54.4592 71.6713C54.5209 71.7027 54.4945 71.8798 54.4004 72.065C54.3064 72.2501 54.2799 72.4272 54.3416 72.4586C54.404 72.4903 54.3018 72.8149 54.1118 73.1889C53.9218 73.5629 53.8196 73.8874 53.882 73.9191C53.9437 73.9505 53.8916 74.1781 53.7662 74.425C53.6408 74.6718 53.5887 74.8995 53.6504 74.9308C53.7122 74.9622 53.6857 75.1393 53.5916 75.3245C53.4976 75.5096 53.4711 75.6868 53.5329 75.7181C53.5946 75.7495 53.5681 75.9266 53.4741 76.1117C53.38 76.2969 53.3536 76.474 53.4153 76.5054C53.477 76.5367 53.4762 76.6634 53.4135 76.7868C53.3508 76.9102 53.35 77.0369 53.4117 77.0682C53.4734 77.0996 53.447 77.2767 53.3529 77.4619C53.2588 77.647 53.2324 77.8242 53.2941 77.8555C53.3558 77.8869 53.3037 78.1145 53.1783 78.3614C53.0529 78.6082 53.0008 78.8358 53.0625 78.8672C53.1242 78.8985 53.0978 79.0757 53.0037 79.2608C52.9097 79.446 52.8832 79.6231 52.9449 79.6545C53.0067 79.6858 52.9802 79.863 52.8862 80.0481C52.7921 80.2333 52.7656 80.4104 52.8274 80.4417C52.8891 80.4731 52.837 80.7007 52.7116 80.9476C52.5862 81.1945 52.5341 81.4221 52.5958 81.4534C52.6575 81.4848 52.6054 81.7124 52.48 81.9593C52.3546 82.2062 52.3025 82.4338 52.3642 82.4651C52.4259 82.4965 52.3738 82.7241 52.2484 82.971C52.123 83.2179 52.0709 83.4455 52.1326 83.4768C52.195 83.5085 52.0928 83.8331 51.9028 84.2071C51.7128 84.5811 51.6106 84.9057 51.673 84.9374C51.7347 84.9687 51.7339 85.0954 51.6712 85.2188C51.6085 85.3422 51.6077 85.4689 51.6694 85.5002C51.7311 85.5316 51.679 85.7592 51.5536 86.0061C51.4282 86.2529 51.3761 86.4806 51.4378 86.5119C51.4996 86.5433 51.4731 86.7204 51.3791 86.9056C51.285 87.0907 51.2585 87.2679 51.3203 87.2992C51.382 87.3306 51.3555 87.5077 51.2615 87.6928C51.1674 87.878 51.141 88.0551 51.2027 88.0865C51.2644 88.1178 51.2379 88.295 51.1439 88.4801C51.0498 88.6653 51.0234 88.8424 51.0851 88.8737C51.1468 88.9051 51.146 89.0317 51.0833 89.1552C51.0206 89.2786 51.0198 89.4052 51.0815 89.4366C51.1432 89.4679 51.0655 89.7461 50.9087 90.0547C50.752 90.3632 50.6742 90.6414 50.7359 90.6727C50.7976 90.7041 50.7968 90.8307 50.7341 90.9541C50.6714 91.0776 50.6706 91.2042 50.7323 91.2356C50.7941 91.2669 50.7989 91.3824 50.7432 91.4922C50.6874 91.602 50.7057 91.8159 50.784 91.9676C50.8622 92.1193 50.8863 92.3221 50.8374 92.4183C50.7886 92.5144 50.8126 92.7172 50.8908 92.8689C50.9691 93.0206 50.9999 93.21 50.9593 93.2898C50.9188 93.3696 51.0965 94.0811 51.3542 94.8708C51.76 96.1146 51.8742 96.3329 52.2076 96.5023C52.4193 96.6099 52.59 96.7759 52.5868 96.8714C52.5821 97.0102 52.6084 97.0235 52.7177 96.9379C52.7929 96.879 52.9788 96.8941 53.1307 96.9712C53.411 97.1136 54.1849 96.9443 54.3013 96.7152C54.3944 96.5321 54.8207 96.4181 55.0248 96.5217C55.1459 96.5832 55.2547 96.5059 55.3721 96.2746C55.4662 96.0895 55.4926 95.9124 55.4309 95.881C55.3692 95.8497 55.4213 95.622 55.5467 95.3752C55.6721 95.1283 55.7242 94.9007 55.6625 94.8693C55.6008 94.838 55.6529 94.6103 55.7783 94.3635C55.9037 94.1166 55.9558 93.889 55.8941 93.8576C55.8324 93.8263 55.8845 93.5986 56.0099 93.3518C56.1353 93.1049 56.1874 92.8773 56.1257 92.8459C56.064 92.8146 56.1417 92.5364 56.2985 92.2279C56.4552 91.9193 56.533 91.6412 56.4713 91.6098C56.4096 91.5785 56.4873 91.3003 56.6441 90.9917C56.8008 90.6832 56.8786 90.405 56.8169 90.3737C56.7551 90.3423 56.8329 90.0642 56.9896 89.7556C57.1464 89.447 57.2242 89.1689 57.1624 89.1376C57.1007 89.1062 57.1785 88.8281 57.3352 88.5195C57.492 88.2109 57.5697 87.9328 57.508 87.9014C57.4463 87.8701 57.5241 87.592 57.6808 87.2834C57.8376 86.9748 57.9153 86.6967 57.8536 86.6653C57.7919 86.634 57.8184 86.4568 57.9124 86.2717C58.0065 86.0865 58.0329 85.9094 57.9712 85.878C57.9095 85.8467 57.9103 85.7201 57.973 85.5966C58.0357 85.4732 58.1375 85.3978 58.1992 85.4292C58.2609 85.4605 58.4028 85.3062 58.5146 85.0862C58.6835 84.7538 58.8597 84.6419 59.5565 84.4247C60.0178 84.2808 60.4243 84.1057 60.46 84.0356C60.5444 83.8693 60.9717 83.7319 61.1394 83.8171C61.2117 83.8538 61.4893 83.8042 61.7563 83.7069C62.0232 83.6096 62.3225 83.571 62.4211 83.6211C62.5199 83.6713 62.6401 83.6343 62.6886 83.5389C62.7893 83.3408 63.5457 83.0631 63.7298 83.1566C63.914 83.2501 64.6704 82.9725 64.771 82.7743C64.8211 82.6758 64.9559 82.6501 65.0835 82.7149C65.2331 82.7909 65.346 82.7541 65.4219 82.6045C65.4979 82.4549 65.6108 82.4181 65.7604 82.4941C65.8838 82.5568 66.0104 82.5576 66.0418 82.4959C66.0731 82.4341 66.1998 82.435 66.3232 82.4977C66.4466 82.5604 66.5733 82.5612 66.6046 82.4994C66.636 82.4377 66.8938 82.5052 67.1777 82.6494C67.6064 82.8671 67.718 82.9956 67.8372 83.4079C67.916 83.6809 68.0614 83.9453 68.16 83.9954C68.2588 84.0455 68.3138 84.137 68.2824 84.1987C68.2511 84.2605 68.3153 84.3566 68.4251 84.4124C68.5349 84.4682 68.6462 84.6517 68.6725 84.8204C68.6988 84.989 68.7899 85.1623 68.8749 85.2055C68.9599 85.2487 69.0941 85.5075 69.173 85.7804C69.2518 86.0534 69.3972 86.3178 69.4958 86.3679C69.5946 86.4181 69.6496 86.5096 69.6182 86.5713C69.5869 86.633 69.6511 86.7292 69.7609 86.7849C69.8707 86.8407 69.982 87.0243 70.0083 87.1929C70.0346 87.3616 70.1348 87.5395 70.2309 87.5884C70.3271 87.6372 70.4273 87.8152 70.4536 87.9838C70.4799 88.1524 70.58 88.3304 70.6762 88.3792C70.7724 88.4281 70.8726 88.606 70.8988 88.7746C70.9251 88.9433 71.0125 89.1147 71.0931 89.1557C71.2974 89.2595 71.7526 90.7066 71.6466 90.9154C71.5976 91.0118 71.6576 91.1364 71.784 91.2006C71.9074 91.2633 71.9828 91.3651 71.9514 91.4268C71.9201 91.4886 72.0964 91.6417 72.3433 91.7671C72.5901 91.8925 72.8178 91.9446 72.8491 91.8829C72.8805 91.8211 73.0071 91.8219 73.1305 91.8846C73.2801 91.9606 73.393 91.9238 73.469 91.7742C73.5317 91.6508 73.6335 91.5754 73.6952 91.6068C73.7593 91.6393 73.9784 91.3272 74.2064 90.8783C74.4344 90.4295 74.5573 90.0684 74.4932 90.0358C74.4315 90.0045 74.4836 89.7769 74.609 89.53C74.7344 89.2831 74.7865 89.0555 74.7248 89.0241C74.6631 88.9928 74.6639 88.8661 74.7266 88.7427C74.7914 88.6151 74.7657 88.4803 74.6672 88.4302C74.4698 88.33 74.1912 87.5735 74.2842 87.3904C74.378 87.2057 73.986 86.1079 73.7908 86.0087C73.6962 85.9606 73.6444 85.8708 73.6758 85.8091C73.7071 85.7474 73.6318 85.6456 73.5084 85.5829C73.3849 85.5202 73.3096 85.4184 73.3409 85.3567C73.3723 85.2949 73.3183 85.204 73.2209 85.1545C73.1234 85.105 72.9523 84.764 72.8405 84.3966C72.7286 84.0292 72.5576 83.6882 72.46 83.6387C72.3626 83.5892 72.3086 83.4982 72.34 83.4365C72.3713 83.3748 72.3071 83.2787 72.1974 83.2229C72.0875 83.1671 71.9762 82.9835 71.9499 82.8149C71.9236 82.6463 71.8123 82.4627 71.7025 82.4069C71.5927 82.3511 71.5285 82.255 71.5599 82.1932C71.5912 82.1315 71.527 82.0354 71.4172 81.9796C71.3074 81.9238 71.1961 81.7402 71.1698 81.5716C71.1435 81.403 71.0322 81.2194 70.9224 81.1636C70.8126 81.1078 70.7484 81.0117 70.7798 80.95C70.8111 80.8882 70.7469 80.7921 70.6371 80.7363C70.5273 80.6805 70.416 80.497 70.3897 80.3283C70.3634 80.1597 70.2521 79.9761 70.1423 79.9203C70.0325 79.8646 69.9683 79.7684 69.9996 79.7067C70.031 79.645 69.977 79.554 69.8796 79.5045C69.7821 79.455 69.611 79.114 69.4992 78.7466C69.3874 78.3792 69.2365 78.0485 69.1639 78.0116C69.0912 77.9747 68.9671 77.7211 68.8883 77.4481C68.8094 77.1751 68.6641 76.9107 68.5654 76.8606C68.4608 76.8075 68.4335 76.6759 68.5 76.5451C68.576 76.3955 68.5392 76.2826 68.3896 76.2066C68.2661 76.1439 68.1908 76.0421 68.2222 75.9804C68.2535 75.9187 68.2002 75.8281 68.1035 75.779C68.0069 75.7299 67.8103 75.3124 67.6665 74.8511C67.5226 74.3898 67.3479 73.9835 67.2782 73.9481C67.2085 73.9127 67.0338 73.5063 66.8899 73.045C66.7461 72.5837 66.5724 72.1778 66.5038 72.143C66.318 72.0486 66.0951 71.2749 66.1963 71.0756C66.2464 70.9771 66.1876 70.853 66.06 70.7882C65.9104 70.7123 65.8736 70.5994 65.9496 70.4498C66.0255 70.3002 65.9887 70.1874 65.8391 70.1114C65.7157 70.0487 65.6404 69.9469 65.6717 69.8852C65.7031 69.8235 65.6522 69.7341 65.5586 69.6865C65.4649 69.6389 64.8435 67.9257 64.1774 65.8793C63.5114 63.8328 62.9112 62.1304 62.8436 62.096C62.7761 62.0617 62.6294 61.7331 62.5175 61.3657C62.4057 60.9984 62.2347 60.6574 62.1371 60.6078C62.0397 60.5583 61.9857 60.4674 62.0171 60.4057C62.0484 60.3439 61.9731 60.2421 61.8496 60.1794C61.7262 60.1167 61.6509 60.015 61.6822 59.9532C61.7139 59.8908 61.44 59.689 61.066 59.499C60.692 59.309 60.3674 59.2068 60.3357 59.2692ZM61.2558 70.6707C61.3303 70.8991 61.3517 71.1641 61.3032 71.2595C61.2548 71.3549 61.3051 71.4785 61.4148 71.5343C61.5247 71.5901 61.636 71.7737 61.6622 71.9423C61.6885 72.1109 61.7887 72.2889 61.8849 72.3377C61.981 72.3866 62.0812 72.5645 62.1075 72.7331C62.1338 72.9018 62.2226 73.074 62.305 73.1158C62.3874 73.1576 62.5983 73.6459 62.7736 74.2008C62.949 74.7558 63.1599 75.2441 63.2422 75.2859C63.3246 75.3277 63.4134 75.4999 63.4397 75.6686C63.466 75.8372 63.5773 76.0208 63.6872 76.0766C63.7969 76.1323 63.8611 76.2285 63.8298 76.2902C63.7984 76.3519 63.8513 76.4423 63.9473 76.491C64.0433 76.5398 64.2653 77.0338 64.4407 77.5887C64.616 78.1436 64.838 78.6375 64.9341 78.6863C65.03 78.7351 65.0829 78.8255 65.0516 78.8872C65.0202 78.9489 65.0956 79.0507 65.219 79.1134C65.3466 79.1782 65.4054 79.3022 65.3554 79.4008C65.2476 79.6128 64.4927 79.8738 64.2879 79.7697C64.2062 79.7283 64.0152 79.7583 63.8635 79.8365C63.7118 79.9147 63.509 79.9388 63.4129 79.8899C63.3167 79.8411 63.1139 79.8651 62.9622 79.9433C62.8105 80.0216 62.6168 80.0502 62.5318 80.007C62.4468 79.9639 62.1587 80.0081 61.8917 80.1054C61.6156 80.2061 61.2912 80.2238 61.1395 80.1468C60.9927 80.0722 60.7485 80.0752 60.5968 80.1534C60.4451 80.2317 60.2036 80.2361 60.0602 80.1632C59.7655 80.0135 59.4828 79.2896 59.6164 79.0265C59.6649 78.9312 59.654 78.8275 59.5923 78.7962C59.5306 78.7648 59.557 78.5877 59.6511 78.4025C59.7451 78.2174 59.7716 78.0402 59.7099 78.0089C59.6482 77.9775 59.6746 77.8004 59.7687 77.6153C59.8627 77.4301 59.8892 77.253 59.8275 77.2216C59.7657 77.1903 59.7666 77.0636 59.8293 76.9402C59.892 76.8168 59.8928 76.6901 59.831 76.6588C59.7693 76.6274 59.7958 76.4503 59.8898 76.2651C59.9839 76.08 60.0103 75.9028 59.9486 75.8715C59.8869 75.8401 59.9647 75.562 60.1214 75.2534C60.2782 74.9449 60.3559 74.6667 60.2942 74.6354C60.2325 74.604 60.2333 74.4774 60.296 74.3539C60.3587 74.2305 60.3595 74.1039 60.2978 74.0725C60.2361 74.0412 60.2625 73.864 60.3566 73.6789C60.4506 73.4937 60.4771 73.3166 60.4154 73.2853C60.3537 73.2539 60.3801 73.0768 60.4742 72.8916C60.5682 72.7065 60.5947 72.5293 60.533 72.498C60.4712 72.4666 60.4977 72.2895 60.5918 72.1043C60.6858 71.9192 60.7123 71.7421 60.6505 71.7107C60.5888 71.6794 60.5896 71.5527 60.6523 71.4293C60.715 71.3058 60.7158 71.1792 60.6541 71.1479C60.5924 71.1165 60.5911 70.994 60.6512 70.8757C60.7113 70.7575 60.7097 70.6093 60.6478 70.5467C60.5647 70.4625 60.6025 70.4061 60.7924 70.3314C61.121 70.2022 61.0973 70.1849 61.2558 70.6707Z" fill="#05A034"/>
<path fill-rule="evenodd" clip-rule="evenodd" d="M66.227 115.561C67.5467 110.442 68.7603 108.271 71.1047 106.492C73.2975 104.827 76.4985 103.429 81.1691 102.408C86.0338 101.558 86.1717 99.0286 87.3914 94.9641C87.7473 93.7422 89.5106 93.4171 90.2717 94.2978C90.3789 94.182 90.4908 94.0759 90.6066 93.98C90.503 93.3973 91.3513 91.727 91.323 91.1696C91.0271 85.3513 92.9298 82.4296 97.6789 81.3435C98.7116 81.1072 105.727 80.9681 106.734 81.2466C111.136 82.464 115.47 86.3292 114.807 90.9855C116.189 92.7918 117.541 93.8942 119.673 94.4762C124.418 95.0788 129.162 95.6145 133.908 96.0732C143.197 97.5305 151.907 102.449 157.86 109.622C158.41 110.284 158.568 111.182 158.084 111.888C158.463 113.515 160.6 117.459 158.919 118.574C161.684 125.188 168.045 137.972 168.057 141.625C168.107 156.968 166.45 176.939 151.313 185.429C150.707 186.025 150.62 186.685 150.358 187.571C149.692 190.365 147.275 192.361 144.63 192.198C131.598 192.488 118.976 190.897 105.944 190.82C100.197 190.786 93.2852 191.644 88.2927 192.216C83.3002 192.788 78.2605 192.282 73.4694 190.82C73.0654 191.457 72.2486 191.827 71.42 191.644C66.4533 190.657 62.4368 187.596 58.9386 184.25C57.8696 182.305 53.6948 176.763 55.3542 174.834C53.8499 168.474 53.9281 161.639 56.6012 155.583C56.2223 154.472 56.9129 153.252 56.6012 152.106C56.3756 151.276 55.7978 150.933 55.507 150.111C55.0978 148.955 55.5428 147.404 56.0036 146.225C56.1924 145.637 55.6561 145.004 55.507 144.404C54.8001 141.574 56.4189 141.823 57.5859 139.932C57.5685 139.926 57.265 138.575 57.2664 138.582C57.0877 137.618 57.5354 136.382 57.9258 135.578C58.1897 135.034 58.7551 134.693 59.3168 134.755C58.7511 132.835 58.0357 131.236 57.2664 129.386C55.9058 126.124 54.1836 123 52.23 120.048C51.4299 118.839 52.5044 117.438 53.7992 117.356C57.9898 117.089 62.1346 116.486 66.227 115.561Z" fill="white"/>
<path fill-rule="evenodd" clip-rule="evenodd" d="M78.4573 140.229C80.1334 139.572 81.9382 139.209 83.7521 139.067C82.7755 138.896 81.7961 138.731 80.8087 138.646C80.1198 138.587 79.481 138.593 78.9632 139.116C78.6178 139.464 78.4558 139.913 78.2287 140.325C78.3029 140.291 78.3801 140.26 78.4573 140.229ZM60.467 134.083C63.212 134.222 65.9601 134.875 68.4432 136.058C69.4591 136.543 70.3797 137.242 70.6492 138.393C70.7855 138.981 70.7522 139.589 70.6796 140.182C70.625 140.632 70.6113 141.206 70.2207 141.511C70.1541 141.562 70.0829 141.602 70.0087 141.63C70.9248 142.044 71.797 142.541 72.5722 143.053C73.2807 143.521 74.009 144.242 74.336 145.055C74.3632 144.963 74.3905 144.876 74.4178 144.794C74.9749 143.147 75.8334 141.797 77.1855 140.89C76.9463 140.782 76.7812 140.528 76.8585 140.176C77.1794 138.709 78.5347 137.433 80.0653 137.524C81.7414 137.622 83.5416 138.233 85.0574 139.004C85.6099 138.992 86.1611 138.999 86.7061 139.024C86.7999 139.027 86.7954 139.154 86.7061 139.164C86.264 139.221 85.8218 139.283 85.3797 139.355C84.329 139.524 83.2812 139.737 82.2563 140.002C81.0267 140.32 79.7549 140.64 78.6057 141.196C76.3771 142.276 74.9977 145.099 75.2808 147.556C75.3277 147.959 75.4837 149.176 76.0425 149.051C76.5148 148.945 76.7025 147.959 76.8675 147.594C77.3097 146.624 78.1061 145.991 79.0615 145.562C80.1834 145.058 81.3841 144.717 82.547 144.321C83.2055 144.095 83.8641 143.869 84.5243 143.645C85.1996 143.413 85.8415 143.093 86.5607 143.256C86.9953 143.354 87.0452 143.872 86.8015 144.169C86.4305 144.622 85.8794 144.755 85.3449 144.941C84.6393 145.187 83.9353 145.432 83.2312 145.678C82.1428 146.056 81.0025 146.376 79.9413 146.839L79.9744 146.915C80.0609 146.891 80.1623 146.977 80.1455 147.083C79.9866 148.063 79.7655 149.196 80.0109 150.178C80.2046 150.956 80.8876 151.818 81.7747 151.589C81.6354 151.462 81.5839 151.242 81.6778 151.039C82.0292 150.288 86.6319 147.322 87.0422 148.424C87.0558 148.463 87.0136 148.492 86.9801 148.486C86.6304 148.413 86.0444 149.01 85.7645 149.199C85.3602 149.472 84.9499 149.738 84.55 150.019C84.1124 150.325 83.6855 150.646 83.2691 150.977C82.9421 151.238 82.6953 151.509 82.3199 151.641C82.5166 151.735 82.6727 151.909 82.7392 152.132C82.9087 152.712 83.2358 153.204 83.8036 153.46C84.3986 153.727 85.0693 153.558 85.6962 153.624C86.5501 153.71 87.295 154.116 87.9173 154.696C89.224 155.917 89.8796 158.068 91.7071 158.645C92.7987 158.989 94.01 158.772 95.1153 158.616C96.3493 158.442 97.5515 158.304 98.7945 158.486C99.9846 158.66 101.11 159.072 102.197 159.575C103.216 160.046 104.342 160.579 105.246 161.282C105.432 160.708 105.62 160.14 105.762 159.553C106.098 158.168 106.28 156.756 106.324 155.332C106.365 153.977 106.289 152.615 106.173 151.265C106.115 150.591 106.024 149.92 105.967 149.246C105.952 149.076 105.921 148.895 105.899 148.713C104.285 147.76 102.589 147.03 100.88 146.279C100.875 146.277 100.87 146.274 100.866 146.273C100.813 146.249 100.761 146.226 100.708 146.203C100.71 146.2 100.711 146.197 100.714 146.194C100.519 146.075 100.383 145.915 100.301 145.737C97.8376 144.102 95.7785 141.871 94.2432 139.269C93.5997 138.178 92.9804 137.047 92.1386 136.091C91.2423 135.072 90.1779 134.466 88.8606 134.151C87.3208 133.781 85.734 133.56 84.1563 133.434C83.2948 133.366 82.332 133.26 81.3931 133.265C80.7391 133.269 80.0988 133.325 79.5111 133.487C78.6405 133.727 78.1318 134.389 77.5852 135.058C77.0629 135.701 76.5435 136.344 76.056 137.014C75.5944 137.648 75.1581 138.304 74.7796 138.992C74.5525 139.404 74.3421 139.828 74.1649 140.266C74.1028 140.42 74.0211 140.596 73.9832 140.756C73.9454 140.918 74.015 141.09 73.8333 141.09C74.5828 141.1 74.5752 142.298 73.8303 142.254C70.9142 142.085 75.0915 136.39 75.7019 135.596C76.5664 134.472 77.458 133.006 78.8419 132.483C78.8616 132.476 78.8828 132.468 78.9025 132.462C78.4997 132.08 78.1818 131.623 77.8774 131.158C77.564 130.679 77.1902 130.131 77.0871 129.563C77.022 129.201 77.4717 128.995 77.6852 129.311C77.9955 129.773 78.1454 130.358 78.3771 130.866C78.6133 131.381 78.901 131.867 79.1281 132.386C79.6747 132.218 80.2652 132.141 80.8662 132.115C80.1077 131.088 78.8118 129.107 78.6557 128.853C77.938 127.674 77.2551 126.459 76.6026 125.243C75.8972 123.925 75.2929 122.553 74.6176 121.22C74.2346 120.464 73.8485 119.702 73.423 118.969C73.2761 118.718 73.1187 118.466 72.94 118.238C72.9052 118.192 72.8613 118.154 72.8204 118.112C72.7735 118.086 72.725 118.057 72.6978 118.042C72.4526 117.902 72.3662 117.574 72.1937 117.367C71.918 117.032 71.594 116.993 71.1791 116.988C70.2951 116.979 69.4077 117.014 68.5249 117.038C67.2274 117.074 65.9313 117.126 64.6353 117.194C64.2431 117.215 63.8525 117.236 63.4603 117.261C61.5753 117.373 59.6918 117.52 57.8128 117.7C56.1503 117.859 54.4879 118.118 52.8239 118.242C55.0768 123.597 57.5751 128.854 60.4035 133.928C60.4322 133.98 60.4535 134.031 60.467 134.083ZM72.9673 147.877C73.3307 148.044 73.6835 148.251 74.012 148.487C73.9575 148.119 73.9439 147.731 73.959 147.342C73.688 147.633 73.3413 147.8 72.9673 147.877ZM57.4555 138.666C57.4812 138.669 57.5055 138.683 57.5176 138.709C58.0202 139.746 57.8099 140.905 56.9892 141.718C56.5592 142.142 55.6219 142.621 55.6524 143.318C55.6781 143.881 56.2912 144.354 56.5531 144.819C56.7969 145.252 56.8877 145.728 56.6924 146.197C56.4426 146.798 55.7446 147.038 55.5054 147.629C55.2025 148.378 55.6946 149.283 56.0398 149.935C56.3608 150.54 56.7758 151.144 57.0512 151.783C58.8969 152.739 60.5488 154.205 61.969 155.694C63.5239 157.323 64.8579 159.238 67.3273 159.19C67.5741 159.185 67.7619 159.316 67.8739 159.496C68.5613 159.528 69.2502 159.541 69.9376 159.545C71.1458 159.55 72.3541 159.538 73.5608 159.5C73.6456 159.208 73.5835 158.811 73.5882 158.564C73.6032 157.769 73.6108 156.976 73.6441 156.18C73.6532 155.959 73.6623 155.736 73.6713 155.515C73.2368 156.301 72.3889 156.659 71.4229 156.604C69.8695 156.514 68.3069 156.259 66.7688 156.03C65.9586 155.911 65.1501 155.774 64.3431 155.629C63.6799 155.511 62.7442 155.541 62.2809 155.009C62.1719 154.885 62.1658 154.658 62.3369 154.575C62.7957 154.349 63.0849 154.475 63.5892 154.572C64.2038 154.691 64.82 154.805 65.4379 154.911C66.6234 155.117 67.8118 155.308 69.0034 155.476C69.6817 155.571 70.3615 155.665 71.0414 155.74C71.6349 155.803 72.3041 155.889 72.7826 155.443C73.747 154.54 73.2065 153.027 72.5963 152.115C72.5842 152.097 72.5842 152.08 72.5888 152.065C72.0134 151.93 71.4396 151.773 70.8673 151.662C69.7665 151.45 68.6582 151.271 67.5484 151.112C65.2682 150.787 62.9728 150.571 60.6806 150.355C60.1129 150.3 60.1068 149.407 60.6806 149.46C63.9738 149.761 67.2834 150.047 70.5326 150.682C71.3472 150.84 72.1559 151.018 72.9597 151.22C73.3398 151.314 73.747 151.461 74.1452 151.465C74.1695 151.465 74.1938 151.465 74.2179 151.464C74.9977 151.44 75.1112 150.772 74.6827 150.216C74.6298 150.147 74.5752 150.079 74.5192 150.014C73.7622 149.111 72.8191 148.508 71.847 147.884C70.7582 147.736 69.6726 147.406 68.6067 147.163C65.9752 146.564 63.3438 145.964 60.7108 145.366C60.1946 145.247 60.414 144.454 60.9303 144.57C62.9289 145.023 64.9275 145.476 66.9262 145.929L69.8513 146.593C70.4357 146.724 71.1657 146.989 71.8531 147.085C72.1921 147.132 72.5206 147.138 72.8174 147.068C73.7758 146.841 73.8243 145.643 73.4109 144.931C72.9476 144.131 72.0725 143.631 71.2957 143.178C69.9497 142.392 68.5174 141.827 67.1184 141.176C66.8701 141.121 66.6218 141.067 66.3734 141.012C64.929 140.694 63.2787 140.538 61.919 139.955C61.5117 139.782 61.7344 139.14 62.137 139.149C63.1924 139.172 64.2961 139.548 65.3272 139.77C66.4431 140.013 67.5605 140.253 68.6764 140.494C68.7884 140.519 69.4516 140.731 69.5515 140.684C69.6151 140.653 69.6378 140.432 69.659 140.287C69.7273 139.808 69.7771 139.305 69.7029 138.825C69.5394 137.748 68.6415 137.242 67.7331 136.829C65.7103 135.909 63.4921 135.334 61.2846 135.104C60.7759 135.051 60.2671 135.017 59.7554 135.001C59.1544 134.982 58.6592 134.876 58.3549 135.469C57.8764 136.402 57.613 137.601 57.4555 138.666ZM60.2647 172.496C60.7055 170.971 60.5855 169.342 60.8875 167.787C61.0433 166.985 61.256 166.188 61.4883 165.405C61.6757 164.772 61.9884 164.099 62.0238 163.439C62.0259 163.395 61.974 163.369 61.9382 163.389C61.3164 163.746 60.8389 164.516 60.4843 165.12C60.0597 165.844 59.7355 166.601 59.474 167.397C58.9529 168.983 58.525 170.897 59.1971 172.496C59.3971 172.972 60.0997 173.067 60.2647 172.496ZM73.8863 152.297C73.5139 152.26 73.1414 152.189 72.769 152.106C73.1853 152.512 73.5699 153.001 73.7835 153.543C73.8167 153.127 73.8592 152.712 73.9151 152.298C73.906 152.298 73.8954 152.298 73.8863 152.297ZM77.466 184.04C78.1228 183.581 78.6014 182.94 79.1584 182.375C79.7062 181.818 78.8498 180.961 78.3019 181.518C77.8266 182 77.414 182.603 76.8547 182.994C76.5855 183.181 76.4609 183.521 76.6373 183.823C76.7933 184.089 77.1975 184.227 77.466 184.04ZM81.1288 166.417C79.9298 165.898 78.7506 165.334 77.4958 164.96C76.7459 164.737 76.4283 165.907 77.1737 166.128C78.3294 166.473 79.4134 166.986 80.5174 167.463C81.2263 167.77 81.8424 166.726 81.1288 166.417ZM93.7911 166.054C94.0844 165.33 92.912 165.019 92.6231 165.732C92.2905 166.553 91.9092 167.354 91.5766 168.175C91.2836 168.899 92.4557 169.211 92.7446 168.497C93.0772 167.676 93.4586 166.876 93.7911 166.054ZM106.289 180.507C106.484 180.768 106.81 180.909 107.118 180.725C107.375 180.57 107.533 180.159 107.335 179.896C106.758 179.126 106.173 178.365 105.496 177.679C104.948 177.123 104.092 177.98 104.64 178.536C105.244 179.149 105.773 179.82 106.289 180.507ZM108.076 99.4126C107.52 99.7925 107.033 100.254 106.558 100.729C106.006 101.281 106.863 102.138 107.415 101.586C107.815 101.185 108.219 100.779 108.688 100.459C108.958 100.274 109.08 99.9296 108.905 99.63C108.748 99.3616 108.346 99.2281 108.076 99.4126ZM89.8934 118.912C90.2077 119.542 90.4907 120.159 90.5086 120.875C90.5276 121.654 91.7389 121.655 91.7197 120.875C91.6965 119.938 91.3513 119.126 90.9393 118.301C90.5908 117.602 89.5464 118.216 89.8934 118.912ZM83.222 103.251C82.5708 102.817 81.965 103.867 82.6105 104.298C83.1338 104.647 83.6572 104.996 84.1804 105.345C84.8314 105.779 85.4371 104.729 84.7918 104.298C84.2686 103.949 83.7453 103.6 83.222 103.251ZM112.158 130.633C112.27 131.403 113.437 131.073 113.327 130.311C113.156 129.132 112.948 127.969 112.629 126.821C112.419 126.069 111.251 126.391 111.461 127.143C111.78 128.291 111.988 129.454 112.158 130.633ZM116.405 144.513C117.185 144.497 117.185 143.285 116.405 143.301C115.7 143.316 115.006 143.502 114.326 143.672C113.569 143.861 113.891 145.03 114.648 144.841C115.223 144.697 115.809 144.526 116.405 144.513ZM117.973 172.474C118.241 172.605 118.516 172.722 118.786 172.846C119.329 173.094 119.87 173.342 120.412 173.591C121.541 174.109 122.669 174.629 123.796 175.151C126.052 176.196 128.325 177.204 130.587 178.237C132.893 179.291 135.193 180.359 137.49 181.432C138.572 181.937 139.663 182.424 140.751 182.917C141.681 183.338 142.832 184.073 143.853 184.142C143.906 184.146 143.923 184.079 143.893 184.045C143.507 183.606 142.892 183.351 142.385 183.066C141.866 182.774 141.339 182.5 140.813 182.221C139.718 181.641 138.621 181.065 137.515 180.505C135.303 179.385 133.087 178.273 130.87 177.163C128.609 176.03 126.351 174.89 124.071 173.798C122.997 173.283 121.922 172.771 120.847 172.26C120.264 171.983 119.681 171.706 119.098 171.43C118.846 171.311 118.597 171.182 118.34 171.076C117.998 170.934 117.738 170.963 117.385 170.876C116.81 170.734 116.561 171.466 117.002 171.784C117.366 172.047 117.557 172.271 117.973 172.474ZM126.059 184.899C126.184 184.597 125.923 184.23 125.636 184.154C125.292 184.063 125.017 184.272 124.891 184.577C124.559 185.385 124.086 186.127 123.477 186.753C122.933 187.312 123.789 188.169 124.334 187.61C125.097 186.825 125.645 185.907 126.059 184.899ZM132.008 165.449C132.56 164.897 131.704 164.04 131.152 164.592L129.582 166.163C129.03 166.715 129.887 167.572 130.438 167.019L132.008 165.449ZM148.114 162.889C149.242 163.22 150.559 163.524 151.328 164.488C151.366 164.535 151.429 164.474 151.406 164.427C150.421 162.384 147.596 161.668 145.64 160.952C144.257 160.446 142.837 160.026 141.406 159.651C141.549 158.017 141.154 156.266 141.017 154.641C140.871 152.905 140.752 151.165 140.69 149.424C140.628 147.648 140.613 145.86 140.671 144.084C140.729 142.314 140.959 140.566 141.06 138.802C141.069 138.631 140.832 138.623 140.781 138.764C140.186 140.401 139.932 142.214 139.739 143.94C139.54 145.718 139.473 147.491 139.499 149.28C139.525 151.118 139.632 152.953 139.779 154.786C139.848 155.655 139.929 156.522 140.005 157.39C140.063 158.053 140.09 158.71 140.225 159.352C139.362 159.14 138.497 158.939 137.634 158.744C134.884 158.123 132.122 157.547 129.383 156.876C128.038 156.546 126.713 156.152 125.374 155.801C124.114 155.471 122.784 155.071 121.49 154.924C121.028 154.871 120.969 155.503 121.275 155.717C122.327 156.456 123.723 156.97 124.938 157.384C126.157 157.799 127.425 158.097 128.674 158.405C131.28 159.046 133.911 159.57 136.537 160.116C139.16 160.662 141.788 161.203 144.382 161.876C145.631 162.2 146.876 162.525 148.114 162.889ZM154.298 130.471C154.973 130.867 155.581 129.82 154.909 129.425C154.03 128.909 153.093 128.521 152.148 128.142C151.424 127.852 151.112 129.025 151.826 129.311C152.675 129.651 153.508 130.007 154.298 130.471ZM156.74 175.49C157.416 175.882 158.026 174.834 157.351 174.444C156.404 173.894 155.367 173.528 154.386 173.048C153.688 172.706 153.075 173.751 153.775 174.094C154.756 174.574 155.793 174.941 156.74 175.49ZM157.838 149.935C157.185 150.556 156.312 150.849 155.489 151.175C154.772 151.46 155.087 152.631 155.811 152.344C156.836 151.937 157.88 151.566 158.695 150.792C159.261 150.254 158.403 149.398 157.838 149.935ZM150.605 115.23C149.887 115.512 150.201 116.684 150.927 116.399C151.733 116.083 152.564 115.842 153.369 115.526C154.088 115.244 153.773 114.073 153.047 114.358C152.242 114.674 151.411 114.914 150.605 115.23ZM137.846 101.445C137.082 101.317 136.757 102.484 137.524 102.614C138.475 102.775 139.412 102.963 140.315 103.312C141.043 103.594 141.356 102.422 140.637 102.143C139.734 101.794 138.797 101.606 137.846 101.445ZM133.63 135.008C134.33 134.664 133.716 133.619 133.019 133.962C132.284 134.323 131.523 134.602 130.721 134.773C129.958 134.936 130.283 136.104 131.043 135.942C131.945 135.749 132.804 135.414 133.63 135.008ZM129.648 116.103C128.894 115.896 128.575 117.065 129.326 117.271C130.647 117.633 132.007 117.821 133.338 118.144C134.096 118.327 134.417 117.158 133.66 116.975C132.329 116.653 130.969 116.465 129.648 116.103ZM112.756 110.17C111.989 110.312 112.316 111.479 113.078 111.338C113.889 111.188 114.711 111.186 115.533 111.185C116.314 111.185 116.313 109.973 115.533 109.974C114.599 109.974 113.677 109.999 112.756 110.17ZM57.6644 116.5C59.6433 116.311 61.6253 116.16 63.6103 116.046C63.7028 116.041 63.7935 116.035 63.886 116.031C63.8964 116.01 63.91 115.99 63.9238 115.969C64.5717 115.017 65.0486 114.066 65.462 112.991C65.8571 111.967 66.2402 110.911 66.8489 109.987C67.5431 108.935 68.4803 108.111 69.5075 107.397C70.1305 107.816 70.7087 108.307 71.2377 108.827C71.7945 109.374 72.6512 108.518 72.0943 107.97C71.6241 107.508 71.1224 107.081 70.592 106.695C71.2044 106.323 71.8293 105.973 72.4389 105.625C74.7238 104.321 77.0629 103.115 79.4506 102.013C80.5604 101.499 81.6839 101.043 82.8149 100.581C83.4237 100.333 84.0246 100.013 84.6333 99.7254C84.5894 99.2951 84.7181 98.8134 85.0482 98.5302C85.2919 98.3227 85.4812 98.2454 85.7719 98.0987C85.837 98.0758 85.8764 98.0622 85.8945 98.0546C85.8809 98.0576 85.8416 98.0697 85.7766 98.0909C85.622 98.1623 85.6099 98.1409 85.7401 98.0288C85.7477 97.7836 86.2308 97.2656 86.3412 97.0126C86.7258 96.1446 86.8454 95.2267 87.4132 94.436C88.1959 93.347 89.5102 92.9351 90.7352 93.3045C90.8623 91.9944 90.8956 90.6268 91.3892 89.4573C91.4028 89.4256 91.4467 89.4118 91.4664 89.4467C91.9812 90.3238 92.0251 91.3006 92.0644 92.3124C92.1023 93.2621 92.0661 94.233 91.9418 95.1767C92.0205 95.2373 92.1008 95.295 92.184 95.3509C92.5747 95.6084 92.9956 95.8068 93.4377 95.9539C94.2795 96.2324 95.1623 96.3536 96.045 96.396C98.3237 96.5051 100.672 96.2748 102.913 95.884C105.179 95.4887 108.654 94.895 110.671 93.7605C112.002 93.0124 113.23 92.0989 114.475 91.2143C114.023 89.7602 113.908 88.1971 114.362 86.9687C114.417 86.8217 114.647 86.7945 114.691 86.9687C114.976 88.141 115.059 89.3194 115.437 90.4782C115.443 90.4948 115.449 90.5132 115.456 90.5297C115.574 90.4495 115.692 90.3706 115.81 90.2919C116.082 90.1116 116.453 90.2466 116.617 90.5039C119.232 94.6253 123.373 94.8616 127.721 95.5979C132.48 96.4036 137.263 97.273 141.838 98.8498C146.214 100.359 150.396 102.555 153.709 105.836C154.459 106.578 155.16 107.37 155.822 108.196C155.182 108.277 154.546 108.403 153.919 108.6C153.177 108.833 153.496 110.002 154.242 109.768C155.047 109.515 155.862 109.39 156.685 109.327C158.936 112.408 160.691 115.901 162.209 119.339C165.12 125.931 167.015 132.951 167.887 140.098C167.408 139.811 166.921 139.538 166.421 139.284C165.727 138.931 165.115 139.976 165.81 140.33C166.581 140.723 167.331 141.155 168.057 141.625C168.374 144.753 168.497 147.902 168.423 151.046C168.246 158.54 167.234 166.254 164.946 173.405C163.824 176.915 162.338 180.396 160.123 183.361C159.12 184.705 157.982 185.916 156.64 186.927C155.991 187.417 155.303 187.855 154.578 188.225C153.644 188.703 152.426 188.861 151.621 189.538C151.356 189.761 151.152 190.055 150.997 190.386C151.086 191.016 151.097 191.648 150.924 192.278C150.87 192.475 150.722 192.636 150.538 192.713C150.535 192.767 150.535 192.82 150.535 192.872C150.535 192.896 150.499 192.902 150.494 192.878C150.487 192.831 150.479 192.784 150.472 192.736C150.413 192.755 150.351 192.764 150.287 192.764C147.987 192.773 145.684 192.717 143.381 192.639C143.56 192.093 143.752 191.552 143.938 191.006C144.189 190.265 143.019 189.95 142.77 190.684C142.553 191.322 142.326 191.955 142.125 192.595C139.657 192.503 137.191 192.393 134.728 192.312C129.491 192.137 124.255 192.08 119.017 191.969C110.881 191.797 102.687 191.444 94.5391 191.789C94.2573 191.191 93.9419 190.606 93.6429 190.016C93.2901 189.32 92.2454 189.934 92.5969 190.628C92.8048 191.038 93.0201 191.443 93.2247 191.852C91.5745 191.938 89.9259 192.051 88.2809 192.206C85.4738 192.469 82.6938 192.937 79.8897 193.228C77.0388 193.525 74.2497 193.472 71.4214 193.001C70.9127 192.916 70.6129 192.608 70.4887 192.227C70.4843 192.225 70.4812 192.222 70.4783 192.218C70.3329 192.048 70.1965 191.907 70.0559 191.784C69.8876 191.675 69.706 191.583 69.4925 191.501C69.0943 191.35 68.6794 191.257 68.2585 191.195C67.7952 191.126 67.3258 191.119 66.8625 191.062C66.472 191.012 66.0903 190.938 65.7089 190.847C65.0229 190.683 64.3718 190.47 63.7238 190.186C63.1591 189.94 62.649 189.585 62.1673 189.199C61.1711 188.47 60.3082 187.54 59.554 186.574C59.1149 186.009 58.7016 185.423 58.3261 184.812C57.672 183.755 57.1148 182.657 56.5516 181.55C56.3472 181.222 56.1607 180.886 55.9902 180.543C57.0909 180.218 58.2022 179.954 59.3691 179.935C60.1492 179.922 60.149 178.711 59.3691 178.723C58.0308 178.744 56.7649 179.057 55.5072 179.43C55.4459 179.267 55.3871 179.103 55.3327 178.937C55.1829 178.59 55.0587 178.234 54.9557 177.874C54.8953 177.71 54.8346 177.546 54.774 177.383C54.6378 176.816 54.5015 176.248 54.3637 175.68C54.0897 174.771 53.8733 173.849 53.7142 172.914C53.5809 172.3 53.478 171.68 53.4083 171.053C53.1964 169.534 53.0238 168.018 53.0117 166.482C53.0298 165.535 53.0904 164.59 53.1933 163.649C53.2373 163.01 53.3114 162.374 53.4114 161.742C53.5416 160.803 53.6703 159.873 53.8868 158.946C54.0488 158.319 54.2108 157.692 54.3728 157.065C54.7771 155.758 55.254 154.476 55.8038 153.224C55.8339 153.145 55.987 152.972 56.0792 152.971C56.1488 152.969 56.2459 153.033 56.2141 153.118C56.2109 153.125 56.208 153.134 56.2049 153.142C56.2367 153.071 56.2669 152.998 56.2987 152.927C56.326 152.86 56.432 152.727 56.5137 152.729C56.5183 152.729 56.523 152.729 56.5289 152.73C56.5077 152.715 56.488 152.695 56.4683 152.672C55.9248 152.029 55.572 151.182 55.1829 150.437C54.8604 149.822 54.556 149.173 54.4682 148.478C54.3911 147.868 54.4955 147.266 54.8785 146.773C55.3146 146.211 56.1352 145.947 55.6795 145.135C55.1617 144.211 54.4001 143.41 55.1586 142.36C55.5447 141.826 56.1564 141.532 56.6106 141.067C57.133 140.529 57.3815 139.81 57.3677 139.075C57.3359 139.093 57.2935 139.084 57.2783 139.039C56.8393 137.712 57.1572 136.255 57.6069 134.963C57.8522 134.262 58.3717 134.069 58.9756 134.034C56.3594 128.922 53.9112 123.728 51.7292 118.415C51.6565 118.241 51.5854 118.067 51.5144 117.892C51.4082 117.632 51.6323 117.285 51.8912 117.227C53.7778 116.814 55.7431 116.682 57.6644 116.5Z" fill="black"/>
<path fill-rule="evenodd" clip-rule="evenodd" d="M100.828 22.168C92.2312 22.168 81.4637 31.9787 78.3124 36.1535C75.6629 39.6635 76.0377 57.7459 76.0377 68.4724C76.0377 70.7158 77.0514 74.9616 77.4194 77.1075C78.7678 84.9709 84.6429 91.5657 96.2708 91.5657C105.739 91.5657 113.025 88.5656 120.071 80.8924C121.678 79.1419 129.528 85.4088 131.134 83.1519C135.327 83.1519 138.834 43.9554 130.601 32.1988C122.367 20.4421 109.425 22.168 100.828 22.168Z" fill="white"/>
<path fill-rule="evenodd" clip-rule="evenodd" d="M126.668 24.9289C121.7 20.4076 115.082 18.2325 108.405 18.393C104.947 18.4764 101.501 19.1352 98.2347 20.2637C96.601 20.8302 95.0188 21.5693 93.5062 22.4054C92.9612 22.706 92.4587 23.0583 91.9749 23.4323L91.8544 23.5263H91.8528C90.5553 23.9928 89.397 24.8304 88.3462 25.8104C86.2401 25.6423 84.1174 25.8316 82.0809 26.4814C79.2466 27.3872 76.6227 29.0458 74.78 31.4011C72.6337 34.1431 71.9201 37.4692 72.1747 40.9027L72.2217 41.486C72.4735 44.5191 72.9245 48.4204 75.4129 50.4133C75.6022 50.5648 75.8111 50.6799 76.0276 50.7496C74.4242 53.4972 73.1085 56.5478 72.3212 59.6286C69.3157 71.3961 71.6262 83.6681 75.2403 95.01C75.5371 95.9445 76.9497 96.5655 77.6689 95.6522C78.9528 94.0194 80.8182 92.7743 82.9167 92.541C84.2113 92.3971 85.4997 92.6577 86.7231 92.07C87.2031 91.8382 87.6664 91.4596 87.9995 90.9991C90.0647 91.7822 92.2889 92.1518 94.4949 92.0609C98.1151 91.9124 101.985 90.6583 104.476 87.9076C104.875 87.4661 104.977 86.9704 104.885 86.5235C104.572 86.4121 104.252 86.329 103.921 86.2771C100.763 88.1392 97.2814 89.3835 93.5398 89.4617C91.3779 89.5068 89.2691 89.2044 87.516 87.8539C87.1368 87.5615 86.7879 87.2378 86.4654 86.8901C82.8003 84.5314 80.2162 80.5253 78.9877 76.234C77.843 72.2322 77.9838 68.0654 78.3775 63.9606L78.5852 61.7945C78.8879 58.6153 79.1688 55.4267 79.2475 52.234L79.2237 52.2327V52.2327C78.4497 52.1828 78.4441 50.9706 79.2237 51.021C81.2403 51.1516 83.2416 50.8206 85.252 50.9648C85.2688 50.0141 85.3373 49.0675 85.6166 48.1505C85.7761 47.6266 86.688 47.5233 86.7846 48.1505C86.9139 48.9897 86.9611 49.8241 86.9752 50.667C89.9839 50.627 92.9896 50.3738 95.9987 50.4778C96.5538 49.8856 96.7305 48.8355 96.9901 48.105C97.028 47.9974 97.0658 47.8914 97.1052 47.7838C97.3334 48.8278 97.6568 49.8488 98.0822 50.8483L98.8202 50.8508C103.007 50.8705 107.28 50.9957 111.368 51.8656C111.653 51.6473 111.822 51.2665 111.868 50.9207C112.164 48.6706 112.587 46.4802 113.338 44.3359L113.445 44.0333C113.454 44.0082 113.463 43.9816 113.473 43.9535C114.025 44.8461 114.685 45.6781 115.404 46.4529C115.828 46.9096 116.273 47.3463 116.729 47.7705C117.172 48.2628 117.63 48.7476 118.074 49.2414C118.057 49.3312 118.042 49.4224 118.029 49.5153C117.893 50.5399 117.879 51.5792 117.979 52.6078C118.159 54.4674 118.683 56.2592 119.527 57.9169L119.553 58.0829C119.681 58.8597 119.863 59.6625 120.289 60.2475C119.758 60.8425 119.349 61.5532 119.112 62.3428C118.901 63.0457 119.873 63.6549 120.377 63.0797C120.778 62.6227 121.223 62.2445 121.711 61.9427C121.742 61.9847 121.798 62.0053 121.86 61.9703C123.222 61.2145 125.534 61.4432 126.893 62.1551C128.585 63.0397 129.245 64.8558 129.057 66.6961C128.877 68.4546 128.108 70.5101 126.616 71.4113C125.932 71.8248 125.399 71.8596 124.672 71.6612C124.44 71.5981 124.152 71.4044 124.028 71.3082L123.906 71.2107C123.43 70.8339 122.986 70.576 122.424 70.5661C121.848 70.3866 121.27 70.6356 121.05 71.239L121.037 71.278C120.934 71.5855 120.746 71.9717 120.787 72.4413C120.829 72.9441 121.06 73.4016 121.403 73.7696C121.462 73.8333 121.526 73.8969 121.591 73.9559C115.671 80.3676 114.911 90.3584 117.947 98.368C118.078 98.7194 118.219 99.0663 118.366 99.4101C118.873 100.589 120.826 100.223 121.075 99.0557C121.149 98.7058 121.231 98.3574 121.32 98.0121C121.484 97.3739 121.672 96.7417 121.884 96.1186L121.965 95.8854C122.145 95.3705 122.313 94.8509 122.495 94.3359L122.513 94.277C122.52 94.2538 122.527 94.2269 122.536 94.1966L122.843 94.8676V94.8676L123.777 96.8927C124.214 97.8377 125.603 97.3241 125.655 96.4135L125.656 96.3823C125.661 96.2141 125.667 96.0475 125.677 95.8824C125.744 94.6449 125.958 93.4423 126.297 92.2654L126.419 92.4175C128.241 94.671 130.38 96.7832 133.313 97.3032C134.049 97.4334 134.882 96.664 134.376 95.9203C134.167 95.6128 133.966 95.2978 133.775 94.9782C133.94 94.9009 134.096 94.8206 134.24 94.7388C135.352 94.1133 136.279 93.2226 137.045 92.2124C138.67 90.0706 139.251 87.3745 139.394 84.7359C139.545 81.9474 139.3 79.0074 138.538 76.3173C138.208 75.1541 137.761 74.0377 137.245 72.9547C137.281 72.8578 137.316 72.7609 137.351 72.6639C137.908 71.1099 138.366 69.521 138.746 67.9139C139.512 64.6695 139.924 61.322 139.973 57.9882C140.064 52.0159 139.035 45.9481 136.865 40.3786C134.624 34.6349 131.254 29.1018 126.668 24.9289ZM129.458 77.1458C129.87 76.4977 130.899 77.0818 130.517 77.7344L130.503 77.7578C129.85 78.7862 129.544 79.9556 129.169 81.1022C128.928 81.8398 127.758 81.5248 128.002 80.7796L128.082 80.5307C128.456 79.368 128.797 78.1863 129.458 77.1458ZM125.874 64.774L125.601 64.6416C124.739 64.23 123.983 63.9495 122.964 64.309C121.6 64.7891 120.139 66.3174 121.061 67.8003C121.4 68.3471 122.003 68.5652 122.624 68.4364C123.67 68.2193 123.94 67.2765 124.471 66.5026L124.563 66.3716C124.886 65.9033 125.296 65.2559 125.835 65.0723C125.958 65.0299 126.009 64.8391 125.874 64.774ZM125.105 33.2901L125.017 33.2111C124.431 32.6931 125.291 31.8388 125.874 32.3538C128.542 34.7122 129.469 38.4034 130.853 41.5494C131.163 42.2568 130.12 42.8748 129.806 42.1614C128.486 39.1593 127.61 35.5683 125.105 33.2901V33.2901ZM93.0459 32.2584C93.743 31.9441 94.3529 32.959 93.6827 33.2931L93.6576 33.305C91.3017 34.3699 90.2994 36.7812 89.3395 39.0199C89.0336 39.7348 87.9904 39.1184 88.2932 38.4095L88.4665 38.0078C89.4681 35.7007 90.6363 33.3492 93.0459 32.2584ZM89.3531 30.8013C90.092 30.5453 90.4084 31.7146 89.6756 31.9706C87.6785 32.6658 86.3083 34.1654 85.153 35.88C84.72 36.5222 83.6707 35.9163 84.1083 35.2681C85.4498 33.2778 87.0426 31.6071 89.3531 30.8013Z" fill="black"/>
<path fill-rule="evenodd" clip-rule="evenodd" d="M89.7047 80.8135C90.82 81.1367 92.0173 81.1656 93.1542 80.8318C94.1854 80.529 95.2442 79.8628 96.0032 78.9812C96.6774 78.198 97.114 77.2463 97.0969 76.2304C97.0949 76.1143 97.0535 76.0175 96.9897 75.9423C96.921 75.8614 96.8251 75.8058 96.7223 75.7817C96.6166 75.7569 96.5049 75.7657 96.4098 75.8089C96.3237 75.8481 96.2499 75.9145 96.2038 76.0117C96.0871 76.165 95.9709 76.316 95.8543 76.4628C94.9165 77.6213 94.0083 78.487 92.5981 78.7975C91.8329 78.9661 91.0688 78.8913 90.3676 78.6342C89.6171 78.359 88.9386 77.8751 88.4069 77.2559C88.1666 76.976 87.883 76.8618 87.6056 76.8599C87.2913 76.8577 86.9806 77.0038 86.7465 77.2374C86.5164 77.4669 86.3624 77.7789 86.3484 78.1052C86.3362 78.3916 86.4296 78.6908 86.678 78.9577C87.4964 79.8369 88.5571 80.481 89.7047 80.8135ZM89.7391 66.3041C88.5958 66.9994 86.8537 68.6205 88.0837 70.3441C89.5314 71.8639 91.6159 70.1214 92.6432 69.3333C93.5956 68.7226 94.6658 70.2934 93.7821 71.0065C86.3595 76.5041 83.3472 66.4859 89.1608 65.4867C89.8009 65.3766 90.0387 66.089 89.7391 66.3041ZM100.435 63.2449C100.802 63.0098 101.234 62.9291 101.713 63.1472C102.088 63.3175 102.744 63.8853 103.201 64.6317C103.514 65.1423 103.736 65.7413 103.689 66.3653C103.679 66.5102 103.732 66.6171 103.817 66.6961C103.883 66.7584 103.98 66.8043 104.093 66.8186C104.189 66.8308 104.296 66.8198 104.384 66.7925C104.55 66.7406 104.638 66.6327 104.671 66.5446C104.991 65.6946 104.853 64.746 104.495 63.8902C104.011 62.7352 103.132 61.7678 102.556 61.4558C101.571 60.9219 100.408 60.8973 99.4217 61.4413C98.5818 61.9042 98.0566 62.6517 97.5343 63.4136C97.4232 63.5755 97.313 63.7363 97.1991 63.8942C96.9708 64.2107 96.9481 64.5246 97.0365 64.7938C97.1344 65.0919 97.3842 65.3436 97.6964 65.4753C97.985 65.597 98.32 65.6141 98.6164 65.4891C98.8668 65.3834 99.0966 65.1775 99.242 64.828C99.4868 64.2395 99.8948 63.5902 100.435 63.2449V63.2449ZM81.771 64.5542C82.0227 64.6854 82.2196 64.725 82.4988 64.6413C82.6532 64.5949 82.8057 64.506 82.9252 64.3865C83.0436 64.2681 83.129 64.1208 83.1622 63.9574C83.2439 63.5541 83.4644 63.1766 83.7787 62.9306C84.0474 62.7202 84.3864 62.6088 84.7625 62.6717C85.1684 62.7394 85.555 62.9998 85.8213 63.3068C85.9103 63.4095 85.9801 63.5262 86.0503 63.6421C86.1815 63.8588 86.309 64.0602 86.49 64.2194C86.5586 64.2799 86.6619 64.3218 86.762 64.3218C86.8027 64.3218 86.844 64.3152 86.8834 64.3029C87.2873 63.8974 87.365 63.5897 87.352 63.2845C87.3383 62.9645 87.2122 62.6405 87.0084 62.3382C86.5303 61.629 85.6226 61.0475 85.01 60.9158C84.1711 60.7355 83.338 60.952 82.6701 61.4207C81.9828 61.903 81.4735 62.6518 81.3148 63.4956C81.2766 63.6988 81.2928 63.9182 81.3702 64.1084C81.4458 64.2943 81.5775 64.4534 81.771 64.5542ZM98.5844 55.684C99.0878 56.1747 99.6837 56.2507 100.286 56.3183C100.621 56.3562 100.889 56.3868 101.152 56.4462C101.875 56.6095 102.59 56.8555 103.242 57.2097C103.924 57.58 104.667 58.0266 105.201 58.5987C105.328 58.7348 105.448 58.8777 105.568 59.0208C105.678 59.1514 105.783 59.2771 105.894 59.3983C106.022 59.5374 106.143 59.6833 106.263 59.8288C106.338 59.9516 106.352 59.9818 106.367 60.0132C106.39 60.0605 106.416 60.1133 106.446 60.17C106.487 60.2477 106.535 60.3327 106.586 60.4098C106.67 60.5507 106.715 60.5895 106.753 60.6069C106.818 60.6356 106.879 60.6498 106.939 60.6421C106.994 60.6349 107.047 60.6082 107.098 60.5644C107.357 60.3459 107.433 59.9874 107.425 59.6068C107.413 59.0293 107.2 58.3899 107.004 57.9969C106.548 57.0836 105.915 56.1341 105.154 55.4525C104.285 54.6744 103.335 54.0853 102.244 53.6794C101.566 53.4271 100.78 53.1955 100.041 53.2248C99.5095 53.2458 99.0018 53.404 98.5825 53.7989C98.325 54.0414 98.2015 54.3863 98.2015 54.7309C98.2015 55.0824 98.3298 55.4359 98.5844 55.684ZM80.7472 60.1773C80.7792 60.2298 80.8235 60.266 80.8728 60.2877C80.9245 60.3105 80.9822 60.317 81.0376 60.3077C81.0927 60.2984 81.1451 60.2734 81.1867 60.2352C81.2265 60.1986 81.2568 60.15 81.2704 60.0905C81.6046 58.622 82.2536 57.5293 83.6389 56.8247C84.3203 56.4781 85.1038 56.2579 85.8456 56.0823C86.0611 56.0313 86.2889 55.9982 86.5183 55.9647C87.2371 55.8597 87.9612 55.7395 88.4298 55.1582C88.7122 54.808 88.8307 54.3602 88.7637 53.9507C88.7006 53.5651 88.4754 53.2115 88.0659 52.9996C87.0466 52.4724 85.7798 52.9897 84.7504 53.4305C84.6741 53.4632 84.5991 53.4952 84.5258 53.5262C83.5191 53.9513 82.601 54.5124 81.8463 55.3148C81.2475 55.9514 80.6926 56.8925 80.4692 57.8607C80.2833 58.6661 80.327 59.4884 80.7472 60.1773Z" fill="black"/>
<path fill-rule="evenodd" clip-rule="evenodd" d="M76.9795 64.0421C77.4077 65.2078 78.0594 66.4213 78.8563 67.4024C82.0803 70.1337 85.2131 68.6214 86.8038 64.9197C87.4083 62.3037 85.8035 59.4858 84.103 57.5614C81.6472 55.099 77.6392 56.3913 76.51 59.3186C76.4414 59.6978 76.4 60.0762 76.3801 60.4534C76.4036 61.6789 76.5512 62.7263 76.9795 63.8906M107.97 61.6912C103.723 56.6371 95.7766 56.3669 95.9794 64.1455C96.8917 73.9915 112.255 71.5749 107.97 61.6912ZM75.6437 57.4751C75.7925 57.2229 75.9577 56.9788 76.1381 56.7454C76.2047 56.7057 76.243 56.3537 76.488 56.3277C79.7625 52.7138 85.5149 54.7642 87.5935 58.3652C87.973 58.8205 88.2827 59.3536 88.511 59.9167C90.5589 59.5409 92.9465 59.6139 94.8512 60.3878C96.7399 55.4542 102.458 55.0137 106.226 57.1217C108.57 58.2748 110.089 60.6897 112.369 62.0162C117.727 62.402 123.477 61.201 128.739 62.5456C132.888 63.4087 129.42 65.5106 128.724 64.1078C123.763 62.6416 117.886 63.8806 112.736 63.5503C112.2 64.4565 111.173 65.1981 110.15 65.1664C109.044 74.9696 94.7537 73.344 94.2607 64.6296C93.7016 63.7452 93.0062 62.8988 92.0108 62.3478C91.6297 62.2689 91.2616 62.1663 90.9252 62.0076C90.3502 61.9264 89.4641 62.1703 88.9351 62.6492C87.1229 73.527 76.6825 72.2601 74.8167 62.7307C74.7796 62.6928 74.6759 62.5507 74.5963 62.3228C73.9576 61.478 72.3942 61.1641 72.644 59.738C72.8664 58.3116 74.667 58.3286 75.6437 57.4751Z" fill="black"/>
</g>
<defs>
<clipPath id="clip0">
<rect width="184" height="184" fill="white"/>
</clipPath>
</defs>
</svg>
